<?xml version="1.0" encoding="UTF-8"?>
<svg version="1.1" xmlns="http://www.w3.org/2000/svg" width="512" height="512">
<path d="M0 0 C168.96 0 337.92 0 512 0 C512 168.96 512 337.92 512 512 C343.04 512 174.08 512 0 512 C0 343.04 0 174.08 0 0 Z " fill="#070505" transform="translate(0,0)"/>
<path d="M0 0 C0.76054687 -0.01933594 1.52109375 -0.03867188 2.3046875 -0.05859375 C13.31131711 1.87747545 20.02716955 9.62151908 27.55078125 17.234375 C28.82790726 18.51067104 30.10585036 19.78614993 31.38456726 21.06085205 C34.05260053 23.72603732 36.71170097 26.39973315 39.36450195 29.08007812 C42.75296216 32.50263566 46.16111859 35.9047434 49.57600117 39.30091476 C52.21469238 41.92900168 54.8434933 44.56680572 57.46938133 47.20767975 C58.72201737 48.46547166 59.97745253 49.72048274 61.2358036 50.97255707 C62.99702901 52.72828819 64.74470424 54.49651616 66.48950195 56.26855469 C67.00332428 56.77585114 67.51714661 57.28314758 68.04653931 57.80581665 C72.71580595 62.59873002 76.30017028 68.03571396 76.5625 74.875 C75.68183384 86.62580891 69.68832915 92.72930148 61.64323425 100.66098022 C60.43095255 101.8780299 59.21998609 103.09639085 58.0102213 104.31594241 C54.68990741 107.65546113 51.35119529 110.97603284 48.00911844 114.29375243 C44.40514615 117.87796512 40.81852395 121.47946749 37.22969055 125.0788269 C30.19996217 132.12367132 23.15433067 139.15240096 16.10317489 146.17579167 C7.89374365 154.35405744 -0.29996984 162.5479953 -8.49310096 170.74258526 C-23.11044012 185.36142597 -37.74221933 199.96572813 -52.38208008 214.56201172 C-66.59121411 228.7288725 -80.78978745 242.9062073 -94.97680664 257.09521484 C-95.85080275 257.96933082 -96.72479886 258.8434468 -97.6252797 259.74405114 C-98.49775771 260.61665022 -99.37023572 261.48924929 -100.26915246 262.38829076 C-116.4174563 278.53866363 -132.5756089 294.6791509 -148.73837296 310.81505161 C-154.45608048 316.52370708 -160.17085209 322.23529171 -165.88471413 327.94779587 C-172.84583051 334.90686671 -179.81258416 341.86023818 -186.78644995 348.80653326 C-190.34529417 352.35151882 -193.90173434 355.89882894 -197.45177078 359.45263672 C-200.70042821 362.70457793 -203.95591239 365.94951652 -207.21703526 369.18895562 C-208.39663118 370.36310968 -209.57370883 371.53980016 -210.74801872 372.71924095 C-212.34307721 374.32049641 -213.94704558 375.91226596 -215.55358601 377.50198936 C-216.88738252 378.83261597 -216.88738252 378.83261597 -218.24812442 380.19012392 C-224.35090455 385.41124753 -229.58759764 386.02832062 -237.390625 385.85546875 C-245.13736611 384.9262072 -249.58778392 380.85250378 -254.875 375.4375 C-255.75800781 374.57769531 -256.64101563 373.71789062 -257.55078125 372.83203125 C-258.42089844 371.97996094 -259.29101562 371.12789063 -260.1875 370.25 C-261.07050781 369.39019531 -261.95351563 368.53039062 -262.86328125 367.64453125 C-264.875 365.4375 -264.875 365.4375 -264.875 363.4375 C-265.46511871 363.17204376 -266.05523743 362.90658752 -266.66323853 362.63308716 C-268.93926276 361.4027622 -270.43678162 360.12931104 -272.26318359 358.30810547 C-272.90420013 357.67339325 -273.54521667 357.03868103 -274.20565796 356.38473511 C-274.88802521 355.6983194 -275.57039246 355.01190369 -276.2734375 354.3046875 C-276.98601715 353.5940213 -277.6985968 352.8833551 -278.43276978 352.15115356 C-279.93973746 350.64554621 -281.44418505 349.13741287 -282.94628906 347.62695312 C-285.22765969 345.33494448 -287.51940316 343.05370721 -289.8125 340.7734375 C-291.27928692 339.30532773 -292.74545264 337.83659701 -294.2109375 336.3671875 C-295.22841568 335.35578201 -295.22841568 335.35578201 -296.26644897 334.32394409 C-303.4479429 327.0725089 -308.95323072 321.30813793 -309.25 310.75 C-309.29898438 309.57050781 -309.34796875 308.39101563 -309.3984375 307.17578125 C-308.0000867 297.18905206 -299.0580323 290.19452905 -292.23538208 283.41020203 C-291.03098084 282.20162454 -289.82723201 280.99239661 -288.62407768 279.78257781 C-285.32635456 276.47042018 -282.01936742 273.16765149 -278.71073222 269.86639917 C-275.14017817 266.30057924 -271.5782618 262.72614856 -268.01519775 259.15284729 C-261.03824239 252.1587049 -254.05313668 245.17275782 -247.06496324 238.18982568 C-241.38617318 232.51507782 -235.71013318 226.83759317 -230.03603745 221.15815163 C-229.22833047 220.34969623 -228.4206235 219.54124084 -227.58844056 218.7082868 C-225.94760092 217.06591568 -224.30676472 215.42354114 -222.66593193 213.78116319 C-207.28279527 198.38430247 -191.89009098 182.99703482 -176.49435626 167.61277274 C-162.40583789 153.53419221 -148.3287992 139.44419765 -134.25721289 125.34869518 C-119.80839699 110.87550702 -105.35222604 96.4097045 -90.8878907 81.95202571 C-82.76729227 73.83492295 -74.64959631 65.71496823 -66.53949356 57.58737755 C-59.63746356 50.67064927 -52.72847243 43.76096825 -45.81036462 36.86031952 C-42.28043122 33.33891692 -38.75380141 29.81436475 -35.23576736 26.28107071 C-32.01578242 23.04729163 -28.78672252 19.82287423 -25.55015348 16.60569606 C-24.38047835 15.43979734 -23.21417275 14.27050642 -22.05159725 13.09752818 C-20.47100544 11.50380216 -18.87858556 9.92289904 -17.28264046 8.34456921 C-16.40098217 7.46301826 -15.51932389 6.58146731 -14.61094868 5.67320269 C-10.30637757 2.15568743 -5.65899315 0.00952692 0 0 Z " fill="#FEE7C1" transform="translate(420.875,14.5625)"/>
<path d="M0 0 C104.94 0 209.88 0 318 0 C315.78845922 2.21154078 314.48791499 2.59360256 311.5625 3.5625 C300.94944005 7.70108033 292.83803323 16.86817165 284.94551086 24.8139801 C283.98773854 25.77087763 283.02952573 26.72733444 282.07091779 27.68339485 C279.4689217 30.28096723 276.87312167 32.8846516 274.27839053 35.48947823 C271.4676233 38.30895038 268.65100787 41.12257029 265.83512878 43.93693542 C260.96744777 48.80357201 256.10341756 53.6738324 251.24190712 58.54663277 C244.21313181 65.59172035 237.17878512 72.63122361 230.14310303 79.66941284 C218.72600302 91.090881 207.31336868 102.51680048 195.90356445 113.94555664 C184.82551605 125.04198668 173.74535144 136.1362966 162.66235352 147.2277832 C161.97823449 147.91242767 161.29411547 148.59707215 160.58926556 149.30246342 C157.15694065 152.73739857 153.72457429 156.1722923 150.29218733 159.60716546 C121.8550312 188.06502666 93.42513127 216.53012805 65 245 C60.49429268 241.22123246 56.17774382 237.3286813 52.01531982 233.1759491 C51.45609243 232.62180952 50.89686503 232.06766994 50.32069135 231.49673826 C48.46764801 229.659256 46.61807267 227.81832507 44.76855469 225.97729492 C43.43267049 224.65096172 42.09661655 223.32479947 40.76040649 221.99879456 C36.39366272 217.66326726 32.03232055 213.32232925 27.671875 208.98046875 C26.5568641 207.87040384 26.5568641 207.87040384 25.41932774 206.73791337 C18.40455719 199.75389549 11.39181647 192.76784547 4.38392258 185.77692699 C-4.56326343 176.85167449 -13.52036862 167.9366404 -22.49124455 159.03519744 C-28.80930528 152.76437935 -35.11583077 146.48210683 -41.41394496 140.19125634 C-45.1719281 136.43822503 -48.93478637 132.69040736 -52.71012115 128.95482445 C-56.2593127 125.44252073 -59.79398468 121.91622915 -63.31813431 118.37880516 C-64.61134714 117.08564622 -65.90968182 115.79758535 -67.21353531 114.51515579 C-75.01124676 106.83874816 -80.7235836 100.77257106 -81.4375 89.4375 C-81.14140493 81.723421 -76.64933967 76.04848647 -71.34863281 70.83105469 C-70.51847153 69.99037949 -70.51847153 69.99037949 -69.67153931 69.13272095 C-67.85859164 67.30232026 -66.0315875 65.4867673 -64.203125 63.671875 C-62.92704839 62.39309985 -61.65156573 61.11373176 -60.37664795 59.83380127 C-57.7100219 57.16129732 -55.03634576 54.49611222 -52.35742188 51.8359375 C-48.9365919 48.43789543 -45.53403694 45.02220828 -42.13658524 41.600811 C-39.50831024 38.95803209 -36.87052053 36.32491545 -34.22982025 33.69455719 C-32.97188044 32.43927195 -31.71686704 31.18104658 -30.46494293 29.91976166 C-28.70915282 28.15373043 -26.94089962 26.40116052 -25.16894531 24.65136719 C-24.66164886 24.13597382 -24.15435242 23.62058044 -23.63168335 23.08956909 C-19.21883364 18.77763189 -14.22590005 15.58968065 -8.09375 14.46875 C-7.2378125 14.4790625 -6.381875 14.489375 -5.5 14.5 C-4.6440625 14.4896875 -3.788125 14.479375 -2.90625 14.46875 C7.22721538 16.32110389 13.49460361 23.9901577 20.36352539 31.00463867 C21.59379885 32.24587474 22.82501032 33.48618168 24.05708313 34.72563171 C26.69928415 37.38719258 29.33523447 40.05473821 31.9665699 42.72704124 C36.12843861 46.95272467 40.30675451 51.16188524 44.48789978 55.3684845 C54.86664155 65.81527953 65.22653359 76.28071341 75.57684326 86.75567627 C83.62946678 94.90520281 91.68836791 103.04826532 99.76859087 111.1704405 C103.92587483 115.3507646 108.06888618 119.54458701 112.20172703 123.74907148 C114.77432376 126.36004996 117.35935092 128.95844042 119.9480114 131.55348396 C121.14531478 132.75882481 122.33744188 133.96933306 123.52392578 135.18532562 C125.14522649 136.84547885 126.78410969 138.48608026 128.42860413 140.12321472 C129.34092835 141.04626498 130.25325258 141.96931524 131.193223 142.92033672 C134.55331374 145.40997424 136.85672634 145.83359735 141 146 C143.55851025 145.18547684 143.55851025 145.18547684 145 143 C145.82095516 139.90563055 145.99202545 138.93275285 145 136 C143.33780618 133.74086328 143.33780618 133.74086328 141.16394043 131.47869873 C140.34389023 130.59547691 139.52384003 129.7122551 138.67893982 128.80226898 C134.03324797 123.94270548 129.31565254 119.15917184 124.56445312 114.40332031 C123.44455062 113.27877622 122.3248409 112.1540401 121.20530701 111.02912903 C118.19336028 108.00419645 115.17820325 104.98248522 112.16199303 101.96180439 C110.27275898 100.06962072 108.38410551 98.17685937 106.49562073 96.28392792 C100.5717592 90.34643597 94.64593172 84.41091676 88.71719122 78.47829652 C81.89945266 71.65606986 75.08832072 64.82733642 68.28280878 57.99291348 C63.0003758 52.68882724 57.71215629 47.39055557 52.41955328 42.09661746 C49.26740612 38.9434261 46.1176977 35.78789043 42.97401428 32.62625885 C40.01911271 29.65481041 37.05704878 26.69068917 34.08949471 23.73187828 C33.00700039 22.65015045 31.92702826 21.5658913 30.84989738 20.47882271 C22.19509421 11.74891788 12.72985194 2.51545856 0 1 C0 0.67 0 0.34 0 0 Z " fill="#FED084" transform="translate(96,0)"/>
<path d="M0 0 C3.26147046 1.42683316 5.39109431 3.16038945 7.87548828 5.69604492 C8.99783371 6.83314156 8.99783371 6.83314156 10.14285278 7.99320984 C10.94391449 8.81400528 11.7449762 9.63480072 12.5703125 10.48046875 C14.28893397 12.21952807 16.00768827 13.95845613 17.7265625 15.69726562 C20.42128873 18.4353052 23.11349366 21.17576181 25.80273438 23.91918945 C28.40611803 26.57125466 31.01896621 29.21372047 33.6328125 31.85546875 C34.42172882 32.66614304 35.21064514 33.47681732 36.02346802 34.3120575 C45.5473577 43.91890222 56.10264857 51.91001343 70.125 52.4375 C86.15032804 51.64391347 96.56856944 42.07667369 107 31 C113.24338455 36.15016781 118.90798789 41.7998489 124.59765625 47.54760742 C125.65110666 48.60789956 126.70481459 49.66793588 127.75875854 50.72773743 C130.01624446 52.99848521 132.27228915 55.2706517 134.52731323 57.54384422 C138.09623622 61.1407493 141.67069748 64.73211599 145.24633789 68.32234192 C146.47350236 69.55464918 147.7006599 70.78696334 148.92781067 72.01928425 C149.54200174 72.63606088 150.15619282 73.25283752 150.78899574 73.88830435 C159.10390985 82.23919643 167.41400115 90.59484415 175.71386719 98.96069336 C181.32529482 104.61664184 186.94383516 110.26541948 192.57051373 115.90619737 C195.54337048 118.887115 198.51241483 121.8716218 201.47268677 124.86504173 C204.25488128 127.67834112 207.04628503 130.48216321 209.844944 133.27908134 C210.86790782 134.30473498 211.88745482 135.33381009 212.90322495 136.36658859 C219.99177164 143.6676426 219.99177164 143.6676426 229 148 C229 148.33 229 148.66 229 149 C78.52 149 -71.96 149 -227 149 C-225 147 -225 147 -222.18737411 145.66566753 C-218.81571368 143.9036951 -216.67595484 142.04063879 -214.00201416 139.34931946 C-213.53685733 138.88531477 -213.07170049 138.42131008 -212.592448 137.94324464 C-211.04692244 136.39797572 -209.51235063 134.84228213 -207.97753906 133.28637695 C-206.86727416 132.17198876 -205.75632989 131.05827707 -204.64476013 129.94519043 C-202.2586545 127.55300387 -199.87732786 125.15619495 -197.4996109 122.75567055 C-193.74263988 118.96286686 -189.97475392 115.18103396 -186.20526123 111.40068054 C-178.89143575 104.06275129 -171.58897708 96.71356876 -164.28751373 89.36334229 C-154.98009374 79.99503709 -145.66699272 70.63239725 -136.34487891 61.27871293 C-132.59564196 57.51605589 -128.85171757 53.74821295 -125.11183119 49.97626269 C-122.79089018 47.63727919 -120.46590285 45.30235015 -118.13981819 42.96848297 C-117.05846519 41.88176721 -115.97885539 40.7933138 -114.90108299 39.7030468 C-113.43527018 38.22068054 -111.96350614 36.74449397 -110.49005127 35.26972961 C-109.66638691 34.44032521 -108.84272255 33.61092081 -107.99409866 32.75638294 C-106 31 -106 31 -104 31 C-102.5546875 32.50390625 -102.5546875 32.50390625 -100.875 34.5625 C-93.48271197 43.17162557 -85.49365133 50.525478 -73.6796875 51.4453125 C-58.64391685 52.06962419 -49.11955743 48.14298951 -38 38 C-31.30601977 31.61322611 -24.8218866 25.01112596 -18.3125 18.4375 C-16.5323695 16.64732051 -14.75177437 14.85760292 -12.97070312 13.06835938 C-8.64176077 8.71755381 -4.31860157 4.36106873 0 0 Z " fill="#F6F6F6" transform="translate(255,363)"/>
<path d="M0 0 C0.33 0 0.66 0 1 0 C1 128.04 1 256.08 1 388 C-0.29691012 386.05463482 -1.57464285 384.09629329 -2.8291893 382.12334251 C-4.93568206 379.09254007 -7.12403117 376.62961016 -9.73297119 374.02651978 C-10.19374676 373.56403536 -10.65452232 373.10155095 -11.12926078 372.62505186 C-12.65992418 371.09111891 -14.19757869 369.56440064 -15.73535156 368.03759766 C-16.83980562 366.93370826 -17.94381844 365.82937726 -19.04742432 364.72463989 C-22.03436666 361.73712519 -25.02742255 358.7558048 -28.0216341 355.77557802 C-31.15356796 352.65617092 -34.27981575 349.53107577 -37.40667725 346.40658569 C-43.3240907 340.49538129 -49.2465826 334.58929244 -55.17092681 328.68503511 C-61.91728789 321.96105091 -68.65795146 315.23136739 -75.39814806 308.50120473 C-89.25911233 294.66112943 -103.12719784 280.82820873 -117 267 C-116.05111486 265.88585548 -115.1012088 264.77258041 -114.15087891 263.65966797 C-113.35757675 262.72959427 -113.35757675 262.72959427 -112.54824829 261.7807312 C-110.56035768 259.49434158 -108.46479424 257.31817629 -106.375 255.125 C-97.88653482 245.7505334 -96.32324683 235.91885193 -96.61328125 223.61328125 C-97.15552172 214.26201132 -101.91514829 207.87715455 -108.15625 201.2265625 C-108.66992126 200.67486893 -109.18359253 200.12317535 -109.71282959 199.55476379 C-117.03852129 191.75046507 -124.66040923 184.23335862 -132.25 176.6875 C-133.78539241 175.15713794 -135.32055013 173.62654038 -136.85546875 172.09570312 C-140.56761937 168.39442424 -144.28262554 164.69603193 -148 161 C-146.41675855 157.11259749 -143.7692205 154.49716033 -140.83332825 151.59954834 C-140.301613 151.06682981 -139.76989775 150.53411128 -139.22206992 149.98524976 C-137.43897295 148.20120014 -135.64882619 146.42439734 -133.85864258 144.64746094 C-132.57864462 143.36966429 -131.29909416 142.09141924 -130.0199585 140.8127594 C-127.26348658 138.05922206 -124.50388557 135.30887309 -121.74183083 132.56093597 C-117.37025506 128.21163067 -113.00578195 123.85524472 -108.64225769 119.49786377 C-101.73416437 112.60115764 -94.82141811 105.70913697 -87.90663499 98.81913877 C-75.53920429 86.49597144 -63.17724607 74.16732081 -50.82059592 61.83334374 C-46.48650337 57.50763431 -42.14961786 53.18475063 -37.81043112 48.86415148 C-35.10332861 46.1677399 -32.39829512 43.46925958 -29.6937561 40.77027702 C-28.44463795 39.52461117 -27.19464986 38.27981692 -25.94370079 37.03598976 C-9.30329812 20.8418977 -9.30329812 20.8418977 0 0 Z " fill="#F6F6F6" transform="translate(511,96)"/>
<path d="M0 0 C1.77180484 2.65770726 2.56615368 4.53502736 3.5625 7.5 C8.31895091 19.44509317 19.35362139 28.63482892 28.32250977 37.54956055 C29.64444772 38.8709331 30.96594295 40.19274868 32.28703308 41.51496887 C35.84390801 45.07241328 39.40687749 48.62369452 42.97104383 52.1738317 C46.70622537 55.89643787 50.43567408 59.62477876 54.16575623 63.35249329 C61.21630564 70.39684783 68.27193378 77.4360923 75.3294391 84.47347718 C83.36974726 92.49136406 91.40431895 100.51498898 99.43843377 108.53908098 C115.95261838 125.03240877 132.47392918 141.51858263 149 158 C147.44727943 161.26827284 145.81274489 163.41349039 143.2121582 165.95141602 C142.43407303 166.71643936 141.65598785 167.48146271 140.85432434 168.26966858 C140.01165512 169.08946701 139.1689859 169.90926544 138.30078125 170.75390625 C136.51599109 172.51338288 134.73149539 174.27315823 132.94726562 176.03320312 C130.13814693 178.79290599 127.32598281 181.5493388 124.50805664 184.30004883 C121.78405587 186.96310569 119.0730711 189.63890055 116.36328125 192.31640625 C115.53073318 193.12203506 114.69818512 193.92766388 113.84040833 194.75770569 C104.86562472 203.65609266 97.95299173 213.03515959 97.56762695 226.05004883 C97.5344189 239.89464591 101.72934787 248.56408277 111.37890625 258.30859375 C113.77340083 260.76732217 115.87927985 263.30687433 118 266 C117.12285985 266.8716094 117.12285985 266.8716094 116.22799969 267.76082706 C101.99523455 281.9052258 87.77357572 296.06070709 73.5641737 310.22857761 C66.69232392 317.07980885 59.81677572 323.92724978 52.93237305 330.76586914 C46.93141061 336.7269424 40.93753056 342.69503148 34.95202237 348.67162365 C31.78297026 351.8354646 28.61050201 354.99569903 25.42952538 358.1475544 C22.43399498 361.11588309 19.44804296 364.0935218 16.4690876 367.07848167 C15.37570492 368.17076626 14.27890405 369.25964186 13.17841339 370.34476471 C11.67235899 371.83081711 10.17926843 373.32882986 8.68864441 374.83033752 C7.85073459 375.66456017 7.01282476 376.49878283 6.14952374 377.35828495 C3.61509584 380.47303832 2.42062828 383.26069675 1 387 C0.67 387 0.34 387 0 387 C0 259.29 0 131.58 0 0 Z " fill="#F6F6F6" transform="translate(0,97)"/>
<path d="M0 0 C104.94 0 209.88 0 318 0 C315.78845922 2.21154078 314.48791499 2.59360256 311.5625 3.5625 C299.35902092 8.36635986 289.98719868 19.73298553 280.8996582 28.87329102 C279.51917306 30.25434148 278.13824505 31.63494937 276.75691223 33.01515198 C273.03831641 36.73317801 269.32588492 40.45730282 265.61459374 44.18261838 C261.72382159 48.08596069 257.82731977 51.98357514 253.93144226 55.88182068 C246.5683451 63.25111423 239.2103576 70.62548747 231.85422724 78.00173467 C223.47358783 86.4047906 215.08721459 94.80211419 206.70037329 103.1989795 C189.46056284 120.45965021 172.22790549 137.72744749 155 155 C153.8944811 154.06409496 152.79064547 153.12620142 151.6875 152.1875 C151.07261719 151.66542969 150.45773438 151.14335937 149.82421875 150.60546875 C146.43528572 147.62291741 146.43528572 147.62291741 145 146 C145.0234375 143.87109375 145.0234375 143.87109375 145.375 141.4375 C145.46818068 138.11925301 145.31039643 136.4473581 143.39665985 133.68918991 C142.66888588 132.92879032 141.94111191 132.16839073 141.19128418 131.38494873 C140.36728622 130.51526207 139.54328827 129.64557541 138.69432068 128.74953461 C137.80519485 127.84218819 136.91606903 126.93484177 136 126 C134.69307945 124.65296871 134.69307945 124.65296871 133.35975647 123.27872467 C130.4459449 120.30190289 127.50845447 117.35020427 124.56445312 114.40332031 C123.44455062 113.27877622 122.3248409 112.1540401 121.20530701 111.02912903 C118.19336028 108.00419645 115.17820325 104.98248522 112.16199303 101.96180439 C110.27275898 100.06962072 108.38410551 98.17685937 106.49562073 96.28392792 C100.5717592 90.34643597 94.64593172 84.41091676 88.71719122 78.47829652 C81.89945266 71.65606986 75.08832072 64.82733642 68.28280878 57.99291348 C63.0003758 52.68882724 57.71215629 47.39055557 52.41955328 42.09661746 C49.26740612 38.9434261 46.1176977 35.78789043 42.97401428 32.62625885 C40.01911271 29.65481041 37.05704878 26.69068917 34.08949471 23.73187828 C33.00700039 22.65015045 31.92702826 21.5658913 30.84989738 20.47882271 C22.19509421 11.74891788 12.72985194 2.51545856 0 1 C0 0.67 0 0.34 0 0 Z " fill="#F6F6F6" transform="translate(96,0)"/>
<path d="M0 0 C5.86296195 4.57935489 11.59419615 9.78258845 14 17 C14.203125 18.9453125 14.203125 18.9453125 14.25 21.125 C14.27578125 21.82882813 14.3015625 22.53265625 14.328125 23.2578125 C13.01770328 34.20919403 6.98556259 39.86142294 -0.48176575 47.22348022 C-1.69404745 48.4405299 -2.90501391 49.65889085 -4.1147787 50.87844241 C-7.43509259 54.21796113 -10.77380471 57.53853284 -14.11588156 60.85625243 C-17.71985385 64.44046512 -21.30647605 68.04196749 -24.89530945 71.6413269 C-31.92503783 78.68617132 -38.97066933 85.71490096 -46.02182511 92.73829167 C-54.23125635 100.91655744 -62.42496984 109.1104953 -70.61810096 117.30508526 C-85.23544012 131.92392597 -99.86721933 146.52822813 -114.50708008 161.12451172 C-128.71621411 175.2913725 -142.91478745 189.4687073 -157.10180664 203.65771484 C-157.97580275 204.53183082 -158.84979886 205.4059468 -159.7502797 206.30655114 C-160.62275771 207.17915022 -161.49523572 208.05174929 -162.39415246 208.95079076 C-178.5424563 225.10116363 -194.7006089 241.2416509 -210.86337296 257.37755161 C-216.58108048 263.08620708 -222.29585209 268.79779171 -228.00971413 274.51029587 C-234.97083051 281.46936671 -241.93758416 288.42273818 -248.91144995 295.36903326 C-252.47029417 298.91401882 -256.02673434 302.46132894 -259.57677078 306.01513672 C-262.82542821 309.26707793 -266.08091239 312.51201652 -269.34203526 315.75145562 C-270.52163118 316.92560968 -271.69870883 318.10230016 -272.87301872 319.28174095 C-274.46807721 320.88299641 -276.07204558 322.47476596 -277.67858601 324.06448936 C-279.01238252 325.39511597 -279.01238252 325.39511597 -280.37312442 326.75262392 C-286.47590455 331.97374753 -291.71259764 332.59082062 -299.515625 332.41796875 C-306.95768038 331.52525583 -312.1471909 327.5664575 -317 322 C-318.02813611 320.68824014 -319.04084432 319.3630107 -320 318 C-318.845 318.061875 -317.69 318.12375 -316.5 318.1875 C-307.03719571 318.10463832 -300.01993911 312.90854326 -293 307 C-291.99668177 305.6691618 -290.9956891 304.33655564 -290 303 C-289.34 303 -288.68 303 -288 303 C-287.67 302.01 -287.34 301.02 -287 300 C-284.5625 297.3125 -284.5625 297.3125 -282 295 C-281.34 295 -280.68 295 -280 295 C-279.67 294.01 -279.34 293.02 -279 292 C-276.5625 289.3125 -276.5625 289.3125 -274 287 C-273.34 287 -272.68 287 -272 287 C-271.67 286.01 -271.34 285.02 -271 284 C-268.5625 281.3125 -268.5625 281.3125 -266 279 C-265.34 279 -264.68 279 -264 279 C-263.67 278.01 -263.34 277.02 -263 276 C-260.5625 273.3125 -260.5625 273.3125 -258 271 C-257.34 271 -256.68 271 -256 271 C-255.67 270.01 -255.34 269.02 -255 268 C-252.5625 265.3125 -252.5625 265.3125 -250 263 C-249.34 263 -248.68 263 -248 263 C-247.67 262.01 -247.34 261.02 -247 260 C-244.5625 257.3125 -244.5625 257.3125 -242 255 C-241.34 255 -240.68 255 -240 255 C-239.67 254.01 -239.34 253.02 -239 252 C-236.5625 249.3125 -236.5625 249.3125 -234 247 C-233.34 247 -232.68 247 -232 247 C-231.67 246.01 -231.34 245.02 -231 244 C-228.5625 241.3125 -228.5625 241.3125 -226 239 C-225.34 239 -224.68 239 -224 239 C-223.67 238.01 -223.34 237.02 -223 236 C-220.5625 233.3125 -220.5625 233.3125 -218 231 C-217.34 231 -216.68 231 -216 231 C-215.67 230.01 -215.34 229.02 -215 228 C-212.5625 225.3125 -212.5625 225.3125 -210 223 C-209.34 223 -208.68 223 -208 223 C-207.67 222.01 -207.34 221.02 -207 220 C-204.5625 217.3125 -204.5625 217.3125 -202 215 C-201.34 215 -200.68 215 -200 215 C-199.67 214.01 -199.34 213.02 -199 212 C-196.5625 209.3125 -196.5625 209.3125 -194 207 C-193.34 207 -192.68 207 -192 207 C-191.67 206.01 -191.34 205.02 -191 204 C-188.5625 201.3125 -188.5625 201.3125 -186 199 C-185.34 199 -184.68 199 -184 199 C-183.67 198.01 -183.34 197.02 -183 196 C-180.5625 193.3125 -180.5625 193.3125 -178 191 C-177.34 191 -176.68 191 -176 191 C-175.67 190.01 -175.34 189.02 -175 188 C-172.5625 185.3125 -172.5625 185.3125 -170 183 C-169.34 183 -168.68 183 -168 183 C-167.67 182.01 -167.34 181.02 -167 180 C-164.5625 177.3125 -164.5625 177.3125 -162 175 C-161.34 175 -160.68 175 -160 175 C-159.67 174.01 -159.34 173.02 -159 172 C-156.5625 169.3125 -156.5625 169.3125 -154 167 C-153.34 167 -152.68 167 -152 167 C-151.67 166.01 -151.34 165.02 -151 164 C-148.5625 161.3125 -148.5625 161.3125 -146 159 C-145.34 159 -144.68 159 -144 159 C-143.67 158.01 -143.34 157.02 -143 156 C-140.5625 153.3125 -140.5625 153.3125 -138 151 C-137.34 151 -136.68 151 -136 151 C-135.67 150.01 -135.34 149.02 -135 148 C-132.5625 145.3125 -132.5625 145.3125 -130 143 C-129.34 143 -128.68 143 -128 143 C-127.67 142.01 -127.34 141.02 -127 140 C-124.5625 137.3125 -124.5625 137.3125 -122 135 C-121.34 135 -120.68 135 -120 135 C-119.67 134.01 -119.34 133.02 -119 132 C-116.5625 129.3125 -116.5625 129.3125 -114 127 C-113.34 127 -112.68 127 -112 127 C-111.67 126.01 -111.34 125.02 -111 124 C-108.5625 121.3125 -108.5625 121.3125 -106 119 C-105.34 119 -104.68 119 -104 119 C-103.67 118.01 -103.34 117.02 -103 116 C-100.5625 113.3125 -100.5625 113.3125 -98 111 C-97.34 111 -96.68 111 -96 111 C-95.67 110.01 -95.34 109.02 -95 108 C-92.5625 105.3125 -92.5625 105.3125 -90 103 C-89.34 103 -88.68 103 -88 103 C-87.67 102.01 -87.34 101.02 -87 100 C-84.5625 97.3125 -84.5625 97.3125 -82 95 C-81.34 95 -80.68 95 -80 95 C-79.67 94.01 -79.34 93.02 -79 92 C-76.5625 89.3125 -76.5625 89.3125 -74 87 C-73.34 87 -72.68 87 -72 87 C-71.67 86.01 -71.34 85.02 -71 84 C-68.5625 81.3125 -68.5625 81.3125 -66 79 C-65.34 79 -64.68 79 -64 79 C-63.67 78.01 -63.34 77.02 -63 76 C-60.44300882 73.22383815 -57.73436352 70.75259482 -54.8125 68.375 C-51.88119654 66.12277665 -51.88119654 66.12277665 -50 63 C-49.34 63 -48.68 63 -48 63 C-47.67 62.01 -47.34 61.02 -47 60 C-44.44300882 57.22383815 -41.73436352 54.75259482 -38.8125 52.375 C-35.88119654 50.12277665 -35.88119654 50.12277665 -34 47 C-33.34 47 -32.68 47 -32 47 C-31.67 46.01 -31.34 45.02 -31 44 C-28.44300882 41.22383815 -25.73436352 38.75259482 -22.8125 36.375 C-19.88119654 34.12277665 -19.88119654 34.12277665 -18 31 C-17.34 31 -16.68 31 -16 31 C-15.67 30.01 -15.34 29.02 -15 28 C-13.37660195 26.29115995 -11.70680947 24.62553283 -10 23 C-9.443125 22.401875 -8.88625 21.80375 -8.3125 21.1875 C-7 20 -7 20 -5 20 C-2.73516827 13.3672785 -0.85404425 6.97469469 0 0 Z " fill="#FDD185" transform="translate(483,68)"/>
<path d="M0 0 C3.88544899 3.28511736 7.70872398 6.58456394 11.32714844 10.16601562 C12.48304474 11.30750061 12.48304474 11.30750061 13.66229248 12.4720459 C14.87359833 13.67697693 14.87359833 13.67697693 16.109375 14.90625 C16.9580011 15.74917603 17.8066272 16.59210205 18.68096924 17.46057129 C20.46399686 19.23419836 22.24561028 21.00924815 24.02587891 22.78564453 C26.74844586 25.49845143 29.48149456 28.20040672 32.21484375 30.90234375 C33.95117851 32.63215259 35.68687769 34.36259969 37.421875 36.09375 C38.23750916 36.89703735 39.05314331 37.70032471 39.89349365 38.5279541 C45.90673434 44.56500296 49.42775238 49.11590012 49.4375 57.9375 C49.45683594 59.10152344 49.47617187 60.26554687 49.49609375 61.46484375 C47.28410418 77.22744657 25.93982444 92.3118355 15.34790039 102.94726562 C12.91350594 105.39280264 10.49105375 107.84983596 8.07089138 110.30944633 C5.72137607 112.69159089 3.35772839 115.05955867 0.99609375 117.4296875 C0.14164169 118.30164764 -0.71281036 119.17360779 -1.59315491 120.07199097 C-7.688138 126.14535074 -14.11906819 132.01062193 -22.7578125 133.76171875 C-23.86898437 133.73722656 -24.98015625 133.71273437 -26.125 133.6875 C-27.24132812 133.69136719 -28.35765625 133.69523438 -29.5078125 133.69921875 C-38.67471676 131.86378714 -44.8763388 124.52529563 -51.1875 118.10546875 C-52.13947509 117.1478861 -53.09212384 116.19097275 -54.04541016 115.23469543 C-56.53117016 112.73757794 -59.00778053 110.23158057 -61.48248291 107.72351074 C-64.01792839 105.15716634 -66.56207726 102.59948097 -69.10546875 100.04101562 C-74.07877954 95.03570163 -79.04245922 90.02093804 -84 85 C-79.61618886 79.75528394 -75.00291191 74.86477977 -70.15869141 70.04516602 C-69.01620941 68.90246498 -69.01620941 68.90246498 -67.85064697 67.73667908 C-65.35331728 65.24004143 -62.85247313 62.74695638 -60.3515625 60.25390625 C-58.61114002 58.51535046 -56.87093939 56.77657256 -55.13095093 55.0375824 C-50.56623679 50.47667363 -45.99852673 45.91877686 -41.43017578 41.36151123 C-36.76282722 36.70441946 -32.09833276 32.04447097 -27.43359375 27.38476562 C-18.29184591 18.25372017 -9.14702563 9.12575827 0 0 Z " fill="#FDD083" transform="translate(351,267)"/>
<path d="M0 0 C8.60131921 7.45251288 15.16193169 16.60930973 17.28125 27.9765625 C18.16953971 42.51049419 15.07746776 54.51963309 6.53515625 66.40625 C-0.92534169 74.65290794 -13.34505889 80.36275254 -24.33203125 81.27734375 C-38.99685077 81.32380041 -49.69363153 77.7687012 -60.59375 67.6015625 C-64.12613446 63.83255898 -66.47935768 59.60354223 -68.71875 54.9765625 C-69.028125 54.35523438 -69.3375 53.73390625 -69.65625 53.09375 C-74.05952299 43.65211657 -74.13463895 31.66611303 -71.15625 21.7890625 C-66.41326683 9.20191485 -57.34105368 -0.49355742 -45.10546875 -6.05859375 C-29.99003697 -12.16908745 -12.96677578 -9.89348152 0 0 Z " fill="#060303" transform="translate(283.71875,9.0234375)"/>
<path d="M0 0 C0.10957031 0.79664062 0.21914063 1.59328125 0.33203125 2.4140625 C1.19117869 8.15568197 2.05286215 12.90948917 5 18 C5 18.66 5 19.32 5 20 C5.99 20.33 6.98 20.66 8 21 C8.8971875 22.423125 8.8971875 22.423125 9.8125 23.875 C12.26776161 27.38251659 14.23800253 28.16080124 18 30 C18.875 32.1875 18.875 32.1875 19 34 C19.66 34 20.32 34 21 34 C21 34.66 21 35.32 21 36 C21.5775 36.226875 22.155 36.45375 22.75 36.6875 C25 38 25 38 26.9375 40.4375 C28.85090965 43.12806459 28.85090965 43.12806459 31.6875 44.5625 C34 46 34 46 34.8125 48.1875 C34.9053125 49.0846875 34.9053125 49.0846875 35 50 C35.66 50 36.32 50 37 50 C37 50.66 37 51.32 37 52 C37.5775 52.226875 38.155 52.45375 38.75 52.6875 C41 54 41 54 42.9375 56.4375 C44.85090965 59.12806459 44.85090965 59.12806459 47.6875 60.5625 C50 62 50 62 50.8125 64.1875 C50.874375 64.785625 50.93625 65.38375 51 66 C51.66 66 52.32 66 53 66 C53 66.66 53 67.32 53 68 C53.5775 68.226875 54.155 68.45375 54.75 68.6875 C57 70 57 70 58.9375 72.4375 C60.85090965 75.12806459 60.85090965 75.12806459 63.6875 76.5625 C66 78 66 78 66.8125 80.1875 C66.874375 80.785625 66.93625 81.38375 67 82 C67.66 82 68.32 82 69 82 C69 82.66 69 83.32 69 84 C69.5775 84.226875 70.155 84.45375 70.75 84.6875 C73 86 73 86 74.9375 88.4375 C76.85090965 91.12806459 76.85090965 91.12806459 79.6875 92.5625 C82 94 82 94 82.8125 96.1875 C82.874375 96.785625 82.93625 97.38375 83 98 C83.66 98 84.32 98 85 98 C85 98.66 85 99.32 85 100 C85.5775 100.226875 86.155 100.45375 86.75 100.6875 C89 102 89 102 90.9375 104.4375 C92.85090965 107.12806459 92.85090965 107.12806459 95.6875 108.5625 C98 110 98 110 98.8125 112.1875 C98.874375 112.785625 98.93625 113.38375 99 114 C99.66 114 100.32 114 101 114 C101 114.66 101 115.32 101 116 C101.5775 116.226875 102.155 116.45375 102.75 116.6875 C105 118 105 118 106.9375 120.4375 C108.85090965 123.12806459 108.85090965 123.12806459 111.6875 124.5625 C114 126 114 126 114.8125 128.1875 C114.874375 128.785625 114.93625 129.38375 115 130 C115.66 130 116.32 130 117 130 C117 130.66 117 131.32 117 132 C117.5775 132.226875 118.155 132.45375 118.75 132.6875 C121 134 121 134 122.9375 136.4375 C124.85090965 139.12806459 124.85090965 139.12806459 127.6875 140.5625 C130 142 130 142 130.8125 144.1875 C130.874375 144.785625 130.93625 145.38375 131 146 C131.66 146 132.32 146 133 146 C133 146.66 133 147.32 133 148 C133.556875 148.20625 134.11375 148.4125 134.6875 148.625 C137.97012371 150.57683032 139.70673246 152.94230994 142 156 C142 156.66 142 157.32 142 158 C143.65 158.33 145.3 158.66 147 159 C146.41889329 162.42754467 145.31446376 164.04538661 142.83984375 166.453125 C142.21142578 167.071875 141.58300781 167.690625 140.93554688 168.328125 C140.27619141 168.96234375 139.61683594 169.5965625 138.9375 170.25 C138.27427734 170.8996875 137.61105469 171.549375 136.92773438 172.21875 C135.29169612 173.81947807 133.64782895 175.41143925 132 177 C127.49429268 173.22123246 123.17774382 169.3286813 119.01531982 165.1759491 C118.45609243 164.62180952 117.89686503 164.06766994 117.32069135 163.49673826 C115.46764801 161.659256 113.61807267 159.81832507 111.76855469 157.97729492 C110.43267049 156.65096172 109.09661655 155.32479947 107.76040649 153.99879456 C103.39366272 149.66326726 99.03232055 145.32232925 94.671875 140.98046875 C93.5568641 139.87040384 93.5568641 139.87040384 92.41932774 138.73791337 C85.40455719 131.75389549 78.39181647 124.76784547 71.38392258 117.77692699 C62.43673657 108.85167449 53.47963138 99.9366404 44.50875545 91.03519744 C38.19069472 84.76437935 31.88416923 78.48210683 25.58605504 72.19125634 C21.8280719 68.43822503 18.06521363 64.69040736 14.28987885 60.95482445 C10.7406873 57.44252073 7.20601532 53.91622915 3.68186569 50.37880516 C2.38865286 49.08564622 1.09031818 47.79758535 -0.21353531 46.51515579 C-8.07747241 38.77355273 -13.56718234 32.80148227 -14.4375 21.4375 C-14.04287047 12.67975996 -8.98397746 7.55730713 -2.92578125 1.6875 C-1 0 -1 0 0 0 Z " fill="#FCBA4A" transform="translate(29,68)"/>
<path d="M0 0 C1.11548139 0.95397556 2.2306564 1.90830939 3.34570312 2.86279297 C4.27727234 3.65990189 4.27727234 3.65990189 5.22766113 4.47311401 C7.36350484 6.31316271 9.45599443 8.18319471 11.5 10.125 C12.1909375 10.76695312 12.881875 11.40890625 13.59375 12.0703125 C15 14 15 14 14.74921417 15.93757534 C13.46577594 19.47060336 10.57468635 21.79514687 7.93554688 24.37329102 C6.98676414 25.31791199 6.98676414 25.31791199 6.01881409 26.28161621 C3.92552209 28.36261793 1.82204145 30.43301597 -0.28125 32.50390625 C-1.735536 33.94751825 -3.18901685 35.39194178 -4.64172363 36.83714294 C-8.46889796 40.64151593 -12.30410674 44.43767254 -16.14190674 48.23132324 C-22.2866689 54.30594589 -28.423987 60.38800623 -34.55223083 66.47929192 C-36.69781455 68.60813416 -38.84969785 70.73046191 -41.0020752 72.85243225 C-42.31349371 74.15339267 -43.62466451 75.45460286 -44.93554688 76.75610352 C-45.53817856 77.34683151 -46.14081024 77.93755951 -46.76170349 78.54618835 C-50.05498054 81.82729919 -50.05498054 81.82729919 -52 86 C-51.360625 86.268125 -50.72125 86.53625 -50.0625 86.8125 C-48 88 -48 88 -47 91 C-46.34 91 -45.68 91 -45 91 C-45 91.66 -45 92.32 -45 93 C-44.4225 93.226875 -43.845 93.45375 -43.25 93.6875 C-41 95 -41 95 -39.0625 97.4375 C-37.16005889 100.12053515 -37.16005889 100.12053515 -34.375 101.5 C-32 103 -32 103 -31.11328125 105.3671875 C-28.75439252 110.94575243 -22.69880685 114.12026074 -17.5 116.8125 C-13.38197228 118.20968798 -9.2658498 119.17778405 -5 120 C-5 123 -5 123 -6.5390625 124.71875 C-7.22742188 125.3065625 -7.91578125 125.894375 -8.625 126.5 C-9.29789062 127.0878125 -9.97078125 127.675625 -10.6640625 128.28125 C-15.64893539 131.94904945 -19.66997932 133.44472142 -25.875 133.5 C-27.60363281 133.54640625 -27.60363281 133.54640625 -29.3671875 133.59375 C-38.62867134 132.08004511 -44.88209925 124.519436 -51.1875 118.10546875 C-52.13947509 117.1478861 -53.09212384 116.19097275 -54.04541016 115.23469543 C-56.53117016 112.73757794 -59.00778053 110.23158057 -61.48248291 107.72351074 C-64.01792839 105.15716634 -66.56207726 102.59948097 -69.10546875 100.04101562 C-74.07877954 95.03570163 -79.04245922 90.02093804 -84 85 C-79.61618886 79.75528394 -75.00291191 74.86477977 -70.15869141 70.04516602 C-69.01620941 68.90246498 -69.01620941 68.90246498 -67.85064697 67.73667908 C-65.35331728 65.24004143 -62.85247313 62.74695638 -60.3515625 60.25390625 C-58.61114002 58.51535046 -56.87093939 56.77657256 -55.13095093 55.0375824 C-50.56623679 50.47667363 -45.99852673 45.91877686 -41.43017578 41.36151123 C-36.76282722 36.70441946 -32.09833276 32.04447097 -27.43359375 27.38476562 C-18.29184591 18.25372017 -9.14702563 9.12575827 0 0 Z " fill="#FDBA4A" transform="translate(351,267)"/>
<path d="M0 0 C27.72 0 55.44 0 84 0 C84 28.05 84 56.1 84 85 C82.51470959 82.02941919 81.40305728 79.34895915 80.3125 76.25 C78.4577342 71.48261717 75.94224226 68.23490383 72.390625 64.59375 C71 63 71 63 71 61 C70.34 61 69.68 61 69 61 C69 60.34 69 59.68 69 59 C67.515 58.505 67.515 58.505 66 58 C66 57.34 66 56.68 66 56 C64.515 55.505 64.515 55.505 63 55 C63 54.34 63 53.68 63 53 C62.34 53 61.68 53 61 53 C61 52.34 61 51.68 61 51 C60.01 50.67 59.02 50.34 58 50 C58 49.34 58 48.68 58 48 C57.01 47.67 56.02 47.34 55 47 C55 46.34 55 45.68 55 45 C54.34 45 53.68 45 53 45 C53 44.34 53 43.68 53 43 C52.01 42.67 51.02 42.34 50 42 C50 41.34 50 40.68 50 40 C49.01 39.67 48.02 39.34 47 39 C45.4921875 37.46875 45.4921875 37.46875 43.875 35.5 C37.27979178 27.23932228 37.27979178 27.23932228 29 21 C29 20.34 29 19.68 29 19 C28.01 18.67 27.02 18.34 26 18 C26 17.34 26 16.68 26 16 C25.34 16 24.68 16 24 16 C22.31002677 14.35697047 20.64783606 12.68528688 19 11 C14.72193921 6.92091878 10.83089813 4.90209072 5.26953125 2.89453125 C3 2 3 2 0 0 Z " fill="#F5F5F5" transform="translate(428,0)"/>
<path d="M0 0 C27.39 0 54.78 0 83 0 C80.78845922 2.21154078 79.48791499 2.59360256 76.5625 3.5625 C65.96142075 7.71001624 57.91170826 16.77772419 50.04541016 24.7487793 C48.61032056 26.20236867 47.16714424 27.64755215 45.72265625 29.09179688 C40.13281963 34.69434413 40.13281963 34.69434413 34.9609375 40.67578125 C34.31382813 41.44277344 33.66671875 42.20976563 33 43 C32.34 43 31.68 43 31 43 C30.773125 43.5775 30.54625 44.155 30.3125 44.75 C28.65238361 47.59591381 26.60812043 48.99841921 24 51 C22.31066078 52.6436814 20.64740076 54.3142876 19 56 C18.37867187 56.5878125 17.75734375 57.175625 17.1171875 57.78125 C9.93492029 64.6631182 5.19187272 71.58397547 2 81 C1.34 82.32 0.68 83.64 0 85 C0 56.95 0 28.9 0 0 Z " fill="#F6F6F6" transform="translate(0,0)"/>
<path d="M0 0 C7.9076176 3.96612596 12.15611977 10.21847094 15.8203125 18.0703125 C17.91114242 27.76416032 16.55859426 36.90599495 11.1875 45.328125 C6.18195049 51.64660553 -0.56994173 55.78078363 -8.4921875 57.2578125 C-18.24221413 58.23582443 -26.07681266 56.25433133 -33.8046875 50.1328125 C-39.46415426 44.82849447 -42.97890587 37.52526004 -43.73046875 29.8125 C-44.00379428 19.9440098 -41.35506947 12.27867547 -34.5625 5.015625 C-24.41176105 -3.60292694 -12.1212622 -4.93829201 0 0 Z " fill="#FC372A" transform="translate(269.4921875,17.7421875)"/>
<path d="M0 0 C3.57003019 1.52278058 5.90413212 3.62861543 8.66088867 6.33862305 C9.57831345 7.23683273 10.49573822 8.13504242 11.44096375 9.06047058 C12.43385116 10.04366243 13.42617259 11.02742611 14.41796875 12.01171875 C15.44118622 13.02342357 16.46440503 14.03512704 17.48762512 15.04682922 C19.6290146 17.16723993 21.7657336 19.29224611 23.90014648 21.41967773 C26.63052975 24.13908704 29.37896664 26.83944448 32.1321516 29.53573895 C34.25182221 31.61809018 36.3578875 33.71380752 38.46050453 35.81336403 C39.46782719 36.81464957 40.48013133 37.81095019 41.49751854 38.80200768 C42.92157699 40.19180428 44.32490604 41.60274481 45.72729492 43.0144043 C46.53019455 43.81001266 47.33309418 44.60562103 48.1603241 45.42533875 C50.48002138 48.67179901 50.8733465 51.03940628 51 55 C49 58 49 58 46 60 C40.33211642 59.84405417 37.73012486 58.47384037 33.79907227 54.48022461 C33.32987869 54.0119072 32.86068512 53.54358978 32.37727356 53.06108093 C30.8423138 51.5219677 29.329665 49.96277292 27.81640625 48.40234375 C26.75155745 47.32629484 25.68536904 46.2515701 24.61790466 45.17811584 C21.82122144 42.35859864 19.04303039 39.52153041 16.26837158 36.68035889 C13.43014677 33.78059469 10.57471406 30.89788531 7.72070312 28.01367188 C2.13020046 22.3589525 -3.44087226 16.68556604 -9 11 C-7.49053489 7.81913482 -5.92058175 5.70130094 -3.375 3.25 C-2.74335938 2.63640625 -2.11171875 2.0228125 -1.4609375 1.390625 C-0.73777344 0.70226562 -0.73777344 0.70226562 0 0 Z " fill="#F97A3F" transform="translate(446,437)"/>
<path d="M0 0 C3.18086518 1.50946511 5.29869906 3.07941825 7.75 5.625 C8.67039062 6.57246094 8.67039062 6.57246094 9.609375 7.5390625 C10.29773438 8.26222656 10.29773438 8.26222656 11 9 C9.47721942 12.57003019 7.37138457 14.90413212 4.66137695 17.66088867 C3.76316727 18.57831345 2.86495758 19.49573822 1.93952942 20.44096375 C0.95633757 21.43385116 -0.02742611 22.42617259 -1.01171875 23.41796875 C-2.02342357 24.44118622 -3.03512704 25.46440503 -4.04682922 26.48762512 C-6.16723993 28.6290146 -8.29224611 30.7657336 -10.41967773 32.90014648 C-13.13908704 35.63052975 -15.83944448 38.37896664 -18.53573895 41.1321516 C-20.61809018 43.25182221 -22.71380752 45.3578875 -24.81336403 47.46050453 C-25.81464957 48.46782719 -26.81095019 49.48013133 -27.80200768 50.49751854 C-29.19180428 51.92157699 -30.60274481 53.32490604 -32.0144043 54.72729492 C-32.81001266 55.53019455 -33.60562103 56.33309418 -34.42533875 57.1603241 C-37.67179901 59.48002138 -40.03940628 59.8733465 -44 60 C-47 58 -47 58 -49 55 C-48.84405417 49.33211642 -47.47384037 46.73012486 -43.48022461 42.79907227 C-43.0119072 42.32987869 -42.54358978 41.86068512 -42.06108093 41.37727356 C-40.5219677 39.8423138 -38.96277292 38.329665 -37.40234375 36.81640625 C-36.32629484 35.75155745 -35.2515701 34.68536904 -34.17811584 33.61790466 C-31.35859864 30.82122144 -28.52153041 28.04303039 -25.68035889 25.26837158 C-22.78059469 22.43014677 -19.89788531 19.57471406 -17.01367188 16.72070312 C-11.3589525 11.13020046 -5.68556604 5.55912774 0 0 Z " fill="#F87A40" transform="translate(64,437)"/>
<path d="M0 0 C4.31864357 3.57118603 7.43980387 6.54975483 11 11 C7.7 14.3 4.4 17.6 1 21 C-3.31864357 17.42881397 -6.43980387 14.45024517 -10 10 C-6.7 6.7 -3.4 3.4 0 0 Z " fill="#F5B74F" transform="translate(107,394)"/>
<path d="M0 0 C4.31864357 3.57118603 7.43980387 6.54975483 11 11 C7.7 14.3 4.4 17.6 1 21 C-3.31864357 17.42881397 -6.43980387 14.45024517 -10 10 C-6.7 6.7 -3.4 3.4 0 0 Z " fill="#F7B84E" transform="translate(404,394)"/>
<path d="M0 0 C4.31864357 3.57118603 7.43980387 6.54975483 11 11 C7.7 14.3 4.4 17.6 1 21 C-3.31864357 17.42881397 -6.43980387 14.45024517 -10 10 C-6.7 6.7 -3.4 3.4 0 0 Z " fill="#11B150" transform="translate(383,373)"/>
<path d="M0 0 C4.31864357 3.57118603 7.43980387 6.54975483 11 11 C7.7 14.3 4.4 17.6 1 21 C-3.31864357 17.42881397 -6.43980387 14.45024517 -10 10 C-6.7 6.7 -3.4 3.4 0 0 Z " fill="#10B251" transform="translate(128,373)"/>
<path d="M0 0 C3.21524305 1.40844718 5.32183868 3.10344786 7.75 5.625 C8.67039062 6.57246094 8.67039062 6.57246094 9.609375 7.5390625 C10.06828125 8.02117187 10.5271875 8.50328125 11 9 C9.59155282 12.21524305 7.89655214 14.32183868 5.375 16.75 C4.74335937 17.36359375 4.11171875 17.9771875 3.4609375 18.609375 C2.97882813 19.06828125 2.49671875 19.5271875 2 20 C-1.21524305 18.59155282 -3.32183868 16.89655214 -5.75 14.375 C-6.36359375 13.74335938 -6.9771875 13.11171875 -7.609375 12.4609375 C-8.06828125 11.97882813 -8.5271875 11.49671875 -9 11 C-7.59155282 7.78475695 -5.89655214 5.67816132 -3.375 3.25 C-2.74335937 2.63640625 -2.11171875 2.0228125 -1.4609375 1.390625 C-0.73777344 0.70226562 -0.73777344 0.70226562 0 0 Z " fill="#F6382D" transform="translate(85,416)"/>
<path d="M0 0 C3.21524305 1.40844718 5.32183868 3.10344786 7.75 5.625 C8.67039062 6.57246094 8.67039062 6.57246094 9.609375 7.5390625 C10.06828125 8.02117187 10.5271875 8.50328125 11 9 C9.59155282 12.21524305 7.89655214 14.32183868 5.375 16.75 C4.74335938 17.36359375 4.11171875 17.9771875 3.4609375 18.609375 C2.97882813 19.06828125 2.49671875 19.5271875 2 20 C-1.21524305 18.59155282 -3.32183868 16.89655214 -5.75 14.375 C-6.36359375 13.74335938 -6.9771875 13.11171875 -7.609375 12.4609375 C-8.06828125 11.97882813 -8.5271875 11.49671875 -9 11 C-7.59155282 7.78475695 -5.89655214 5.67816132 -3.375 3.25 C-2.74335938 2.63640625 -2.11171875 2.0228125 -1.4609375 1.390625 C-0.73777344 0.70226562 -0.73777344 0.70226562 0 0 Z " fill="#F13A30" transform="translate(425,416)"/>
<path d="M0 0 C0.495 1.485 0.495 1.485 1 3 C0.26528473 3.73027405 -0.46943054 4.4605481 -1.22640991 5.21295166 C-8.14760937 12.09361887 -15.06353032 18.97955252 -21.97430992 25.87068558 C-25.52743064 29.41336632 -29.082389 32.95416139 -32.64160156 36.49072266 C-36.07595346 39.90335407 -39.50540582 43.32083881 -42.93150711 46.74175262 C-44.23989956 48.04644791 -45.55005193 49.34938074 -46.86198044 50.65052032 C-48.69831297 52.47234875 -50.52830486 54.3003265 -52.35693359 56.12988281 C-53.17368813 56.93585152 -53.17368813 56.93585152 -54.00694275 57.75810242 C-56.55801103 60.32322106 -58.65616421 62.60958803 -60 66 C-60.66 65.67 -61.32 65.34 -62 65 C-61.13403363 60.45485153 -58.49392624 58.09232181 -55.28686523 54.94628906 C-54.6917514 54.35073715 -54.09663757 53.75518524 -53.48348999 53.1415863 C-51.51555224 51.17573781 -49.53720323 49.22072727 -47.55859375 47.265625 C-46.19173522 45.90436191 -44.82553774 44.54243477 -43.4599762 43.17987061 C-39.86458498 39.59593213 -36.26027557 36.02109399 -32.65405273 32.44805908 C-28.97554208 28.80023982 -25.30551238 25.14391017 -21.63476562 21.48828125 C-14.43146526 14.31715264 -7.21871743 7.15560667 0 0 Z " fill="#FECD75" transform="translate(361,288)"/>
<path d="M0 0 C0.33 0 0.66 0 1 0 C1 5.94 1 11.88 1 18 C-4.94 18 -10.88 18 -17 18 C-14 16 -14 16 -11.1875 14.8125 C-6.01033826 11.86862371 -2.83303765 8.08259412 -0.625 2.5625 C-0.315625 1.2940625 -0.315625 1.2940625 0 0 Z " fill="#EDEEED" transform="translate(511,494)"/>
<path d="M0 0 C2 3 2 3 3.1875 5.8125 C6.30594628 11.29666414 10.9063927 15.15345233 17 17 C17 17.33 17 17.66 17 18 C11.39 18 5.78 18 0 18 C0 12.06 0 6.12 0 0 Z " fill="#F0F0EF" transform="translate(0,494)"/>
<path d="M0 0 C1.98 1.65 3.96 3.3 6 5 C4.59155282 8.21524305 2.89655214 10.32183868 0.375 12.75 C-0.25664062 13.36359375 -0.88828125 13.9771875 -1.5390625 14.609375 C-2.02117187 15.06828125 -2.50328125 15.5271875 -3 16 C-6.32635882 14.47427344 -7.95563002 13.06655496 -10 10 C-8.8553125 10.061875 -8.8553125 10.061875 -7.6875 10.125 C-4.77281584 10.22080824 -4.77281584 10.22080824 -2 8 C-1.01 8.33 -0.02 8.66 1 9 C0.67 6.03 0.34 3.06 0 0 Z " fill="#E23B32" transform="translate(430,420)"/>
<path d="M0 0 C4.21863656 1.56692215 7.88988517 3.62318749 11.65234375 6.078125 C15.05961014 7.41608651 18.39572117 7.28917694 22 7.25 C22.7115625 7.25773437 23.423125 7.26546875 24.15625 7.2734375 C28.00097802 7.2590915 30.68170851 6.93567004 34 5 C34.99 5 35.98 5 37 5 C37 4.01 37 3.02 37 2 C37.99 2.33 38.98 2.66 40 3 C35.94981947 8.10674936 30.58254968 9.56654282 24.3203125 10.32421875 C16.02714479 10.66487295 8.87707358 8.55070448 2.375 3.3125 C1.59125 2.549375 0.8075 1.78625 0 1 C0 0.67 0 0.34 0 0 Z " fill="#CE3C34" transform="translate(234,65)"/>
<path d="M0 0 C2.31 1.98 4.62 3.96 7 6 C6.01 6.99 5.02 7.98 4 9 C3.34 8.67 2.68 8.34 2 8 C2 8.66 2 9.32 2 10 C0.68 9.67 -0.64 9.34 -2 9 C-2 8.34 -2 7.68 -2 7 C-2.99 7.66 -3.98 8.32 -5 9 C-5.99 8.67 -6.98 8.34 -8 8 C-5.33333333 5.33333333 -2.66666667 2.66666667 0 0 Z " fill="#0BB74E" transform="translate(383,375)"/>
<path d="M0 0 C7.54797859 3.54292873 12.57853741 9.21088818 15.9375 16.875 C18.30072402 24.1834891 17.53456361 31.87153984 15 39 C14.67 39 14.34 39 14 39 C13.875 32.25 13.875 32.25 15 30 C15.17218202 25.52326748 14.85736786 21.39401026 14 17 C13.34 17 12.68 17 12 17 C11.71125 16.0925 11.4225 15.185 11.125 14.25 C10.23468224 11.67797092 9.28505587 9.38653234 8 7 C7.34 7 6.68 7 6 7 C4.64567325 5.68799596 3.31266518 4.35368596 2 3 C1.34 2.67 0.68 2.34 0 2 C0 1.34 0 0.68 0 0 Z " fill="#D03B33" transform="translate(269,18)"/>
<path d="M0 0 C1.32 0.66 2.64 1.32 4 2 C4 2.33 4 2.66 4 3 C2.35 3.33 0.7 3.66 -1 4 C-1.335939 5.4577353 -1.66866624 6.91621106 -2 8.375 C-2.185625 9.18710937 -2.37125 9.99921875 -2.5625 10.8359375 C-3.06605239 12.95874951 -3.06605239 12.95874951 -3 15 C-2.34 15 -1.68 15 -1 15 C-0.67 15.66 -0.34 16.32 0 17 C0.99 17.66 1.98 18.32 3 19 C-1 19 -1 19 -3.140625 17.25 C-3.83671875 16.5075 -4.5328125 15.765 -5.25 15 C-5.95640625 14.2575 -6.6628125 13.515 -7.390625 12.75 C-8.18726562 11.88375 -8.18726562 11.88375 -9 11 C-7.59155282 7.78475695 -5.89655214 5.67816132 -3.375 3.25 C-2.74335937 2.63640625 -2.11171875 2.0228125 -1.4609375 1.390625 C-0.73777344 0.70226562 -0.73777344 0.70226562 0 0 Z " fill="#DC3C34" transform="translate(85,416)"/>
<path d="M0 0 C0.99 0.33 1.98 0.66 3 1 C3.66 0.67 4.32 0.34 5 0 C5 6.27 5 12.54 5 19 C3.51774263 16.03548526 2.11194261 13.10704243 0.8125 10.0625 C0.44769531 9.22847656 0.08289063 8.39445312 -0.29296875 7.53515625 C-1.10339518 4.62926259 -0.80717433 2.8739519 0 0 Z " fill="#EAEAEA" transform="translate(507,66)"/>
<path d="M0 0 C-3.16610547 1.01767676 -4.83031702 0.79242075 -8 0 C-16.73613219 -0.58240881 -22.24118077 1.48622642 -29 7 C-32.3125 8.25 -32.3125 8.25 -35 9 C-27.71083623 -2.5963969 -11.9345784 -4.24340565 0 0 Z " fill="#CD3C36" transform="translate(268,17)"/>
<path d="M0 0 C2.5625 2.0625 2.5625 2.0625 5 5 C5.06625411 8.8427383 4.81899419 10.99200716 2.375 14 C-1.11581787 15.46981805 -3.39148956 14.98413921 -7 14 C-8.9375 11.9375 -8.9375 11.9375 -10 10 C-8.35 10 -6.7 10 -5 10 C-4.67 10.66 -4.34 11.32 -4 12 C-1.97536745 12.65213292 -1.97536745 12.65213292 0 13 C0 12.34 0 11.68 0 11 C0.99 11 1.98 11 3 11 C2.53199289 6.94393835 2.12046792 3.53411321 0 0 Z " fill="#DB784D" transform="translate(492,482)"/>
<path d="M0 0 C0 3 0 3 -1 5 C0.32 5.33 1.64 5.66 3 6 C2.67 6.99 2.34 7.98 2 9 C2.66 9.66 3.32 10.32 4 11 C3.01 12.485 3.01 12.485 2 14 C-0.31 11.69 -2.62 9.38 -5 7 C-3.38262276 3.76524552 -2.52370777 2.29427979 0 0 Z " fill="#F67944" transform="translate(442,441)"/>
<path d="M0 0 C1.32 0.66 2.64 1.32 4 2 C0.37 5.63 -3.26 9.26 -7 13 C-7.66 12.01 -8.32 11.02 -9 10 C-8.01 9.34 -7.02 8.68 -6 8 C-6 7.34 -6 6.68 -6 6 C-5.34 6 -4.68 6 -4 6 C-3.67 4.68 -3.34 3.36 -3 2 C-2.01 2 -1.02 2 0 2 C0 1.34 0 0.68 0 0 Z " fill="#F8D28D" transform="translate(197,203)"/>
<path d="M0 0 C1.32 0.66 2.64 1.32 4 2 C0.37 5.63 -3.26 9.26 -7 13 C-7.66 12.01 -8.32 11.02 -9 10 C-8.01 9.34 -7.02 8.68 -6 8 C-6 7.34 -6 6.68 -6 6 C-5.34 6 -4.68 6 -4 6 C-3.67 4.68 -3.34 3.36 -3 2 C-2.01 2 -1.02 2 0 2 C0 1.34 0 0.68 0 0 Z " fill="#F8D28D" transform="translate(213,187)"/>
<path d="M0 0 C1.32 0.66 2.64 1.32 4 2 C0.37 5.63 -3.26 9.26 -7 13 C-7.66 12.01 -8.32 11.02 -9 10 C-8.01 9.34 -7.02 8.68 -6 8 C-6 7.34 -6 6.68 -6 6 C-5.34 6 -4.68 6 -4 6 C-3.67 4.68 -3.34 3.36 -3 2 C-2.01 2 -1.02 2 0 2 C0 1.34 0 0.68 0 0 Z " fill="#F8D28D" transform="translate(229,171)"/>
<path d="M0 0 C3.3 0 6.6 0 10 0 C10.66 1.98 11.32 3.96 12 6 C8.8125 6.375 8.8125 6.375 5 6 C2.8596502 4.18811972 1.61011698 2.34198833 0 0 Z " fill="#E4C68A" transform="translate(163,386)"/>
<path d="M0 0 C2.2109885 0.42793326 3.98119242 0.99059621 6 2 C5.75 3.875 5.75 3.875 5 6 C3.1875 7.375 3.1875 7.375 1 8 C-1.25 7.125 -1.25 7.125 -3 6 C-1.125 1.125 -1.125 1.125 0 0 Z " fill="#0BB64E" transform="translate(127,376)"/>
<path d="M0 0 C0 3 0 3 -1.9765625 5.19921875 C-2.85054687 6.02035156 -3.72453125 6.84148438 -4.625 7.6875 C-8.92364535 11.84570665 -12.61641276 16.07591776 -16 21 C-16.66 20.67 -17.32 20.34 -18 20 C-16.5735422 16.7413364 -14.83295838 14.5975146 -12.3046875 12.109375 C-11.23154297 11.04589844 -11.23154297 11.04589844 -10.13671875 9.9609375 C-9.39035156 9.23132812 -8.64398438 8.50171875 -7.875 7.75 C-7.12089844 7.00492188 -6.36679687 6.25984375 -5.58984375 5.4921875 C-3.73099228 3.6568658 -1.86762995 1.8263809 0 0 Z " fill="#F3CF90" transform="translate(47,49)"/>
<path d="M0 0 C4.2742558 1.5830577 6.26531794 4.50568404 9 8 C6.36 7.67 3.72 7.34 1 7 C1 6.01 1 5.02 1 4 C-0.32 3.67 -1.64 3.34 -3 3 C-2.01 2.01 -1.02 1.02 0 0 Z " fill="#F67945" transform="translate(446,437)"/>
<path d="M0 0 C0.5625 1.9375 0.5625 1.9375 1 4 C0.67 4.33 0.34 4.66 0 5 C-0.07244053 7.01964199 -0.08377188 9.04167124 -0.0625 11.0625 C-0.04896484 12.71958984 -0.04896484 12.71958984 -0.03515625 14.41015625 C-0.02355469 15.26480469 -0.01195312 16.11945313 0 17 C0.66 17 1.32 17 2 17 C1.01 19.475 1.01 19.475 0 22 C-3.34800295 16.97799558 -3.61409899 11.92605525 -3 6 C-1.5 2.4375 -1.5 2.4375 0 0 Z " fill="#E3AE5A" transform="translate(18,79)"/>
<path d="M0 0 C1.65 1.65 3.3 3.3 5 5 C4.113125 4.731875 3.22625 4.46375 2.3125 4.1875 C-1.16594126 3.63523463 -1.16594126 3.63523463 -3.9375 6.1875 C-6.22098114 8.69631207 -6.22098114 8.69631207 -5.9375 11.0625 C-4.97572189 13.05017475 -3.98750879 15.02498242 -3 17 C-5.31 15.02 -7.62 13.04 -10 11 C-6.77932365 7.19374613 -3.59755203 3.45918464 0 0 Z " fill="#22A056" transform="translate(128,373)"/>
<path d="M0 0 C0.33 0.99 0.66 1.98 1 3 C-0.91356773 4.94064652 -2.83067938 6.877557 -4.75 8.8125 C-5.55824219 9.63331055 -5.55824219 9.63331055 -6.3828125 10.47070312 C-9.11740863 13.22197363 -11.79683904 15.78422118 -15 18 C-15.66 17.67 -16.32 17.34 -17 17 C-16.51789063 16.60167969 -16.03578125 16.20335937 -15.5390625 15.79296875 C-14.90742188 15.26316406 -14.27578125 14.73335938 -13.625 14.1875 C-12.68527344 13.40439453 -12.68527344 13.40439453 -11.7265625 12.60546875 C-9.7778952 10.91774261 -9.7778952 10.91774261 -8 8 C-7.34 8 -6.68 8 -6 8 C-5.67 7.01 -5.34 6.02 -5 5 C-3.37347684 3.29413425 -1.70993434 1.6222454 0 0 Z " fill="#F9D493" transform="translate(201,363)"/>
<path d="M0 0 C1.32 0.99 2.64 1.98 4 3 C2.50902342 6.7952131 0.24299151 8.61042731 -3 11 C-3 8.69 -3 6.38 -3 4 C-2.01 3.67 -1.02 3.34 0 3 C0 2.01 0 1.02 0 0 Z " fill="#EB7949" transform="translate(71,443)"/>
<path d="M0 0 C0.99 0 1.98 0 3 0 C5.32005605 4.4951086 5.6320746 9.03635538 5 14 C4.01 15.485 4.01 15.485 3 17 C2.92652344 15.84371094 2.92652344 15.84371094 2.8515625 14.6640625 C2.77679688 13.66117188 2.70203125 12.65828125 2.625 11.625 C2.55539062 10.62726563 2.48578125 9.62953125 2.4140625 8.6015625 C2.23636036 5.84491121 2.23636036 5.84491121 0 4 C0 2.68 0 1.36 0 0 Z " fill="#E2C288" transform="translate(492,80)"/>
<path d="M0 0 C0.53367187 0.2165625 1.06734375 0.433125 1.6171875 0.65625 C9.51437638 3.60744861 16.75613956 3.73554957 25 2 C20.60935491 6.10737766 16.16640668 5.47257968 10.44140625 5.37109375 C5.94156922 4.88586728 3.56188388 3.71381629 0 1 C0 0.67 0 0.34 0 0 Z " fill="#E7B45B" transform="translate(311,395)"/>
<path d="M0 0 C2.475 0.99 2.475 0.99 5 2 C3.02 4.31 1.04 6.62 -1 9 C-1.99 8.34 -2.98 7.68 -4 7 C-3.34 5.35 -2.68 3.7 -2 2 C-1.34 2 -0.68 2 0 2 C0 1.34 0 0.68 0 0 Z " fill="#E5BF7C" transform="translate(355,373)"/>
<path d="M0 0 C0.33 0.66 0.66 1.32 1 2 C-3.32893185 7.18419194 -7.76564995 11.72706118 -13 16 C-13.66 15.67 -14.32 15.34 -15 15 C-10.375 10.125 -10.375 10.125 -7 9 C-6.67 8.01 -6.34 7.02 -6 6 C-4.37446717 4.29319053 -2.70884005 2.62339805 -1 1 C-0.67 0.67 -0.34 0.34 0 0 Z " fill="#F9D493" transform="translate(426,138)"/>
<path d="M0 0 C0.33 0.66 0.66 1.32 1 2 C-3.32893185 7.18419194 -7.76564995 11.72706118 -13 16 C-13.66 15.67 -14.32 15.34 -15 15 C-10.375 10.125 -10.375 10.125 -7 9 C-6.67 8.01 -6.34 7.02 -6 6 C-4.37446717 4.29319053 -2.70884005 2.62339805 -1 1 C-0.67 0.67 -0.34 0.34 0 0 Z " fill="#F9D493" transform="translate(442,122)"/>
<path d="M0 0 C0.33 0.66 0.66 1.32 1 2 C-3.32893185 7.18419194 -7.76564995 11.72706118 -13 16 C-13.66 15.67 -14.32 15.34 -15 15 C-10.375 10.125 -10.375 10.125 -7 9 C-6.67 8.01 -6.34 7.02 -6 6 C-4.37446717 4.29319053 -2.70884005 2.62339805 -1 1 C-0.67 0.67 -0.34 0.34 0 0 Z " fill="#F9D493" transform="translate(458,106)"/>
<path d="M0 0 C0.66 0 1.32 0 2 0 C3.72206188 2.99126319 4.24179923 5.10685713 4.1953125 8.546875 C4.18886719 9.39121094 4.18242187 10.23554687 4.17578125 11.10546875 C4.15902344 11.97816406 4.14226562 12.85085937 4.125 13.75 C4.11597656 14.63816406 4.10695313 15.52632812 4.09765625 16.44140625 C4.07414577 18.62788058 4.04128499 20.81380094 4 23 C3.34 23 2.68 23 2 23 C2.02320313 22.01 2.04640625 21.02 2.0703125 20 C2.18269259 13.06140739 2.1774038 6.66829915 0 0 Z " fill="#290100" transform="translate(283,31)"/>
<path d="M0 0 C4.13621084 3.3810038 7.81316569 6.66590534 11 11 C10.01 11.66 9.02 12.32 8 13 C7.79375 12.278125 7.5875 11.55625 7.375 10.8125 C5.54751837 7.0744694 3.29561194 5.50753083 0 3 C-0.99 3.99 -1.98 4.98 -3 6 C-3.66 5.67 -4.32 5.34 -5 5 C-3.35 3.35 -1.7 1.7 0 0 Z " fill="#23A257" transform="translate(383,373)"/>
<path d="M0 0 C0.33 0.99 0.66 1.98 1 3 C-0.74095679 4.82200133 -2.49177132 6.63229575 -4.25 8.4375 C-4.98669922 9.2119043 -4.98669922 9.2119043 -5.73828125 10.00195312 C-10.30164195 14.65658104 -10.30164195 14.65658104 -14 15 C-13.04882866 13.8274869 -12.08882991 12.66212985 -11.125 11.5 C-10.59132812 10.8503125 -10.05765625 10.200625 -9.5078125 9.53125 C-8.76144531 8.77328125 -8.76144531 8.77328125 -8 8 C-7.34 8 -6.68 8 -6 8 C-5.67 7.01 -5.34 6.02 -5 5 C-3.37347684 3.29413425 -1.70993434 1.6222454 0 0 Z " fill="#F9D493" transform="translate(217,347)"/>
<path d="M0 0 C0.33 0.99 0.66 1.98 1 3 C-0.74095679 4.82200133 -2.49177132 6.63229575 -4.25 8.4375 C-4.98669922 9.2119043 -4.98669922 9.2119043 -5.73828125 10.00195312 C-10.30164195 14.65658104 -10.30164195 14.65658104 -14 15 C-13.04882866 13.8274869 -12.08882991 12.66212985 -11.125 11.5 C-10.59132812 10.8503125 -10.05765625 10.200625 -9.5078125 9.53125 C-8.76144531 8.77328125 -8.76144531 8.77328125 -8 8 C-7.34 8 -6.68 8 -6 8 C-5.67 7.01 -5.34 6.02 -5 5 C-3.37347684 3.29413425 -1.70993434 1.6222454 0 0 Z " fill="#F9D493" transform="translate(233,331)"/>
<path d="M0 0 C0.33 0.99 0.66 1.98 1 3 C-0.74095679 4.82200133 -2.49177132 6.63229575 -4.25 8.4375 C-4.98669922 9.2119043 -4.98669922 9.2119043 -5.73828125 10.00195312 C-10.30164195 14.65658104 -10.30164195 14.65658104 -14 15 C-13.04882866 13.8274869 -12.08882991 12.66212985 -11.125 11.5 C-10.59132812 10.8503125 -10.05765625 10.200625 -9.5078125 9.53125 C-8.76144531 8.77328125 -8.76144531 8.77328125 -8 8 C-7.34 8 -6.68 8 -6 8 C-5.67 7.01 -5.34 6.02 -5 5 C-3.37347684 3.29413425 -1.70993434 1.6222454 0 0 Z " fill="#F9D493" transform="translate(249,315)"/>
<path d="M0 0 C0.33 0.99 0.66 1.98 1 3 C-0.74095679 4.82200133 -2.49177132 6.63229575 -4.25 8.4375 C-4.98669922 9.2119043 -4.98669922 9.2119043 -5.73828125 10.00195312 C-10.30164195 14.65658104 -10.30164195 14.65658104 -14 15 C-13.04882866 13.8274869 -12.08882991 12.66212985 -11.125 11.5 C-10.59132812 10.8503125 -10.05765625 10.200625 -9.5078125 9.53125 C-8.76144531 8.77328125 -8.76144531 8.77328125 -8 8 C-7.34 8 -6.68 8 -6 8 C-5.67 7.01 -5.34 6.02 -5 5 C-3.37347684 3.29413425 -1.70993434 1.6222454 0 0 Z " fill="#F9D493" transform="translate(265,299)"/>
<path d="M0 0 C0.33 0.99 0.66 1.98 1 3 C-0.74095679 4.82200133 -2.49177132 6.63229575 -4.25 8.4375 C-4.98669922 9.2119043 -4.98669922 9.2119043 -5.73828125 10.00195312 C-10.30164195 14.65658104 -10.30164195 14.65658104 -14 15 C-13.04882866 13.8274869 -12.08882991 12.66212985 -11.125 11.5 C-10.59132813 10.8503125 -10.05765625 10.200625 -9.5078125 9.53125 C-8.76144531 8.77328125 -8.76144531 8.77328125 -8 8 C-7.34 8 -6.68 8 -6 8 C-5.67 7.01 -5.34 6.02 -5 5 C-3.37347684 3.29413425 -1.70993434 1.6222454 0 0 Z " fill="#F9D493" transform="translate(281,283)"/>
<path d="M0 0 C0.33 0.99 0.66 1.98 1 3 C-0.74095679 4.82200133 -2.49177132 6.63229575 -4.25 8.4375 C-4.98669922 9.2119043 -4.98669922 9.2119043 -5.73828125 10.00195312 C-10.30164195 14.65658104 -10.30164195 14.65658104 -14 15 C-13.04882866 13.8274869 -12.08882991 12.66212985 -11.125 11.5 C-10.59132813 10.8503125 -10.05765625 10.200625 -9.5078125 9.53125 C-8.76144531 8.77328125 -8.76144531 8.77328125 -8 8 C-7.34 8 -6.68 8 -6 8 C-5.67 7.01 -5.34 6.02 -5 5 C-3.37347684 3.29413425 -1.70993434 1.6222454 0 0 Z " fill="#F9D493" transform="translate(297,267)"/>
<path d="M0 0 C0.33 0.99 0.66 1.98 1 3 C-0.74095679 4.82200133 -2.49177132 6.63229575 -4.25 8.4375 C-4.98669922 9.2119043 -4.98669922 9.2119043 -5.73828125 10.00195312 C-10.30164195 14.65658104 -10.30164195 14.65658104 -14 15 C-13.04882866 13.8274869 -12.08882991 12.66212985 -11.125 11.5 C-10.59132813 10.8503125 -10.05765625 10.200625 -9.5078125 9.53125 C-8.76144531 8.77328125 -8.76144531 8.77328125 -8 8 C-7.34 8 -6.68 8 -6 8 C-5.67 7.01 -5.34 6.02 -5 5 C-3.37347684 3.29413425 -1.70993434 1.6222454 0 0 Z " fill="#F9D493" transform="translate(313,251)"/>
<path d="M0 0 C0.33 0.99 0.66 1.98 1 3 C-0.74095679 4.82200133 -2.49177132 6.63229575 -4.25 8.4375 C-4.98669922 9.2119043 -4.98669922 9.2119043 -5.73828125 10.00195312 C-10.30164195 14.65658104 -10.30164195 14.65658104 -14 15 C-13.04882866 13.8274869 -12.08882991 12.66212985 -11.125 11.5 C-10.59132813 10.8503125 -10.05765625 10.200625 -9.5078125 9.53125 C-8.76144531 8.77328125 -8.76144531 8.77328125 -8 8 C-7.34 8 -6.68 8 -6 8 C-5.67 7.01 -5.34 6.02 -5 5 C-3.37347684 3.29413425 -1.70993434 1.6222454 0 0 Z " fill="#F9D493" transform="translate(329,235)"/>
<path d="M0 0 C0.33 0.99 0.66 1.98 1 3 C-0.74095679 4.82200133 -2.49177132 6.63229575 -4.25 8.4375 C-4.98669922 9.2119043 -4.98669922 9.2119043 -5.73828125 10.00195312 C-10.30164195 14.65658104 -10.30164195 14.65658104 -14 15 C-13.04882866 13.8274869 -12.08882991 12.66212985 -11.125 11.5 C-10.59132813 10.8503125 -10.05765625 10.200625 -9.5078125 9.53125 C-8.76144531 8.77328125 -8.76144531 8.77328125 -8 8 C-7.34 8 -6.68 8 -6 8 C-5.67 7.01 -5.34 6.02 -5 5 C-3.37347684 3.29413425 -1.70993434 1.6222454 0 0 Z " fill="#F9D493" transform="translate(345,219)"/>
<path d="M0 0 C0.33 0.99 0.66 1.98 1 3 C-0.74095679 4.82200133 -2.49177132 6.63229575 -4.25 8.4375 C-4.98669922 9.2119043 -4.98669922 9.2119043 -5.73828125 10.00195312 C-10.30164195 14.65658104 -10.30164195 14.65658104 -14 15 C-13.04882866 13.8274869 -12.08882991 12.66212985 -11.125 11.5 C-10.59132813 10.8503125 -10.05765625 10.200625 -9.5078125 9.53125 C-8.76144531 8.77328125 -8.76144531 8.77328125 -8 8 C-7.34 8 -6.68 8 -6 8 C-5.67 7.01 -5.34 6.02 -5 5 C-3.37347684 3.29413425 -1.70993434 1.6222454 0 0 Z " fill="#F9D493" transform="translate(361,203)"/>
<path d="M0 0 C0.33 0.99 0.66 1.98 1 3 C-0.74095679 4.82200133 -2.49177132 6.63229575 -4.25 8.4375 C-4.98669922 9.2119043 -4.98669922 9.2119043 -5.73828125 10.00195312 C-10.30164195 14.65658104 -10.30164195 14.65658104 -14 15 C-13.04882866 13.8274869 -12.08882991 12.66212985 -11.125 11.5 C-10.59132813 10.8503125 -10.05765625 10.200625 -9.5078125 9.53125 C-8.76144531 8.77328125 -8.76144531 8.77328125 -8 8 C-7.34 8 -6.68 8 -6 8 C-5.67 7.01 -5.34 6.02 -5 5 C-3.37347684 3.29413425 -1.70993434 1.6222454 0 0 Z " fill="#F9D493" transform="translate(377,187)"/>
<path d="M0 0 C0.33 0.99 0.66 1.98 1 3 C-0.74095679 4.82200133 -2.49177132 6.63229575 -4.25 8.4375 C-4.98669922 9.2119043 -4.98669922 9.2119043 -5.73828125 10.00195312 C-10.30164195 14.65658104 -10.30164195 14.65658104 -14 15 C-13.04882866 13.8274869 -12.08882991 12.66212985 -11.125 11.5 C-10.59132813 10.8503125 -10.05765625 10.200625 -9.5078125 9.53125 C-8.76144531 8.77328125 -8.76144531 8.77328125 -8 8 C-7.34 8 -6.68 8 -6 8 C-5.67 7.01 -5.34 6.02 -5 5 C-3.37347684 3.29413425 -1.70993434 1.6222454 0 0 Z " fill="#F9D493" transform="translate(393,171)"/>
<path d="M0 0 C0.33 0.99 0.66 1.98 1 3 C-0.74095679 4.82200133 -2.49177132 6.63229575 -4.25 8.4375 C-4.98669922 9.2119043 -4.98669922 9.2119043 -5.73828125 10.00195312 C-10.30164195 14.65658104 -10.30164195 14.65658104 -14 15 C-13.04882866 13.8274869 -12.08882991 12.66212985 -11.125 11.5 C-10.59132813 10.8503125 -10.05765625 10.200625 -9.5078125 9.53125 C-8.76144531 8.77328125 -8.76144531 8.77328125 -8 8 C-7.34 8 -6.68 8 -6 8 C-5.67 7.01 -5.34 6.02 -5 5 C-3.37347684 3.29413425 -1.70993434 1.6222454 0 0 Z " fill="#F9D493" transform="translate(409,155)"/>
<path d="M0 0 C0.33 0.99 0.66 1.98 1 3 C-0.74095679 4.82200133 -2.49177132 6.63229575 -4.25 8.4375 C-4.98669922 9.2119043 -4.98669922 9.2119043 -5.73828125 10.00195312 C-10.30164195 14.65658104 -10.30164195 14.65658104 -14 15 C-13.04882866 13.8274869 -12.08882991 12.66212985 -11.125 11.5 C-10.59132813 10.8503125 -10.05765625 10.200625 -9.5078125 9.53125 C-8.76144531 8.77328125 -8.76144531 8.77328125 -8 8 C-7.34 8 -6.68 8 -6 8 C-5.67 7.01 -5.34 6.02 -5 5 C-3.37347684 3.29413425 -1.70993434 1.6222454 0 0 Z " fill="#F9D493" transform="translate(473,91)"/>
<path d="M0 0 C2 2 2 2 2.25 5.125 C1.97678029 9.35990544 1.14425432 12.92359399 0 17 C-0.33 17 -0.66 17 -1 17 C-1.02699725 14.72923158 -1.04639453 12.45837179 -1.0625 10.1875 C-1.07990234 8.29064453 -1.07990234 8.29064453 -1.09765625 6.35546875 C-1 3 -1 3 0 0 Z " fill="#E6E6E6" transform="translate(1,68)"/>
<path d="M0 0 C2 3 2 3 2 6 C0.68 6 -0.64 6 -2 6 C-2.99 7.485 -2.99 7.485 -4 9 C-4 8.34 -4 7.68 -4 7 C-4.66 7 -5.32 7 -6 7 C-4.52307692 2.32307692 -4.52307692 2.32307692 -1.875 0.6875 C-1.25625 0.460625 -0.6375 0.23375 0 0 Z " fill="#FE3626" transform="translate(429,423)"/>
<path d="M0 0 C0 0.99 0 1.98 0 3 C-0.845625 3.804375 -1.69125 4.60875 -2.5625 5.4375 C-3.7690625 6.7059375 -3.7690625 6.7059375 -5 8 C-4.92393164 10.13803054 -4.92393164 10.13803054 -4 12 C-4 12.99 -4 13.98 -4 15 C-5.65 13.02 -7.3 11.04 -9 9 C-6.03 6.03 -3.06 3.06 0 0 Z " fill="#EFBC62" transform="translate(276,342)"/>
<path d="M0 0 C4.62 0 9.24 0 14 0 C14 0.66 14 1.32 14 2 C13.34 2 12.68 2 12 2 C12 2.66 12 3.32 12 4 C6.06 2.515 6.06 2.515 0 1 C0 0.67 0 0.34 0 0 Z " fill="#E7E7E7" transform="translate(96,0)"/>
<path d="M0 0 C0.33 0.99 0.66 1.98 1 3 C-2.46998729 5.31332486 -3.92509248 5.33957563 -8 5 C-8.99 4.34 -9.98 3.68 -11 3 C-10.67 2.34 -10.34 1.68 -10 1 C-8.906875 1.20625 -7.81375 1.4125 -6.6875 1.625 C-2.9161599 2.40346525 -2.9161599 2.40346525 0 0 Z " fill="#1D0301" transform="translate(495,494)"/>
<path d="M0 0 C1.33333333 2.66666667 2.66666667 5.33333333 4 8 C6.31 8 8.62 8 11 8 C10.67 8.66 10.34 9.32 10 10 C3.56985294 9.51470588 3.56985294 9.51470588 1.0625 7.25 C-0.16717908 4.64597372 -0.23723981 2.84687774 0 0 Z " fill="#D27750" transform="translate(15,487)"/>
<path d="M0 0 C7.48291572 6.15034169 7.48291572 6.15034169 10 10 C7.33333333 8.66666667 4.66666667 7.33333333 2 6 C2.33 5.34 2.66 4.68 3 4 C2.34 4 1.68 4 1 4 C0.67 2.68 0.34 1.36 0 0 Z " fill="#E67B4C" transform="translate(480,470)"/>
<path d="M0 0 C1.58502671 3.17005342 1.60385067 6.49124878 2 10 C0.02 8.35 -1.96 6.7 -4 5 C-2.68 3.35 -1.36 1.7 0 0 Z " fill="#E3AD58" transform="translate(398,400)"/>
<path d="M0 0 C1.65 0 3.3 0 5 0 C5 0.99 5 1.98 5 3 C2.5 5.1875 2.5 5.1875 0 7 C0 4.69 0 2.38 0 0 Z " fill="#DCA64B" transform="translate(341,387)"/>
<path d="M0 0 C1.65 0 3.3 0 5 0 C4.67 1.65 4.34 3.3 4 5 C2.35 4.67 0.7 4.34 -1 4 C-0.67 2.68 -0.34 1.36 0 0 Z " fill="#0BB74D" transform="translate(127,386)"/>
<path d="M0 0 C0.99 0.33 1.98 0.66 3 1 C0.03 3.64 -2.94 6.28 -6 9 C-6.66 8.67 -7.32 8.34 -8 8 C-5.36 5.36 -2.72 2.72 0 0 Z " fill="#361F08" transform="translate(169,236)"/>
<path d="M0 0 C0.33 0.99 0.66 1.98 1 3 C-1.12055614 6.1808342 -2.63050557 7.31525278 -6 9 C-6.66 8.67 -7.32 8.34 -8 8 C-5.36 5.36 -2.72 2.72 0 0 Z " fill="#260800" transform="translate(36,486)"/>
<path d="M0 0 C0.33 1.32 0.66 2.64 1 4 C-1.8125 6.0625 -1.8125 6.0625 -5 8 C-5.99 7.67 -6.98 7.34 -8 7 C-5.36 4.69 -2.72 2.38 0 0 Z " fill="#1F0000" transform="translate(433,429)"/>
<path d="M0 0 C1.98 1.65 3.96 3.3 6 5 C3 5 3 5 0 4 C0 4.66 0 5.32 0 6 C-0.66 5.67 -1.32 5.34 -2 5 C-1.125 1.125 -1.125 1.125 0 0 Z " fill="#F7D28C" transform="translate(108,24)"/>
<path d="M0 0 C0.66 1.32 1.32 2.64 2 4 C-0.31 4 -2.62 4 -5 4 C-5.33 3.34 -5.66 2.68 -6 2 C-4.02 1.34 -2.04 0.68 0 0 Z " fill="#F1C585" transform="translate(173,388)"/>
<path d="M0 0 C0.66 1.65 1.32 3.3 2 5 C1.01 5.33 0.02 5.66 -1 6 C-2.32 4.35 -3.64 2.7 -5 1 C-2 0 -2 0 0 0 Z " fill="#E0CFAF" transform="translate(142,359)"/>
<path d="M0 0 C0.33 0.99 0.66 1.98 1 3 C-1.40436026 6.60654039 -2.94679607 6.85452932 -7 8 C-6.02133662 6.85373678 -5.04205413 5.70800212 -4.0625 4.5625 C-3.51722656 3.92441406 -2.97195312 3.28632813 -2.41015625 2.62890625 C-1.63204305 1.73008851 -0.84063472 0.84063472 0 0 Z " fill="#260800" transform="translate(52,470)"/>
<path d="M0 0 C0.33 0.99 0.66 1.98 1 3 C-1.40436026 6.60654039 -2.94679607 6.85452932 -7 8 C-6.02133662 6.85373678 -5.04205413 5.70800212 -4.0625 4.5625 C-3.51722656 3.92441406 -2.97195312 3.28632813 -2.41015625 2.62890625 C-1.63204305 1.73008851 -0.84063472 0.84063472 0 0 Z " fill="#270800" transform="translate(68,454)"/>
<path d="M0 0 C0 3.60800902 -0.37635632 6.75271264 -2 10 C-2.99 9.01 -3.98 8.02 -5 7 C-3.70700306 4.11562221 -2.34058637 2.12780579 0 0 Z " fill="#D7794C" transform="translate(442,441)"/>
<path d="M0 0 C2.64 0.33 5.28 0.66 8 1 C6.68 2.32 5.36 3.64 4 5 C2.68 3.35 1.36 1.7 0 0 Z " fill="#F0B65D" transform="translate(103,410)"/>
<path d="M0 0 C0.66 1.32 1.32 2.64 2 4 C-0.97 4 -3.94 4 -7 4 C-4.77810176 1.77810176 -2.91517292 1.07401108 0 0 Z " fill="#EAEAE8" transform="translate(35,508)"/>
<path d="M0 0 C0.99 1.32 1.98 2.64 3 4 C2.67 4.66 2.34 5.32 2 6 C1.34 6 0.68 6 0 6 C0 5.34 0 4.68 0 4 C-1.32 4.33 -2.64 4.66 -4 5 C-2.68 3.35 -1.36 1.7 0 0 Z " fill="#F6BB56" transform="translate(313,305)"/>
<path d="M0 0 C0.66 0.33 1.32 0.66 2 1 C1 2.9375 1 2.9375 -1 5 C-3.69924572 5.66549451 -6.20631637 5.81680763 -9 6 C-6 4 -3 2 0 0 Z " fill="#320402" transform="translate(274,68)"/>
<path d="M0 0 C3.65316671 1.24976756 4.78065836 1.67098753 7 5 C6.01 5.33 5.02 5.66 4 6 C2.62437146 4.71034824 1.29233607 3.37310707 0 2 C0 1.34 0 0.68 0 0 Z " fill="#E7C788" transform="translate(99,17)"/>
<path d="M0 0 C0.99 0.33 1.98 0.66 3 1 C2.01 2.485 2.01 2.485 1 4 C0.92094936 6.33199388 0.91201231 8.66832622 1 11 C0.34 10.67 -0.32 10.34 -1 10 C-1.02689216 8.52093108 -1.04634621 7.04172517 -1.0625 5.5625 C-1.07410156 4.73878906 -1.08570313 3.91507812 -1.09765625 3.06640625 C-1 1 -1 1 0 0 Z " fill="#230601" transform="translate(15,483)"/>
<path d="M0 0 C2.64 0.33 5.28 0.66 8 1 C6.68 2.32 5.36 3.64 4 5 C2.68 3.35 1.36 1.7 0 0 Z " fill="#EDB65F" transform="translate(400,410)"/>
<path d="M0 0 C2.64 0.33 5.28 0.66 8 1 C6.68 2.32 5.36 3.64 4 5 C2.68 3.35 1.36 1.7 0 0 Z " fill="#20A154" transform="translate(379,389)"/>
<path d="M0 0 C1.98 0.99 1.98 0.99 4 2 C4 3.98 4 5.96 4 8 C1.10067643 5.60490662 0.49831724 3.68754757 0 0 Z " fill="#EFDEBA" transform="translate(117,336)"/>
<path d="M0 0 C1.98 0.66 3.96 1.32 6 2 C6.33 3.65 6.66 5.3 7 7 C5.83040013 6.02433888 4.66438823 5.044375 3.5 4.0625 C2.8503125 3.51722656 2.200625 2.97195313 1.53125 2.41015625 C1.0259375 1.94480469 0.520625 1.47945313 0 1 C0 0.67 0 0.34 0 0 Z " fill="#280900" transform="translate(461,450)"/>
<path d="M0 0 C3.875 1.75 3.875 1.75 5 4 C2.36 4 -0.28 4 -3 4 C-2.01 2.68 -1.02 1.36 0 0 Z " fill="#DB7A4F" transform="translate(446,437)"/>
<path d="M0 0 C0.66 0.66 1.32 1.32 2 2 C-0.97 4.475 -0.97 4.475 -4 7 C-4.66 6.67 -5.32 6.34 -6 6 C-4.02 4.02 -2.04 2.04 0 0 Z " fill="#1F0D00" transform="translate(117,405)"/>
<path d="M0 0 C1.98 1.65 3.96 3.3 6 5 C4.68 6.32 3.36 7.64 2 9 C2.04125 8.2575 2.0825 7.515 2.125 6.75 C1.99601866 3.91241048 1.42948778 2.41226062 0 0 Z " fill="#22A358" transform="translate(133,378)"/>
<path d="M0 0 C0.33 0.66 0.66 1.32 1 2 C0.34 2.66 -0.32 3.32 -1 4 C-1.99 5.485 -1.99 5.485 -3 7 C-3.99 5.68 -4.98 4.36 -6 3 C-4.02 2.01 -2.04 1.02 0 0 Z " fill="#F7BC54" transform="translate(150,225)"/>
<path d="M0 0 C0.33 0.66 0.66 1.32 1 2 C0.34 2.66 -0.32 3.32 -1 4 C-1.99 5.485 -1.99 5.485 -3 7 C-3.99 5.68 -4.98 4.36 -6 3 C-4.02 2.01 -2.04 1.02 0 0 Z " fill="#F7BC54" transform="translate(134,209)"/>
<path d="M0 0 C0.33 0.66 0.66 1.32 1 2 C0.34 2.66 -0.32 3.32 -1 4 C-1.99 5.485 -1.99 5.485 -3 7 C-3.99 5.68 -4.98 4.36 -6 3 C-4.02 2.01 -2.04 1.02 0 0 Z " fill="#F7BC54" transform="translate(118,193)"/>
<path d="M0 0 C0.33 0.66 0.66 1.32 1 2 C0.34 2.66 -0.32 3.32 -1 4 C-1.99 5.485 -1.99 5.485 -3 7 C-3.99 5.68 -4.98 4.36 -6 3 C-4.02 2.01 -2.04 1.02 0 0 Z " fill="#F7BC54" transform="translate(102,177)"/>
<path d="M0 0 C0.33 0.66 0.66 1.32 1 2 C0.34 2.66 -0.32 3.32 -1 4 C-1.99 5.485 -1.99 5.485 -3 7 C-3.99 5.68 -4.98 4.36 -6 3 C-4.02 2.01 -2.04 1.02 0 0 Z " fill="#F7BC54" transform="translate(86,161)"/>
<path d="M0 0 C0.33 0.66 0.66 1.32 1 2 C0.34 2.66 -0.32 3.32 -1 4 C-1.99 5.485 -1.99 5.485 -3 7 C-3.99 5.68 -4.98 4.36 -6 3 C-4.02 2.01 -2.04 1.02 0 0 Z " fill="#F7BC54" transform="translate(70,145)"/>
<path d="M0 0 C0.33 1.32 0.66 2.64 1 4 C-1.4375 6.75 -1.4375 6.75 -4 9 C-4.66 8.67 -5.32 8.34 -6 8 C-4.02 5.36 -2.04 2.72 0 0 Z " fill="#240100" transform="translate(282,59)"/>
</svg>
