<?xml version="1.0" encoding="UTF-8"?>
<svg version="1.1" xmlns="http://www.w3.org/2000/svg" width="512" height="512">
<path d="M0 0 C168.96 0 337.92 0 512 0 C512 168.96 512 337.92 512 512 C343.04 512 174.08 512 0 512 C0 343.04 0 174.08 0 0 Z " fill="#060606" transform="translate(0,0)"/>
<path d="M0 0 C0.76054687 -0.01933594 1.52109375 -0.03867188 2.3046875 -0.05859375 C13.49645737 1.91004167 20.15633949 9.75103731 27.8046875 17.48828125 C29.10662931 18.78939322 30.40938802 20.08968824 31.71292114 21.38920593 C34.43222748 24.10566427 37.14260392 26.83063817 39.84667969 29.56225586 C43.30472121 33.05442849 46.7825062 36.52611985 50.26698112 39.99189472 C52.95623654 42.67055993 55.6356238 45.35892295 58.31207657 48.05037498 C59.59065493 49.33411727 60.87204523 50.61506553 62.15633774 51.8930912 C63.95128447 53.6825595 65.73272831 55.48448917 67.51123047 57.2902832 C68.30138298 58.0706469 68.30138298 58.0706469 69.10749817 58.86677551 C73.48171593 63.35515437 76.57314851 68.42573942 76.5 74.875 C75.89628967 89.12256388 63.85909985 97.85467152 54.45487976 107.26824951 C53.27194692 108.45592104 52.0892211 109.6437988 50.90668327 110.83186364 C47.67180376 114.08056682 44.43383636 117.32617652 41.19529307 120.57122684 C38.41441549 123.35850148 35.63537684 126.14760603 32.85635241 128.93672815 C23.70933261 138.11696263 14.55650376 147.29139353 5.40205809 156.46422231 C3.01843904 158.85264118 0.63491151 161.24115136 -1.74859595 163.62968159 C-16.56007191 178.4721153 -31.37369068 193.31240821 -46.19225788 208.1477623 C-49.61933104 211.57878467 -53.04637725 215.00983394 -56.47338867 218.44091797 C-57.3251135 219.29365115 -58.17683832 220.14638434 -59.05437299 221.02495793 C-72.86611063 234.85372016 -86.66574754 248.69449388 -100.4605727 262.54012498 C-114.63130959 276.76262187 -128.81333775 290.97378152 -143.00634927 305.17405057 C-150.97203346 313.14439701 -158.93259886 321.11971567 -166.88042641 329.10787201 C-173.64486329 335.90659268 -180.41937472 342.69506571 -187.20730869 349.47033015 C-190.66935541 352.92654782 -194.12636179 356.38743961 -197.57040977 359.86160088 C-200.72513245 363.04368134 -203.89346655 366.21152384 -207.0730634 369.36874405 C-208.21891946 370.51137731 -209.35975151 371.65907653 -210.49488489 372.81236276 C-217.68360084 380.10899108 -224.03177047 385.47704673 -234.4375 386.9375 C-243.26178589 385.65396751 -249.90822884 380.954399 -255.875 374.4375 C-255.875 373.7775 -255.875 373.1175 -255.875 372.4375 C-256.74125 372.06625 -256.74125 372.06625 -257.625 371.6875 C-260.20439979 370.25450012 -261.93621592 368.65325324 -263.875 366.4375 C-263.875 365.7775 -263.875 365.1175 -263.875 364.4375 C-264.71756348 364.08171875 -264.71756348 364.08171875 -265.57714844 363.71875 C-268.40082658 362.14430643 -270.35114842 360.22065455 -272.640625 357.9375 C-273.53007812 357.050625 -274.41953125 356.16375 -275.3359375 355.25 C-276.25632812 354.321875 -277.17671875 353.39375 -278.125 352.4375 C-279.06085938 351.509375 -279.99671875 350.58125 -280.9609375 349.625 C-281.84523438 348.738125 -282.72953125 347.85125 -283.640625 346.9375 C-284.45305664 346.1228125 -285.26548828 345.308125 -286.10253906 344.46875 C-287.875 342.4375 -287.875 342.4375 -287.875 340.4375 C-288.43445313 340.20160156 -288.99390625 339.96570313 -289.5703125 339.72265625 C-297.94515567 335.05261659 -304.63823768 325.91102464 -308.875 317.4375 C-309.0510097 315.21285277 -309.14245033 312.98114438 -309.1875 310.75 C-309.22488281 309.54988281 -309.26226562 308.34976562 -309.30078125 307.11328125 C-308.5096869 300.28374196 -304.55469305 295.74237611 -299.82647228 291.00865555 C-299.08065475 290.25584813 -299.08065475 290.25584813 -298.31977019 289.48783249 C-296.6594165 287.81557115 -294.98864598 286.15413753 -293.31767273 284.49249268 C-292.11000899 283.2806542 -290.90299801 282.06816494 -289.69658309 280.85508323 C-286.38520917 277.5292548 -283.06454773 274.21283807 -279.74225485 270.8979218 C-276.15873396 267.31913013 -272.58384372 263.73173475 -269.0078125 260.14546204 C-262.00331957 253.12377189 -254.99066491 246.11028825 -247.97494992 239.09981236 C-242.27373015 233.40263326 -236.57525798 227.70271979 -230.87873268 222.00084686 C-230.06811486 221.18948062 -229.25749703 220.37811437 -228.42231504 219.54216127 C-226.77559686 217.89391163 -225.12888212 216.24565855 -223.4821708 214.59740207 C-208.03942893 199.14093218 -192.58711415 183.69406053 -177.13177351 168.25018999 C-162.98822705 154.11657954 -148.85615639 139.9715587 -134.72954299 125.82102528 C-120.22651824 111.29362812 -105.71613814 96.77361679 -91.19759399 82.261729 C-83.04568143 74.11331237 -74.89667228 65.96204266 -66.75525475 57.80313873 C-59.82575236 50.85893778 -52.88928824 43.92178433 -45.94370802 36.99366292 C-42.39960473 33.45809061 -38.85880508 29.91936805 -35.32660103 26.37190437 C-32.09362328 23.12513278 -28.85157047 19.88772183 -25.60200856 16.65755114 C-24.42759287 15.48691199 -23.25654706 14.31288038 -22.08923086 13.13516179 C-20.50223171 11.53502918 -18.90340361 9.94771646 -17.30105114 8.36297989 C-15.97319396 7.03528371 -15.97319396 7.03528371 -14.61851138 5.68076539 C-10.31093399 2.15862243 -5.66491555 0.00953689 0 0 Z " fill="#F6F6F6" transform="translate(420.875,14.5625)"/>
<path d="M0 0 C104.94 0 209.88 0 318 0 C315.78845922 2.21154078 314.48791499 2.59360256 311.5625 3.5625 C300.94944005 7.70108033 292.83803323 16.86817165 284.94551086 24.8139801 C283.98773854 25.77087763 283.02952573 26.72733444 282.07091779 27.68339485 C279.4689217 30.28096723 276.87312167 32.8846516 274.27839053 35.48947823 C271.4676233 38.30895038 268.65100787 41.12257029 265.83512878 43.93693542 C260.96744777 48.80357201 256.10341756 53.6738324 251.24190712 58.54663277 C244.21313181 65.59172035 237.17878512 72.63122361 230.14310303 79.66941284 C218.72600302 91.090881 207.31336868 102.51680048 195.90356445 113.94555664 C184.82551605 125.04198668 173.74535144 136.1362966 162.66235352 147.2277832 C161.97823449 147.91242767 161.29411547 148.59707215 160.58926556 149.30246342 C157.15694065 152.73739857 153.72457429 156.1722923 150.29218733 159.60716546 C121.8550312 188.06502666 93.42513127 216.53012805 65 245 C60.49041153 241.21959286 56.1749646 237.323649 52.01531982 233.16249084 C51.45609243 232.60694014 50.89686503 232.05138943 50.32069135 231.47900385 C48.46763238 229.63686332 46.61807589 227.79124855 44.76855469 225.94555664 C43.43268707 224.61596215 42.09663268 223.2865553 40.76040649 221.95732117 C36.39399782 217.61183711 32.03282139 213.26112083 27.671875 208.91015625 C26.16659035 207.40892213 24.6612725 205.90772129 23.15592194 204.40655327 C16.08885981 197.35850953 9.02418768 190.30808094 1.96245456 183.25469786 C-6.18095371 175.12107933 -14.33258891 166.99582308 -22.49124455 158.87749964 C-28.80583831 152.59305199 -35.1127496 146.30096076 -41.41394496 140.00307935 C-45.17446591 136.24490858 -48.93821838 132.49011452 -52.71012115 128.74336433 C-56.25491894 125.22182865 -59.79009469 121.69091199 -63.31813431 118.1525898 C-64.61309817 116.85713019 -65.91148171 115.56507843 -67.21353531 114.27674484 C-68.99286015 112.51512397 -70.75935723 110.74154219 -72.52325439 108.9644928 C-73.03891 108.45980644 -73.55456561 107.95512008 -74.08584714 107.43514019 C-78.83440125 102.6008751 -81.42729026 97.43365779 -81.4375 90.5625 C-81.45683594 89.69753906 -81.47617188 88.83257812 -81.49609375 87.94140625 C-80.30135322 80.85762973 -76.24073265 75.64623725 -71.2409668 70.72338867 C-70.67616608 70.15157867 -70.11136536 69.57976868 -69.52944946 68.9906311 C-67.67923334 67.12295996 -65.81495106 65.27013003 -63.94921875 63.41796875 C-62.64832606 62.11437795 -61.34802735 60.81019417 -60.04829407 59.50544739 C-57.33039431 56.78166979 -54.60544139 54.06520907 -51.87524414 51.35375977 C-48.38480437 47.88613067 -44.91266291 44.40081981 -41.44560528 40.90983105 C-38.76674926 38.21649039 -36.07840118 35.53278693 -33.38712502 32.85186195 C-32.10323684 31.57063249 -30.82228676 30.28645155 -29.5444088 28.99922752 C-27.7548746 27.19948172 -25.95292151 25.41314092 -24.1472168 23.62963867 C-23.62697433 23.10129929 -23.10673187 22.5729599 -22.57072449 22.02861023 C-17.66600551 17.23447353 -12.5274019 14.57284904 -5.5625 14.5625 C-4.26505859 14.53349609 -4.26505859 14.53349609 -2.94140625 14.50390625 C7.16357573 16.20819936 13.49040446 23.95387645 20.33520508 30.89697266 C21.56216037 32.12669632 22.79000857 33.35552963 24.01867676 34.58354187 C27.33920494 37.90718325 30.64734595 41.24291092 33.95349336 44.58084917 C37.41858768 48.0747496 40.89548654 51.55686115 44.3712616 55.04013062 C50.94847282 61.63491241 57.51584352 68.23939906 64.07935113 74.84781682 C73.72179615 84.55553043 83.3770114 94.2505304 93.03462505 103.94315147 C93.74259489 104.65369073 94.45056473 105.36422998 95.17998821 106.09630072 C96.59128511 107.51269498 98.00261465 108.92905671 99.4139778 110.34538496 C103.54947982 114.49615361 107.68140721 118.65043997 111.81030905 122.80777383 C114.37440024 125.38885598 116.94042604 127.9680089 119.50684357 130.54677773 C120.69817458 131.74478488 121.88862012 132.94367331 123.07812309 134.14349556 C124.69899412 135.77826106 126.32290739 137.40994399 127.94758606 139.04092407 C128.85622312 139.9556782 129.76486017 140.87043232 130.70103168 141.81290627 C132.99534831 144.12083856 132.99534831 144.12083856 136 146 C141.04001408 145.76787034 141.04001408 145.76787034 145 143 C145.67953365 140.03476226 145.84922201 138.84255823 145 136 C143.35218744 133.73222121 143.35218744 133.73222121 141.17175293 131.47479248 C140.3505748 130.59213463 139.52939667 129.70947678 138.68333435 128.80007172 C134.03149035 123.94585114 129.3159671 119.15948671 124.56445312 114.40332031 C123.44455062 113.27877622 122.3248409 112.1540401 121.20530701 111.02912903 C118.19336028 108.00419645 115.17820325 104.98248522 112.16199303 101.96180439 C110.27275898 100.06962072 108.38410551 98.17685937 106.49562073 96.28392792 C100.5717592 90.34643597 94.64593172 84.41091676 88.71719122 78.47829652 C81.89945266 71.65606986 75.08832072 64.82733642 68.28280878 57.99291348 C63.0003758 52.68882724 57.71215629 47.39055557 52.41955328 42.09661746 C49.26740612 38.9434261 46.1176977 35.78789043 42.97401428 32.62625885 C40.01911271 29.65481041 37.05704878 26.69068917 34.08949471 23.73187828 C33.00700039 22.65015045 31.92702826 21.5658913 30.84989738 20.47882271 C22.19509421 11.74891788 12.72985194 2.51545856 0 1 C0 0.67 0 0.34 0 0 Z " fill="#F6F6F6" transform="translate(96,0)"/>
<path d="M0 0 C3.26147046 1.42683316 5.39109431 3.16038945 7.87548828 5.69604492 C8.99783371 6.83314156 8.99783371 6.83314156 10.14285278 7.99320984 C10.94391449 8.81400528 11.7449762 9.63480072 12.5703125 10.48046875 C14.28893397 12.21952807 16.00768827 13.95845613 17.7265625 15.69726562 C20.42128873 18.4353052 23.11349366 21.17576181 25.80273438 23.91918945 C28.40611803 26.57125466 31.01896621 29.21372047 33.6328125 31.85546875 C34.42172882 32.66614304 35.21064514 33.47681732 36.02346802 34.3120575 C45.5473577 43.91890222 56.10264857 51.91001343 70.125 52.4375 C86.15032804 51.64391347 96.56856944 42.07667369 107 31 C113.24338455 36.15016781 118.90798789 41.7998489 124.59765625 47.54760742 C125.65110666 48.60789956 126.70481459 49.66793588 127.75875854 50.72773743 C130.01624446 52.99848521 132.27228915 55.2706517 134.52731323 57.54384422 C138.09623622 61.1407493 141.67069748 64.73211599 145.24633789 68.32234192 C146.47350236 69.55464918 147.7006599 70.78696334 148.92781067 72.01928425 C149.54200174 72.63606088 150.15619282 73.25283752 150.78899574 73.88830435 C159.10390985 82.23919643 167.41400115 90.59484415 175.71386719 98.96069336 C181.32529482 104.61664184 186.94383516 110.26541948 192.57051373 115.90619737 C195.54337048 118.887115 198.51241483 121.8716218 201.47268677 124.86504173 C204.25488128 127.67834112 207.04628503 130.48216321 209.844944 133.27908134 C210.86790782 134.30473498 211.88745482 135.33381009 212.90322495 136.36658859 C219.99177164 143.6676426 219.99177164 143.6676426 229 148 C229 148.33 229 148.66 229 149 C78.52 149 -71.96 149 -227 149 C-225 147 -225 147 -222.18737411 145.66566753 C-218.81571368 143.9036951 -216.67595484 142.04063879 -214.00201416 139.34931946 C-213.53685733 138.88531477 -213.07170049 138.42131008 -212.592448 137.94324464 C-211.04692244 136.39797572 -209.51235063 134.84228213 -207.97753906 133.28637695 C-206.86727416 132.17198876 -205.75632989 131.05827707 -204.64476013 129.94519043 C-202.2586545 127.55300387 -199.87732786 125.15619495 -197.4996109 122.75567055 C-193.74263988 118.96286686 -189.97475392 115.18103396 -186.20526123 111.40068054 C-178.89143575 104.06275129 -171.58897708 96.71356876 -164.28751373 89.36334229 C-154.98009374 79.99503709 -145.66699272 70.63239725 -136.34487891 61.27871293 C-132.59564196 57.51605589 -128.85171757 53.74821295 -125.11183119 49.97626269 C-122.79089018 47.63727919 -120.46590285 45.30235015 -118.13981819 42.96848297 C-117.05846519 41.88176721 -115.97885539 40.7933138 -114.90108299 39.7030468 C-113.43527018 38.22068054 -111.96350614 36.74449397 -110.49005127 35.26972961 C-109.66638691 34.44032521 -108.84272255 33.61092081 -107.99409866 32.75638294 C-106 31 -106 31 -104 31 C-102.5546875 32.50390625 -102.5546875 32.50390625 -100.875 34.5625 C-93.48271197 43.17162557 -85.49365133 50.525478 -73.6796875 51.4453125 C-58.64391685 52.06962419 -49.11955743 48.14298951 -38 38 C-31.30601977 31.61322611 -24.8218866 25.01112596 -18.3125 18.4375 C-16.5323695 16.64732051 -14.75177437 14.85760292 -12.97070312 13.06835938 C-8.64176077 8.71755381 -4.31860157 4.36106873 0 0 Z " fill="#F6F6F6" transform="translate(255,363)"/>
<path d="M0 0 C0.33 0 0.66 0 1 0 C1 128.04 1 256.08 1 388 C-0.29691012 386.05463482 -1.57464285 384.09629329 -2.8291893 382.12334251 C-4.93568206 379.09254007 -7.12403117 376.62961016 -9.73297119 374.02651978 C-10.19374676 373.56403536 -10.65452232 373.10155095 -11.12926078 372.62505186 C-12.65992418 371.09111891 -14.19757869 369.56440064 -15.73535156 368.03759766 C-16.83980562 366.93370826 -17.94381844 365.82937726 -19.04742432 364.72463989 C-22.03436666 361.73712519 -25.02742255 358.7558048 -28.0216341 355.77557802 C-31.15356796 352.65617092 -34.27981575 349.53107577 -37.40667725 346.40658569 C-43.3240907 340.49538129 -49.2465826 334.58929244 -55.17092681 328.68503511 C-61.91728789 321.96105091 -68.65795146 315.23136739 -75.39814806 308.50120473 C-89.25911233 294.66112943 -103.12719784 280.82820873 -117 267 C-116.05111486 265.88585548 -115.1012088 264.77258041 -114.15087891 263.65966797 C-113.35757675 262.72959427 -113.35757675 262.72959427 -112.54824829 261.7807312 C-110.56035768 259.49434158 -108.46479424 257.31817629 -106.375 255.125 C-97.88653482 245.7505334 -96.32324683 235.91885193 -96.61328125 223.61328125 C-97.15552172 214.26201132 -101.91514829 207.87715455 -108.15625 201.2265625 C-108.66992126 200.67486893 -109.18359253 200.12317535 -109.71282959 199.55476379 C-117.03852129 191.75046507 -124.66040923 184.23335862 -132.25 176.6875 C-133.78539241 175.15713794 -135.32055013 173.62654038 -136.85546875 172.09570312 C-140.56761937 168.39442424 -144.28262554 164.69603193 -148 161 C-146.41675855 157.11259749 -143.7692205 154.49716033 -140.83332825 151.59954834 C-140.301613 151.06682981 -139.76989775 150.53411128 -139.22206992 149.98524976 C-137.43897295 148.20120014 -135.64882619 146.42439734 -133.85864258 144.64746094 C-132.57864462 143.36966429 -131.29909416 142.09141924 -130.0199585 140.8127594 C-127.26348658 138.05922206 -124.50388557 135.30887309 -121.74183083 132.56093597 C-117.37025506 128.21163067 -113.00578195 123.85524472 -108.64225769 119.49786377 C-101.73416437 112.60115764 -94.82141811 105.70913697 -87.90663499 98.81913877 C-75.53920429 86.49597144 -63.17724607 74.16732081 -50.82059592 61.83334374 C-46.48650337 57.50763431 -42.14961786 53.18475063 -37.81043112 48.86415148 C-35.10332861 46.1677399 -32.39829512 43.46925958 -29.6937561 40.77027702 C-28.44463795 39.52461117 -27.19464986 38.27981692 -25.94370079 37.03598976 C-9.30329812 20.8418977 -9.30329812 20.8418977 0 0 Z " fill="#F6F6F6" transform="translate(511,96)"/>
<path d="M0 0 C1.77180484 2.65770726 2.56615368 4.53502736 3.5625 7.5 C8.31895091 19.44509317 19.35362139 28.63482892 28.32250977 37.54956055 C29.64444772 38.8709331 30.96594295 40.19274868 32.28703308 41.51496887 C35.84390801 45.07241328 39.40687749 48.62369452 42.97104383 52.1738317 C46.70622537 55.89643787 50.43567408 59.62477876 54.16575623 63.35249329 C61.21630564 70.39684783 68.27193378 77.4360923 75.3294391 84.47347718 C83.36974726 92.49136406 91.40431895 100.51498898 99.43843377 108.53908098 C115.95261838 125.03240877 132.47392918 141.51858263 149 158 C147.4649776 161.2258051 145.86602679 163.36521211 143.30395508 165.87548828 C142.16685844 166.99783371 142.16685844 166.99783371 141.00679016 168.14285278 C140.18599472 168.94391449 139.36519928 169.7449762 138.51953125 170.5703125 C136.78047193 172.28893397 135.04154387 174.00768827 133.30273438 175.7265625 C130.5646948 178.42128873 127.82423819 181.11349366 125.08081055 183.80273438 C122.42874534 186.40611803 119.78627953 189.01896621 117.14453125 191.6328125 C116.33385696 192.42172882 115.52318268 193.21064514 114.6879425 194.02346802 C106.00808635 202.62837366 97.75907991 212.05332729 97.47973633 224.76147461 C97.60046105 239.21498773 101.2332115 248.06662989 111.37890625 258.30859375 C113.77340083 260.76732217 115.87927985 263.30687433 118 266 C117.12285985 266.8716094 117.12285985 266.8716094 116.22799969 267.76082706 C101.99523455 281.9052258 87.77357572 296.06070709 73.5641737 310.22857761 C66.69232392 317.07980885 59.81677572 323.92724978 52.93237305 330.76586914 C46.93141061 336.7269424 40.93753056 342.69503148 34.95202237 348.67162365 C31.78297026 351.8354646 28.61050201 354.99569903 25.42952538 358.1475544 C22.43399498 361.11588309 19.44804296 364.0935218 16.4690876 367.07848167 C15.37570492 368.17076626 14.27890405 369.25964186 13.17841339 370.34476471 C11.67235899 371.83081711 10.17926843 373.32882986 8.68864441 374.83033752 C7.85073459 375.66456017 7.01282476 376.49878283 6.14952374 377.35828495 C3.61509584 380.47303832 2.42062828 383.26069675 1 387 C0.67 387 0.34 387 0 387 C0 259.29 0 131.58 0 0 Z " fill="#F6F6F6" transform="translate(0,97)"/>
<path d="M0 0 C3.88544899 3.28511736 7.70872398 6.58456394 11.32714844 10.16601562 C12.48304474 11.30750061 12.48304474 11.30750061 13.66229248 12.4720459 C14.87359833 13.67697693 14.87359833 13.67697693 16.109375 14.90625 C16.9580011 15.74917603 17.8066272 16.59210205 18.68096924 17.46057129 C20.46399686 19.23419836 22.24561028 21.00924815 24.02587891 22.78564453 C26.74844586 25.49845143 29.48149456 28.20040672 32.21484375 30.90234375 C33.95117851 32.63215259 35.68687769 34.36259969 37.421875 36.09375 C38.23750916 36.89703735 39.05314331 37.70032471 39.89349365 38.5279541 C45.80571766 44.46358632 49.4153589 49.07848431 49.5625 57.75 C49.62630859 59.44382812 49.62630859 59.44382812 49.69140625 61.171875 C47.74450508 71.95132782 39.05304001 79.5284839 31.57421875 86.921875 C30.46026474 88.03598442 29.3469808 89.15076417 28.23432922 90.26617432 C25.91323658 92.58864267 23.58540644 94.90406155 21.25219727 97.21435547 C18.28168176 100.15647275 15.32700713 103.11391429 12.37703228 106.07661057 C10.08422358 108.3764173 7.78403584 110.66872833 5.4815464 112.95883942 C4.39000932 114.04590316 3.30049527 115.13500264 2.21317101 116.22628021 C-14.59603602 133.06798387 -14.59603602 133.06798387 -25.625 133.375 C-26.81351562 133.42398438 -28.00203125 133.47296875 -29.2265625 133.5234375 C-38.58105165 132.22581685 -44.85878818 124.54314843 -51.1875 118.10546875 C-52.13947509 117.1478861 -53.09212384 116.19097275 -54.04541016 115.23469543 C-56.53117016 112.73757794 -59.00778053 110.23158057 -61.48248291 107.72351074 C-64.01792839 105.15716634 -66.56207726 102.59948097 -69.10546875 100.04101562 C-74.07877954 95.03570163 -79.04245922 90.02093804 -84 85 C-79.61618886 79.75528394 -75.00291191 74.86477977 -70.15869141 70.04516602 C-69.01620941 68.90246498 -69.01620941 68.90246498 -67.85064697 67.73667908 C-65.35331728 65.24004143 -62.85247313 62.74695638 -60.3515625 60.25390625 C-58.61114002 58.51535046 -56.87093939 56.77657256 -55.13095093 55.0375824 C-50.56623679 50.47667363 -45.99852673 45.91877686 -41.43017578 41.36151123 C-36.76282722 36.70441946 -32.09833276 32.04447097 -27.43359375 27.38476562 C-18.29184591 18.25372017 -9.14702563 9.12575827 0 0 Z " fill="#F6F6F6" transform="translate(351,267)"/>
<path d="M0 0 C9.03180774 7.18235208 15.73329674 16.76268253 17.875 28.25 C18.76328971 42.78393169 15.67121776 54.79307059 7.12890625 66.6796875 C-0.33159169 74.92634544 -12.75130889 80.63619004 -23.73828125 81.55078125 C-38.40310077 81.59723791 -49.09988153 78.0421387 -60 67.875 C-63.53238446 64.10599648 -65.88560768 59.87697973 -68.125 55.25 C-68.434375 54.62867188 -68.74375 54.00734375 -69.0625 53.3671875 C-73.46577299 43.92555407 -73.54088895 31.93955053 -70.5625 22.0625 C-65.81882135 9.47350667 -56.74823508 -0.2129397 -44.515625 -5.78515625 C-29.57582131 -11.8147829 -13.05619835 -9.27544593 0 0 Z " fill="#040404" transform="translate(283.125,8.75)"/>
<path d="M0 0 C27.72 0 55.44 0 84 0 C84 28.05 84 56.1 84 85 C82.51470959 82.02941919 81.40305728 79.34895915 80.3125 76.25 C78.4577342 71.48261717 75.94224226 68.23490383 72.390625 64.59375 C71 63 71 63 71 61 C70.34 61 69.68 61 69 61 C69 60.34 69 59.68 69 59 C67.515 58.505 67.515 58.505 66 58 C66 57.34 66 56.68 66 56 C64.515 55.505 64.515 55.505 63 55 C63 54.34 63 53.68 63 53 C62.34 53 61.68 53 61 53 C61 52.34 61 51.68 61 51 C60.01 50.67 59.02 50.34 58 50 C58 49.34 58 48.68 58 48 C57.01 47.67 56.02 47.34 55 47 C55 46.34 55 45.68 55 45 C54.34 45 53.68 45 53 45 C53 44.34 53 43.68 53 43 C52.01 42.67 51.02 42.34 50 42 C50 41.34 50 40.68 50 40 C49.01 39.67 48.02 39.34 47 39 C45.45703125 37.43359375 45.45703125 37.43359375 43.8125 35.4375 C39.34457836 30.17275157 34.77077626 24.84718417 29 21 C29 20.34 29 19.68 29 19 C28.4225 18.773125 27.845 18.54625 27.25 18.3125 C25 17 25 17 23.25 14.75 C18.32530019 8.73092246 12.45183861 5.45528917 5.19921875 2.859375 C3 2 3 2 0 0 Z " fill="#F5F5F5" transform="translate(428,0)"/>
<path d="M0 0 C28.71 0 57.42 0 87 0 C87 0.33 87 0.66 87 1 C86.2265625 1.15855469 85.453125 1.31710938 84.65625 1.48046875 C67.92890518 5.22755961 57.84494732 17.09453437 46.0625 28.8125 C44.97980835 29.88806152 44.97980835 29.88806152 43.87524414 30.98535156 C40.8087546 34.06151231 37.83867139 37.12046007 35.12109375 40.51171875 C34.42113281 41.33285156 33.72117188 42.15398438 33 43 C32.34 43 31.68 43 31 43 C30.773125 43.5775 30.54625 44.155 30.3125 44.75 C28.65238361 47.59591381 26.60812043 48.99841921 24 51 C22.31066078 52.6436814 20.64740076 54.3142876 19 56 C18.37867187 56.5878125 17.75734375 57.175625 17.1171875 57.78125 C9.93492029 64.6631182 5.19187272 71.58397547 2 81 C1.34 82.32 0.68 83.64 0 85 C0 56.95 0 28.9 0 0 Z " fill="#F5F5F5" transform="translate(0,0)"/>
<path d="M0 0 C7.17401055 4.60728048 11.2965789 10.96866869 14 19 C15.50458542 28.05066001 13.47190952 36.60334488 8.52734375 44.2890625 C2.64542147 51.71446794 -5.23235962 55.15538137 -14.47265625 56.30859375 C-23.33284657 56.7495987 -30.38924388 53.88099616 -37.171875 48.171875 C-43.2975247 41.73208942 -46.15029991 34.4544217 -46.625 25.625 C-46.30891899 16.69044352 -42.69277403 9.12721201 -36.1875 3 C-25.25899235 -5.43350873 -12.25371698 -7.04115813 0 0 Z " fill="#F4F4F4" transform="translate(272,19)"/>
<path d="M0 0 C3.57003019 1.52278058 5.90413212 3.62861543 8.66088867 6.33862305 C9.57831345 7.23683273 10.49573822 8.13504242 11.44096375 9.06047058 C12.43385116 10.04366243 13.42617259 11.02742611 14.41796875 12.01171875 C15.44118622 13.02342357 16.46440503 14.03512704 17.48762512 15.04682922 C19.6290146 17.16723993 21.7657336 19.29224611 23.90014648 21.41967773 C26.63052975 24.13908704 29.37896664 26.83944448 32.1321516 29.53573895 C34.25182221 31.61809018 36.3578875 33.71380752 38.46050453 35.81336403 C39.46782719 36.81464957 40.48013133 37.81095019 41.49751854 38.80200768 C42.92157699 40.19180428 44.32490604 41.60274481 45.72729492 43.0144043 C46.53019455 43.81001266 47.33309418 44.60562103 48.1603241 45.42533875 C50.48002138 48.67179901 50.8733465 51.03940628 51 55 C49 58 49 58 46 60 C40.33211642 59.84405417 37.73012486 58.47384037 33.79907227 54.48022461 C33.32987869 54.0119072 32.86068512 53.54358978 32.37727356 53.06108093 C30.8423138 51.5219677 29.329665 49.96277292 27.81640625 48.40234375 C26.75155745 47.32629484 25.68536904 46.2515701 24.61790466 45.17811584 C21.82122144 42.35859864 19.04303039 39.52153041 16.26837158 36.68035889 C13.43014677 33.78059469 10.57471406 30.89788531 7.72070312 28.01367188 C2.13020046 22.3589525 -3.44087226 16.68556604 -9 11 C-7.49053489 7.81913482 -5.92058175 5.70130094 -3.375 3.25 C-2.74335938 2.63640625 -2.11171875 2.0228125 -1.4609375 1.390625 C-0.73777344 0.70226562 -0.73777344 0.70226562 0 0 Z " fill="#F4F4F4" transform="translate(446,437)"/>
<path d="M0 0 C3.18086518 1.50946511 5.29869906 3.07941825 7.75 5.625 C8.67039062 6.57246094 8.67039062 6.57246094 9.609375 7.5390625 C10.29773438 8.26222656 10.29773438 8.26222656 11 9 C9.47721942 12.57003019 7.37138457 14.90413212 4.66137695 17.66088867 C3.76316727 18.57831345 2.86495758 19.49573822 1.93952942 20.44096375 C0.95633757 21.43385116 -0.02742611 22.42617259 -1.01171875 23.41796875 C-2.02342357 24.44118622 -3.03512704 25.46440503 -4.04682922 26.48762512 C-6.16723993 28.6290146 -8.29224611 30.7657336 -10.41967773 32.90014648 C-13.13908704 35.63052975 -15.83944448 38.37896664 -18.53573895 41.1321516 C-20.61809018 43.25182221 -22.71380752 45.3578875 -24.81336403 47.46050453 C-25.81464957 48.46782719 -26.81095019 49.48013133 -27.80200768 50.49751854 C-29.19180428 51.92157699 -30.60274481 53.32490604 -32.0144043 54.72729492 C-32.81001266 55.53019455 -33.60562103 56.33309418 -34.42533875 57.1603241 C-37.67179901 59.48002138 -40.03940628 59.8733465 -44 60 C-47 58 -47 58 -49 55 C-48.84405417 49.33211642 -47.47384037 46.73012486 -43.48022461 42.79907227 C-43.0119072 42.32987869 -42.54358978 41.86068512 -42.06108093 41.37727356 C-40.5219677 39.8423138 -38.96277292 38.329665 -37.40234375 36.81640625 C-36.32629484 35.75155745 -35.2515701 34.68536904 -34.17811584 33.61790466 C-31.35859864 30.82122144 -28.52153041 28.04303039 -25.68035889 25.26837158 C-22.78059469 22.43014677 -19.89788531 19.57471406 -17.01367188 16.72070312 C-11.3589525 11.13020046 -5.68556604 5.55912774 0 0 Z " fill="#F4F4F4" transform="translate(64,437)"/>
<path d="M0 0 C4.31864357 3.57118603 7.43980387 6.54975483 11 11 C7.7 14.3 4.4 17.6 1 21 C-3.31864357 17.42881397 -6.43980387 14.45024517 -10 10 C-6.7 6.7 -3.4 3.4 0 0 Z " fill="#F2F2F2" transform="translate(404,394)"/>
<path d="M0 0 C4.31864357 3.57118603 7.43980387 6.54975483 11 11 C7.7 14.3 4.4 17.6 1 21 C-3.31864357 17.42881397 -6.43980387 14.45024517 -10 10 C-6.7 6.7 -3.4 3.4 0 0 Z " fill="#F2F2F2" transform="translate(107,394)"/>
<path d="M0 0 C4.31864357 3.57118603 7.43980387 6.54975483 11 11 C7.7 14.3 4.4 17.6 1 21 C-3.31864357 17.42881397 -6.43980387 14.45024517 -10 10 C-6.7 6.7 -3.4 3.4 0 0 Z " fill="#F3F3F3" transform="translate(383,373)"/>
<path d="M0 0 C4.31864357 3.57118603 7.43980387 6.54975483 11 11 C7.7 14.3 4.4 17.6 1 21 C-3.31864357 17.42881397 -6.43980387 14.45024517 -10 10 C-6.7 6.7 -3.4 3.4 0 0 Z " fill="#F3F3F3" transform="translate(128,373)"/>
<path d="M0 0 C3.21524305 1.40844718 5.32183868 3.10344786 7.75 5.625 C8.67039062 6.57246094 8.67039062 6.57246094 9.609375 7.5390625 C10.06828125 8.02117187 10.5271875 8.50328125 11 9 C9.59155282 12.21524305 7.89655214 14.32183868 5.375 16.75 C4.74335938 17.36359375 4.11171875 17.9771875 3.4609375 18.609375 C2.97882813 19.06828125 2.49671875 19.5271875 2 20 C-1.21524305 18.59155282 -3.32183868 16.89655214 -5.75 14.375 C-6.36359375 13.74335938 -6.9771875 13.11171875 -7.609375 12.4609375 C-8.06828125 11.97882813 -8.5271875 11.49671875 -9 11 C-7.59155282 7.78475695 -5.89655214 5.67816132 -3.375 3.25 C-2.74335938 2.63640625 -2.11171875 2.0228125 -1.4609375 1.390625 C-0.73777344 0.70226562 -0.73777344 0.70226562 0 0 Z " fill="#F2F2F2" transform="translate(425,416)"/>
<path d="M0 0 C3.21524305 1.40844718 5.32183868 3.10344786 7.75 5.625 C8.67039062 6.57246094 8.67039062 6.57246094 9.609375 7.5390625 C10.06828125 8.02117187 10.5271875 8.50328125 11 9 C9.59155282 12.21524305 7.89655214 14.32183868 5.375 16.75 C4.74335937 17.36359375 4.11171875 17.9771875 3.4609375 18.609375 C2.97882813 19.06828125 2.49671875 19.5271875 2 20 C-1.21524305 18.59155282 -3.32183868 16.89655214 -5.75 14.375 C-6.36359375 13.74335938 -6.9771875 13.11171875 -7.609375 12.4609375 C-8.06828125 11.97882813 -8.5271875 11.49671875 -9 11 C-7.59155282 7.78475695 -5.89655214 5.67816132 -3.375 3.25 C-2.74335937 2.63640625 -2.11171875 2.0228125 -1.4609375 1.390625 C-0.73777344 0.70226562 -0.73777344 0.70226562 0 0 Z " fill="#F2F2F2" transform="translate(85,416)"/>
<path d="M0 0 C0.33 0 0.66 0 1 0 C1 5.94 1 11.88 1 18 C-4.94 18 -10.88 18 -17 18 C-14 16 -14 16 -11.1875 14.8125 C-6.01033826 11.86862371 -2.83303765 8.08259412 -0.625 2.5625 C-0.315625 1.2940625 -0.315625 1.2940625 0 0 Z " fill="#EDEDED" transform="translate(511,494)"/>
<path d="M0 0 C2 3 2 3 3.1875 5.8125 C6.30594628 11.29666414 10.9063927 15.15345233 17 17 C17 17.33 17 17.66 17 18 C11.39 18 5.78 18 0 18 C0 12.06 0 6.12 0 0 Z " fill="#F0F0F0" transform="translate(0,494)"/>
<path d="M0 0 C0.99 0.33 1.98 0.66 3 1 C3.66 0.67 4.32 0.34 5 0 C5 6.27 5 12.54 5 19 C3.51774263 16.03548526 2.11194261 13.10704243 0.8125 10.0625 C0.44769531 9.22847656 0.08289063 8.39445312 -0.29296875 7.53515625 C-1.10339518 4.62926259 -0.80717433 2.8739519 0 0 Z " fill="#EAEAEA" transform="translate(507,66)"/>
<path d="M0 0 C2 2 2 2 2.25 5.125 C1.97678029 9.35990544 1.14425432 12.92359399 0 17 C-0.33 17 -0.66 17 -1 17 C-1.02699725 14.72923158 -1.04639453 12.45837179 -1.0625 10.1875 C-1.07990234 8.29064453 -1.07990234 8.29064453 -1.09765625 6.35546875 C-1 3 -1 3 0 0 Z " fill="#E6E6E6" transform="translate(1,68)"/>
<path d="M0 0 C4.62 0 9.24 0 14 0 C14 0.66 14 1.32 14 2 C13.34 2 12.68 2 12 2 C12 2.66 12 3.32 12 4 C6.06 2.515 6.06 2.515 0 1 C0 0.67 0 0.34 0 0 Z " fill="#E7E7E7" transform="translate(96,0)"/>
<path d="M0 0 C4.29 0 8.58 0 13 0 C11.515 1.485 11.515 1.485 10 3 C7.51953125 2.85546875 7.51953125 2.85546875 4.8125 2.1875 C3.91144531 1.97480469 3.01039063 1.76210938 2.08203125 1.54296875 C1.39496094 1.36378906 0.70789063 1.18460937 0 1 C0 0.67 0 0.34 0 0 Z " fill="#DEDEDE" transform="translate(262,0)"/>
<path d="M0 0 C0.66 1.32 1.32 2.64 2 4 C-0.97 4 -3.94 4 -7 4 C-4.77810176 1.77810176 -2.91517292 1.07401108 0 0 Z " fill="#EAEAEA" transform="translate(35,508)"/>
<path d="M0 0 C2.125 0.375 2.125 0.375 4 1 C4 1.66 4 2.32 4 3 C2.02 3.99 2.02 3.99 0 5 C-0.66 4.01 -1.32 3.02 -2 2 C-1.34 1.34 -0.68 0.68 0 0 Z " fill="#EAEAEA" transform="translate(271,66)"/>
</svg>
