<?xml version="1.0" encoding="UTF-8"?>
<svg version="1.1" xmlns="http://www.w3.org/2000/svg" width="512" height="512">
<path d="M0 0 C168.96 0 337.92 0 512 0 C512 168.96 512 337.92 512 512 C343.04 512 174.08 512 0 512 C0 343.04 0 174.08 0 0 Z " fill="#040404" transform="translate(0,0)"/>
<path d="M0 0 C0.33 0 0.66 0 1 0 C1 128.04 1 256.08 1 388 C-58.4 388 -117.8 388 -179 388 C-176 386 -176 386 -173.5625 384.875 C-169.95045788 382.23204235 -168.36467875 379.16817372 -167 375 C-166.39365142 370.33451435 -166.30460106 365.70065446 -166.25 361 C-166.22035156 359.74832031 -166.19070313 358.49664062 -166.16015625 357.20703125 C-166.08987212 354.13795759 -166.03696808 351.06962548 -166 348 C-162.69123609 348.56548084 -159.94766563 349.34543553 -156.953125 350.85546875 C-156.19878174 351.22792725 -155.44443848 351.60038574 -154.66723633 351.98413086 C-153.86954834 352.38124268 -153.07186035 352.77835449 -152.25 353.1875 C-145.87652491 356.28442247 -139.50476629 359.10122232 -132.8125 361.4375 C-131.80848145 361.78880981 -131.80848145 361.78880981 -130.78417969 362.1472168 C-121.96367132 365.13555561 -113.66682741 367.49127037 -104.4375 365.0625 C-96.16133534 360.97015218 -91.13830577 351.51350885 -87.125 343.625 C-86.62105713 342.65054932 -86.11711426 341.67609863 -85.59790039 340.67211914 C-80.57146361 330.65791654 -76.76594099 320.24253395 -73.05859375 309.68359375 C-70.49095108 302.50662391 -68.70800762 298.03414734 -62.25 293.625 C-51.34075869 285.80182875 -42.48168323 274.22416322 -40.21484375 260.59765625 C-39.31605739 249.73051205 -38.96928922 239.96213122 -44 230 C-44.350625 229.28585937 -44.70125 228.57171875 -45.0625 227.8359375 C-48.79115115 221.12954412 -54.67864402 216.21423732 -61 212 C-61.28942747 209.47272933 -61.39307827 207.1769634 -61.37109375 204.6484375 C-61.38849386 203.14192502 -61.40607803 201.63541465 -61.42382812 200.12890625 C-61.43385046 197.75923437 -61.43751068 195.3897116 -61.43579102 193.02001953 C-61.30682712 179.53371643 -61.30682712 179.53371643 -67.74609375 167.9765625 C-68.58333984 167.30753906 -68.58333984 167.30753906 -69.4375 166.625 C-69.99308594 166.16351563 -70.54867187 165.70203125 -71.12109375 165.2265625 C-76.80780566 161.51423913 -82.39261673 161.26687742 -89 162 C-95.17654094 163.76623688 -99.52274056 167.67337009 -103 173 C-105.16743696 177.29977973 -105.20707436 181.19032142 -105.09765625 185.8984375 C-105.09359201 187.44530839 -105.09170679 188.99218627 -105.09179688 190.5390625 C-105.0836999 192.95834094 -105.06251562 195.37435798 -105.00366211 197.79296875 C-104.70706819 211.32316935 -104.70706819 211.32316935 -107.98242188 215.57104492 C-110.24665623 217.31544349 -112.48695295 218.65304754 -115 220 C-124.25875811 229.9897127 -123.50497101 241.6110791 -123.15380859 254.39160156 C-122.87995078 259.03588238 -121.93478394 263.39350469 -120.75390625 267.89453125 C-120.50511719 268.91933594 -120.25632812 269.94414062 -120 271 C-119.84265381 271.62632324 -119.68530762 272.25264648 -119.52319336 272.89794922 C-118.73898264 276.87621992 -118.80411763 279.29454947 -120.87109375 282.84375 C-121.70461043 284.07761721 -122.56070317 285.29650273 -123.4375 286.5 C-124.0881543 287.44746094 -124.0881543 287.44746094 -124.75195312 288.4140625 C-125.8151697 289.95631071 -126.90496176 291.48018084 -128 293 C-131.95938072 292.41905449 -134.70025472 291.21383206 -138.09765625 289.12109375 C-139.05800781 288.53328125 -140.01835937 287.94546875 -141.0078125 287.33984375 C-142.01585937 286.71207031 -143.02390625 286.08429688 -144.0625 285.4375 C-145.10019531 284.80070312 -146.13789063 284.16390625 -147.20703125 283.5078125 C-152.40635638 280.3006911 -157.50500199 277.0149986 -162.5 273.5 C-172.47407222 266.7545292 -183.73816638 263.54847364 -195.34375 260.859375 C-196.5503125 260.57578125 -197.756875 260.2921875 -199 260 C-200.17175781 259.74605469 -201.34351563 259.49210937 -202.55078125 259.23046875 C-206.78289874 257.72070996 -209.40288568 255.5509925 -212.6875 252.5625 C-216.78519232 248.78885524 -216.78519232 248.78885524 -221.39453125 245.71484375 C-223.48819189 243.47854929 -223.23913927 242.32561776 -223.25 239.3125 C-223.18576167 237.8740202 -223.10836453 236.43583001 -223 235 C-221.42412109 234.14728516 -221.42412109 234.14728516 -219.81640625 233.27734375 C-197.6376422 221.14234232 -179.93424073 204.73124819 -172.3125 179.8125 C-172.12300781 179.09707031 -171.93351562 178.38164062 -171.73828125 177.64453125 C-171.49464844 177.10183594 -171.25101562 176.55914062 -171 176 C-167.76523878 174.92174626 -165.69406074 175.02729802 -162.3125 175.1875 C-157.24630533 175.24883408 -153.94938334 174.56963 -149.62109375 171.97265625 C-148 171 -148 171 -145 170 C-143.91240231 168.13252929 -143.91240231 168.13252929 -143 166 C-142.21518083 164.84946577 -141.42316084 163.70381916 -140.625 162.5625 C-134.77847115 153.00333858 -133.61903034 143.87644269 -133.5 132.875 C-133.47232544 131.37356445 -133.47232544 131.37356445 -133.4440918 129.84179688 C-133.52411316 120.18852694 -136.05576423 110.09237947 -143 103 C-148.46323093 98.41675258 -154.06414254 97.03031189 -161 96 C-160.93143799 95.27514404 -160.86287598 94.55028809 -160.79223633 93.8034668 C-159.20334792 76.08103107 -158.8389539 59.14130573 -164 42 C-164.33920223 40.66814763 -164.67388002 39.33511597 -165 38 C-163.99615328 37.99918285 -163.99615328 37.99918285 -162.97202682 37.99834919 C-146.64444221 37.98334401 -130.31718209 37.94074694 -113.98975754 37.86790943 C-106.09372659 37.83334155 -98.19786873 37.80791473 -90.30175781 37.80444336 C-83.41483318 37.80139199 -76.52821746 37.78074504 -69.64141202 37.73947543 C-65.99902359 37.71824923 -62.35707316 37.70549068 -58.7146225 37.71384621 C-54.63581896 37.72287151 -50.55817118 37.69259081 -46.47949219 37.65942383 C-45.28833801 37.66804947 -44.09718384 37.67667511 -42.86993408 37.68556213 C-30.28458656 37.5148699 -20.07796119 32.85995417 -11.09765625 24.15625 C-4.47966423 17.10452066 -1.68908859 9.40111152 0 0 Z " fill="#F5F5F5" transform="translate(511,124)"/>
<path d="M0 0 C1.88828282 2.83242422 2.72009589 4.98485959 3.75 8.1875 C7.9896083 20.01787758 16.53726567 27.6851182 27.703125 33.0546875 C31.70923547 34.70346086 35.16145895 35.12940134 39.49224854 35.15821838 C41.16649902 35.17290161 41.16649902 35.17290161 42.87457275 35.18788147 C44.09448914 35.19363693 45.31440552 35.1993924 46.57128906 35.20532227 C47.85934448 35.21522186 49.1473999 35.22512146 50.4744873 35.23532104 C54.00304376 35.26233071 57.53161353 35.28336155 61.06021595 35.30332303 C64.74913262 35.32520691 68.43800841 35.35258384 72.12689209 35.37937927 C79.11076525 35.42927369 86.09466114 35.47422457 93.07857871 35.51740164 C101.03017954 35.56680181 108.98173935 35.62170962 116.9333005 35.67708123 C133.28882917 35.79085137 149.64439547 35.89770121 166 36 C165.52482731 37.90673964 165.04924263 39.8133766 164.57348633 41.7199707 C164.30868973 42.78174026 164.04389313 43.84350983 163.77107239 44.93745422 C163.30391233 46.79292082 162.82990711 48.64670706 162.34321594 50.49714661 C160.70666903 56.75112982 160.73838189 62.87982842 160.8125 69.3125 C160.81314453 70.36373047 160.81378906 71.41496094 160.81445312 72.49804688 C160.85432549 79.70608482 161.30158425 86.82697283 162 94 C161.32477295 94.0913623 160.6495459 94.18272461 159.95385742 94.27685547 C152.1949121 95.4064375 146.04526795 98.04180376 141.17578125 104.37109375 C135.60301897 113.23623859 134.67417546 120.6443181 134.75 130.9375 C134.74226562 131.98357422 134.73453125 133.02964844 134.7265625 134.10742188 C134.75646914 146.00278974 137.73577425 156.6829291 145.5 166 C151.89989464 171.11991571 155.97744737 173.13782158 164.1875 173.0625 C166.09595703 173.04896484 166.09595703 173.04896484 168.04296875 173.03515625 C169.01878906 173.02355469 169.99460938 173.01195312 171 173 C171.27972656 173.70382812 171.55945313 174.40765625 171.84765625 175.1328125 C176.65277863 186.96793707 181.62424685 198.25366906 190 208 C190.4846875 208.639375 190.969375 209.27875 191.46875 209.9375 C199.70862292 220.36346165 211.99624902 227.70225515 224 233 C224.54687621 236.14352547 224.66656715 238.86670194 224 242 C221.6202632 245.0757601 218.69043473 247.21968307 215.5625 249.5 C214.76005859 250.11875 213.95761719 250.7375 213.13085938 251.375 C211.65501917 252.51083651 210.17022514 253.63519723 208.67407227 254.74414062 C207.05809041 255.89480764 207.05809041 255.89480764 206 257 C204.27650623 257.30485617 202.54552152 257.56754187 200.8125 257.8125 C190.54598613 259.49732341 181.07899074 262.20556366 171.75 266.8125 C171.12512695 267.11945801 170.50025391 267.42641602 169.85644531 267.74267578 C165.16722688 270.15822257 160.95908731 273.08979482 156.66796875 276.1472168 C152.11439115 279.30946976 147.38285189 282.1582354 142.625 285 C141.65433594 285.59683594 140.68367187 286.19367188 139.68359375 286.80859375 C138.28173828 287.64583984 138.28173828 287.64583984 136.8515625 288.5 C136.01447754 289.0053125 135.17739258 289.510625 134.31494141 290.03125 C132 291 132 291 129.83276367 290.82250977 C125.03556429 288.66961717 122.16316375 281.55010306 120 277 C119.8332148 273.4975107 119.9799864 272.15070867 121 269 C123.2432446 260.62216812 124.31331066 252.84152466 124.375 244.1875 C124.38861572 243.31649658 124.40223145 242.44549316 124.41625977 241.5480957 C124.35744885 233.07529555 122.33905685 225.71195719 117 219 C114.48546304 216.6210176 111.90024299 214.48607011 108.84179688 212.8347168 C106.50035754 210.50227822 106.52946099 208.75111192 106.49694824 205.52900696 C106.50826782 204.80400497 106.5195874 204.07900299 106.53125 203.33203125 C106.52420044 202.57838791 106.51715088 201.82474457 106.5098877 201.04826355 C106.48045237 197.82944056 106.49693821 194.61122365 106.50927734 191.39233398 C106.72418125 177.70879582 106.72418125 177.70879582 100.25390625 165.9765625 C99.41666016 165.30753906 99.41666016 165.30753906 98.5625 164.625 C98.00691406 164.16351563 97.45132813 163.70203125 96.87890625 163.2265625 C91.19219434 159.51423913 85.60738327 159.26687742 79 160 C72.82345906 161.76623688 68.47725944 165.67337009 65 171 C62.87526405 175.24220371 62.79105984 179.03720356 62.90234375 183.6796875 C62.90640802 185.18098535 62.9082932 186.6822904 62.90820312 188.18359375 C62.91629924 190.53048451 62.93747523 192.87401263 62.99633789 195.22021484 C63.29273652 208.33619872 63.29273652 208.33619872 60.05053711 212.5090332 C57.77859908 214.25541671 55.49510372 215.60307625 53 217 C45.83906192 223.83830551 41.16096992 233.0341437 40.69921875 243.015625 C40.67972023 244.42695405 40.67627663 245.83858088 40.6875 247.25 C40.69313965 247.99725342 40.6987793 248.74450684 40.70458984 249.5144043 C41.01613441 263.8099814 46.8344357 276.36524868 56.5078125 286.8203125 C59.09209627 289.08054815 61.46894735 290.23927175 64.5625 291.6875 C72.99298312 296.64246362 74.36596864 307.30495333 77.04833984 316.06884766 C79.39646002 323.30115417 82.69295605 330.16468894 86 337 C86.33 337.68594238 86.66 338.37188477 87 339.07861328 C91.51923655 348.34437221 96.31789399 357.0104362 104.9375 363.0625 C112.24110641 365.29829788 119.1339349 363.80706334 126.25 361.5625 C127.52351318 361.17130981 127.52351318 361.17130981 128.82275391 360.7722168 C140.00111975 357.21137463 150.99613515 352.63014963 161.4140625 347.23046875 C164 346 164 346 167 346 C167.0093457 346.77601563 167.01869141 347.55203125 167.02832031 348.3515625 C167.08233437 351.90166287 167.16592303 355.45048948 167.25 359 C167.26417969 360.22074219 167.27835938 361.44148438 167.29296875 362.69921875 C167.486627 369.86457417 167.98420033 374.97630049 172 381 C173.7921499 382.69812138 173.7921499 382.69812138 175.75 383.5 C176.8225 383.995 177.895 384.49 179 385 C179 385.33 179 385.66 179 386 C119.93 386 60.86 386 0 386 C0 258.62 0 131.24 0 0 Z " fill="#F6F6F6" transform="translate(0,126)"/>
<path d="M0 0 C9.9 0 19.8 0 30 0 C28.68 1.65 27.36 3.3 26 5 C25.9048346 8.66974518 25.9048346 8.66974518 27 12 C30.04103344 14.02735563 30.61220495 14.24994184 34.0206604 14.2515564 C34.83636505 14.25693924 35.6520697 14.26232208 36.49249268 14.26786804 C37.38393982 14.26374405 38.27538696 14.25962006 39.19384766 14.25537109 C40.13567902 14.25899155 41.07751038 14.262612 42.04788208 14.26634216 C44.09567928 14.27324127 46.14349488 14.27574064 48.19130325 14.27439499 C51.4370187 14.27343068 54.68240208 14.28636261 57.92807007 14.30337524 C67.15726103 14.34966472 76.38641967 14.37423771 85.61572266 14.38085938 C91.26032988 14.38588593 96.90459314 14.41019931 102.54908371 14.44618607 C104.69634304 14.45596241 106.84364983 14.45832788 108.99092484 14.45301437 C112.00424922 14.44591076 115.01655671 14.46329599 118.02978516 14.48583984 C119.34873779 14.47358116 119.34873779 14.47358116 120.69433594 14.46107483 C129.67004786 14.57989768 136.66553945 17.94161239 143.20703125 24 C149.47252225 30.98895728 151.14436875 37.84218063 151.17700195 46.99047852 C151.18357315 47.79269333 151.19014435 48.59490814 151.19691467 49.4214325 C151.21660756 52.07392479 151.22830405 54.72636045 151.23828125 57.37890625 C151.24235678 58.28824354 151.2464323 59.19758083 151.25063133 60.1344738 C151.27147939 64.95170742 151.2857841 69.7689127 151.29516602 74.58618164 C151.30620132 79.54001966 151.34057147 84.4934049 151.38033772 89.44708347 C151.40660262 93.27433555 151.41486679 97.10148159 151.41844749 100.92881584 C151.42329142 102.75349914 151.43484212 104.57817842 151.45348549 106.4027729 C151.56900738 118.46251649 151.57883622 130.14406428 142.78515625 139.5 C139.51594144 142.24699888 135.82765965 144.14741273 132 146 C131.34 146.33 130.68 146.66 130 147 C127.99552555 147.10469576 125.98752865 147.14392116 123.98034668 147.15390015 C122.69626923 147.16250061 121.41219177 147.17110107 120.08920288 147.17996216 C118.65777628 147.18439765 117.22634926 147.18869599 115.79492188 147.19287109 C114.29362803 147.20077135 112.79233608 147.20904026 111.29104614 147.21765137 C106.35029926 147.24389307 101.40954384 147.25918694 96.46875 147.2734375 C94.76703384 147.2787974 93.06531773 147.28417491 91.36360168 147.28956985 C84.28125493 147.31120691 77.19891046 147.32994075 70.116539 147.34119225 C59.97495155 147.35741006 49.83374856 147.39052537 39.69230604 147.44759309 C32.5584105 147.48636269 25.42461746 147.50583356 18.29061937 147.51111281 C14.03235223 147.51475836 9.77449494 147.52669311 5.51634216 147.55921555 C1.50414371 147.589418 -2.50739959 147.59556516 -6.51968765 147.58383179 C-7.98616612 147.58361202 -9.45267604 147.59183609 -10.91904831 147.60948563 C-21.16393417 147.72600251 -28.62202816 146.46427767 -36.62109375 139.82421875 C-37.22050781 139.11910156 -37.81992187 138.41398438 -38.4375 137.6875 C-39.05496094 136.99011719 -39.67242187 136.29273438 -40.30859375 135.57421875 C-44.41089153 129.33076786 -45.44857119 123.49163842 -45.43579102 116.20410156 C-45.44586685 115.36389465 -45.45594269 114.52368774 -45.46632385 113.65802002 C-45.49463568 110.90208333 -45.5006721 108.14669774 -45.50390625 105.390625 C-45.51355993 103.4578225 -45.52365332 101.52502215 -45.53416443 99.59222412 C-45.55208456 95.54743372 -45.5576898 91.50283509 -45.5559082 87.45800781 C-45.5556038 82.30229417 -45.59653219 77.14782434 -45.64822483 71.99240494 C-45.68176085 68.00122552 -45.68766049 64.01034116 -45.68607903 60.01903534 C-45.68959403 58.11980662 -45.70272112 56.22056817 -45.72607613 54.3214798 C-45.8579449 42.49046092 -45.5197547 32.39982218 -37.25860596 23.02354431 C-29.86226337 15.8511091 -21.04790339 14.40766851 -11.125 14.3125 C-9.08586196 14.27044278 -7.04678964 14.22502548 -5.0078125 14.17578125 C-4.11723145 14.16458252 -3.22665039 14.15338379 -2.30908203 14.1418457 C0.16026852 14.08961345 0.16026852 14.08961345 3 13 C4.49297212 10.01405576 4.11755228 7.29146376 4 4 C3.04134491 1.66924071 3.04134491 1.66924071 0 0 Z " fill="#F5F5F5" transform="translate(60,0)"/>
<path d="M0 0 C1.47292439 -0.00514804 2.94584259 -0.01243596 4.41874695 -0.02168274 C8.39207515 -0.04009279 12.36472658 -0.02732479 16.33802605 -0.00759244 C20.51201948 0.00888203 24.685973 -0.000031 28.85998535 -0.00511169 C35.86721513 -0.00962288 42.87417713 0.00617643 49.88134766 0.03417969 C57.9624045 0.06622725 66.04297859 0.06621269 74.12406969 0.04896492 C81.92385391 0.03305627 89.72346252 0.03986119 97.52323914 0.05690193 C100.83083317 0.06374308 104.13828519 0.06277037 107.44587708 0.05535698 C111.34657968 0.0476496 115.24673831 0.05996375 119.1473484 0.08720589 C120.57186584 0.09404448 121.99643452 0.09423675 123.42094994 0.08699036 C133.90111862 0.0398541 143.69027893 1.15969544 151.5741272 8.72622681 C160.17473134 19.04315022 160.02630566 29.77848248 159.88867188 42.48266602 C159.88763219 44.39212034 159.88867718 46.30157682 159.89169312 48.21102905 C159.89151466 52.19350562 159.87085918 56.17516409 159.83447266 60.1574707 C159.78903807 65.23911483 159.78803145 70.31956991 159.80150795 75.40136147 C159.80821784 79.33759974 159.79487188 83.27357125 159.77524948 87.20975876 C159.76760196 89.08267188 159.76522538 90.9556148 159.76842117 92.8285408 C159.77208023 105.64719525 159.30154718 116.12297482 150.09960938 125.93969727 C144.55484122 130.78019044 138.30842436 132.75044538 131.04670715 132.77827454 C129.76677887 132.78542984 128.48685059 132.79258514 127.1681366 132.79995728 C125.74661279 132.80279753 124.32508872 132.80550926 122.90356445 132.80810547 C121.40873049 132.81437099 119.91389808 132.82101787 118.41906738 132.82801819 C113.50660282 132.849053 108.59413796 132.85942102 103.68164062 132.86938477 C101.98947318 132.87343274 100.29730589 132.87754968 98.60513878 132.88173485 C90.65376104 132.90078639 82.70239258 132.91501668 74.75099641 132.92334682 C65.57862532 132.93311513 56.40649582 132.95942412 47.23420984 132.99984771 C40.14108732 133.03003298 33.04803395 133.04481803 25.95484847 133.04812783 C21.72020002 133.05047586 17.48580967 133.05940374 13.25123024 133.084589 C9.26453183 133.10791666 5.27826058 133.11208431 1.29151154 133.10182762 C-0.16773464 133.10133326 -1.62700216 133.10762425 -3.08618355 133.12138367 C-13.97277375 133.21825389 -21.08037414 131.7512095 -29.30273438 124.33422852 C-31.90174161 121.45085153 -33.4432089 118.22687063 -34.83789062 114.63110352 C-35.34989265 113.33224213 -35.34989265 113.33224213 -35.87223816 112.00714111 C-36.98662565 108.11110792 -37.12600883 104.50361909 -37.11254883 100.48950195 C-37.11765976 99.69514236 -37.12277069 98.90078278 -37.1280365 98.08235168 C-37.14188314 95.46831629 -37.14097895 92.85454614 -37.13867188 90.24047852 C-37.14256252 88.41212874 -37.14689795 86.58377985 -37.1516571 84.75543213 C-37.15910949 80.92571075 -37.1588359 77.09608157 -37.15356445 73.26635742 C-37.14778202 68.37979478 -37.1646759 63.49361268 -37.18790913 58.60711288 C-37.20270801 54.83050359 -37.20350964 51.05398454 -37.2003994 47.27735138 C-37.20090988 45.47698465 -37.20609586 43.6766125 -37.21621132 41.87627411 C-37.33151466 18.4781204 -37.33151466 18.4781204 -29.77539062 10.31860352 C-29.08316406 9.5387207 -28.3909375 8.75883789 -27.67773438 7.95532227 C-18.98968171 0.84474271 -10.97690992 -0.09819687 0 0 Z " fill="#F5F5F5" transform="translate(337.837890625,14.368896484375)"/>
<path d="M0 0 C5.10438765 0.81149852 7.42370357 4.29656451 10.71875 8.07421875 C11.67587891 9.13092773 11.67587891 9.13092773 12.65234375 10.20898438 C16.18211392 14.12493595 19.60948275 18.12139388 22.97460938 22.17944336 C25.23913272 24.60438525 26.62145987 24.55132956 30.03125 24.88671875 C33.23429756 24.81783601 34.01552814 24.66804326 36.65625 22.63671875 C37.52269209 21.60524008 38.37438378 20.56134527 39.21875 19.51171875 C40.73565721 17.84147796 42.25686402 16.17513667 43.78125 14.51171875 C46.71133923 11.26170643 49.51133887 7.94970114 52.21875 4.51171875 C55.22027317 5.83853762 57.10571959 7.21032935 59.234375 9.69921875 C59.76289063 10.31539063 60.29140625 10.9315625 60.8359375 11.56640625 C61.37476563 12.20835937 61.91359375 12.8503125 62.46875 13.51171875 C63.30019531 14.47464844 63.30019531 14.47464844 64.1484375 15.45703125 C68.21875 20.24917257 68.21875 20.24917257 68.21875 22.51171875 C71.87487044 24.85163583 74.95082376 24.88609824 79.21875 24.51171875 C83.52675798 22.41059538 86.46497459 19.36916673 89.59375 15.82421875 C90.07054199 15.29401123 90.54733398 14.76380371 91.03857422 14.2175293 C92.43953844 12.65546129 93.83096379 11.08549692 95.21875 9.51171875 C95.95609375 8.67640625 96.6934375 7.84109375 97.453125 6.98046875 C98.63165828 5.63635641 99.80675598 4.28921424 100.9765625 2.9375 C101.69986988 2.10728869 102.4401537 1.29031505 103.21875 0.51171875 C119.01275861 0.02034959 134.4186402 8.77471517 146.78125 17.76171875 C154.3622179 23.2566485 162.72476603 27.61156985 170.88208008 32.18066406 C172.54923305 33.13033683 174.18468124 34.13657697 175.7956543 35.17871094 C179.33461587 37.12558551 181.39443288 36.60438078 185.21875 35.51171875 C189.68860749 31.68563779 192.52833942 27.17737718 195.53125 22.19921875 C195.98564453 21.45865234 196.44003906 20.71808594 196.90820312 19.95507812 C198.01795404 18.14443189 199.11922981 16.3285958 200.21875 14.51171875 C203.65368576 15.10944539 206.66106496 15.98699659 209.86328125 17.359375 C211.12495117 17.89594727 211.12495117 17.89594727 212.41210938 18.44335938 C213.70858398 19.00313477 213.70858398 19.00313477 215.03125 19.57421875 C216.35672852 20.13979492 216.35672852 20.13979492 217.70898438 20.71679688 C219.88076124 21.64420429 222.05056367 22.57595509 224.21875 23.51171875 C222.21270318 31.7911835 219.38417962 39.5009087 216.03125 47.32421875 C215.3031311 49.03182373 215.3031311 49.03182373 214.56030273 50.77392578 C204.88538866 73.10702507 204.88538866 73.10702507 198.21875 78.51171875 C182.79610457 81.44082583 158.58316929 65.95351087 145.46875 58.94921875 C140.68639611 56.53102285 137.53779831 55.46690569 132.21875 56.51171875 C129.04135779 59.43572983 128.26815102 61.14372553 127.6887207 65.45996094 C127.65443595 66.99252587 127.64078247 68.52564996 127.64453125 70.05859375 C127.63036667 70.870401 127.61620209 71.68220825 127.60160828 72.51861572 C127.55981668 75.09978657 127.54448209 77.6802576 127.53125 80.26171875 C127.50222007 82.85713831 127.46774704 85.45238002 127.42875671 88.04766846 C127.40621618 89.66017604 127.3904292 91.27279439 127.38191223 92.88543701 C127.32835261 98.40211614 127.32835261 98.40211614 126.21875 99.51171875 C122.45153835 99.68175338 118.69063514 99.8090846 114.91992188 99.85351562 C109.95755052 100.02310483 109.95755052 100.02310483 105.640625 102.33203125 C103.88669087 104.57541553 103.88669087 104.57541553 104.28125 108.07421875 C104.98489284 111.77400053 104.98489284 111.77400053 108.21875 114.51171875 C98.31875 114.51171875 88.41875 114.51171875 78.21875 114.51171875 C79.86875 112.86171875 81.51875 111.21171875 83.21875 109.51171875 C83.96896244 106.96804207 83.96896244 106.96804207 83.21875 104.51171875 C81.55954726 102.06952186 80.23343878 100.70602903 77.27321815 100.13915443 C74.73887605 99.98437062 72.23171355 99.96326553 69.69262695 99.98168945 C68.72804565 99.97295807 67.76346436 99.96422668 66.76965332 99.95523071 C63.58192394 99.93083551 60.39484216 99.93426641 57.20703125 99.9375 C54.99552805 99.92506025 52.78403475 99.91072754 50.57255554 99.89457703 C44.75159673 99.85651027 38.93080822 99.841355 33.10974121 99.83178711 C23.78103542 99.81205729 14.45245979 99.75535235 5.12389183 99.70302391 C1.85710396 99.68761824 -1.4096195 99.68047576 -4.67643738 99.67488098 C-6.66539543 99.66786856 -8.65435318 99.66076795 -10.64331055 99.65356445 C-11.55915421 99.65409317 -12.47499786 99.65462189 -13.41859436 99.65516663 C-19.66803264 99.62493611 -19.66803264 99.62493611 -20.78125 98.51171875 C-20.87961447 95.83300256 -20.91838449 93.17536621 -20.921875 90.49609375 C-20.94020867 88.83592384 -20.9597795 87.17576722 -20.98046875 85.515625 C-21.00940905 82.89088685 -21.03124902 80.26699775 -21.03173828 77.64208984 C-21.03507858 75.11348644 -21.06966804 72.5868543 -21.109375 70.05859375 C-21.1023053 69.2782074 -21.0952356 68.49782104 -21.08795166 67.69378662 C-21.18051937 63.53687185 -21.46433294 61.92474973 -24.08276367 58.51220703 C-27.06224564 56.30340623 -29.01718774 55.84785153 -32.71923828 56.09863281 C-36.26059199 56.80807758 -39.16915185 58.54669953 -42.21875 60.38671875 C-49.49395693 64.5043213 -56.95098594 67.80439105 -64.71875 70.88671875 C-65.76023193 71.3029248 -66.80171387 71.71913086 -67.87475586 72.14794922 C-85.64376147 79.1171322 -85.64376147 79.1171322 -91.78125 78.51171875 C-102.01945487 69.18357653 -106.77434222 54.46773824 -111.71875 41.88671875 C-111.96394379 41.26431305 -112.20913757 40.64190735 -112.46176147 40.00064087 C-116.90130778 28.67714021 -116.90130778 28.67714021 -117.78125 23.51171875 C-98.36607394 14.36646051 -98.36607394 14.36646051 -94.73022461 14.69970703 C-92.13490863 15.78100741 -91.52284385 17.00444193 -90.16015625 19.44140625 C-89.69931641 20.23675781 -89.23847656 21.03210938 -88.76367188 21.8515625 C-88.06081055 23.10646484 -88.06081055 23.10646484 -87.34375 24.38671875 C-83.51261736 31.95929886 -83.51261736 31.95929886 -76.78125 36.51171875 C-69.867415 36.6665061 -64.75814081 32.91822835 -59.03125 29.38671875 C-57.55918091 28.49702393 -57.55918091 28.49702393 -56.05737305 27.58935547 C-48.67841995 23.1142508 -41.32645069 18.58962492 -34.1796875 13.75 C-23.47308657 6.63797834 -12.54716918 2.30853815 0 0 Z " fill="#F5F5F5" transform="translate(202.78125,397.48828125)"/>
<path d="M0 0 C22.69819622 7.61236936 47.27464155 7.91172955 69.875 -0.06640625 C80.16982762 -3.68725861 80.16982762 -3.68725861 85.5 -1.875 C94.9329371 4.09277654 99.442686 16.1622761 103.5 26.125 C103.84853027 26.86959473 104.19706055 27.61418945 104.55615234 28.38134766 C108.56377949 38.14871591 108.03519624 48.16516271 107.91162109 58.56152344 C107.87500374 61.74967401 107.87060354 64.93666038 107.87109375 68.125 C107.86126343 70.1796974 107.8496068 72.23438705 107.8359375 74.2890625 C107.83371185 75.22787262 107.83148621 76.16668274 107.82919312 77.13394165 C107.52875788 98.36003475 98.30372112 115.29541278 83.56640625 130.0625 C67.78029038 144.76557674 48.02345621 149.03193561 27.125 148.29541016 C9.63959876 147.16029017 -6.68939476 137.20027984 -18.671875 124.89453125 C-22.80969756 120.10716678 -25.87865284 114.91776118 -28.75 109.3125 C-29.06735107 108.69753662 -29.38470215 108.08257324 -29.71166992 107.44897461 C-30.72531128 105.36921165 -31.62260993 103.26586789 -32.5 101.125 C-32.86335449 100.28759277 -33.22670898 99.45018555 -33.60107422 98.58740234 C-37.47211502 88.23180681 -37.17468322 77.639593 -37.13134766 66.71582031 C-37.12503827 63.39513991 -37.17202184 60.07805303 -37.22265625 56.7578125 C-37.29998892 43.69127714 -35.9277335 33.03896059 -30.5 21.125 C-30.05293198 20.12607979 -30.05293198 20.12607979 -29.59683228 19.10697937 C-22.85652776 4.09146191 -16.96856635 -5.92987534 0 0 Z " fill="#F5F5F5" transform="translate(220.5,201.875)"/>
<path d="M0 0 C0.08636719 1.01578125 0.17273438 2.0315625 0.26171875 3.078125 C1.6155906 17.04088643 5.22128319 29.5513918 16.3203125 38.96875 C24.93076541 45.33886563 33.30612873 48.54494165 44 49 C49.38224754 59.57324771 51.25850153 69.90337192 51.3125 81.6875 C51.31797852 82.55407227 51.32345703 83.42064453 51.32910156 84.31347656 C51.26212518 90.39908894 50.38386834 96.07875451 49 102 C46.61834892 98.89254397 44.70150189 95.74500938 42.8125 92.3125 C36.94326418 82.2139619 31.22227072 75.74075691 20 72 C13.46925344 71.33433162 8.19754349 72.59680567 2.125 74.875 C0.53027116 75.43176076 -1.06608425 75.98388526 -2.6640625 76.53125 C-3.41977539 76.79035156 -4.17548828 77.04945313 -4.95410156 77.31640625 C-23.60511401 83.54824812 -45.693476 80.73987238 -63.875 74.3125 C-72.0331838 71.49608608 -78.06858511 70.42886408 -86.125 73.9375 C-95.5096282 79.21635336 -100.37796727 87.881373 -105.3359375 97.05859375 C-107 100 -107 100 -109 102 C-110.69128211 95.35664386 -111.38646091 89.2231941 -111.375 82.375 C-111.37411377 81.41585693 -111.37322754 80.45671387 -111.37231445 79.46850586 C-111.23496756 71.13636013 -109.8658857 63.83086493 -107 56 C-106.61714844 54.74316406 -106.23429688 53.48632812 -105.83984375 52.19140625 C-104 49 -104 49 -100.5234375 47.8359375 C-99.14373868 47.65646991 -97.76032893 47.50400081 -96.375 47.375 C-89.66895969 46.43027607 -84.5518841 45.08324943 -79 41 C-78.30519531 40.49597656 -77.61039063 39.99195313 -76.89453125 39.47265625 C-69.57104058 33.6330999 -65.82764626 26.34847692 -62.625 17.6875 C-60.6904484 12.95993953 -59.13833294 10.32861509 -54.546875 8.015625 C-36.28490964 0.73324618 -19.54399646 -0.32834318 0 0 Z " fill="#F4F4F4" transform="translate(286,113)"/>
<path d="M0 0 C43.89 0 87.78 0 133 0 C130.5952394 1.2023803 128.1832448 2.39066484 125.7578125 3.55078125 C124.54678145 4.13782789 123.33584632 4.72507243 122.125 5.3125 C121.22587891 5.73692383 121.22587891 5.73692383 120.30859375 6.16992188 C113.99603515 9.25773525 109.2057316 13.04407571 105.375 19.0625 C104.82585937 19.89910156 104.27671875 20.73570313 103.7109375 21.59765625 C98.74265344 31.4775088 97.4012257 40.53764405 97.390625 51.515625 C97.3756012 52.86612894 97.35886545 54.2166148 97.34051514 55.56707764 C97.29729888 59.07848065 97.27694596 62.58963615 97.26177979 66.10125732 C97.24204117 69.70176563 97.20009171 73.30201286 97.16015625 76.90234375 C97.08535178 83.93479541 97.03476152 90.9672268 97 98 C95.97229492 98.03954803 95.97229492 98.03954803 94.92382812 98.07989502 C91.78246011 98.20205786 88.64123407 98.32756695 85.5 98.453125 C83.88351562 98.5152417 83.88351562 98.5152417 82.234375 98.57861328 C66.19832645 99.22641097 51.89187652 101.97574719 37 108 C36.99453156 106.72785393 36.99453156 106.72785393 36.98895264 105.43000793 C36.95087154 97.38409858 36.89379381 89.33858632 36.81609726 81.29295826 C36.77681607 77.15793734 36.74453386 73.0231232 36.72900391 68.88793945 C36.7137082 64.88706623 36.6790393 60.88676228 36.63169098 56.88614464 C36.61700878 55.3702156 36.60896667 53.85420523 36.60811615 52.33820534 C36.59111788 37.21304638 33.71974506 24.97159561 23.6875 13.3125 C16.77462028 7.36420815 9.16031258 2.38792615 0 1 C0 0.67 0 0.34 0 0 Z " fill="#F6F6F6" transform="translate(189,0)"/>
<path d="M0 0 C7.85445993 5.59536764 13.39358987 12.24445453 15.80078125 21.7109375 C17.03855685 31.15844924 15.4028665 39.69349459 9.8125 47.48046875 C5.39673319 52.68939574 1.21574008 56.34318445 -5.19921875 58.7109375 C-6.12734375 59.1234375 -7.05546875 59.5359375 -8.01171875 59.9609375 C-17.79909624 62.26384985 -25.83425557 60.44368774 -34.390625 55.42578125 C-41.02247752 50.90806767 -45.73730312 44.35406646 -48.19921875 36.7109375 C-49.2660682 25.96801168 -48.33266235 15.71129435 -41.57421875 6.8984375 C-30.64726268 -4.60944534 -13.90732107 -8.15171573 0 0 Z " fill="#050505" transform="translate(448.19921875,52.2890625)"/>
<path d="M0 0 C2.65380859 1.52783203 2.65380859 1.52783203 5 4 C5.48078109 6.878931 5.65281895 9.18150247 5.6015625 12.0546875 C5.60956879 12.83385529 5.61757507 13.61302307 5.62582397 14.415802 C5.64887558 16.90273165 5.63944515 19.38802673 5.625 21.875 C5.62114307 24.35452691 5.62468139 26.83332828 5.64559937 29.31277466 C5.65761514 30.85315681 5.65514056 32.39374273 5.63589478 33.93405151 C5.66056736 38.70823119 6.46888447 41.94808015 9 46 C11.23846199 47.89560139 11.23846199 47.89560139 13.8125 49.375 C20.69935923 53.92937552 24.81932689 58.97788581 27 67 C28.17456422 79.87444418 26.10486786 89.28145242 18.1796875 99.5 C12.16640494 106.3969549 12.16640494 106.3969549 8 108 C1.18118299 107.83019984 -4.99809496 104.95855065 -11.25 102.4375 C-12.33796875 102.03208984 -13.4259375 101.62667969 -14.546875 101.20898438 C-22.16968593 98.12872723 -22.16968593 98.12872723 -24.33007812 95.19189453 C-25.14850339 93.12378106 -25.60546308 91.18711768 -26 89 C-26.19609863 88.29294922 -26.39219727 87.58589844 -26.59423828 86.85742188 C-28.14432125 81.03976268 -28.2392451 75.42657966 -28.125 69.4375 C-28.11597656 68.52419922 -28.10695313 67.61089844 -28.09765625 66.66992188 C-28.07437253 64.44632681 -28.0416771 62.22331323 -28 60 C-25.71452852 58.85726426 -24.23120095 58.76872743 -21.6875 58.6875 C-20.54861328 58.63142578 -20.54861328 58.63142578 -19.38671875 58.57421875 C-15.81938832 59.21061649 -14.39272279 60.26309005 -12 63 C-11.2712516 66.18379733 -11.25488567 69.30620289 -11.25 72.5625 C-11.21680191 74.27220183 -11.18047488 75.98184652 -11.140625 77.69140625 C-11.13579102 78.44623291 -11.13095703 79.20105957 -11.12597656 79.97875977 C-11.07395016 82.20581931 -11.07395016 82.20581931 -10 85 C-6.37 85 -2.74 85 1 85 C3.27169674 75.91321303 3.90892174 63.6108714 -0.125 55 C-3.1521671 50.123853 -6.55378556 47.81540481 -12 46 C-11.83792557 45.42000244 -11.67585114 44.84000488 -11.50886536 44.24243164 C-10.7002804 40.67921698 -10.84319648 37.07424795 -10.82421875 33.4375 C-10.80103097 31.73696665 -10.77691407 30.03644575 -10.75195312 28.3359375 C-10.71678289 25.66299959 -10.68745257 22.99052448 -10.67407227 20.31738281 C-10.65860861 17.73185901 -10.61842704 15.1476711 -10.57421875 12.5625 C-10.57612717 11.76448975 -10.57803558 10.96647949 -10.58000183 10.14428711 C-10.50089119 6.55800225 -10.30989982 4.41891823 -8.14770508 1.49609375 C-5.18683238 -0.56645347 -3.53983738 -0.57793263 0 0 Z " fill="#F3F3F3" transform="translate(430,300)"/>
<path d="M0 0 C2.64941406 1.49389648 2.64941406 1.49389648 5 4 C5.5034921 7.04712045 5.69875813 9.55122733 5.671875 12.59765625 C5.68462463 13.42833115 5.69737427 14.25900604 5.71051025 15.11485291 C5.74679946 17.76441603 5.74951905 20.41271028 5.75 23.0625 C5.77162483 25.71538645 5.8001039 28.36808119 5.83233643 31.02085876 C5.85007308 32.67017756 5.86037827 34.31959658 5.86248779 35.9690094 C5.87912705 39.23697286 5.95911542 41.87734625 7 45 C6.39671875 45.35191406 5.7934375 45.70382812 5.171875 46.06640625 C-0.89200078 49.81231661 -4.46618643 52.92907674 -6.58544922 59.93554688 C-7.02867836 62.14281756 -7.12942623 64.15582852 -7.1328125 66.40625 C-7.13410156 67.23253906 -7.13539062 68.05882812 -7.13671875 68.91015625 C-7.13091797 70.19212891 -7.13091797 70.19212891 -7.125 71.5 C-7.12886719 72.35464844 -7.13273437 73.20929688 -7.13671875 74.08984375 C-7.13478516 75.32927734 -7.13478516 75.32927734 -7.1328125 76.59375 C-7.13168457 77.34333984 -7.13055664 78.09292969 -7.12939453 78.86523438 C-7.04487517 81.34012077 -7.04487517 81.34012077 -6 85 C-2.37 85 1.26 85 5 85 C5.9165128 82.25046161 6.13364875 80.53125789 6.17578125 77.69140625 C6.19962891 76.86189453 6.22347656 76.03238281 6.24804688 75.17773438 C6.29091326 73.43839852 6.32221975 71.69873823 6.34179688 69.95898438 C6.55251057 63.64247394 6.55251057 63.64247394 8.79296875 60.42578125 C11.14514817 58.90623171 12.23723726 58.50628754 15 58.625 C15.99 58.64433594 15.99 58.64433594 17 58.6640625 C19.28860052 59.04847587 20.98264432 59.87424348 23 61 C23.95193677 85.32727311 23.95193677 85.32727311 19 96 C16.06174067 98.93208652 12.90940256 99.77655387 9 101 C7.51292575 101.60828646 6.03153458 102.23056887 4.5546875 102.86328125 C2.95389579 103.53569213 1.35232663 104.20625501 -0.25 104.875 C-1.40266357 105.36045288 -1.40266357 105.36045288 -2.57861328 105.85571289 C-7.08401416 107.63117529 -10.20975159 108.56444529 -15 107 C-22.87694778 102.13482637 -28.94336836 93.47956088 -31.52734375 84.64453125 C-33.18681754 75.35970681 -33.35721976 65.10011627 -28 57 C-24.30588242 52.9694163 -20.20891272 49.67797811 -15.5625 46.8125 C-12.47679228 44.62992625 -12.06073725 43.59048983 -11 40 C-10.81412074 37.22762679 -10.72287453 34.54829343 -10.7265625 31.77734375 C-10.70628424 30.17121685 -10.68543367 28.5650971 -10.6640625 26.95898438 C-10.64142388 24.44191415 -10.62497134 21.92512654 -10.61914062 19.40795898 C-10.60962377 16.96807636 -10.57587446 14.52944582 -10.5390625 12.08984375 C-10.54410797 11.33871811 -10.54915344 10.58759247 -10.55435181 9.81370544 C-10.4886737 6.3260584 -10.2652781 4.35478933 -8.14990234 1.52563477 C-5.19156051 -0.57369276 -3.5571151 -0.58075349 0 0 Z " fill="#F3F3F3" transform="translate(87,300)"/>
<path d="M0 0 C3.34618865 1.21032355 4.70348582 2.31782768 6.9375 5.0625 C7.4521637 7.59788513 7.4521637 7.59788513 7.47094727 10.48608398 C7.4867836 11.57078476 7.50261993 12.65548553 7.51893616 13.77305603 C7.51397629 14.93978348 7.50901642 16.10651093 7.50390625 17.30859375 C7.51320412 19.11349022 7.51320412 19.11349022 7.52268982 20.95484924 C7.52979319 23.49926952 7.52660508 26.04373622 7.51391602 28.58813477 C7.50006349 32.48215307 7.53410304 36.37376331 7.57226562 40.26757812 C7.57321692 42.73958392 7.57135747 45.21159273 7.56640625 47.68359375 C7.57966446 48.84829697 7.59292267 50.01300018 7.60658264 51.21299744 C7.51388644 59.25887092 7.51388644 59.25887092 4.60913086 63.30883789 C1.9375 65.0625 1.9375 65.0625 -1.4375 65.5 C-7.08919452 63.25881079 -9.02412434 59.16649073 -12.0625 54.0625 C-12.48563477 53.35706055 -12.90876953 52.65162109 -13.34472656 51.92480469 C-16.29591414 46.99642571 -19.19323743 42.03896748 -22.0625 37.0625 C-22.06866333 38.0683313 -22.06866333 38.0683313 -22.07495117 39.09448242 C-22.10794643 42.14720391 -22.1785962 45.1979453 -22.25 48.25 C-22.25580078 49.30509766 -22.26160156 50.36019531 -22.26757812 51.44726562 C-22.48953748 59.26516728 -22.48953748 59.26516728 -25.38671875 63.296875 C-28.0625 65.0625 -28.0625 65.0625 -31.6875 65.125 C-35.44619621 63.94170675 -36.14664624 63.37662563 -38.0625 60.0625 C-38.45018005 57.52038574 -38.45018005 57.52038574 -38.46655273 54.62304688 C-38.47923691 53.53511841 -38.49192108 52.44718994 -38.50498962 51.32629395 C-38.50205399 50.15642944 -38.49911835 48.98656494 -38.49609375 47.78125 C-38.5013356 46.57561401 -38.50657745 45.36997803 -38.51197815 44.12780762 C-38.51840062 41.57919078 -38.5170585 39.03054431 -38.50854492 36.48193359 C-38.50003219 32.57726433 -38.52880077 28.67405606 -38.56054688 24.76953125 C-38.56215884 22.29427127 -38.56158144 19.8190087 -38.55859375 17.34375 C-38.56982773 16.1738855 -38.58106171 15.004021 -38.59263611 13.79870605 C-38.58325516 12.71077759 -38.57387421 11.62284912 -38.56420898 10.50195312 C-38.56404282 9.5458313 -38.56387665 8.58970947 -38.56370544 7.60461426 C-37.91092302 4.2937015 -36.70422726 3.10507358 -34.0625 1.0625 C-30.5625 0.5625 -30.5625 0.5625 -27.0625 1.0625 C-23.83597675 3.7887627 -21.77092626 6.88178957 -19.609375 10.484375 C-18.990625 11.50917969 -18.371875 12.53398438 -17.734375 13.58984375 C-17.10015625 14.65332031 -16.4659375 15.71679688 -15.8125 16.8125 C-15.1628125 17.89144531 -14.513125 18.97039062 -13.84375 20.08203125 C-12.24479375 22.73912031 -10.6512691 25.39931151 -9.0625 28.0625 C-9.05839111 27.3919458 -9.05428223 26.7213916 -9.05004883 26.03051758 C-9.01705357 22.97779609 -8.9464038 19.9270547 -8.875 16.875 C-8.86919922 15.81990234 -8.86339844 14.76480469 -8.85742188 13.67773438 C-8.60869331 4.91696175 -8.60869331 4.91696175 -5.703125 1.828125 C-3.0625 0.0625 -3.0625 0.0625 0 0 Z " fill="#030303" transform="translate(383.0625,47.9375)"/>
<path d="M0 0 C8.4059142 4.43473782 8.4059142 4.43473782 10.125 9.6875 C10 13.25 10 13.25 8 16.25 C5 18.25 5 18.25 1.5 18.25 C-2 17.25 -2 17.25 -4.5 15.6875 C-7.77586585 13.80387713 -10.28686137 14.03158008 -14 14.25 C-14.33 15.9 -14.66 17.55 -15 19.25 C-13.83082031 19.78109375 -12.66164062 20.3121875 -11.45703125 20.859375 C-9.9086862 21.57255211 -8.36051841 22.28611416 -6.8125 23 C-6.04357422 23.34804687 -5.27464844 23.69609375 -4.48242188 24.0546875 C1.65671434 26.9002957 6.97273991 29.84630519 10.2734375 36.05859375 C12.15522343 41.73430292 11.70605163 47.91120398 10 53.5625 C5.50668514 59.60039184 0.1284515 64.40741081 -7.47265625 65.65625 C-16.29783049 65.97571332 -23.26340227 63.06365773 -30.125 57.5390625 C-33.16453812 54.4291647 -33.9767761 52.94671707 -34.125 48.5 C-33 45.25 -33 45.25 -31.375 43.25 C-27.82274138 41.75431216 -25.68968026 42.23215717 -22 43.25 C-19.77329119 44.75137998 -17.97958971 46.4085212 -16 48.25 C-13.22899606 49.63550197 -11.0665294 49.4377467 -8 49.25 C-4.80002845 47.6091054 -4.80002845 47.6091054 -4.4375 44.875 C-4.76710428 42.07044606 -4.76710428 42.07044606 -7.1875 40.3125 C-11.52021127 37.74189618 -16.24736453 35.86860558 -20.87890625 33.91015625 C-25.45289903 31.47718137 -29.2559747 28.24382108 -31 23.25 C-31.91421678 16.51366587 -31.7718368 10.50058285 -27.59375 4.94140625 C-20.10203024 -3.00936497 -10.0862471 -4.22645747 0 0 Z " fill="#050505" transform="translate(173,49.75)"/>
<path d="M0 0 C6.44149976 3.3684907 10.38073329 8.60966991 12.59375 15.47265625 C14.27680451 22.52745972 12.57947274 29.33128485 8.84375 35.42578125 C4.38808093 41.20577418 -0.8868771 43.85376362 -8.0546875 44.88671875 C-16.09281597 45.31226673 -21.88882343 43.86496114 -27.9375 38.4375 C-32.64433447 33.28733643 -34.34047482 28.3780035 -34.6875 21.4375 C-34.34047482 14.4969965 -32.64433447 9.58766357 -27.9375 4.4375 C-19.94841351 -2.73108572 -9.95339817 -3.83725283 0 0 Z " fill="#050505" transform="translate(266.9375,435.5625)"/>
<path d="M0 0 C1.04414062 -0.00644531 2.08828125 -0.01289062 3.1640625 -0.01953125 C4.24429688 -0.00019531 5.32453125 0.01914062 6.4375 0.0390625 C8.05785156 0.01005859 8.05785156 0.01005859 9.7109375 -0.01953125 C18.5072934 0.03476724 18.5072934 0.03476724 21.6875 3.0078125 C23.4375 5.6640625 23.4375 5.6640625 23.4375 8.7890625 C22.16147941 12.45762169 20.86871556 13.94845472 17.4375 15.6640625 C15.2302077 15.73499092 13.02082548 15.74821275 10.8125 15.7265625 C9.62398437 15.71753906 8.43546875 15.70851563 7.2109375 15.69921875 C6.29570313 15.68761719 5.38046875 15.67601562 4.4375 15.6640625 C4.4375 19.2940625 4.4375 22.9240625 4.4375 26.6640625 C5.77554688 26.59445313 5.77554688 26.59445313 7.140625 26.5234375 C8.31109375 26.48734375 9.4815625 26.45125 10.6875 26.4140625 C12.42773438 26.34445313 12.42773438 26.34445313 14.203125 26.2734375 C17.4375 26.6640625 17.4375 26.6640625 19.82421875 28.4609375 C21.4375 30.6640625 21.4375 30.6640625 22 34.1640625 C21.4375 37.6640625 21.4375 37.6640625 19.6875 40.1015625 C14.71968657 42.48993434 9.85583171 41.97516289 4.4375 41.6640625 C4.4375 45.2940625 4.4375 48.9240625 4.4375 52.6640625 C5.47390625 52.60605469 6.5103125 52.54804687 7.578125 52.48828125 C8.94787156 52.44137212 10.31766692 52.39587318 11.6875 52.3515625 C12.36941406 52.30966797 13.05132812 52.26777344 13.75390625 52.22460938 C17.56417311 52.13212717 19.09744531 52.34489306 21.91796875 54.9921875 C23.4375 57.6640625 23.4375 57.6640625 23.5 60.7265625 C22.10351677 64.58742791 20.98798944 65.5622083 17.4375 67.6640625 C13.76089656 68.25323529 10.15366203 68.22243154 6.4375 68.1640625 C4.96023437 68.18726562 4.96023437 68.18726562 3.453125 68.2109375 C-1.04494522 68.18662361 -3.78785777 68.13659426 -7.6875 65.7578125 C-10.59077231 62.51582509 -10.69905356 60.64675835 -10.75537109 56.37573242 C-10.77143402 55.27085983 -10.78749695 54.16598724 -10.80404663 53.02763367 C-10.84842035 47.97244826 -10.88955801 42.91739505 -10.91259766 37.86206055 C-10.92593287 35.19314689 -10.95645802 32.52604063 -10.99462891 29.85717773 C-11.04931351 26.01522737 -11.07125987 22.17431806 -11.0859375 18.33203125 C-11.10860687 17.13918015 -11.13127625 15.94632904 -11.15463257 14.71733093 C-11.1336506 6.51364104 -11.1336506 6.51364104 -8.37744141 2.41381836 C-5.27719513 0.48671818 -3.62214146 0.02156037 0 0 Z " fill="#060606" transform="translate(106.5625,47.3359375)"/>
<path d="M0 0 C3.81683272 3.32003862 6.51767536 7.01593968 9.25 11.25 C11.39827473 14.80009205 11.39827473 14.80009205 14 18 C14.28721924 17.52578613 14.57443848 17.05157227 14.87036133 16.56298828 C16.17776545 14.41287092 17.4949869 12.26893647 18.8125 10.125 C19.26431641 9.37863281 19.71613281 8.63226563 20.18164062 7.86328125 C20.62314453 7.14785156 21.06464844 6.43242188 21.51953125 5.6953125 C21.92276611 5.03547363 22.32600098 4.37563477 22.74145508 3.69580078 C24.75799184 0.9786593 26.56968073 0.06548337 29.875 -0.4375 C33 0 33 0 35.9375 2.125 C38 5 38 5 37.82421875 7.84448242 C36.94808687 11.19874917 35.76041306 13.4646172 33.875 16.36328125 C33.25109375 17.33201172 32.6271875 18.30074219 31.984375 19.29882812 C31.32953125 20.29333984 30.6746875 21.28785156 30 22.3125 C29.34515625 23.32634766 28.6903125 24.34019531 28.015625 25.38476562 C23.22244048 32.77755952 23.22244048 32.77755952 22 34 C21.90259384 36.01381564 21.86795437 38.03072327 21.859375 40.046875 C21.84003906 41.284375 21.82070312 42.521875 21.80078125 43.796875 C21.76712976 46.41651396 21.7487136 49.03639622 21.74609375 51.65625 C21.72160156 52.89890625 21.69710937 54.1415625 21.671875 55.421875 C21.6625293 56.56237305 21.65318359 57.70287109 21.64355469 58.87792969 C20.80457389 62.94806871 19.23817883 64.47094582 16 67 C12.375 67.125 12.375 67.125 9 66 C6.17066765 62.33192635 5.67420802 59.76966621 5.875 55.203125 C6.16466852 40.17399383 5.03458595 30.37718789 -4.65649414 18.63745117 C-10.5755499 11.42336668 -10.5755499 11.42336668 -10.4375 6.8125 C-10 3 -10 3 -8.9375 1 C-5.76942356 -0.63513623 -3.49884179 -0.48259887 0 0 Z " fill="#040404" transform="translate(48,48)"/>
<path d="M0 0 C4.50665768 2.13473258 7.1741532 4.91822129 10 9 C11.59072853 13.77218558 12.02510621 18.48142009 10.09375 23.2265625 C6.90590356 28.6826843 3.07457639 31.9751412 -3 34 C-8.94264868 34.58261262 -13.23697497 33.51746409 -18 30 C-21.94468022 25.95050943 -23.32584793 21.98594428 -23.5625 16.375 C-23.31410399 11.51449428 -22.33284939 8.68367564 -19 5 C-18.195625 4.05125 -17.39125 3.1025 -16.5625 2.125 C-11.89245581 -1.56564874 -5.57882057 -0.767532 0 0 Z " fill="#F3F3F3" transform="translate(438,64)"/>
<path d="M0 0 C2.65357416 6.09679322 3.41574684 10.92079794 3.29296875 17.53125 C3.28872391 18.40777222 3.28447906 19.28429443 3.28010559 20.18737793 C3.2634513 22.95857823 3.22582509 25.72902336 3.1875 28.5 C3.17243599 30.39061442 3.1587506 32.28124036 3.14648438 34.171875 C3.11359139 38.78153639 3.06190255 43.39064062 3 48 C-0.64573551 49.92045168 -2.82923186 50.81779767 -7 50 C-13.28196096 44.96106536 -16.37591283 38.35186586 -17.29907227 30.43530273 C-17.43595799 27.76242893 -17.45881569 25.11358823 -17.4375 22.4375 C-17.45748047 21.54353516 -17.47746094 20.64957031 -17.49804688 19.72851562 C-17.49264749 12.34755582 -15.38505877 7.53342039 -11.3125 1.5 C-7.70356413 -0.84093138 -4.16862223 -0.26670912 0 0 Z " fill="#F1F1F1" transform="translate(166,235)"/>
<path d="M0 0 C4.90735344 -0.42304771 7.06162546 -0.58427094 11.3125 2.0625 C16.98834042 8.26632558 17.52960619 14.15553354 17.4375 22.25 C17.42920166 23.18078369 17.42090332 24.11156738 17.41235352 25.07055664 C17.19748465 33.81747807 16.16068464 41.36918846 9.625 47.6875 C7.09706157 49.56989192 5.96880441 50.00479932 2.75 50.5 C0 50 0 50 -3 48 C-3.30446072 45.04156095 -3.41985277 42.29653652 -3.3984375 39.3359375 C-3.40130768 38.46989899 -3.40417786 37.60386047 -3.40713501 36.71157837 C-3.40917954 34.87395578 -3.40362256 33.03631162 -3.39111328 31.19873047 C-3.375181 28.40671956 -3.3908877 25.61618209 -3.41015625 22.82421875 C-3.40817161 21.03645517 -3.40432337 19.2486925 -3.3984375 17.4609375 C-3.40451019 16.63355072 -3.41058289 15.80616394 -3.4168396 14.95370483 C-3.34995688 9.33961609 -2.23194425 5.15763085 0 0 Z " fill="#F1F1F1" transform="translate(346,235)"/>
<path d="M0 0 C0.77730469 0.3403125 1.55460938 0.680625 2.35546875 1.03125 C7.44391226 2.89525885 13.93286051 3.04340072 19.08984375 1.2890625 C19.65832031 1.00804687 20.22679687 0.72703125 20.8125 0.4375 C24.76138942 -1.3433717 26.86960143 -1.19146112 31 0 C33 1.625 33 1.625 34 4 C34 8.05783134 33.72293418 10.18669905 31 13.25 C21.37968997 18.86184752 10.48298785 19.62978424 -0.3359375 17.2734375 C-4.44592436 15.91813352 -7.42893425 14.48021438 -10.75 11.6875 C-12.46847196 7.99278529 -12.14694338 5.87093389 -11 2 C-7.77607109 -1.96791251 -4.6612515 -1.06309245 0 0 Z " fill="#050505" transform="translate(245,307)"/>
<path d="M0 0 C0.78181641 -0.020625 1.56363281 -0.04125 2.36914062 -0.0625 C7.74423673 -0.09842378 11.41881607 0.73438184 16.1875 3.25 C18.1875 5.25 18.1875 5.25 18.5625 8.625 C18.1875 12.25 18.1875 12.25 16.5625 14.44116211 C11.9172795 17.97903615 5.80167648 16.86041215 0.1875 16.8125 C-1.09640625 16.83634766 -2.3803125 16.86019531 -3.703125 16.88476562 C-4.93546875 16.88283203 -6.1678125 16.88089844 -7.4375 16.87890625 C-8.56414062 16.87963135 -9.69078125 16.88035645 -10.8515625 16.88110352 C-13.8125 16.25 -13.8125 16.25 -16.2109375 13.93725586 C-17.8125 11.25 -17.8125 11.25 -17.8125 7.625 C-16.8125 4.25 -16.8125 4.25 -15 2.375 C-10.15760876 -0.11537264 -5.32810541 0.03462619 0 0 Z " fill="#050505" transform="translate(224.8125,218.75)"/>
<path d="M0 0 C0.83402344 -0.020625 1.66804688 -0.04125 2.52734375 -0.0625 C8.03969205 -0.09711443 11.90097447 0.56168015 16.75 3.25 C18.75 6.25 18.75 6.25 18.625 9.75 C17.75 13.25 17.75 13.25 16.08007812 14.94165039 C11.33868244 17.60396592 5.55317244 16.71791444 0.25 16.6875 C-1.60431641 16.7174707 -1.60431641 16.7174707 -3.49609375 16.74804688 C-4.68332031 16.74740234 -5.87054688 16.74675781 -7.09375 16.74609375 C-8.17849609 16.74794678 -9.26324219 16.7497998 -10.38085938 16.75170898 C-13.92929406 16.13121602 -15.10182138 15.09760778 -17.25 12.25 C-17.8125 8.75 -17.8125 8.75 -17.25 5.25 C-12.04218353 -0.09856826 -6.98700974 0.04240977 0 0 Z " fill="#050505" transform="translate(286.25,218.75)"/>
<path d="M0 0 C12.21 0 24.42 0 37 0 C37 12.21 37 24.42 37 37 C35.42835096 33.85670193 34.36770799 31.12136487 33.3125 27.8125 C29.89474532 18.3759788 23.57299051 11.20067671 15 6 C12.19145708 4.78055124 9.3967278 3.75422344 6.48046875 2.82421875 C4 2 4 2 0 0 Z " fill="#F2F2F2" transform="translate(475,0)"/>
<path d="M0 0 C12.21 0 24.42 0 37 0 C33.85670193 1.57164904 31.12136487 2.63229201 27.8125 3.6875 C17.5115623 7.4183323 9.64556848 14.76426682 4.71484375 24.55078125 C2.68586196 29.34325078 1.45043309 33.82001951 1 39 C0.67 39 0.34 39 0 39 C0 26.13 0 13.26 0 0 Z " fill="#F4F4F4" transform="translate(0,0)"/>
<path d="M0 0 C1.29808594 -0.0103125 2.59617187 -0.020625 3.93359375 -0.03125 C8.04996339 0.5713617 9.72704592 1.49838509 12.5625 4.5 C13.1875 8 13.1875 8 12.5625 11.5 C8.84112241 15.32195536 5.44203348 16.64239863 0.1875 16.75 C-4.97096778 16.69967349 -7.80379669 15.13370331 -11.4375 11.5 C-11.85426916 7.74907753 -12.10746595 5.44366131 -9.87890625 2.3046875 C-6.51224806 -0.18394624 -4.14998357 -0.03290373 0 0 Z " fill="#060606" transform="translate(255.4375,277.5)"/>
<path d="M0 0 C11.22 0 22.44 0 34 0 C32.73771942 6.31140292 30.71255986 7.37212037 25.75 10.9375 C25.08097656 11.45634766 24.41195313 11.97519531 23.72265625 12.50976562 C18.79298304 16.11743413 18.79298304 16.11743413 15.44140625 15.62109375 C14.63574219 15.08613281 13.83007812 14.55117188 13 14 C12.47164551 13.65090576 11.94329102 13.30181152 11.39892578 12.94213867 C9.61637106 11.7225092 7.90301424 10.43697633 6.1875 9.125 C5.59001953 8.69058594 4.99253906 8.25617188 4.37695312 7.80859375 C2.66796875 6.5078125 2.66796875 6.5078125 0 4 C0 2.68 0 1.36 0 0 Z " fill="#F2F2F2" transform="translate(239,364)"/>
<path d="M0 0 C3.38801504 2.03280902 5.94158511 3.6543398 8.8125 6.1875 C9.41707031 6.71730469 10.02164062 7.24710937 10.64453125 7.79296875 C11.09183594 8.19128906 11.53914063 8.58960938 12 9 C10.36851044 12.89332736 7.82372058 15.64719075 5 18.75 C4.54882812 19.25660156 4.09765625 19.76320313 3.6328125 20.28515625 C2.46639188 21.56545817 1.23716029 22.78791729 0 24 C-0.66 24 -1.32 24 -2 24 C-3.56432787 22.30725716 -5.05328572 20.54430148 -6.5 18.75 C-7.2940625 17.77546875 -8.088125 16.8009375 -8.90625 15.796875 C-11 13 -11 13 -13 9 C-8.71 6.03 -4.42 3.06 0 0 Z " fill="#F0F0F0" transform="translate(280,381)"/>
<path d="M0 0 C4.93054827 2.71683272 9.46284362 5.66657898 14 9 C12.3718356 12.75730247 9.98598083 15.616823 7.375 18.75 C6.55773437 19.73484375 5.74046875 20.7196875 4.8984375 21.734375 C4.27195313 22.48203125 3.64546875 23.2296875 3 24 C-1.03721561 22.43416404 -3.47070582 19.55826135 -6.25 16.375 C-6.70890625 15.859375 -7.1678125 15.34375 -7.640625 14.8125 C-8.76592296 13.5465398 -9.88372177 12.27392058 -11 11 C-9.52202738 7.32943063 -7.52384523 5.58914217 -4.375 3.25 C-3.55773437 2.63640625 -2.74046875 2.0228125 -1.8984375 1.390625 C-0.95871094 0.70226562 -0.95871094 0.70226562 0 0 Z " fill="#F0F0F0" transform="translate(231,381)"/>
<path d="M0 0 C4.4158975 1.30841407 4.4158975 1.30841407 6.375 4 C6.80859375 6.77734375 6.80859375 6.77734375 6.8125 9.9375 C6.83183594 10.97777344 6.85117187 12.01804687 6.87109375 13.08984375 C6.26223035 16.66152274 5.21579517 17.81793994 2.375 20 C-1.58639166 20.75856436 -3.11318314 20.3337936 -6.5 18.125 C-9.09094799 14.31478236 -9.35595192 11.91572523 -9.10546875 7.38671875 C-8.625 5 -8.625 5 -6.5625 1.8125 C-3.625 0 -3.625 0 0 0 Z " fill="#090909" transform="translate(291.625,249)"/>
<path d="M0 0 C2.7495476 2.87103923 3.45142261 4.99665906 3.5 8.9375 C3.37642261 12.74031345 3.09414088 13.86155753 0.875 17.125 C-2.51181686 19.3337936 -4.03860834 19.75856436 -8 19 C-10.80122246 16.83541901 -11.87501917 15.63438548 -12.56640625 12.125 C-12.55594764 3.75811042 -12.55594764 3.75811042 -9.9375 0.1875 C-6.0992932 -1.36411552 -3.95163055 -1.1708535 0 0 Z " fill="#090909" transform="translate(226,250)"/>
<path d="M0 0 C3.06458538 2.04305692 3.82153128 3.44079802 4.9375 6.9375 C5.01221891 10.59872681 4.21363944 12.1304674 2 15 C-1.20841035 16.60420518 -4.5193987 16.47462745 -8 16 C-10.5 14.5 -10.5 14.5 -12 12 C-12.791013 7.97901723 -12.62153384 5.03588973 -10.5 1.5 C-6.97359191 -0.61584485 -4.01178761 -0.80730018 0 0 Z " fill="#EFEFEF" transform="translate(260,449)"/>
<path d="M0 0 C5.61 0 11.22 0 17 0 C16.34 1.98 15.68 3.96 15 6 C14.33613281 5.72285156 13.67226562 5.44570312 12.98828125 5.16015625 C12.10527344 4.79792969 11.22226563 4.43570312 10.3125 4.0625 C9.44238281 3.70285156 8.57226562 3.34320313 7.67578125 2.97265625 C5.11820735 2.0429688 2.6778677 1.45837375 0 1 C0 0.67 0 0.34 0 0 Z " fill="#E5E5E5" transform="translate(189,0)"/>
<path d="M0 0 C3.3 0 6.6 0 10 0 C9.01 0.495 9.01 0.495 8 1 C7.38438582 3.54876234 7.38438582 3.54876234 7 6.5 C6.5625 9.53125 6.5625 9.53125 6 12 C5.01 12.495 5.01 12.495 4 13 C4.01160156 12.37351562 4.02320312 11.74703125 4.03515625 11.1015625 C4.04869141 9.87566406 4.04869141 9.87566406 4.0625 8.625 C4.07410156 7.81289062 4.08570312 7.00078125 4.09765625 6.1640625 C4.14466334 3.95062858 4.14466334 3.95062858 3 2 C2.01 1.34 1.02 0.68 0 0 Z M0 14 C3 15 3 15 3 15 Z " fill="#D7D7D7" transform="translate(60,0)"/>
<path d="M0 0 C0.66 0 1.32 0 2 0 C1.86722656 0.56847656 1.73445312 1.13695313 1.59765625 1.72265625 C0.5115242 6.47151097 -0.38312382 11.16780324 -1 16 C-1.33 16 -1.66 16 -2 16 C-2.05402274 13.89611431 -2.09280256 11.79183286 -2.125 9.6875 C-2.14820313 8.51574219 -2.17140625 7.34398437 -2.1953125 6.13671875 C-2 3 -2 3 0 0 Z " fill="#E0E0E0" transform="translate(2,23)"/>
<path d="M0 0 C3 3 3 3 4 6 C2.0625 8.6875 2.0625 8.6875 0 11 C0 7.37 0 3.74 0 0 Z " fill="#EEEEEE" transform="translate(360,84)"/>
<path d="M0 0 C1.32 0.33 2.64 0.66 4 1 C3.34 2.65 2.68 4.3 2 6 C0.68 5.34 -0.64 4.68 -2 4 C-1.34 2.68 -0.68 1.36 0 0 Z " fill="#EDEDED" transform="translate(202,0)"/>
</svg>
