<?xml version="1.0" encoding="UTF-8"?>
<svg version="1.1" xmlns="http://www.w3.org/2000/svg" width="512" height="512">
<path d="M0 0 C168.96 0 337.92 0 512 0 C512 168.96 512 337.92 512 512 C343.04 512 174.08 512 0 512 C0 343.04 0 174.08 0 0 Z " fill="#F6F6F6" transform="translate(0,0)"/>
<path d="M0 0 C168.96 0 337.92 0 512 0 C512.12375 63.97875 512.12375 63.97875 512.25 129.25 C512.28641602 142.71458008 512.32283203 156.17916016 512.36035156 170.05175781 C512.37841797 186.50146484 512.37841797 186.50146484 512.3817749 194.20379639 C512.38549949 199.5800078 512.40014847 204.95605746 512.42230225 210.33221436 C512.45054151 217.19536198 512.4579554 224.05827754 512.4522891 230.9214797 C512.45347354 233.43681036 512.46137597 235.95214923 512.47686052 238.4674325 C512.65095855 268.13178905 512.65095855 268.13178905 502 280 C501.34 280.66 500.68 281.32 500 282 C499.69247467 284.94860343 499.69247467 284.94860343 499.74171448 288.47521973 C499.73620092 289.48400405 499.73620092 289.48400405 499.73057598 290.51316786 C499.72055725 292.77773486 499.72475449 295.04205817 499.72875977 297.30664062 C499.72437466 298.9261603 499.7190733 300.54567772 499.71292114 302.16519165 C499.70139873 305.65958537 499.69596005 309.15391828 499.69503975 312.64833069 C499.69310161 318.17930632 499.67505995 323.71015621 499.65428162 329.24108887 C499.60504603 342.98690338 499.57425643 356.73275233 499.55297852 370.4786377 C499.53643541 381.1461464 499.51354396 391.81354804 499.46995777 402.48098516 C499.44823257 407.97267837 499.44011896 413.46416796 499.44235051 418.95590115 C499.44067649 422.38495043 499.4265824 425.81386845 499.40913773 429.24287033 C499.40356651 430.82541824 499.40302673 432.4079937 499.40807533 433.99054337 C499.44749397 447.80245332 497.5788853 459.28512966 488.25390625 470.0078125 C480.1437796 477.79758071 469.38342898 481.13657768 458.38525391 481.19287109 C457.50527237 481.20104858 456.62529083 481.20922607 455.71864319 481.21765137 C452.80462321 481.24247825 449.89065178 481.25901254 446.9765625 481.2734375 C445.9815913 481.27876118 444.9866201 481.28408485 443.96149826 481.28956985 C438.69732178 481.31628689 433.43316893 481.33566832 428.16894531 481.35009766 C422.72901949 481.36676179 417.28969756 481.4115586 411.85000038 481.4624691 C407.66870414 481.49609815 403.48755222 481.50767018 399.30613327 481.51332474 C397.30063627 481.52004686 395.29514907 481.53529378 393.28978348 481.55921555 C390.48386336 481.59078319 387.67958572 481.59091684 384.87353516 481.58349609 C384.04530746 481.59990143 383.21707977 481.61630676 382.36375427 481.63320923 C378.09133552 481.58694675 376.47179812 481.36642426 372.9805603 478.65493774 C371 476 371 476 370.4375 472.9375 C371.15018053 469.21572389 371.96023461 468.25012736 375 466 C377.95692463 465.61247771 380.54185242 465.46595166 383.49707031 465.50170898 C384.35287186 465.49619019 385.2086734 465.49067139 386.09040833 465.48498535 C387.94719398 465.47566605 389.80404355 465.47555962 391.66083527 465.48357964 C394.60410942 465.49620521 397.54644505 465.48492239 400.48968506 465.46754456 C405.68163561 465.44081492 410.87335674 465.43524956 416.06536865 465.43664551 C424.36122372 465.43887143 432.6567934 465.42464708 440.95253754 465.38105965 C443.84410189 465.37125155 446.7352152 465.37992526 449.62677002 465.38975525 C451.41296682 465.38360694 453.1991612 465.37669385 454.98535156 465.36889648 C455.7825209 465.37661575 456.57969025 465.38433502 457.40101624 465.39228821 C464.54082233 465.32830624 470.35253596 463.56141326 476 459 C476.66 459 477.32 459 478 459 C478.68774405 457.67741528 479.34711373 456.34013497 480 455 C480.5124678 454.1007933 481.02493561 453.20158661 481.55293274 452.27513123 C484.09104514 446.25705595 483.39098497 439.57004199 483.34057617 433.16040039 C483.33972914 431.65199806 483.34020653 430.14359449 483.34190369 428.63519287 C483.34276209 424.5550497 483.32516161 420.47517277 483.30418181 416.3950913 C483.28538906 412.12566695 483.28366253 407.85623606 483.28010559 403.58677673 C483.27079275 395.50856905 483.2461893 387.4304836 483.21605712 379.35232967 C483.1824894 370.15284331 483.16602114 360.95335102 483.15097082 351.75381863 C483.11963904 332.83580986 483.06689338 313.91791477 483 295 C482.45305198 295.3179827 481.90610395 295.6359654 481.34258175 295.96358395 C478.84282855 297.41611214 476.34219929 298.86712561 473.84155273 300.31811523 C472.98113121 300.81837975 472.12070969 301.31864426 471.23421478 301.8340683 C465.59899617 305.10205068 459.95910628 308.28530518 454.0625 311.0625 C453.2166333 311.46186768 452.3707666 311.86123535 451.49926758 312.27270508 C439.66366106 317.70340926 427.35464078 321.92247323 415 326 C413.47052734 326.50490967 413.47052734 326.50490967 411.91015625 327.02001953 C394.89572501 332.53050349 377.56686099 335.84282222 360 339 C358.2705744 339.32152701 356.5413679 339.64423758 354.8125 339.96875 C334.59350147 343.72370687 313.59008083 346.18064846 293 346 C293.0825 347.2375 293.165 348.475 293.25 349.75 C293.20181066 359.96614066 289.04473549 368.75357475 282 376 C273.74155942 383.67468386 264.7542087 386.73030135 253.54150391 386.67700195 C243.5632427 386.19517873 235.24309932 381.84799762 228.375 374.5625 C221.46243966 365.84794744 218.60511051 357.05690584 219 346 C218.36980957 346.01377686 217.73961914 346.02755371 217.09033203 346.04174805 C209.29041737 346.13529076 201.63395658 345.57666978 193.875 344.8125 C193.2140332 344.7478656 192.55306641 344.6832312 191.87207031 344.61663818 C168.04948211 342.25889928 144.24601063 338.78101683 121 333 C120.15904785 332.79375 119.3180957 332.5875 118.45166016 332.375 C116.0638499 331.77676216 113.68746907 331.14715853 111.3125 330.5 C110.27802734 330.23413086 110.27802734 330.23413086 109.22265625 329.96289062 C104.72148642 328.65919814 102.40912762 327.02947996 100 323 C100.0625 319.3125 100.0625 319.3125 101 316 C104.80897772 313.46068152 107.59822131 313.52696013 112 314 C116.41927696 314.8941815 120.76415557 316.0456111 125.125 317.1875 C153.18209689 324.22405307 182.05434413 328.46653862 210.9609375 329.7890625 C213.72785255 329.98111059 216.29974242 330.38308722 219 331 C218.97905273 330.40574219 218.95810547 329.81148438 218.93652344 329.19921875 C218.85258146 326.46632295 218.80109719 323.73369943 218.75 321 C218.71648437 320.06542969 218.68296875 319.13085938 218.6484375 318.16796875 C218.56040788 311.87385126 219.10692083 307.07824612 223 302 C229.27462965 296.35662419 234.80533573 295.10029414 243.0625 295.203125 C244.60949585 295.19451447 244.60949585 295.19451447 246.18774414 295.18572998 C248.35597954 295.18166915 250.52428992 295.19258558 252.69238281 295.21777344 C255.99191699 295.24992125 259.28655382 295.21801814 262.5859375 295.1796875 C264.7031357 295.18365274 266.82033088 295.1913409 268.9375 295.203125 C270.40038452 295.18490692 270.40038452 295.18490692 271.89282227 295.1663208 C278.97015304 295.31005325 283.83049256 297.05996122 289 302 C293.61220339 307.7476145 293.50403614 313.91629986 293.25 321 C293.23195313 321.96550781 293.21390625 322.93101562 293.1953125 323.92578125 C293.14859687 326.28492033 293.08312137 328.64191075 293 331 C360.16957898 325.0004607 438.2094412 315.50952914 491 269 C494.70780052 264.11383 496.11341593 259.26057975 496.15390015 253.22042847 C496.16680084 251.78241631 496.16680084 251.78241631 496.17996216 250.31535339 C496.18422211 249.27011002 496.18848206 248.22486664 496.19287109 247.14794922 C496.20104858 246.04176743 496.20922607 244.93558563 496.21765137 243.79588318 C496.24247901 240.13215676 496.25901586 236.46846906 496.2734375 232.8046875 C496.27876118 231.55209263 496.28408485 230.29949776 496.28956985 229.00894547 C496.31079408 223.74169942 496.32992294 218.47445916 496.34119225 213.20718193 C496.35740555 205.68068365 496.39052799 198.15470365 496.44759309 190.62840068 C496.4911159 184.68359931 496.5069528 178.73891215 496.51332474 172.79394913 C496.52002931 170.27345213 496.53523047 167.75296244 496.55921555 165.23257065 C496.59093454 161.69745621 496.59089272 158.16363813 496.58349609 154.62841797 C496.59990143 153.59531998 496.61630676 152.56222198 496.63320923 151.49781799 C496.57216201 144.33818439 494.91690389 139.02493794 491 133 C488.83851615 130.7151254 488.83851615 130.7151254 486.4375 129.4375 C485.69371094 128.98246094 484.94992187 128.52742187 484.18359375 128.05859375 C479.71784677 125.89362518 475.49065607 125.85619132 470.59604263 125.86857224 C469.84418611 125.8665196 469.09232959 125.86446697 468.31768954 125.86235213 C465.78406269 125.85667225 463.25049002 125.8581406 460.71685791 125.85955811 C458.88769523 125.85697504 457.05853312 125.85396204 455.22937179 125.8505547 C450.1915525 125.84247463 445.15374745 125.84069457 440.11592245 125.83995724 C434.68701894 125.83810844 429.25812286 125.83056201 423.82922363 125.82382202 C411.95327004 125.81023121 400.07731982 125.80421287 388.20135975 125.79981136 C380.78863516 125.79705031 373.37591188 125.79281322 365.96318817 125.78830719 C345.44703885 125.77611375 324.93089057 125.76581445 304.4147377 125.7624321 C303.10127129 125.76221253 301.78780487 125.76199297 300.43453644 125.76176675 C299.11789561 125.76154847 297.80125478 125.76133019 296.44471574 125.7611053 C293.77662039 125.76066183 291.10852504 125.76021563 288.44042969 125.75976562 C287.44813088 125.75960154 287.44813088 125.75960154 286.43578563 125.75943414 C264.9836171 125.75580318 243.53148236 125.73988154 222.07932677 125.71657526 C199.39976888 125.69198053 176.72023032 125.67826616 154.04065871 125.67706418 C141.67727672 125.67614674 129.31393897 125.67037706 116.95056915 125.65224457 C106.42388681 125.63686042 95.89726237 125.63171317 85.37057093 125.63998267 C79.99850153 125.64389508 74.62654882 125.64293069 69.25449371 125.62892532 C64.33697582 125.61622206 59.41966272 125.61735247 54.50214526 125.62951604 C52.7228591 125.63147923 50.94355861 125.62836597 49.1642926 125.61967167 C46.74505396 125.60859833 44.32654052 125.61605403 41.90732193 125.6280632 C41.21715205 125.62046801 40.52698218 125.61287282 39.81589806 125.60504746 C33.62291783 125.67137704 28.64964506 127.45950869 23.3125 130.5625 C16.66153011 137.57298178 15.26137332 145.27027027 15.35302734 154.625 C15.34426575 155.74181152 15.33550415 156.85862305 15.32647705 158.00927734 C15.30460622 161.67325564 15.31899342 165.33601105 15.3359375 169 C15.33256587 171.56250234 15.32771036 174.12500311 15.32144165 176.6875 C15.31408691 182.04704556 15.32424851 187.40615944 15.34814453 192.765625 C15.37535032 198.93820927 15.36653385 205.10996745 15.3390125 211.28253174 C15.31347933 217.25092353 15.31632041 223.2190615 15.33092117 229.1875 C15.33424483 231.71354286 15.33020495 234.23960696 15.31852341 236.765625 C15.30575419 240.30264271 15.32527968 243.83809797 15.35302734 247.375 C15.34290619 248.40802246 15.33278503 249.44104492 15.32235718 250.50537109 C15.44275833 258.83437881 17.76347392 265.46264297 23.4375 271.6640625 C40.22506181 284.51064181 59.32763781 294.57222158 78.76953125 302.81640625 C81 304 81 304 83 307 C83.34386442 310.23232558 83.26498755 312.37065456 82 315.375 C79.43487626 317.45916304 77.45983144 317.34021818 74.23388672 317.26757812 C70.3440751 316.80165096 67.07001158 315.23907338 63.5625 313.5625 C62.79115723 313.20631592 62.01981445 312.85013184 61.22509766 312.4831543 C51.50538395 307.93364828 41.84809948 303.0815998 32.75830078 297.36401367 C32.05069611 296.9195842 31.34309143 296.47515472 30.61404419 296.01725769 C30.08140961 295.68156265 29.54877502 295.34586761 29 295 C28.90649033 314.81051366 28.83598829 334.62098243 28.79275131 354.43167114 C28.77214054 363.63046656 28.74404838 372.82912472 28.69824219 382.02783203 C28.6583289 390.04697227 28.63255639 398.06601309 28.62364602 406.0852499 C28.61843886 410.33001962 28.60623128 414.57450493 28.57707977 418.81918335 C28.54983954 422.8181336 28.54157226 426.81668348 28.54756927 430.8157177 C28.54647287 432.27980668 28.5385701 433.74390968 28.5231781 435.20791817 C28.44233814 443.29681531 28.66999156 449.07552045 33 456 C33.495 457.485 33.495 457.485 34 459 C35.86120669 460.10915387 35.86120669 460.10915387 38 461 C38.56130122 461.3474944 39.12260243 461.69498879 39.70091277 462.05301332 C45.81776846 465.65669884 51.54808209 465.55499096 58.50737 465.49206543 C59.75616103 465.49674442 61.00495207 465.50142341 62.29158527 465.50624418 C65.74150427 465.51870591 69.19095516 465.50649033 72.6408416 465.49016929 C76.36750047 465.476962 80.09410529 465.48696965 83.82077026 465.49427795 C90.27315181 465.50394574 96.72539816 465.4995086 103.17777061 465.4858551 C112.51218198 465.46647368 121.84644169 465.4729394 131.18085704 465.48642892 C146.33355084 465.50799799 161.48620881 465.5147263 176.63891602 465.50927734 C177.54521796 465.50895671 178.4515199 465.50863608 179.38528553 465.50830573 C185.81935721 465.50593222 192.2534286 465.50302732 198.6875 465.5 C206.04239897 465.49654016 213.39729794 465.49332208 220.75219727 465.49072266 C221.65830211 465.49039715 222.56440696 465.49007163 223.49796953 465.48973626 C238.59862442 465.48479659 253.69922955 465.49545935 268.79986888 465.51729441 C278.11310292 465.53000091 287.42613208 465.52852775 296.73935506 465.50884354 C303.1163998 465.49625194 309.49334046 465.49768342 315.87038501 465.51021707 C319.55107993 465.51693999 323.23147132 465.51700165 326.91213799 465.4996357 C330.89942166 465.48094303 334.88627387 465.49293867 338.87358093 465.50793457 C340.62365803 465.49220123 340.62365803 465.49220123 342.40909022 465.47615004 C350.20138717 465.54170864 350.20138717 465.54170864 354.21883869 467.84716034 C356 470 356 470 356.625 472.9375 C355.74868127 477.23146178 354.55911461 478.40483927 351 481 C346.95851636 481.7557125 342.95705949 481.66972844 338.85580444 481.62818909 C337.60972652 481.63528347 336.3636486 481.64237786 335.07981074 481.64968723 C331.62297314 481.66425082 328.16750408 481.65636654 324.71076655 481.6389643 C320.98187308 481.62560225 317.25308385 481.64102357 313.52420044 481.65278625 C306.21850857 481.67117925 298.91308393 481.66263817 291.60740034 481.64469803 C285.66699551 481.63067411 279.72666324 481.62677879 273.78624344 481.6301403 C272.9408363 481.63061775 272.09542916 481.63109519 271.22440363 481.6315871 C269.50691232 481.63261344 267.78942104 481.6336688 266.07192977 481.63475286 C250.87781512 481.6433241 235.68382937 481.62663476 220.48974609 481.59692383 C205.75726905 481.56811602 191.02497794 481.56098783 176.29248047 481.57641602 C160.24686033 481.59319636 144.20132852 481.59719132 128.15570605 481.57970566 C126.44268776 481.57786132 124.72966946 481.57602659 123.01665115 481.57420158 C122.17385618 481.57328949 121.33106121 481.5723774 120.462727 481.57143768 C114.53518838 481.56584131 108.60769298 481.56913134 102.68015671 481.57574654 C95.44769569 481.58349753 88.21541738 481.57666477 80.98299305 481.5515715 C77.29551927 481.53911364 73.60832935 481.53288416 69.92084503 481.54411316 C65.91566811 481.55607864 61.91123091 481.53682152 57.90609741 481.5146637 C56.75091909 481.52290446 55.59574076 481.53114523 54.40555704 481.53963572 C42.49895211 481.41837089 31.54621921 477.63860537 23.0625 469.03515625 C13.94821209 458.17265364 12.27131702 446.99253164 12.45166016 433.34277344 C12.45467418 431.69883478 12.45537624 430.05489052 12.45396423 428.41094971 C12.4553275 424.89470235 12.47180222 421.37897879 12.50011063 417.86284637 C12.5437967 412.29797901 12.54682897 406.73352923 12.54354858 401.16851807 C12.54144327 387.35497615 12.58790153 373.54165215 12.652771 359.72827148 C12.70298453 348.97280547 12.73790115 338.21779991 12.72430074 327.4622004 C12.71903551 321.93432012 12.74611412 316.40785218 12.79787087 310.88022566 C12.82291601 307.44026795 12.81878854 304.00079194 12.80668831 300.56078339 C12.80697764 298.97087693 12.81920998 297.38091896 12.84452248 295.79121399 C13.18370731 285.81180899 13.18370731 285.81180899 8.59799194 277.28424072 C7.98314123 276.74175816 7.36829052 276.19927559 6.73480797 275.64035416 C2.09075703 271.24915444 0.21348437 263.93304187 -0.1241985 257.71187991 C-0.12381878 256.92396022 -0.12343906 256.13604054 -0.12304783 255.3242445 C-0.1250387 254.4083209 -0.12702957 253.49239731 -0.12908077 252.54871845 C-0.12616811 251.55192161 -0.12325544 250.55512476 -0.12025452 249.52812195 C-0.12111053 248.46469574 -0.12196655 247.40126953 -0.12284851 246.30561829 C-0.12450575 242.72545708 -0.11897669 239.14534249 -0.11352539 235.56518555 C-0.11321912 232.96137652 -0.11335244 230.35756742 -0.11389065 227.75375843 C-0.11442222 221.48041891 -0.10980575 215.2070937 -0.10338932 208.93375786 C-0.0961893 201.67707028 -0.09539457 194.42038771 -0.09460449 187.16369629 C-0.08935416 168.00496192 -0.07539305 148.84623075 -0.0625 129.6875 C-0.041875 86.890625 -0.02125 44.09375 0 0 Z " fill="#F6F6F6" transform="translate(0,0)"/>
<path d="M0 0 C1.03229736 -0.02602295 2.06459473 -0.0520459 3.12817383 -0.07885742 C7.58714818 -0.0895451 10.41005179 -0.05925899 14.35546875 2.14453125 C16.30559994 4.51878479 16.82715356 5.41749184 16.6875 8.4375 C16.1875 12.375 16.1875 12.375 14.96313477 14.09350586 C12.63074315 15.77681723 11.14100683 15.77238234 8.27734375 15.81640625 C7.29660889 15.8412207 6.31587402 15.86603516 5.30541992 15.89160156 C4.25588135 15.90674805 3.20634277 15.92189453 2.125 15.9375 C-0.06783941 16.00221156 -2.26055503 16.07125645 -4.453125 16.14453125 C-5.53658203 16.1801416 -6.62003906 16.21575195 -7.73632812 16.25244141 C-31.03727042 17.18078054 -57.02089823 22.78070272 -75.8125 37.375 C-77.50276137 40.75552274 -77.05694959 44.59760142 -77.12890625 48.3203125 C-77.1600779 49.64783035 -77.1600779 49.64783035 -77.19187927 51.00216675 C-77.25736598 53.83469741 -77.31625562 56.66732225 -77.375 59.5 C-77.41818606 61.41797857 -77.46180037 63.33594754 -77.50585938 65.25390625 C-77.61304647 69.96084051 -77.7143164 74.66786967 -77.8125 79.375 C-72.2025 79.375 -66.5925 79.375 -60.8125 79.375 C-60.91691406 76.21357422 -60.91691406 76.21357422 -61.0234375 72.98828125 C-61.07029252 70.93633436 -61.10668721 68.88444807 -61.14208984 66.83227539 C-61.17217954 65.4111036 -61.21306404 63.99011628 -61.26513672 62.56958008 C-61.68415134 50.84127878 -61.68415134 50.84127878 -59.63256836 47.39013672 C-58.11328125 46.07421875 -58.11328125 46.07421875 -54.8125 44.375 C-53.97332031 43.9109375 -53.13414062 43.446875 -52.26953125 42.96875 C-46.0222044 40.38492206 -39.70738431 38.38121503 -33.1875 36.625 C-32.02504761 36.30885742 -32.02504761 36.30885742 -30.83911133 35.98632812 C-5.10850565 29.3671739 29.37960919 31.22919269 53.06103516 44.41845703 C55.32679988 45.8976787 57.27310603 47.46060603 59.1875 49.375 C59.41455078 52.35595703 59.41455078 52.35595703 59.3828125 56.1328125 C59.37856766 57.12738968 59.37856766 57.12738968 59.37423706 58.14205933 C59.36303435 60.26155583 59.33793051 62.38063104 59.3125 64.5 C59.30247028 65.93619182 59.29334441 67.37239025 59.28515625 68.80859375 C59.26479539 72.33102238 59.2256494 75.85253917 59.1875 79.375 C64.7975 79.375 70.4075 79.375 76.1875 79.375 C76.16807123 73.76922985 76.11632861 68.1650277 76.03491211 62.55981445 C76.01174723 60.65397693 75.99733993 58.74801167 75.99194336 56.84204102 C75.98264259 54.09831277 75.94162929 51.35658937 75.89453125 48.61328125 C75.90043022 47.33956413 75.90043022 47.33956413 75.90644836 46.04011536 C75.80037307 41.71756733 75.61617934 39.91632468 72.85083008 36.42431641 C69.74999068 34.03835565 66.5651791 32.14957185 63.0625 30.4375 C62.37961914 30.09686523 61.69673828 29.75623047 60.99316406 29.40527344 C54.7037207 26.38916734 48.20360782 24.29276742 41.48388672 22.45336914 C37.09612505 21.20746723 33.98133442 20.22755062 31.1875 16.375 C30.62461998 12.43483987 30.58353972 10.31717804 32.75 6.9375 C36.13530011 4.76743583 38.17809153 5.08832929 42.1875 5.375 C45.39409713 6.13974725 48.4635814 7.19394828 51.5625 8.3125 C52.43229492 8.62316406 53.30208984 8.93382812 54.19824219 9.25390625 C67.68425727 14.23818829 83.66891812 20.47030962 90.32463074 34.03355408 C91.84701282 38.1646264 91.67808574 42.20830763 91.578125 46.5625 C91.57246521 47.50561035 91.56680542 48.4487207 91.56097412 49.42041016 C91.53874585 52.40580978 91.4885756 55.38996874 91.4375 58.375 C91.41741746 60.41013881 91.39916978 62.44529659 91.3828125 64.48046875 C91.33892557 69.44578391 91.26999314 74.41018227 91.1875 79.375 C91.85673115 79.37131283 92.5259623 79.36762566 93.21547318 79.36382675 C109.54286029 79.2752667 125.87017074 79.20918918 142.19774246 79.16775131 C150.09383044 79.14717665 157.98975752 79.11915435 165.88574219 79.07324219 C172.77252529 79.03321743 179.65919179 79.0075302 186.54608798 78.99864602 C190.18849811 78.99345753 193.83057484 78.98137106 197.4728775 78.95207977 C201.55140101 78.91955025 205.62935479 78.91905053 209.70800781 78.92089844 C210.89916199 78.90651733 212.09031616 78.89213623 213.31756592 78.87731934 C225.34412709 78.93598863 235.43492584 81.90856769 244.1875 90.375 C257.44091845 103.81249371 255.7836704 121.26771277 255.71875 138.81640625 C255.72144894 141.392249 255.72533469 143.96809076 255.73034668 146.54393005 C255.73622168 151.92417119 255.72813129 157.30412277 255.70898438 162.68432617 C255.68721129 168.87330426 255.69428446 175.06175516 255.71629 181.25072056 C255.73674126 187.24634635 255.73443491 193.24171765 255.72276306 199.23737907 C255.72010857 201.77014173 255.72332018 204.302918 255.73268127 206.83566475 C255.74292057 210.3837179 255.72724205 213.93077981 255.70507812 217.47875977 C255.71317505 218.50922928 255.72127197 219.53969879 255.72961426 220.60139465 C255.59002502 232.75637713 251.79270055 242.76979945 243.1875 251.375 C242.87997467 254.32360343 242.87997467 254.32360343 242.92921448 257.85021973 C242.92370092 258.85900405 242.92370092 258.85900405 242.91807598 259.88816786 C242.90805725 262.15273486 242.91225449 264.41705817 242.91625977 266.68164062 C242.91187466 268.3011603 242.9065733 269.92067772 242.90042114 271.54019165 C242.88889873 275.03458537 242.88346005 278.52891828 242.88253975 282.02333069 C242.88060161 287.55430632 242.86255995 293.08515621 242.84178162 298.61608887 C242.79254603 312.36190338 242.76175643 326.10775233 242.74047852 339.8536377 C242.72393541 350.5211464 242.70104396 361.18854804 242.65745777 371.85598516 C242.63573257 377.34767837 242.62761896 382.83916796 242.62985051 388.33090115 C242.62817649 391.75995043 242.6140824 395.18886845 242.59663773 398.61787033 C242.59106651 400.20041824 242.59052673 401.7829937 242.59557533 403.36554337 C242.63499397 417.17745332 240.7663853 428.66012966 231.44140625 439.3828125 C223.3312796 447.17258071 212.57092898 450.51157768 201.57275391 450.56787109 C200.69277237 450.57604858 199.81279083 450.58422607 198.90614319 450.59265137 C195.99212321 450.61747825 193.07815178 450.63401254 190.1640625 450.6484375 C189.1690913 450.65376118 188.1741201 450.65908485 187.14899826 450.66456985 C181.88482178 450.69128689 176.62066893 450.71066832 171.35644531 450.72509766 C165.91651949 450.74176179 160.47719756 450.7865586 155.03750038 450.8374691 C150.85620414 450.87109815 146.67505222 450.88267018 142.49363327 450.88832474 C140.48813627 450.89504686 138.48264907 450.91029378 136.47728348 450.93421555 C133.67136336 450.96578319 130.86708572 450.96591684 128.06103516 450.95849609 C127.23280746 450.97490143 126.40457977 450.99130676 125.55125427 451.00820923 C121.27883552 450.96194675 119.65929812 450.74142426 116.1680603 448.02993774 C114.1875 445.375 114.1875 445.375 113.625 442.3125 C114.33768053 438.59072389 115.14773461 437.62512736 118.1875 435.375 C121.14442463 434.98747771 123.72935242 434.84095166 126.68457031 434.87670898 C127.54037186 434.87119019 128.3961734 434.86567139 129.27790833 434.85998535 C131.13469398 434.85066605 132.99154355 434.85055962 134.84833527 434.85857964 C137.79160942 434.87120521 140.73394505 434.85992239 143.67718506 434.84254456 C148.86913561 434.81581492 154.06085674 434.81024956 159.25286865 434.81164551 C167.54872372 434.81387143 175.8442934 434.79964708 184.14003754 434.75605965 C187.03160189 434.74625155 189.9227152 434.75492526 192.81427002 434.76475525 C194.60046682 434.75860694 196.3866612 434.75169385 198.17285156 434.74389648 C198.9700209 434.75161575 199.76719025 434.75933502 200.58851624 434.76728821 C207.72832233 434.70330624 213.54003596 432.93641326 219.1875 428.375 C219.8475 428.375 220.5075 428.375 221.1875 428.375 C221.87524405 427.05241528 222.53461373 425.71513497 223.1875 424.375 C223.6999678 423.4757933 224.21243561 422.57658661 224.74043274 421.65013123 C227.27854514 415.63205595 226.57848497 408.94504199 226.52807617 402.53540039 C226.52722914 401.02699806 226.52770653 399.51859449 226.52940369 398.01019287 C226.53026209 393.9300497 226.51266161 389.85017277 226.49168181 385.7700913 C226.47288906 381.50066695 226.47116253 377.23123606 226.46760559 372.96177673 C226.45829275 364.88356905 226.4336893 356.8054836 226.40355712 348.72732967 C226.3699894 339.52784331 226.35352114 330.32835102 226.33847082 321.12881863 C226.30713904 302.21080986 226.25439338 283.29291477 226.1875 264.375 C225.64055198 264.6929827 225.09360395 265.0109654 224.53008175 265.33858395 C222.03032855 266.79111214 219.52969929 268.24212561 217.02905273 269.69311523 C216.16863121 270.19337975 215.30820969 270.69364426 214.42171478 271.2090683 C208.78649617 274.47705068 203.14660628 277.66030518 197.25 280.4375 C196.4041333 280.83686768 195.5582666 281.23623535 194.68676758 281.64770508 C182.85116106 287.07840926 170.54214078 291.29747323 158.1875 295.375 C156.65802734 295.87990967 156.65802734 295.87990967 155.09765625 296.39501953 C138.08322501 301.90550349 120.75436099 305.21782222 103.1875 308.375 C101.4580744 308.69652701 99.7288679 309.01923758 98 309.34375 C77.78100147 313.09870687 56.77758083 315.55564846 36.1875 315.375 C36.27 316.6125 36.3525 317.85 36.4375 319.125 C36.38931066 329.34114066 32.23223549 338.12857475 25.1875 345.375 C16.92905942 353.04968386 7.9417087 356.10530135 -3.27099609 356.05200195 C-13.2492573 355.57017873 -21.56940068 351.22299762 -28.4375 343.9375 C-35.35006034 335.22294744 -38.20738949 326.43190584 -37.8125 315.375 C-38.44269043 315.38877686 -39.07288086 315.40255371 -39.72216797 315.41674805 C-47.52208263 315.51029076 -55.17854342 314.95166978 -62.9375 314.1875 C-63.5984668 314.1228656 -64.25943359 314.0582312 -64.94042969 313.99163818 C-88.76301789 311.63389928 -112.56648937 308.15601683 -135.8125 302.375 C-136.65345215 302.16875 -137.4944043 301.9625 -138.36083984 301.75 C-140.7486501 301.15176216 -143.12503093 300.52215853 -145.5 299.875 C-146.53447266 299.60913086 -146.53447266 299.60913086 -147.58984375 299.33789062 C-152.09101358 298.03419814 -154.40337238 296.40447996 -156.8125 292.375 C-156.75 288.6875 -156.75 288.6875 -155.8125 285.375 C-152.00352228 282.83568152 -149.21427869 282.90196013 -144.8125 283.375 C-140.39322304 284.2691815 -136.04834443 285.4206111 -131.6875 286.5625 C-103.63040311 293.59905307 -74.75815587 297.84153862 -45.8515625 299.1640625 C-43.08464745 299.35611059 -40.51275758 299.75808722 -37.8125 300.375 C-37.83344727 299.78074219 -37.85439453 299.18648438 -37.87597656 298.57421875 C-37.95991854 295.84132295 -38.01140281 293.10869943 -38.0625 290.375 C-38.09601563 289.44042969 -38.12953125 288.50585938 -38.1640625 287.54296875 C-38.25209212 281.24885126 -37.70557917 276.45324612 -33.8125 271.375 C-27.53787035 265.73162419 -22.00716427 264.47529414 -13.75 264.578125 C-12.20300415 264.56951447 -12.20300415 264.56951447 -10.62475586 264.56072998 C-8.45652046 264.55666915 -6.28821008 264.56758558 -4.12011719 264.59277344 C-0.82058301 264.62492125 2.47405382 264.59301814 5.7734375 264.5546875 C7.8906357 264.55865274 10.00783088 264.5663409 12.125 264.578125 C13.58788452 264.55990692 13.58788452 264.55990692 15.08032227 264.5413208 C22.15765304 264.68505325 27.01799256 266.43496122 32.1875 271.375 C36.79970339 277.1226145 36.69153614 283.29129986 36.4375 290.375 C36.41945313 291.34050781 36.40140625 292.30601562 36.3828125 293.30078125 C36.33609687 295.65992033 36.27062137 298.01691075 36.1875 300.375 C103.35707898 294.3754607 181.3969412 284.88452914 234.1875 238.375 C237.89530052 233.48883 239.30091593 228.63557975 239.34140015 222.59542847 C239.35430084 221.15741631 239.35430084 221.15741631 239.36746216 219.69035339 C239.37172211 218.64511002 239.37598206 217.59986664 239.38037109 216.52294922 C239.38854858 215.41676743 239.39672607 214.31058563 239.40515137 213.17088318 C239.42997901 209.50715676 239.44651586 205.84346906 239.4609375 202.1796875 C239.46626118 200.92709263 239.47158485 199.67449776 239.47706985 198.38394547 C239.49829408 193.11669942 239.51742294 187.84945916 239.52869225 182.58218193 C239.54490555 175.05568365 239.57802799 167.52970365 239.63509309 160.00340068 C239.6786159 154.05859931 239.6944528 148.11391215 239.70082474 142.16894913 C239.70752931 139.64845213 239.72273047 137.12796244 239.74671555 134.60757065 C239.77843454 131.07245621 239.77839272 127.53863813 239.77099609 124.00341797 C239.7956041 122.45377098 239.7956041 122.45377098 239.82070923 120.87281799 C239.75966201 113.71318439 238.10440389 108.39993794 234.1875 102.375 C232.02601615 100.0901254 232.02601615 100.0901254 229.625 98.8125 C228.50931641 98.12994141 228.50931641 98.12994141 227.37109375 97.43359375 C222.90534677 95.26862518 218.67815607 95.23119132 213.78354263 95.24357224 C213.03168611 95.2415196 212.27982959 95.23946697 211.50518954 95.23735213 C208.97156269 95.23167225 206.43799002 95.2331406 203.90435791 95.23455811 C202.07519523 95.23197504 200.24603312 95.22896204 198.41687179 95.2255547 C193.3790525 95.21747463 188.34124745 95.21569457 183.30342245 95.21495724 C177.87451894 95.21310844 172.44562286 95.20556201 167.01672363 95.19882202 C155.14077004 95.18523121 143.26481982 95.17921287 131.38885975 95.17481136 C123.97613516 95.17205031 116.56341188 95.16781322 109.15068817 95.16330719 C88.63453885 95.15111375 68.11839057 95.14081445 47.6022377 95.1374321 C46.28877129 95.13721253 44.97530487 95.13699297 43.62203644 95.13676675 C42.30539561 95.13654847 40.98875478 95.13633019 39.63221574 95.1361053 C36.96412039 95.13566183 34.29602504 95.13521563 31.62792969 95.13476562 C30.63563088 95.13460154 30.63563088 95.13460154 29.62328563 95.13443414 C8.1711171 95.13080318 -13.28101764 95.11488154 -34.73317323 95.09157526 C-57.41273112 95.06698053 -80.09226968 95.05326616 -102.77184129 95.05206418 C-115.13522328 95.05114674 -127.49856103 95.04537706 -139.86193085 95.02724457 C-150.38861319 95.01186042 -160.91523763 95.00671317 -171.44192907 95.01498267 C-176.81399847 95.01889508 -182.18595118 95.01793069 -187.55800629 95.00392532 C-192.47552418 94.99122206 -197.39283728 94.99235247 -202.31035474 95.00451604 C-204.0896409 95.00647923 -205.86894139 95.00336597 -207.6482074 94.99467167 C-210.06744604 94.98359833 -212.48595948 94.99105403 -214.90517807 95.0030632 C-215.59534795 94.99546801 -216.28551782 94.98787282 -216.99660194 94.98004746 C-223.18958217 95.04637704 -228.16285494 96.83450869 -233.5 99.9375 C-240.15096989 106.94798178 -241.55112668 114.64527027 -241.45947266 124 C-241.46823425 125.11681152 -241.47699585 126.23362305 -241.48602295 127.38427734 C-241.50789378 131.04825564 -241.49350658 134.71101105 -241.4765625 138.375 C-241.47993413 140.93750234 -241.48478964 143.50000311 -241.49105835 146.0625 C-241.49841309 151.42204556 -241.48825149 156.78115944 -241.46435547 162.140625 C-241.43714968 168.31320927 -241.44596615 174.48496745 -241.4734875 180.65753174 C-241.49902067 186.62592353 -241.49617959 192.5940615 -241.48157883 198.5625 C-241.47825517 201.08854286 -241.48229505 203.61460696 -241.49397659 206.140625 C-241.50674581 209.67764271 -241.48722032 213.21309797 -241.45947266 216.75 C-241.46959381 217.78302246 -241.47971497 218.81604492 -241.49014282 219.88037109 C-241.36974167 228.20937881 -239.04902608 234.83764297 -233.375 241.0390625 C-216.58743819 253.88564181 -197.48486219 263.94722158 -178.04296875 272.19140625 C-175.8125 273.375 -175.8125 273.375 -173.8125 276.375 C-173.46863558 279.60732558 -173.54751245 281.74565456 -174.8125 284.75 C-177.37762374 286.83416304 -179.35266856 286.71521818 -182.57861328 286.64257812 C-186.4684249 286.17665096 -189.74248842 284.61407338 -193.25 282.9375 C-194.02134277 282.58131592 -194.79268555 282.22513184 -195.58740234 281.8581543 C-205.30711605 277.30864828 -214.96440052 272.4565998 -224.05419922 266.73901367 C-224.76180389 266.2945842 -225.46940857 265.85015472 -226.19845581 265.39225769 C-226.73109039 265.05656265 -227.26372498 264.72086761 -227.8125 264.375 C-227.90600967 284.18551366 -227.97651171 303.99598243 -228.01974869 323.80667114 C-228.04035946 333.00546656 -228.06845162 342.20412472 -228.11425781 351.40283203 C-228.1541711 359.42197227 -228.17994361 367.44101309 -228.18885398 375.4602499 C-228.19406114 379.70501962 -228.20626872 383.94950493 -228.23542023 388.19418335 C-228.26266046 392.1931336 -228.27092774 396.19168348 -228.26493073 400.1907177 C-228.26602713 401.65480668 -228.2739299 403.11890968 -228.2893219 404.58291817 C-228.37016186 412.67181531 -228.14250844 418.45052045 -223.8125 425.375 C-223.3175 426.86 -223.3175 426.86 -222.8125 428.375 C-220.95129331 429.48415387 -220.95129331 429.48415387 -218.8125 430.375 C-218.25119878 430.7224944 -217.68989757 431.06998879 -217.11158723 431.42801332 C-210.99473154 435.03169884 -205.26441791 434.92999096 -198.30513 434.86706543 C-197.05633897 434.87174442 -195.80754793 434.87642341 -194.52091473 434.88124418 C-191.07099573 434.89370591 -187.62154484 434.88149033 -184.1716584 434.86516929 C-180.44499953 434.851962 -176.71839471 434.86196965 -172.99172974 434.86927795 C-166.53934819 434.87894574 -160.08710184 434.8745086 -153.63472939 434.8608551 C-144.30031802 434.84147368 -134.96605831 434.8479394 -125.63164296 434.86142892 C-110.47894916 434.88299799 -95.32629119 434.8897263 -80.17358398 434.88427734 C-79.26728204 434.88395671 -78.3609801 434.88363608 -77.42721447 434.88330573 C-70.99314279 434.88093222 -64.5590714 434.87802732 -58.125 434.875 C-50.77010103 434.87154016 -43.41520206 434.86832208 -36.06030273 434.86572266 C-35.15419789 434.86539715 -34.24809304 434.86507163 -33.31453047 434.86473626 C-18.21387558 434.85979659 -3.11327045 434.87045935 11.98736888 434.89229441 C21.30060292 434.90500091 30.61363208 434.90352775 39.92685506 434.88384354 C46.3038998 434.87125194 52.68084046 434.87268342 59.05788501 434.88521707 C62.73857993 434.89193999 66.41897132 434.89200165 70.09963799 434.8746357 C74.08692166 434.85594303 78.07377387 434.86793867 82.06108093 434.88293457 C83.81115803 434.86720123 83.81115803 434.86720123 85.59659022 434.85115004 C93.38888717 434.91670864 93.38888717 434.91670864 97.40633869 437.22216034 C99.1875 439.375 99.1875 439.375 99.8125 442.3125 C98.93618127 446.60646178 97.74661461 447.77983927 94.1875 450.375 C90.14601636 451.1307125 86.14455949 451.04472844 82.04330444 451.00318909 C80.79722652 451.01028347 79.5511486 451.01737786 78.26731074 451.02468723 C74.81047314 451.03925082 71.35500408 451.03136654 67.89826655 451.0139643 C64.16937308 451.00060225 60.44058385 451.01602357 56.71170044 451.02778625 C49.40600857 451.04617925 42.10058393 451.03763817 34.79490034 451.01969803 C28.85449551 451.00567411 22.91416324 451.00177879 16.97374344 451.0051403 C16.1283363 451.00561775 15.28292916 451.00609519 14.41190363 451.0065871 C12.69441232 451.00761344 10.97692104 451.0086688 9.25942977 451.00975286 C-5.93468488 451.0183241 -21.12867063 451.00163476 -36.32275391 450.97192383 C-51.05523095 450.94311602 -65.78752206 450.93598783 -80.52001953 450.95141602 C-96.56563967 450.96819636 -112.61117148 450.97219132 -128.65679395 450.95470566 C-130.36981224 450.95286132 -132.08283054 450.95102659 -133.79584885 450.94920158 C-134.63864382 450.94828949 -135.48143879 450.9473774 -136.349773 450.94643768 C-142.27731162 450.94084131 -148.20480702 450.94413134 -154.13234329 450.95074654 C-161.36480431 450.95849753 -168.59708262 450.95166477 -175.82950695 450.9265715 C-179.51698073 450.91411364 -183.20417065 450.90788416 -186.89165497 450.91911316 C-190.89683189 450.93107864 -194.90126909 450.91182152 -198.90640259 450.8896637 C-200.06158091 450.89790446 -201.21675924 450.90614523 -202.40694296 450.91463572 C-214.31354789 450.79337089 -225.26628079 447.01360537 -233.75 438.41015625 C-242.86428791 427.54765364 -244.54118298 416.36753164 -244.36083984 402.71777344 C-244.35782582 401.07383478 -244.35712376 399.42989052 -244.35853577 397.78594971 C-244.3571725 394.26970235 -244.34069778 390.75397879 -244.31238937 387.23784637 C-244.2687033 381.67297901 -244.26567103 376.10852923 -244.26895142 370.54351807 C-244.27105673 356.72997615 -244.22459847 342.91665215 -244.159729 329.10327148 C-244.10951547 318.34780547 -244.07459885 307.59279991 -244.08819926 296.8372004 C-244.09346449 291.30932012 -244.06638588 285.78285218 -244.01462913 280.25522566 C-243.98958399 276.81526795 -243.99371146 273.37579194 -244.00581169 269.93578339 C-244.00552236 268.34587693 -243.99329002 266.75591896 -243.96797752 265.16621399 C-243.62879269 255.18680899 -243.62879269 255.18680899 -248.21450806 246.65924072 C-248.82935877 246.11675816 -249.44420948 245.57427559 -250.07769203 245.01535416 C-254.76355516 240.58461877 -256.59716649 233.23524717 -256.94672108 226.96884155 C-256.95099456 226.12753693 -256.95526804 225.2862323 -256.95967102 224.41943359 C-256.96682632 223.44689133 -256.97398163 222.47434906 -256.98135376 221.47233582 C-256.98404266 220.41669937 -256.98673157 219.36106293 -256.98950195 218.2734375 C-256.99607315 217.15242142 -257.00264435 216.03140533 -257.00941467 214.87641907 C-257.02911836 211.16761199 -257.04080561 207.4588454 -257.05078125 203.75 C-257.05485678 202.48000153 -257.0589323 201.21000305 -257.06313133 199.90151978 C-257.08183452 193.86856643 -257.09640058 187.83563744 -257.1047433 181.80266285 C-257.11449166 174.86993616 -257.14075307 167.93753079 -257.18124419 161.00491714 C-257.21522986 154.97626319 -257.2269037 148.9477632 -257.23094749 142.91900635 C-257.23579957 140.36751125 -257.24737382 137.81601923 -257.26598549 135.2645874 C-257.48247868 103.61133166 -257.48247868 103.61133166 -247.7890625 92.37109375 C-240.06934058 84.57508999 -231.73153488 79.30369545 -220.52279663 78.89398193 C-218.14069679 78.88250467 -215.75842605 78.89275223 -213.37646484 78.92089844 C-212.06802612 78.92031433 -210.7595874 78.91973022 -209.41149902 78.91912842 C-205.85412825 78.91798939 -202.2973064 78.94136522 -198.74006224 78.96942425 C-195.01119553 78.99457481 -191.28231369 78.99679058 -187.55337524 79.00152588 C-180.50581054 79.01391583 -173.45849658 79.04668289 -166.41104186 79.08692384 C-158.38197769 79.13176621 -150.35290102 79.15365979 -142.32374263 79.17370558 C-125.81984875 79.21541958 -109.31620646 79.28569329 -92.8125 79.375 C-92.83344727 78.11429687 -92.85439453 76.85359375 -92.87597656 75.5546875 C-92.94870087 70.85086549 -92.99441736 66.1470926 -93.03222656 61.44287109 C-93.05226836 59.41186143 -93.07950947 57.38090894 -93.11425781 55.35009766 C-93.16310414 52.42075444 -93.18554343 49.492178 -93.203125 46.5625 C-93.22377014 45.66321777 -93.24441528 44.76393555 -93.26568604 43.83740234 C-93.26814951 36.82274851 -91.57963023 31.60504267 -86.98388672 26.24047852 C-82.24207168 22.30550384 -77.41948876 19.12470395 -71.9375 16.3125 C-70.70845947 15.67526001 -70.70845947 15.67526001 -69.45458984 15.02514648 C-61.19209062 10.86540004 -52.70453838 7.8730323 -43.8125 5.375 C-42.13800781 4.90126953 -42.13800781 4.90126953 -40.4296875 4.41796875 C-27.17676479 1.04661122 -13.62678943 0.19227417 0 0 Z " fill="#030303" transform="translate(256.8125,30.625)"/>
<path d="M0 0 C1.1341333 0.00491455 2.2682666 0.0098291 3.43676758 0.01489258 C14.87952606 0.17333452 37.60803123 0.60803123 46.3125 9.3125 C46.3125 16.5725 46.3125 23.8325 46.3125 31.3125 C16.6125 31.3125 -13.0875 31.3125 -43.6875 31.3125 C-43.6875 24.0525 -43.6875 16.7925 -43.6875 9.3125 C-29.71710197 2.32730098 -15.5679514 -0.08066296 0 0 Z " fill="#F3F3F3" transform="translate(254.6875,78.6875)"/>
<path d="M0 0 C1.28753174 0.00607269 1.28753174 0.00607269 2.60107422 0.01226807 C3.92147705 0.00939789 3.92147705 0.00939789 5.26855469 0.00646973 C7.13135056 0.00510755 8.99415591 0.00880625 10.85693359 0.01715088 C13.71457158 0.02785 16.57158088 0.01725675 19.42919922 0.00445557 C21.23649228 0.00577716 23.04378495 0.00833954 24.85107422 0.01226807 C25.70942871 0.0082196 26.5677832 0.00417114 27.45214844 0 C33.49615677 0.04797562 33.49615677 0.04797562 35.72607422 2.27789307 C35.95101923 5.18611075 36.05426619 7.99603968 36.06201172 10.90679932 C36.06866852 11.77046616 36.07532532 12.634133 36.08218384 13.52397156 C36.09232481 15.35736968 36.09700041 17.19080482 36.09667969 19.02423096 C36.10101959 21.80538683 36.13722931 24.58491237 36.17529297 27.36578369 C36.18116782 29.1502835 36.18513273 30.93479082 36.18701172 32.71929932 C36.20138275 33.54152481 36.21575378 34.36375031 36.2305603 35.21089172 C36.168096 43.26801942 33.39339818 50.43883202 27.72607422 56.27789307 C21.48183349 60.64886158 15.18401949 60.99162153 7.72607422 60.27789307 C1.82478236 58.69412756 -1.52991482 55.32689143 -5.04736328 50.47320557 C-8.26579418 44.71282924 -8.57061845 39.44080233 -8.53955078 33.01226807 C-8.54146423 32.1376593 -8.54337769 31.26305054 -8.54534912 30.36193848 C-8.5467046 28.523048 -8.54305286 26.68414774 -8.53466797 24.84527588 C-8.52390758 22.02311975 -8.53461118 19.20159271 -8.54736328 16.37945557 C-8.54604258 14.59039166 -8.54348205 12.80132814 -8.53955078 11.01226807 C-8.54359924 10.16646179 -8.54764771 9.32065552 -8.55181885 8.44921875 C-8.49255819 1.10487267 -7.32451871 0.05813995 0 0 Z " fill="#F3F3F3" transform="translate(242.27392578125,310.72210693359375)"/>
<path d="M0 0 C0.33 0 0.66 0 1 0 C1.10836453 1.43583001 1.18576167 2.8740202 1.25 4.3125 C1.29640625 5.11300781 1.3428125 5.91351563 1.390625 6.73828125 C1 9 1 9 -3 12 C-2.01 8.04 -1.02 4.08 0 0 Z " fill="#DBDBDB" transform="translate(511,260)"/>
</svg>
