<?xml version="1.0" encoding="UTF-8"?>
<svg version="1.1" xmlns="http://www.w3.org/2000/svg" width="512" height="512">
<path d="M0 0 C168.96 0 337.92 0 512 0 C512 168.96 512 337.92 512 512 C343.04 512 174.08 512 0 512 C0 343.04 0 174.08 0 0 Z " fill="#406F93" transform="translate(0,0)"/>
<path d="M0 0 C3.31956127 2.13927282 6.21883701 4.21883701 9 7 C10.051875 7.680625 11.10375 8.36125 12.1875 9.0625 C13.115625 9.701875 14.04375 10.34125 15 11 C15 11.66 15 12.32 15 13 C15.969375 13.12375 16.93875 13.2475 17.9375 13.375 C18.948125 13.58125 19.95875 13.7875 21 14 C21.495 14.99 21.495 14.99 22 16 C23.63326862 16.99454393 25.30786982 17.92178148 27 18.8125 C30.39326646 20.61097456 33.75021952 22.43241005 37.0625 24.375 C51.89034248 32.62747966 68.14805979 38.50920783 84.25 43.6875 C85.17329102 43.985354 86.09658203 44.28320801 87.04785156 44.59008789 C92.02626526 46.16384263 96.96875338 47.47776444 102.07836914 48.54589844 C104 49 104 49 106.48046875 50.00390625 C110.30923365 51.517604 114.27762125 52.16707636 118.3125 52.9375 C119.20332275 53.11079834 120.09414551 53.28409668 121.01196289 53.46264648 C122.82491984 53.81427875 124.6383144 54.16366259 126.45214844 54.51074219 C128.68085621 54.93871559 130.90713152 55.37693661 133.1328125 55.8203125 C137.08203444 56.5906946 141.03532098 57.31450504 145 58 C146.04873291 58.18344971 146.04873291 58.18344971 147.11865234 58.37060547 C165.91937939 61.57134913 184.9986124 62.62815951 204 64 C204 67.63 204 71.26 204 75 C194.38817287 75.22174579 184.97944226 74.390904 175.4375 73.375 C174.61207703 73.28796814 173.78665405 73.20093628 172.93621826 73.11126709 C148.85480487 70.53749129 125.14687488 66.46853945 101.73828125 60.19921875 C94.47201494 57.92521256 94.47201494 57.92521256 87.5 59.4375 C85.20814883 63.35274574 85.94138373 65.62438608 87 70 C90.3595206 72.2396804 92.96464181 72.87027261 96.88671875 73.8046875 C97.5715181 73.96867035 98.25631744 74.1326532 98.96186829 74.30160522 C101.201904 74.83427695 103.44427433 75.35593492 105.6875 75.875 C106.45763428 76.05430054 107.22776855 76.23360107 108.02124023 76.41833496 C127.05577921 80.83364456 146.10778856 83.86301856 165.5 86.1875 C166.55815918 86.31505676 166.55815918 86.31505676 167.63769531 86.44519043 C176.5830186 87.5121262 185.49645489 88.2865551 194.49414062 88.74731445 C197.72074671 88.97987276 200.82161554 89.40970242 204 90 C204.08636719 90.89460938 204.17273438 91.78921875 204.26171875 92.7109375 C205.61683357 104.37238426 208.92454004 114.10756089 218 122 C228.04532804 128.54014974 237.16682795 130.28929437 249 129 C258.58681814 126.57061313 266.24508998 121.35742712 271.8125 113.1875 C275.20361344 107.2730328 276.81377106 101.06252133 277.53613281 94.32592773 C277.62372864 93.51574692 277.71132446 92.7055661 277.80157471 91.87083435 C277.86705505 91.25345901 277.9325354 90.63608368 278 90 C278.5766188 89.95414261 279.15323761 89.90828522 279.74732971 89.86103821 C294.53104139 88.66963314 309.23322159 87.12357488 323.9375 85.1875 C325.43647324 84.99149704 325.43647324 84.99149704 326.96572876 84.79153442 C341.81347529 82.83726376 356.44485447 80.5787899 371 77 C372.49472134 76.65464341 373.98951146 76.30958431 375.484375 75.96484375 C404.97156433 68.90749863 433.6331515 57.95433198 460 43 C461.55931167 42.13145381 463.11933854 41.26419084 464.67993164 40.39794922 C465.48926651 39.9486203 466.29860138 39.49929138 467.13246155 39.03634644 C467.74874924 38.69435211 468.36503693 38.35235779 469 38 C469.09350818 57.94089775 469.16401098 77.88175091 469.20724869 97.82282257 C469.22785977 107.08215166 469.25595254 116.34134438 469.30175781 125.60058594 C469.34167013 133.67246388 469.36744338 141.74424306 469.37635398 149.81621695 C469.3815613 154.08893151 469.39376994 158.36136355 469.42292023 162.63398743 C469.45015891 166.65920181 469.45842804 170.68401845 469.45243073 174.70931625 C469.4535272 176.18308044 469.46143089 177.65685853 469.4768219 179.13054276 C469.5700063 188.51679152 468.98357576 194.52379488 463.39453125 202.20703125 C462.87246094 202.73683594 462.35039062 203.26664063 461.8125 203.8125 C461.30332031 204.35519531 460.79414063 204.89789063 460.26953125 205.45703125 C454.09033902 209.65803113 447.14788641 210.44114831 439.85595703 210.38476562 C438.55911232 210.39282478 438.55911232 210.39282478 437.23606873 210.40104675 C435.37663113 210.4107616 433.51714853 210.41378814 431.65768814 210.41069031 C428.71549264 210.4061852 425.77388989 210.42028468 422.83175659 210.43908691 C415.53400581 210.48194859 408.2362702 210.49314906 400.93841553 210.50531006 C394.7516086 210.51682272 388.56507593 210.5403135 382.37838364 210.58000183 C379.47830533 210.59359535 376.57859509 210.58939924 373.67849731 210.58459473 C371.90821862 210.59393021 370.13794406 210.60409772 368.36767578 210.61523438 C367.15674004 210.60601204 367.15674004 210.60601204 365.92134094 210.59660339 C361.72655403 210.61428947 361.72655403 210.61428947 358.00436401 212.3404541 C356.38591333 215.01467696 356.56472181 216.95305265 357 220 C358.43219187 222.32655584 358.43219187 222.32655584 361 224 C363.98953099 224.39981876 366.61165029 224.55735354 369.60131836 224.53344727 C370.46859558 224.54206284 371.3358728 224.55067841 372.22943115 224.55955505 C375.09987179 224.58227308 377.96933958 224.57545972 380.83984375 224.56640625 C382.84322905 224.57164331 384.84661189 224.57792009 386.84999084 224.58518982 C391.05579189 224.59560788 395.26125501 224.59101843 399.46704102 224.57641602 C404.82668169 224.55932133 410.18524092 224.58260034 415.5447607 224.61790562 C419.68784031 224.64000857 423.83066702 224.63840551 427.97378731 224.6301403 C429.94751729 224.62932598 431.92126684 224.636089 433.89494133 224.65091133 C448.26410968 224.74219412 460.58201794 223.74320222 472.06640625 214.0078125 C482.51285374 203.16039026 483.44155373 190.05238205 483.32128906 175.75341797 C483.31884161 174.12947741 483.31781794 172.50553418 483.31809998 170.8815918 C483.31628143 167.40255314 483.30567164 163.92369422 483.28842926 160.44469833 C483.26239585 154.93883657 483.26359732 149.43318447 483.26971436 143.92727661 C483.28327489 128.27710631 483.26557637 112.6271279 483.20947266 96.97705078 C483.17867274 88.31975424 483.17293184 79.66280374 483.19435859 71.00547516 C483.20645462 65.53621695 483.1876846 60.0682228 483.14587355 54.59912467 C483.12721641 51.19408087 483.13787449 47.78959059 483.15672493 44.38456726 C483.15961921 42.81081272 483.15061177 41.23698238 483.12856102 39.66337967 C482.95221165 26.30833388 482.95221165 26.30833388 487.45941162 21.19338989 C488.39668909 20.34967174 488.39668909 20.34967174 489.35290146 19.48890877 C491.67627057 17.38867945 492.42012359 15.14376118 493.3125 12.1875 C494.31825368 8.96089657 495.10089146 6.8486628 497 4 C497 87.16 497 170.32 497 256 C328.04 256 159.08 256 -15 256 C-15 172.18 -15 88.36 -15 2 C-14.67 2 -14.34 2 -14 2 C-13.773125 3.27875 -13.54625 4.5575 -13.3125 5.875 C-11.86654699 12.33087469 -9.52444372 18.81159677 -4.443367 23.21630764 C-1.38889709 26.69622062 -1.38041157 28.32346466 -1.39440918 32.89845276 C-1.38958133 33.58029489 -1.38475348 34.26213702 -1.37977934 34.96464103 C-1.36956231 37.24342805 -1.39484402 39.52042114 -1.41992188 41.79907227 C-1.41965516 43.43549278 -1.41712083 45.07191426 -1.41249084 46.70832825 C-1.40708778 50.23066807 -1.41713255 53.75250704 -1.4389801 57.27478218 C-1.47287733 62.8528155 -1.46875 68.43042579 -1.4588623 74.00852966 C-1.44187273 86.86514202 -1.47457978 99.72153894 -1.50778961 112.57810211 C-1.53769346 124.34438683 -1.55693156 136.1104348 -1.53612375 147.87675327 C-1.52776335 153.41245123 -1.54342323 158.94738671 -1.57791901 164.48297608 C-1.59446392 167.94163719 -1.59016858 171.40005471 -1.58047295 174.85873222 C-1.5802148 176.45176317 -1.58840913 178.04482374 -1.60611153 179.63775635 C-1.74073987 192.38198617 0.59768336 202.98437357 8.98828125 213.03125 C18.47092998 222.31135672 29.91866559 224.45517608 42.67904663 224.3742218 C43.93418678 224.37819621 45.18932693 224.38217061 46.48250163 224.38626546 C49.94534774 224.39679877 53.40793371 224.38875854 56.87076831 224.37751496 C60.61304482 224.36864128 64.35528846 224.37712537 68.0975647 224.38337708 C75.41868329 224.39284704 82.73970307 224.38628199 90.06081431 224.37411413 C98.58558914 224.36047448 107.1103406 224.36213359 115.63512357 224.36424746 C130.84059093 224.36743442 146.04601138 224.35578424 161.25146484 224.33618164 C176.01124499 224.31715858 190.7709702 224.3100997 205.53076172 224.31567383 C221.60707761 224.3217272 237.68336937 224.32156422 253.75968325 224.310188 C255.47249579 224.3089807 257.18530834 224.30777471 258.89812088 224.30657005 C259.7408616 224.30596651 260.58360231 224.30536298 261.45188063 224.30474115 C267.39723812 224.30085812 273.34258664 224.30125703 279.28794479 224.3031559 C286.5263407 224.30527457 293.76468844 224.30007819 301.00307076 224.28554235 C304.69761253 224.27828379 308.39208403 224.27423382 312.08663177 224.27878571 C316.08544275 224.28359282 320.08406028 224.27297593 324.08285522 224.26069641 C325.84648409 224.2663654 325.84648409 224.2663654 327.64574182 224.27214891 C328.71208372 224.26631671 329.77842562 224.26048452 330.87708092 224.25447559 C331.80061847 224.25360882 332.72415602 224.25274204 333.67567956 224.251849 C336.27321651 224.1514076 336.27321651 224.1514076 339 222 C339.6897587 220.14722391 339.6897587 220.14722391 339.875 218.0625 C339.97554688 217.37285156 340.07609375 216.68320312 340.1796875 215.97265625 C340.1671873 213.93341849 340.1671873 213.93341849 338.8069998 212.40023279 C336.39876212 210.53410455 334.93887765 210.62451882 331.90831566 210.62361908 C330.84894055 210.61601264 329.78956544 210.60840619 328.69808805 210.60056925 C327.53011737 210.60746318 326.36214669 210.61435712 325.15878296 210.62145996 C323.92116986 210.61692983 322.68355676 210.6123997 321.40844023 210.6077323 C317.96634537 210.59809286 314.52473073 210.60190252 311.08266568 210.61123729 C307.37288173 210.61801853 303.66314374 210.60750865 299.95336914 210.59895325 C293.52167236 210.58637026 287.09004279 210.58441951 280.65833664 210.58930969 C271.34931753 210.5961103 262.04039998 210.5836129 252.73139901 210.56580251 C237.61602176 210.53713119 222.50065546 210.51963462 207.38525391 210.51123047 C206.02761952 210.5104697 206.02761952 210.5104697 204.64255817 210.50969356 C198.22003892 210.50616732 191.7975195 210.50303837 185.375 210.5 C178.04899072 210.49653271 170.7229816 210.49288302 163.39697266 210.48876953 C162.4948028 210.48826692 161.59263294 210.4877643 160.66312461 210.48724645 C145.61233006 210.47849782 130.56157309 210.45805 115.51080382 210.42928743 C106.22789625 210.41211577 96.94509507 210.40551892 87.6621737 210.41259348 C81.29720704 210.41677735 74.93230735 210.4104084 68.56735627 210.39579475 C64.89638168 210.38774738 61.22557323 210.38460758 57.55459976 210.39461708 C53.57068407 210.40538888 49.58702699 210.39301318 45.6031189 210.37854004 C43.87123937 210.38888094 43.87123937 210.38888094 42.10437238 210.39943075 C34.56850965 210.34610985 27.75177696 209.67154396 21.4765625 205.203125 C20.86554687 204.55859375 20.25453125 203.9140625 19.625 203.25 C18.99851563 202.61578125 18.37203125 201.9815625 17.7265625 201.328125 C12.07823373 193.71182648 12.58778311 186.23858309 12.65942383 177.06860352 C12.66027085 175.55034909 12.65979349 174.03209344 12.65809631 172.51383972 C12.65723787 168.40683863 12.67483905 164.300102 12.69581819 160.1931622 C12.71461023 155.89571055 12.71633742 151.5982524 12.71989441 147.30076599 C12.72920746 139.16943474 12.7538112 131.03822493 12.78394288 122.90694708 C12.81750995 113.64700226 12.83397869 104.38705155 12.84902918 95.12706101 C12.88036143 76.08463857 12.93310751 57.04232906 13 38 C13.73909103 38.403396 14.47818207 38.80679199 15.2396698 39.22241211 C16.70694267 40.02304077 16.70694267 40.02304077 18.20385742 40.83984375 C19.16982346 41.36698975 20.13578949 41.89413574 21.13102722 42.43725586 C35.74090279 50.42730387 35.74090279 50.42730387 50.75 57.625 C51.79671875 58.09164062 52.8434375 58.55828125 53.921875 59.0390625 C57.47564951 60.14848957 60.29671417 60.30714456 64 60 C64.99 59.34 65.98 58.68 67 58 C67.39507893 53.65413172 67.45331002 51.67996503 65 48 C62.69242882 46.73256813 62.69242882 46.73256813 59.93359375 45.65234375 C58.89904053 45.21736572 57.8644873 44.7823877 56.79858398 44.33422852 C55.68942627 43.87330811 54.58026855 43.4123877 53.4375 42.9375 C8.48618674 23.65347291 8.48618674 23.65347291 1 6 C0.125 2.4375 0.125 2.4375 0 0 Z " fill="#355E7B" transform="translate(15,256)"/>
<path d="M0 0 C168.96 0 337.92 0 512 0 C512 47.19 512 94.38 512 143 C510.51944169 140.03888338 509.65040768 137.89982428 508.8125 134.8125 C505.70755642 125.45155625 498.67496559 118.48264621 490 114 C482.25876062 110.95876596 474.99475906 110.55775044 466.74755859 110.56762695 C465.45862701 110.5574353 464.16969543 110.54724365 462.84170532 110.53674316 C459.33825393 110.50936937 455.83496481 110.49991567 452.33142042 110.49388909 C448.65851487 110.4844538 444.98572812 110.45824662 441.31289673 110.43388367 C434.37172395 110.39035586 427.43057441 110.36172495 420.48930705 110.33856028 C412.58105514 110.31143467 404.67292356 110.26752798 396.76475787 110.22227156 C380.50989976 110.129622 364.25502002 110.05785158 348 110 C347.9906543 108.73929687 347.98130859 107.47859375 347.97167969 106.1796875 C347.93162628 101.47539722 347.86582499 96.77175037 347.79248047 92.06787109 C347.76435965 90.03703108 347.74310114 88.00608343 347.72900391 85.97509766 C347.70745102 83.04534145 347.66073778 80.11686735 347.609375 77.1875 C347.60753204 75.83857666 347.60753204 75.83857666 347.60565186 74.46240234 C347.4492297 67.6379866 345.81852143 62.33032994 341.36376953 57.06665039 C337.10286848 53.6666094 332.7256489 50.92191073 327.875 48.4375 C327.13652832 48.05327881 326.39805664 47.66905762 325.63720703 47.27319336 C319.2564116 44.01255593 312.78958038 41.30845733 306 39 C305.30390625 38.75507812 304.6078125 38.51015625 303.890625 38.2578125 C299.87322592 36.96015704 296.19968033 36.59618458 292 37 C289.91666667 37.91666667 289.91666667 37.91666667 289 40 C288.38628418 44.59641162 288.38628418 44.59641162 290.2487793 48.62011719 C292.26512011 50.20890267 293.93923423 50.83992779 296.39453125 51.578125 C297.26142578 51.84842529 298.12832031 52.11872559 299.02148438 52.3972168 C299.94251953 52.67863525 300.86355469 52.96005371 301.8125 53.25 C312.58039736 56.68646485 323.36703715 60.4307415 332 68 C333.69196504 71.38393008 333.11986549 75.22477791 333.09765625 78.9453125 C333.09553383 80.27283035 333.09553383 80.27283035 333.09336853 81.62716675 C333.0877614 84.45981191 333.07520771 87.29237864 333.0625 90.125 C333.05748592 92.04296761 333.05292285 93.96093646 333.04882812 95.87890625 C333.03778966 100.58596782 333.02052025 105.2929706 333 110 C327.39 110 321.78 110 316 110 C315.98582031 107.88078125 315.97164063 105.7615625 315.95703125 103.578125 C315.92639225 101.51937059 315.88730916 99.4609371 315.84741211 97.40234375 C315.82425541 95.97472533 315.80984176 94.54693664 315.80444336 93.11914062 C315.79513508 91.06272587 315.75411728 89.00897973 315.70703125 86.953125 C315.6913208 85.71723633 315.67561035 84.48134766 315.65942383 83.20800781 C315.27466381 79.84779011 315.27466381 79.84779011 312.66992188 77.66308594 C309.47559342 75.67334879 306.21334467 74.26773397 302.6875 73 C301.99543457 72.74581299 301.30336914 72.49162598 300.59033203 72.22973633 C269.79497305 61.23635587 233.95207854 61.16532169 204 75 C200.30302819 77.24184522 200.30302819 77.24184522 197 80 C196.84126045 82.21687994 196.74866163 84.43855298 196.68359375 86.66015625 C196.66281265 87.32462265 196.64203156 87.98908905 196.62062073 88.6736908 C196.55506342 90.80318543 196.49621215 92.93280668 196.4375 95.0625 C196.39432061 96.50326847 196.35070651 97.94402399 196.30664062 99.38476562 C196.19855473 102.92304903 196.09952907 106.46142397 196 110 C190.39 110 184.78 110 179 110 C178.87620669 104.39501978 178.78556982 98.79083878 178.7253418 93.18481445 C178.70023001 91.27874893 178.66613355 89.37277941 178.62280273 87.46704102 C178.56200256 84.72388002 178.53375755 81.98199414 178.51171875 79.23828125 C178.48591232 78.38913651 178.4601059 77.53999176 178.43351746 76.66511536 C178.43143856 72.25883557 178.54320577 70.56656037 181.40283203 67.01977539 C203.7118096 49.6704455 233.33002626 46.06952275 260.66601562 45.48242188 C261.83712891 45.44826172 263.00824219 45.41410156 264.21484375 45.37890625 C265.80993774 45.34132202 265.80993774 45.34132202 267.43725586 45.30297852 C270.16401861 45.24877964 270.16401861 45.24877964 272 43 C272.47213673 38.93904042 272.47213673 38.93904042 272 35 C269.02530226 32.22508276 267.01649883 31.6229292 262.9921875 31.63671875 C262.01499756 31.63559082 261.03780762 31.63446289 260.03100586 31.63330078 C258.98952393 31.65118652 257.94804199 31.66907227 256.875 31.6875 C255.79549072 31.70022949 254.71598145 31.71295898 253.60375977 31.72607422 C230.2711803 32.14442528 208.00406633 36.53356695 187 47 C185.42798828 47.77537109 185.42798828 47.77537109 183.82421875 48.56640625 C175.17592624 53.0485389 168.37827645 57.55024763 165 67 C164.44847427 70.40338136 164.39532926 73.74429112 164.390625 77.1875 C164.37408875 78.13061035 164.35755249 79.0737207 164.34051514 80.04541016 C164.29228921 83.03034136 164.27072077 86.01476406 164.25 89 C164.22181907 91.03518148 164.19188869 93.07033954 164.16015625 95.10546875 C164.08653709 100.07027059 164.03680751 105.03479433 164 110 C163.3186178 110.00146656 162.6372356 110.00293312 161.93520546 110.00444412 C145.32461169 110.04156123 128.7142541 110.10064064 112.10383034 110.18390274 C104.07100736 110.2236436 96.03828165 110.25606115 88.00537109 110.27099609 C81.00056929 110.2840384 73.99598194 110.31106846 66.99130094 110.35461307 C63.2853223 110.3771703 59.5796076 110.39291416 55.87355423 110.39188385 C51.72741353 110.3909941 47.58204669 110.42134487 43.43603516 110.45410156 C42.21898895 110.4490712 41.00194275 110.44404083 39.74801636 110.43885803 C28.23756047 110.57918114 19.31603962 113.94624734 11 122 C5.38987325 128.3835617 2.65531585 134.70765583 1 143 C0.67 143 0.34 143 0 143 C0 95.81 0 48.62 0 0 Z " fill="#F6F6F6" transform="translate(0,0)"/>
<path d="M0 0 C1.03229736 -0.02602295 2.06459473 -0.0520459 3.12817383 -0.07885742 C7.58714818 -0.0895451 10.41005179 -0.05925899 14.35546875 2.14453125 C16.30559994 4.51878479 16.82715356 5.41749184 16.6875 8.4375 C16.1875 12.375 16.1875 12.375 15.01074219 14.09350586 C12.46651015 15.88175894 10.61002805 15.77558751 7.515625 15.81640625 C6.38382812 15.8412207 5.25203125 15.86603516 4.0859375 15.89160156 C2.88195312 15.90674805 1.67796875 15.92189453 0.4375 15.9375 C-25.62838921 16.61373769 -54.52455468 20.84194411 -75.8125 37.375 C-77.50276137 40.75552274 -77.05694959 44.59760142 -77.12890625 48.3203125 C-77.1600779 49.64783035 -77.1600779 49.64783035 -77.19187927 51.00216675 C-77.25736598 53.83469741 -77.31625562 56.66732225 -77.375 59.5 C-77.41818606 61.41797857 -77.46180037 63.33594754 -77.50585938 65.25390625 C-77.61304647 69.96084051 -77.7143164 74.66786967 -77.8125 79.375 C-72.2025 79.375 -66.5925 79.375 -60.8125 79.375 C-60.91691406 76.21357422 -60.91691406 76.21357422 -61.0234375 72.98828125 C-61.07029252 70.93633436 -61.10668721 68.88444807 -61.14208984 66.83227539 C-61.17217954 65.4111036 -61.21306404 63.99011628 -61.26513672 62.56958008 C-61.68374231 50.85272741 -61.68374231 50.85272741 -59.64355469 47.39233398 C-58.1328125 46.078125 -58.1328125 46.078125 -54.8125 44.375 C-53.9153125 43.89933594 -53.018125 43.42367187 -52.09375 42.93359375 C-36.00725106 36.4492887 -20.40844641 33.00370021 -3.05932617 33.05932617 C-1.01231241 33.06248102 1.03324197 33.03894146 3.08007812 33.01367188 C21.21263435 32.92612555 42.79973787 36.78519905 57.7890625 47.5222168 C59.92109051 50.34693058 59.52468814 52.73713692 59.48046875 56.23046875 C59.47622391 56.89210526 59.47197906 57.55374176 59.46760559 58.23542786 C59.45083693 60.3448691 59.41319099 62.45334846 59.375 64.5625 C59.35995068 65.99412681 59.3462627 67.42576862 59.33398438 68.85742188 C59.30349284 72.36394827 59.24477659 75.86839994 59.1875 79.375 C64.7975 79.375 70.4075 79.375 76.1875 79.375 C76.16807123 73.76922985 76.11632861 68.1650277 76.03491211 62.55981445 C76.01174723 60.65397693 75.99733993 58.74801167 75.99194336 56.84204102 C75.98264259 54.09831277 75.94162929 51.35658937 75.89453125 48.61328125 C75.90043022 47.33956413 75.90043022 47.33956413 75.90644836 46.04011536 C75.80037307 41.71756733 75.61617934 39.91632468 72.85083008 36.42431641 C69.74999068 34.03835565 66.5651791 32.14957185 63.0625 30.4375 C62.37961914 30.09686523 61.69673828 29.75623047 60.99316406 29.40527344 C54.7037207 26.38916734 48.20360782 24.29276742 41.48388672 22.45336914 C37.09612505 21.20746723 33.98133442 20.22755062 31.1875 16.375 C30.62461998 12.43483987 30.58353972 10.31717804 32.75 6.9375 C36.13530011 4.76743583 38.17809153 5.08832929 42.1875 5.375 C45.39409713 6.13974725 48.4635814 7.19394828 51.5625 8.3125 C52.43229492 8.62316406 53.30208984 8.93382812 54.19824219 9.25390625 C67.68425727 14.23818829 83.66891812 20.47030962 90.32463074 34.03355408 C91.84701282 38.1646264 91.67808574 42.20830763 91.578125 46.5625 C91.57246521 47.50561035 91.56680542 48.4487207 91.56097412 49.42041016 C91.53874585 52.40580978 91.4885756 55.38996874 91.4375 58.375 C91.41741746 60.41013881 91.39916978 62.44529659 91.3828125 64.48046875 C91.33892557 69.44578391 91.26999314 74.41018227 91.1875 79.375 C91.85673115 79.37131283 92.5259623 79.36762566 93.21547318 79.36382675 C109.54286029 79.2752667 125.87017074 79.20918918 142.19774246 79.16775131 C150.09383044 79.14717665 157.98975752 79.11915435 165.88574219 79.07324219 C172.77252529 79.03321743 179.65919179 79.0075302 186.54608798 78.99864602 C190.18849811 78.99345753 193.83057484 78.98137106 197.4728775 78.95207977 C201.55140101 78.91955025 205.62935479 78.91905053 209.70800781 78.92089844 C210.89916199 78.90651733 212.09031616 78.89213623 213.31756592 78.87731934 C225.34412709 78.93598863 235.43492584 81.90856769 244.1875 90.375 C257.44091845 103.81249371 255.7836704 121.26771277 255.71875 138.81640625 C255.72144894 141.392249 255.72533469 143.96809076 255.73034668 146.54393005 C255.73622168 151.92417119 255.72813129 157.30412277 255.70898438 162.68432617 C255.68721129 168.87330426 255.69428446 175.06175516 255.71629 181.25072056 C255.73674126 187.24634635 255.73443491 193.24171765 255.72276306 199.23737907 C255.72010857 201.77014173 255.72332018 204.302918 255.73268127 206.83566475 C255.74292057 210.3837179 255.72724205 213.93077981 255.70507812 217.47875977 C255.71317505 218.50922928 255.72127197 219.53969879 255.72961426 220.60139465 C255.59002502 232.75637713 251.79270055 242.76979945 243.1875 251.375 C242.87997467 254.32360343 242.87997467 254.32360343 242.92921448 257.85021973 C242.92370092 258.85900405 242.92370092 258.85900405 242.91807598 259.88816786 C242.90805725 262.15273486 242.91225449 264.41705817 242.91625977 266.68164062 C242.91187466 268.3011603 242.9065733 269.92067772 242.90042114 271.54019165 C242.88889873 275.03458537 242.88346005 278.52891828 242.88253975 282.02333069 C242.88060161 287.55430632 242.86255995 293.08515621 242.84178162 298.61608887 C242.79254603 312.36190338 242.76175643 326.10775233 242.74047852 339.8536377 C242.72393541 350.5211464 242.70104396 361.18854804 242.65745777 371.85598516 C242.63573257 377.34767837 242.62761896 382.83916796 242.62985051 388.33090115 C242.62817649 391.75995043 242.6140824 395.18886845 242.59663773 398.61787033 C242.59106651 400.20041824 242.59052673 401.7829937 242.59557533 403.36554337 C242.63499397 417.17745332 240.7663853 428.66012966 231.44140625 439.3828125 C223.3312796 447.17258071 212.57092898 450.51157768 201.57275391 450.56787109 C200.69277237 450.57604858 199.81279083 450.58422607 198.90614319 450.59265137 C195.99212321 450.61747825 193.07815178 450.63401254 190.1640625 450.6484375 C189.1690913 450.65376118 188.1741201 450.65908485 187.14899826 450.66456985 C181.88482178 450.69128689 176.62066893 450.71066832 171.35644531 450.72509766 C165.91651949 450.74176179 160.47719756 450.7865586 155.03750038 450.8374691 C150.85620414 450.87109815 146.67505222 450.88267018 142.49363327 450.88832474 C140.48813627 450.89504686 138.48264907 450.91029378 136.47728348 450.93421555 C133.67136336 450.96578319 130.86708572 450.96591684 128.06103516 450.95849609 C127.23280746 450.97490143 126.40457977 450.99130676 125.55125427 451.00820923 C121.27883552 450.96194675 119.65929812 450.74142426 116.1680603 448.02993774 C114.1875 445.375 114.1875 445.375 113.625 442.3125 C114.33747054 438.59182052 115.14913166 437.62467379 118.1875 435.375 C121.13501662 434.99256972 123.70785381 434.85103707 126.65283203 434.89257812 C127.93171547 434.88670937 127.93171547 434.88670937 129.23643494 434.88072205 C131.08668402 434.87474763 132.93698008 434.87791603 134.78720474 434.8891449 C137.72262874 434.90641067 140.65706798 434.89889493 143.59249878 434.8848877 C150.88738176 434.85523533 158.18207745 434.86838775 165.47698975 434.88006592 C171.63491759 434.88829637 177.79241591 434.88020879 183.95028305 434.85093689 C186.82969174 434.84388019 189.70832915 434.86047857 192.587677 434.87805176 C207.02283251 434.91476358 207.02283251 434.91476358 219.625 428.41015625 C220.140625 427.75917969 220.65625 427.10820312 221.1875 426.4375 C221.72375 425.78910156 222.26 425.14070313 222.8125 424.47265625 C225.73847662 420.00887942 226.43671276 416.27018026 226.42800903 410.96525574 C226.43075836 409.67101685 226.43350769 408.37677795 226.43634033 407.0433197 C226.42926292 405.61636259 226.42199331 404.18940642 226.41455078 402.76245117 C226.41398641 401.25434375 226.41430373 399.74623577 226.41543579 398.23812866 C226.41600931 394.1496639 226.40425517 390.06131664 226.39028788 385.97287917 C226.37778035 381.69809678 226.37661 377.42331166 226.37423706 373.14851379 C226.36802236 365.05610582 226.35161167 356.96375192 226.33153808 348.87136775 C226.30917878 339.65740811 226.29818557 330.44344587 226.28814721 321.22946584 C226.26724544 302.27794658 226.23206964 283.32647764 226.1875 264.375 C225.43794037 264.85574982 224.68838074 265.33649963 223.91610718 265.83181763 C222.92978302 266.46240082 221.94345886 267.09298401 220.92724609 267.74267578 C219.95081146 268.3678006 218.97437683 268.99292542 217.96835327 269.63699341 C211.96721133 273.38764949 205.58897736 276.37705143 199.1875 279.375 C198.44870605 279.72288574 197.70991211 280.07077148 196.94873047 280.42919922 C149.99570222 302.24343837 92.89153896 316.12110578 40.9375 315.4375 C40.02484375 315.42847656 39.1121875 315.41945313 38.171875 315.41015625 C37.51703125 315.39855469 36.8621875 315.38695312 36.1875 315.375 C36.27 316.6125 36.3525 317.85 36.4375 319.125 C36.38931066 329.34114066 32.23223549 338.12857475 25.1875 345.375 C16.98318459 352.99938459 8.21710381 355.99270433 -2.91015625 355.84765625 C-12.33489108 355.43633006 -19.96977303 351.7918311 -26.8125 345.375 C-33.76446979 337.72504128 -37.87925968 330.19564801 -37.83203125 319.7109375 C-37.82921143 318.89931152 -37.8263916 318.08768555 -37.82348633 317.25146484 C-37.81986084 316.63223145 -37.81623535 316.01299805 -37.8125 315.375 C-38.92496094 315.36082031 -40.03742188 315.34664063 -41.18359375 315.33203125 C-69.80809434 314.63502525 -98.88336588 310.59683681 -126.8125 304.375 C-128.5155127 304.00109131 -128.5155127 304.00109131 -130.25292969 303.61962891 C-133.73542346 302.84739046 -137.21232344 302.05448536 -140.6875 301.25 C-141.74710937 301.00838135 -142.80671875 300.7667627 -143.8984375 300.51782227 C-144.878125 300.28248779 -145.8578125 300.04715332 -146.8671875 299.8046875 C-147.72812012 299.60085449 -148.58905273 299.39702148 -149.47607422 299.18701172 C-152.05734485 298.28990554 -153.76462454 297.17260192 -155.8125 295.375 C-156.9342913 292.70725751 -157.13007538 290.2443214 -156.8125 287.375 C-154.8125 284.3125 -154.8125 284.3125 -151.8125 282.375 C-146.19598513 282.71933674 -140.79828477 284.32467708 -135.3581543 285.69848633 C-123.79404107 288.61739619 -112.26041955 291.1779948 -100.5 293.1875 C-98.797229 293.47898926 -98.797229 293.47898926 -97.06005859 293.77636719 C-82.53907706 296.17719197 -67.96550009 297.71504963 -53.3125 299 C-51.79554982 299.13515769 -50.2786226 299.27057337 -48.76171875 299.40625 C-45.11223733 299.732122 -41.46246364 300.05456864 -37.8125 300.375 C-37.83344727 299.78074219 -37.85439453 299.18648438 -37.87597656 298.57421875 C-37.95991854 295.84132295 -38.01140281 293.10869943 -38.0625 290.375 C-38.09601563 289.44042969 -38.12953125 288.50585938 -38.1640625 287.54296875 C-38.25175058 281.27327085 -37.44022604 276.58686499 -33.8125 271.375 C-29.63116797 267.40273458 -25.89133436 265.14965672 -20.0949707 265.05273438 C-19.16332596 265.03351929 -18.23168121 265.0143042 -17.27180481 264.99450684 C-15.77021065 264.9817572 -15.77021065 264.9817572 -14.23828125 264.96875 C-13.19987595 264.95734985 -12.16147064 264.94594971 -11.09159851 264.9342041 C-8.89354517 264.91531961 -6.69543539 264.90224226 -4.49731445 264.89453125 C-1.1540886 264.87516847 2.18665073 264.8131386 5.52929688 264.75 C7.6692563 264.73693369 9.80923324 264.72643519 11.94921875 264.71875 C12.94016037 264.6940564 13.93110199 264.66936279 14.95207214 264.6439209 C22.11045335 264.68927214 26.84714175 266.54112866 32.1875 271.375 C36.69993606 277.26559839 36.6954689 283.18163646 36.4375 290.375 C36.41945313 291.34050781 36.40140625 292.30601562 36.3828125 293.30078125 C36.33609687 295.65992033 36.27062137 298.01691075 36.1875 300.375 C37.75757813 300.21064453 37.75757813 300.21064453 39.359375 300.04296875 C40.07134033 299.96844482 40.78330566 299.8939209 41.5168457 299.81713867 C43.17436772 299.64277705 44.8317511 299.46709382 46.48901367 299.2902832 C51.53358307 298.75306932 56.57928343 298.23758093 61.62890625 297.75 C117.79210881 292.21101499 191.83324728 279.80515993 234.1875 238.375 C237.94849789 233.49534633 239.30069419 228.66866261 239.34140015 222.59542847 C239.35430084 221.15741631 239.35430084 221.15741631 239.36746216 219.69035339 C239.37172211 218.64511002 239.37598206 217.59986664 239.38037109 216.52294922 C239.38854858 215.41676743 239.39672607 214.31058563 239.40515137 213.17088318 C239.42997901 209.50715676 239.44651586 205.84346906 239.4609375 202.1796875 C239.46626118 200.92709263 239.47158485 199.67449776 239.47706985 198.38394547 C239.49829408 193.11669942 239.51742294 187.84945916 239.52869225 182.58218193 C239.54490555 175.05568365 239.57802799 167.52970365 239.63509309 160.00340068 C239.6786159 154.05859931 239.6944528 148.11391215 239.70082474 142.16894913 C239.70752931 139.64845213 239.72273047 137.12796244 239.74671555 134.60757065 C239.77843454 131.07245621 239.77839272 127.53863813 239.77099609 124.00341797 C239.7956041 122.45377098 239.7956041 122.45377098 239.82070923 120.87281799 C239.752333 112.85363547 237.73578257 105.88075179 231.90625 100.12109375 C231.1740625 99.68925781 230.441875 99.25742188 229.6875 98.8125 C228.9553125 98.35746094 228.223125 97.90242188 227.46875 97.43359375 C222.69379604 95.21781888 217.85552309 95.2303912 212.67611217 95.24357224 C211.54912919 95.24049328 211.54912919 95.24049328 210.39937887 95.23735213 C207.8735919 95.23168302 205.34785947 95.23313927 202.82206726 95.23455811 C200.99616633 95.23197443 199.17026596 95.22896126 197.34436637 95.2255547 C192.320208 95.21748192 187.29606391 95.21569498 182.27189982 95.21495724 C176.85596561 95.2131072 171.44003881 95.20556017 166.02410889 95.19882202 C154.17920526 95.18523682 142.33430502 95.17921386 130.4893949 95.17481136 C123.09559352 95.17204961 115.70179344 95.16781241 108.30799294 95.16330719 C87.84241537 95.15111494 67.37683886 95.14081511 46.91125774 95.1374321 C45.60129406 95.13721253 44.29133038 95.13699297 42.94167082 95.13676675 C40.97199415 95.13643933 40.97199415 95.13643933 38.96252602 95.1361053 C36.30159612 95.13566183 33.64066623 95.13521527 30.97973633 95.13476562 C29.65981998 95.1345442 28.33990362 95.13432277 26.9799898 95.13409463 C5.58472695 95.13027809 -15.8105012 95.11268661 -37.20575092 95.0894061 C-59.16435017 95.06570513 -81.12293233 95.05323084 -103.08154458 95.05206418 C-115.41361258 95.05114678 -127.74563623 95.04537811 -140.07769203 95.02724457 C-150.57690183 95.01186061 -161.07605356 95.00671309 -171.57527248 95.01498267 C-176.93317207 95.01889503 -182.29095468 95.01793092 -187.64883995 95.00392532 C-192.55336516 94.99122188 -197.45768504 94.99235263 -202.36220982 95.00451604 C-204.13675549 95.00647919 -205.91131554 95.00336617 -207.685841 94.99467167 C-210.09867264 94.9835979 -212.51077721 94.99105432 -214.92358875 95.0030632 C-215.61186844 94.99546801 -216.30014812 94.98787282 -217.00928476 94.98004746 C-223.37157601 95.04836711 -228.69883401 96.59759905 -233.5625 100.6875 C-237.94709396 105.9246539 -240.92827002 110.12316042 -240.95294189 117.04777527 C-240.95865204 118.0079657 -240.96436218 118.96815613 -240.97024536 119.95744324 C-240.97136322 121.00942398 -240.97248108 122.06140472 -240.97363281 123.14526367 C-240.97859772 124.25451202 -240.98356262 125.36376038 -240.98867798 126.50662231 C-241.00331206 130.18541072 -241.01010436 133.86415598 -241.015625 137.54296875 C-241.02137623 140.09784446 -241.02713397 142.65272015 -241.03289795 145.20759583 C-241.04206761 149.88442063 -241.04836592 154.56123247 -241.0513947 159.23806399 C-241.05586943 166.10911222 -241.07339012 172.97996093 -241.1023953 179.85094851 C-241.12667752 185.81125387 -241.13434206 191.77150994 -241.13607025 197.73186684 C-241.13909452 200.26236366 -241.14711537 202.79285969 -241.16025543 205.3233242 C-241.17734665 208.86829008 -241.17542762 212.41277309 -241.16894531 215.95776367 C-241.18276749 217.52055305 -241.18276749 217.52055305 -241.1968689 219.11491394 C-241.14505942 228.17866749 -239.33418405 234.68867316 -232.8125 241.375 C-230.38884832 243.42077431 -227.85627133 245.25699081 -225.25 247.0625 C-224.51185059 247.57651367 -223.77370117 248.09052734 -223.01318359 248.62011719 C-210.4136235 257.21634933 -197.07195472 264.31318778 -182.81494141 269.73925781 C-175.74974522 272.50050956 -175.74974522 272.50050956 -173.8125 276.375 C-173.375 279.9375 -173.375 279.9375 -173.8125 283.375 C-175.99996248 286.08745347 -177.50206622 286.33153927 -180.9375 286.8125 C-196.66697486 285.03659155 -214.838834 273.02411067 -227.8125 264.375 C-227.90600967 284.18551366 -227.97651171 303.99598243 -228.01974869 323.80667114 C-228.04035946 333.00546656 -228.06845162 342.20412472 -228.11425781 351.40283203 C-228.1541711 359.42197227 -228.17994361 367.44101309 -228.18885398 375.4602499 C-228.19406114 379.70501962 -228.20626872 383.94950493 -228.23542023 388.19418335 C-228.26266046 392.1931336 -228.27092774 396.19168348 -228.26493073 400.1907177 C-228.26602713 401.65480668 -228.2739299 403.11890968 -228.2893219 404.58291817 C-228.38173947 413.83027849 -228.06235146 420.34527889 -221.91796875 427.6171875 C-220.96857422 428.42542969 -220.96857422 428.42542969 -220 429.25 C-219.37480469 429.80429687 -218.74960938 430.35859375 -218.10546875 430.9296875 C-211.4223343 435.1422254 -204.08919878 434.6572466 -196.45661926 434.6265564 C-195.21206063 434.62952654 -193.96750201 434.63249667 -192.68522948 434.63555682 C-189.24261327 434.64186269 -185.80021044 434.63930098 -182.35760796 434.63303804 C-178.64050174 434.62849597 -174.92341602 434.63554861 -171.20631409 434.64134216 C-164.76923188 434.64996666 -158.33217715 434.65178541 -151.8950901 434.64939499 C-142.58382725 434.64629622 -133.27262514 434.65793953 -123.96137758 434.67394479 C-108.84803645 434.69989437 -93.73469527 434.71992091 -78.62133789 434.73339844 C-77.71719875 434.73420881 -76.81305961 434.73501918 -75.88152232 434.7358541 C-63.03938841 434.7470851 -50.19725884 434.75235912 -37.35512068 434.75524123 C-36.45007197 434.75544522 -35.54502326 434.75564921 -34.61254883 434.75585938 C-33.70860285 434.75605931 -32.80465687 434.75625925 -31.87331859 434.75646524 C-16.81223937 434.76019507 -1.75122617 434.77925642 13.30982 434.81095374 C22.6007059 434.82988891 31.89142268 434.83581726 41.1823226 434.82513656 C47.54349895 434.81882909 53.90455373 434.82682494 60.2657034 434.84619068 C63.93815473 434.85689773 67.61031105 434.86098205 71.28276062 434.84771919 C75.2595252 434.83350095 79.23582023 434.84994305 83.21257019 434.86947632 C84.37899227 434.86035166 85.54541435 434.851227 86.74718255 434.84182584 C87.80978211 434.85204003 88.87238166 434.86225423 89.96718121 434.87277794 C90.88534766 434.87321267 91.80351411 434.87364741 92.74950379 434.87409532 C95.94909964 435.53147638 97.16287878 436.86905595 99.1875 439.375 C99.5 441.41015625 99.5 441.41015625 99.1875 443.4375 C99.105 444.10910156 99.0225 444.78070313 98.9375 445.47265625 C97.89984065 448.10463595 96.58289995 448.89944028 94.1875 450.375 C91.7412824 450.75219816 91.7412824 450.75219816 88.94711971 450.75531673 C87.88002016 450.76375668 86.81292061 450.77219662 85.7134847 450.78089231 C83.95627146 450.77187724 83.95627146 450.77187724 82.16355896 450.76268005 C80.91833546 450.76806559 79.67311196 450.77345113 78.39015442 450.77899987 C74.93138057 450.79084917 71.4730873 450.78919953 68.01433218 450.78183305 C64.28475464 450.77711156 60.55522927 450.78960253 56.82566833 450.79985046 C49.51656547 450.8170669 42.20754846 450.81787218 34.89843058 450.81263756 C28.95515174 450.80859805 23.0118983 450.81003683 17.06862068 450.81538582 C15.80030674 450.81650845 15.80030674 450.81650845 14.50637029 450.81765376 C12.78863747 450.81918524 11.07090465 450.82072359 9.35317183 450.82226873 C-6.76617922 450.83600536 -22.88548177 450.8305491 -39.00483172 450.81908352 C-53.74087491 450.80916136 -68.47679234 450.82207211 -83.21281613 450.84601771 C-98.34726504 450.87042504 -113.48165543 450.88001186 -128.61612362 450.87336498 C-137.11137891 450.86987492 -145.60653763 450.87209017 -154.10177803 450.88961601 C-161.33790582 450.90435891 -168.57386912 450.90494683 -175.80999375 450.8875451 C-179.49949776 450.87904767 -183.18870821 450.87685412 -186.87819672 450.89219666 C-190.88559219 450.90865403 -194.89228312 450.89386146 -198.89967346 450.87620544 C-200.05553391 450.88581045 -201.21139435 450.89541546 -202.40228087 450.90531152 C-214.31249022 450.79761369 -225.26435236 447.01556102 -233.75 438.41015625 C-242.86428791 427.54765364 -244.54118298 416.36753164 -244.36083984 402.71777344 C-244.35782582 401.07383478 -244.35712376 399.42989052 -244.35853577 397.78594971 C-244.3571725 394.26970235 -244.34069778 390.75397879 -244.31238937 387.23784637 C-244.2687033 381.67297901 -244.26567103 376.10852923 -244.26895142 370.54351807 C-244.27105673 356.72997615 -244.22459847 342.91665215 -244.159729 329.10327148 C-244.10951547 318.34780547 -244.07459885 307.59279991 -244.08819926 296.8372004 C-244.09346449 291.30932012 -244.06638588 285.78285218 -244.01462913 280.25522566 C-243.98958399 276.81526795 -243.99371146 273.37579194 -244.00581169 269.93578339 C-244.00552236 268.34587693 -243.99329002 266.75591896 -243.96797752 265.16621399 C-243.63024779 255.18421351 -243.63024779 255.18421351 -248.21450806 246.65142822 C-249.13678412 245.83552908 -249.13678412 245.83552908 -250.07769203 245.00314713 C-255.46902071 239.94329241 -256.62123139 231.99723726 -256.91332436 224.93845749 C-256.96346247 222.0353162 -256.98192006 219.13354758 -256.98950195 216.22998047 C-256.99607315 215.12817947 -257.00264435 214.02637848 -257.00941467 212.89118958 C-257.02906524 209.25818809 -257.04079212 205.62522778 -257.05078125 201.9921875 C-257.05689454 200.12303869 -257.05689454 200.12303869 -257.06313133 198.2161293 C-257.08181498 192.29851714 -257.09638826 186.38091789 -257.1047433 180.46328342 C-257.11449924 173.66867537 -257.14078868 166.8743945 -257.18124419 160.07990158 C-257.2152316 154.16552996 -257.22690356 148.25123696 -257.23094749 142.33676529 C-257.23579763 139.83550931 -257.2473663 137.33425642 -257.26598549 134.83306503 C-257.48394308 103.61302975 -257.48394308 103.61302975 -247.7890625 92.37109375 C-240.06934058 84.57508999 -231.73153488 79.30369545 -220.52279663 78.89398193 C-218.14069679 78.88250467 -215.75842605 78.89275223 -213.37646484 78.92089844 C-212.06802612 78.92031433 -210.7595874 78.91973022 -209.41149902 78.91912842 C-205.85412825 78.91798939 -202.2973064 78.94136522 -198.74006224 78.96942425 C-195.01119553 78.99457481 -191.28231369 78.99679058 -187.55337524 79.00152588 C-180.50581054 79.01391583 -173.45849658 79.04668289 -166.41104186 79.08692384 C-158.38197769 79.13176621 -150.35290102 79.15365979 -142.32374263 79.17370558 C-125.81984875 79.21541958 -109.31620646 79.28569329 -92.8125 79.375 C-92.83344727 78.11429687 -92.85439453 76.85359375 -92.87597656 75.5546875 C-92.94870087 70.85086549 -92.99441736 66.1470926 -93.03222656 61.44287109 C-93.05226836 59.41186143 -93.07950947 57.38090894 -93.11425781 55.35009766 C-93.16310414 52.42075444 -93.18554343 49.492178 -93.203125 46.5625 C-93.22377014 45.66321777 -93.24441528 44.76393555 -93.26568604 43.83740234 C-93.26814951 36.82274851 -91.57963023 31.60504267 -86.98388672 26.24047852 C-82.24207168 22.30550384 -77.41948876 19.12470395 -71.9375 16.3125 C-70.70845947 15.67526001 -70.70845947 15.67526001 -69.45458984 15.02514648 C-61.19209062 10.86540004 -52.70453838 7.8730323 -43.8125 5.375 C-42.13800781 4.90126953 -42.13800781 4.90126953 -40.4296875 4.41796875 C-27.17676479 1.04661122 -13.62678943 0.19227417 0 0 Z " fill="#020203" transform="translate(256.8125,30.625)"/>
<path d="M0 0 C0.33 0 0.66 0 1 0 C1.226875 1.27875 1.45375 2.5575 1.6875 3.875 C3.13345301 10.33087469 5.47555628 16.81159677 10.556633 21.21630764 C13.61110291 24.69622062 13.61958843 26.32346466 13.60559082 30.89845276 C13.61041867 31.58029489 13.61524652 32.26213702 13.62022066 32.96464103 C13.63043769 35.24342805 13.60515598 37.52042114 13.58007812 39.79907227 C13.58034484 41.43549278 13.58287917 43.07191426 13.58750916 44.70832825 C13.59291222 48.23066807 13.58286745 51.75250704 13.5610199 55.27478218 C13.52712267 60.8528155 13.53125 66.43042579 13.5411377 72.00852966 C13.55812727 84.86514202 13.52542022 97.72153894 13.49221039 110.57810211 C13.46230654 122.34438683 13.44306844 134.1104348 13.46387625 145.87675327 C13.47223665 151.41245123 13.45657677 156.94738671 13.42208099 162.48297608 C13.40553608 165.94163719 13.40983142 169.40005471 13.41952705 172.85873222 C13.4197852 174.45176317 13.41159087 176.04482374 13.39388847 177.63775635 C13.25926013 190.38198617 15.59768336 200.98437357 23.98828125 211.03125 C33.47092998 220.31135672 44.91866559 222.45517608 57.67904663 222.3742218 C58.93418678 222.37819621 60.18932693 222.38217061 61.48250163 222.38626546 C64.94534774 222.39679877 68.40793371 222.38875854 71.87076831 222.37751496 C75.61304482 222.36864128 79.35528846 222.37712537 83.0975647 222.38337708 C90.41868329 222.39284704 97.73970307 222.38628199 105.06081431 222.37411413 C113.58558914 222.36047448 122.1103406 222.36213359 130.63512357 222.36424746 C145.84059093 222.36743442 161.04601138 222.35578424 176.25146484 222.33618164 C191.01124499 222.31715858 205.7709702 222.3100997 220.53076172 222.31567383 C236.60707761 222.3217272 252.68336937 222.32156422 268.75968325 222.310188 C270.47249579 222.3089807 272.18530834 222.30777471 273.89812088 222.30657005 C274.7408616 222.30596651 275.58360231 222.30536298 276.45188063 222.30474115 C282.39723812 222.30085812 288.34258664 222.30125703 294.28794479 222.3031559 C301.5263407 222.30527457 308.76468844 222.30007819 316.00307076 222.28554235 C319.69761253 222.27828379 323.39208403 222.27423382 327.08663177 222.27878571 C331.08544275 222.28359282 335.08406028 222.27297593 339.08285522 222.26069641 C340.84648409 222.2663654 340.84648409 222.2663654 342.64574182 222.27214891 C343.71208372 222.26631671 344.77842562 222.26048452 345.87708092 222.25447559 C346.80061847 222.25360882 347.72415602 222.25274204 348.67567956 222.251849 C351.27321651 222.1514076 351.27321651 222.1514076 354 220 C354.66 218.35 355.32 216.7 356 215 C360.95 215 365.9 215 371 215 C371.99 216.98 372.98 218.96 374 221 C377.24362959 222.62181479 380.80879612 222.17442257 384.37426758 222.19287109 C385.67474533 222.20513733 385.67474533 222.20513733 387.00149536 222.21765137 C389.88250032 222.24253982 392.76345553 222.25903872 395.64453125 222.2734375 C396.63043432 222.27876118 397.61633739 222.28408485 398.63211632 222.28956985 C403.86012368 222.31632854 409.08810704 222.33568644 414.31616211 222.35009766 C418.62757828 222.36338649 422.9385155 222.3911413 427.24975586 222.43212891 C432.46520928 222.4817118 437.68023125 222.50625152 442.89591026 222.51332474 C444.8752583 222.52000003 446.85459814 222.5351238 448.83381081 222.55921555 C463.25402703 222.72459188 475.53414072 221.78378805 487.06640625 212.0078125 C497.51285374 201.16039026 498.44155373 188.05238205 498.32128906 173.75341797 C498.31884161 172.12947741 498.31781794 170.50553418 498.31809998 168.8815918 C498.31628143 165.40255314 498.30567164 161.92369422 498.28842926 158.44469833 C498.26239585 152.93883657 498.26359732 147.43318447 498.26971436 141.92727661 C498.28327489 126.27710631 498.26557637 110.6271279 498.20947266 94.97705078 C498.17867274 86.31975424 498.17293184 77.66280374 498.19435859 69.00547516 C498.20645462 63.53621695 498.1876846 58.0682228 498.14587355 52.59912467 C498.12721641 49.19408087 498.13787449 45.78959059 498.15672493 42.38456726 C498.15961921 40.81081272 498.15061177 39.23698238 498.12856102 37.66337967 C497.95221165 24.30833388 497.95221165 24.30833388 502.45941162 19.19338989 C503.39668909 18.34967174 503.39668909 18.34967174 504.35290146 17.48890877 C506.67627057 15.38867945 507.42012359 13.14376118 508.3125 10.1875 C509.31825368 6.96089657 510.10089146 4.8486628 512 2 C512 85.16 512 168.32 512 254 C343.04 254 174.08 254 0 254 C0 170.18 0 86.36 0 0 Z " fill="#F6F6F6" transform="translate(0,258)"/>
<path d="M0 0 C0.495 1.485 0.495 1.485 1 3 C1.59167969 3.06058594 2.18335938 3.12117188 2.79296875 3.18359375 C6.90978208 3.62012371 10.95544533 4.08671346 15 5 C15.226875 5.928125 15.45375 6.85625 15.6875 7.8125 C17.29502294 11.71648428 18.27743921 12.13871961 22 14 C24.78169553 15.01902259 27.60608589 15.88059319 30.4375 16.75 C40.61151814 20.00825757 50.87291778 23.85050217 59 31 C60.69196504 34.38393008 60.11986549 38.22477791 60.09765625 41.9453125 C60.09553383 43.27283035 60.09553383 43.27283035 60.09336853 44.62716675 C60.0877614 47.45981191 60.07520771 50.29237864 60.0625 53.125 C60.05748592 55.04296761 60.05292285 56.96093646 60.04882812 58.87890625 C60.03778966 63.58596782 60.02052025 68.2929706 60 73 C54.39 73 48.78 73 43 73 C42.98582031 70.88078125 42.97164062 68.7615625 42.95703125 66.578125 C42.92639225 64.51937059 42.88730916 62.4609371 42.84741211 60.40234375 C42.82425541 58.97472533 42.80984176 57.54693664 42.80444336 56.11914062 C42.79513508 54.06272587 42.75411728 52.00897973 42.70703125 49.953125 C42.68346558 48.09929199 42.68346558 48.09929199 42.65942383 46.20800781 C42.27466381 42.84779011 42.27466381 42.84779011 39.66992188 40.66308594 C36.47559342 38.67334879 33.21334467 37.26773397 29.6875 36 C28.99543457 35.74581299 28.30336914 35.49162598 27.59033203 35.22973633 C-3.20502695 24.23635587 -39.04792146 24.16532169 -69 38 C-72.69697181 40.24184522 -72.69697181 40.24184522 -76 43 C-76.15873955 45.21687994 -76.25133837 47.43855298 -76.31640625 49.66015625 C-76.33718735 50.32462265 -76.35796844 50.98908905 -76.37937927 51.6736908 C-76.44493658 53.80318543 -76.50378785 55.93280668 -76.5625 58.0625 C-76.60567939 59.50326847 -76.64929349 60.94402399 -76.69335938 62.38476562 C-76.80144527 65.92304903 -76.90047093 69.46142397 -77 73 C-82.61 73 -88.22 73 -94 73 C-94.12379331 67.39501978 -94.21443018 61.79083878 -94.2746582 56.18481445 C-94.29976999 54.27874893 -94.33386645 52.37277941 -94.37719727 50.46704102 C-94.43799744 47.72388002 -94.46624245 44.98199414 -94.48828125 42.23828125 C-94.51408768 41.38913651 -94.5398941 40.53999176 -94.56648254 39.66511536 C-94.56856144 35.25883557 -94.45679423 33.56656037 -91.59716797 30.01977539 C-69.2881904 12.6704455 -39.66997374 9.06952275 -12.33398438 8.48242188 C-10.57731445 8.43118164 -10.57731445 8.43118164 -8.78515625 8.37890625 C-7.72176025 8.3538501 -6.65836426 8.32879395 -5.56274414 8.30297852 C-2.83598139 8.24877964 -2.83598139 8.24877964 -1 6 C-0.60235737 4.01178687 -0.26224651 2.01055661 0 0 Z " fill="#E4824D" transform="translate(273,37)"/>
<path d="M0 0 C5.42627353 5.42627353 1 15.32609038 1 23 C-28.7 23 -58.4 23 -89 23 C-89 15.74 -89 8.48 -89 1 C-61.71513278 -12.64243361 -27.99242903 -10.92962819 0 0 Z " fill="#F3F3F3" transform="translate(300,87)"/>
<path d="M0 0 C0.88026855 -0.0033284 1.76053711 -0.0066568 2.66748047 -0.01008606 C4.53026811 -0.01515292 6.39306485 -0.01749446 8.25585938 -0.01733398 C11.11343226 -0.01952239 13.97062037 -0.03768578 16.828125 -0.05664062 C18.63541534 -0.05957415 20.44270752 -0.06155922 22.25 -0.0625 C23.53753174 -0.07327827 23.53753174 -0.07327827 24.85107422 -0.08427429 C30.89617421 -0.06085704 30.89617421 -0.06085704 33.125 2.16796875 C33.3375928 5.00424011 33.42895677 7.74017106 33.42578125 10.578125 C33.43006638 11.41959579 33.4343515 12.26106659 33.43876648 13.1280365 C33.44451835 14.9143687 33.44500376 16.70072433 33.44067383 18.48706055 C33.43754038 21.19556908 33.4608684 23.90295689 33.48632812 26.61132812 C33.48860396 28.35025905 33.48930329 30.08919289 33.48828125 31.828125 C33.497491 32.62847672 33.50670074 33.42882843 33.51618958 34.25343323 C33.45869569 41.3947125 31.8705802 47.44691727 28 53.48046875 C22.82797482 58.31518794 17.64290881 60.37336089 10.5625 60.66796875 C4.32775585 60.38932097 -0.23108041 58.88254989 -4.62890625 54.3671875 C-10.32322247 47.30074689 -11.17868231 40.54061155 -11.0703125 31.734375 C-11.0674826 30.85643784 -11.06465271 29.97850067 -11.06173706 29.07395935 C-11.05061598 26.2926523 -11.02552672 23.51167711 -11 20.73046875 C-10.98995975 18.83529114 -10.98083573 16.94010843 -10.97265625 15.04492188 C-10.95070315 10.41914458 -10.9162296 5.79361277 -10.875 1.16796875 C-7.50860724 -0.51522763 -3.70259311 0.00480027 0 0 Z " fill="#FBDF7A" transform="translate(244.875,310.83203125)"/>
<path d="M0 0 C1 2 1 2 -0.0625 5.6875 C-8.94242757 27.38100727 -43.72561467 39.59064377 -63.7421875 48.0234375 C-106.32477349 65.3532622 -157.07915295 75.93082798 -203 75 C-203 71.37 -203 67.74 -203 64 C-202.00629395 63.95319092 -201.01258789 63.90638184 -199.98876953 63.8581543 C-188.56073757 63.27726363 -177.23490711 62.17167382 -165.875 60.8125 C-164.5125264 60.65068237 -164.5125264 60.65068237 -163.12252808 60.4855957 C-139.73243537 57.67809957 -116.65202639 53.56680957 -94 47 C-93.19594727 46.77344727 -92.39189453 46.54689453 -91.56347656 46.31347656 C-81.37240482 43.43947606 -71.44609704 40.20844518 -61.64624023 36.18408203 C-56.28851046 34 -56.28851046 34 -53 34 C-53 33.34 -53 32.68 -53 32 C-52.09121094 31.65388672 -52.09121094 31.65388672 -51.1640625 31.30078125 C-45.63398603 29.14830533 -40.36668764 26.74436645 -35.12890625 23.953125 C-33 23 -33 23 -30 23 C-29.67 22.01 -29.34 21.02 -29 20 C-27.35 19.67 -25.7 19.34 -24 19 C-24 18.34 -24 17.68 -24 17 C-22.845 16.46375 -21.69 15.9275 -20.5 15.375 C-12.75081735 11.48676575 -6.40975712 5.76196252 0 0 Z " fill="#365D7A" transform="translate(496,256)"/>
<path d="M0 0 C0.7959458 3.250112 1.02715963 5.78631245 0 9 C-3.75281795 12.1104437 -8.94974619 16 -14 16 C-14 16.66 -14 17.32 -14 18 C-20.125 21.0625 -20.125 21.0625 -22.03466797 22.01513672 C-25.23774434 23.61388962 -28.43677715 25.21946021 -31.625 26.84765625 C-41.38080028 31.80177358 -51.09408143 36.33100556 -61.640625 39.3203125 C-63.93404361 39.98099932 -66.18088992 40.72379015 -68.4375 41.5 C-81.81845238 46 -81.81845238 46 -88 46 C-88 46.66 -88 47.32 -88 48 C-88.56396484 48.11069824 -89.12792969 48.22139648 -89.70898438 48.33544922 C-92.30640811 48.84653116 -94.9032024 49.36074654 -97.5 49.875 C-98.386875 50.04902344 -99.27375 50.22304688 -100.1875 50.40234375 C-105.50438588 51.45790198 -110.74688713 52.66483381 -116 54 C-140.15052946 59.43984698 -165.3459318 61.42388233 -190 63 C-190.33 63.99 -190.66 64.98 -191 66 C-191.66 66 -192.32 66 -193 66 C-192.34 61.38 -191.68 56.76 -191 52 C-189.60579834 51.88825439 -188.21159668 51.77650879 -186.77514648 51.66137695 C-172.82035506 50.51337447 -158.94394569 49.01523459 -145.0625 47.1875 C-143.56352676 46.99149704 -143.56352676 46.99149704 -142.03427124 46.79153442 C-127.18652471 44.83726376 -112.55514553 42.5787899 -98 39 C-96.50527866 38.65464341 -95.01048854 38.30958431 -93.515625 37.96484375 C-66.53946222 31.50847761 -24.06292115 0 0 0 Z " fill="#2B4C64" transform="translate(484,294)"/>
<path d="M0 0 C1.33463542 0.94401042 2.66927083 1.88802083 4.00390625 2.83203125 C9.65111389 6.13636605 14.31524237 7.53236273 20.875 7.4375 C21.57318848 7.43427734 22.27137695 7.43105469 22.99072266 7.42773438 C28.07758108 7.29073053 31.97459035 6.33459069 36.3984375 3.875 C38 3 38 3 40 3 C40.33 2.01 40.66 1.02 41 0 C41.77947781 2.28748718 42.1114843 3.61326482 41.43359375 5.96484375 C38.45020481 11.87312381 35.38349777 15.34759411 29.3125 18.3125 C22.21735404 19.78507746 15.21382052 20.13569693 8.7890625 16.39453125 C4.3364962 12.92386276 0.96468407 8.67074313 0.125 3 C0.08375 2.01 0.0425 1.02 0 0 Z " fill="#F4CC5C" transform="translate(235,352)"/>
<path d="M0 0 C5.61 0.33 11.22 0.66 17 1 C17 4.3 17 7.6 17 11 C11.39 11 5.78 11 0 11 C0 7.37 0 3.74 0 0 Z " fill="#D56E42" transform="translate(179,99)"/>
<path d="M0 0 C5.61 0 11.22 0 17 0 C17 3.3 17 6.6 17 10 C11.39 10 5.78 10 0 10 C0 6.7 0 3.4 0 0 Z " fill="#D56E41" transform="translate(316,100)"/>
<path d="M0 0 C1.485 0.99 1.485 0.99 3 2 C2.83923477 2.87733292 2.67846954 3.75466583 2.51283264 4.65858459 C1.67756344 10.55972136 1.82173464 16.51467256 1.79467773 22.46264648 C1.78508622 23.82327056 1.77507541 25.18389173 1.76467896 26.54450989 C1.73776166 30.2216454 1.71668122 33.89879357 1.69667697 37.57597232 C1.67473564 41.42502543 1.64738699 45.2740401 1.62062073 49.12306213 C1.57080358 56.40433081 1.52582425 63.68562094 1.48259836 70.9669314 C1.43313187 79.25958527 1.37824879 87.55220055 1.32291877 95.84481704 C1.20926737 112.89650898 1.10239198 129.94823681 1 147 C0.67 147 0.34 147 0 147 C0 98.49 0 49.98 0 0 Z " fill="#3D5D74" transform="translate(28,294)"/>
<path d="M0 0 C8.87927169 2.70470801 20.66477894 6.99716841 26 15 C26.22705078 18.09448242 26.22705078 18.09448242 26.1953125 21.85546875 C26.1924826 22.51710526 26.18965271 23.17874176 26.18673706 23.86042786 C26.17555918 25.96963737 26.15045981 28.07841925 26.125 30.1875 C26.11496707 31.61913448 26.10584176 33.05077564 26.09765625 34.48242188 C26.07562795 37.98841977 26.04111485 41.49416813 26 45 C25.67 45 25.34 45 25 45 C24.98018066 44.23856689 24.96036133 43.47713379 24.93994141 42.69262695 C24.84450078 39.23224528 24.73489788 35.77245145 24.625 32.3125 C24.5940625 31.11431641 24.563125 29.91613281 24.53125 28.68164062 C24.49257813 27.52470703 24.45390625 26.36777344 24.4140625 25.17578125 C24.36693115 23.58117065 24.36693115 23.58117065 24.31884766 21.9543457 C23.99639487 18.96659595 23.25206416 16.71719889 22 14 C21.01 14.33 20.02 14.66 19 15 C18.34 14.67 17.68 14.34 17 14 C17 13.01 17 12.02 17 11 C16.01 10.67 15.02 10.34 14 10 C13.5875 9.525625 13.175 9.05125 12.75 8.5625 C10.19387785 6.28024808 7.25969036 5.90546955 4 5 C3.67 4.34 3.34 3.68 3 3 C2.01 2.67 1.02 2.34 0 2 C0 1.34 0 0.68 0 0 Z " fill="#D18157" transform="translate(307,55)"/>
<path d="M0 0 C12.68952499 1.1622566 25.35271022 2.44188042 38 4 C37.34 4.99 36.68 5.98 36 7 C34.88625 6.835 33.7725 6.67 32.625 6.5 C29.27967967 5.9544542 29.27967967 5.9544542 27 6 C27 5.34 27 4.68 27 4 C26.44570312 4.17144531 25.89140625 4.34289062 25.3203125 4.51953125 C18.16816811 6.00053085 8.93536172 4.07653687 2 2 C1.34 1.34 0.68 0.68 0 0 Z " fill="#2D4556" transform="translate(159,340)"/>
<path d="M0 0 C0.33 0.99 0.66 1.98 1 3 C1.59167969 3.06058594 2.18335938 3.12117188 2.79296875 3.18359375 C6.90978208 3.62012371 10.95544533 4.08671346 15 5 C15 5.33 15 5.66 15 6 C11.7 6 8.4 6 5 6 C5 6.99 5 7.98 5 9 C2.36 9 -0.28 9 -3 9 C-2.34 8.01 -1.68 7.02 -1 6 C-0.60986284 4.0103005 -0.26797351 2.00980131 0 0 Z " fill="#D58861" transform="translate(273,37)"/>
<path d="M0 0 C-10.12658226 3.83167978 -19.31930043 4.25655289 -30 3 C-30 2.67 -30 2.34 -30 2 C-25.75139233 1.4673614 -21.50096775 0.9509344 -17.25 0.4375 C-16.0434375 0.28603516 -14.836875 0.13457031 -13.59375 -0.02148438 C-11.85351562 -0.2293457 -11.85351562 -0.2293457 -10.078125 -0.44140625 C-8.47565918 -0.63778687 -8.47565918 -0.63778687 -6.84082031 -0.83813477 C-4.24416081 -0.98608812 -2.44766463 -0.80814243 0 0 Z " fill="#293E4C" transform="translate(352,341)"/>
<path d="M0 0 C0.66 0 1.32 0 2 0 C1.67 1.32 1.34 2.64 1 4 C0.360625 4.12375 -0.27875 4.2475 -0.9375 4.375 C-1.9584375 4.684375 -1.9584375 4.684375 -3 5 C-4.39560045 7.79120091 -4.21808288 10.20205692 -4.31640625 13.3203125 C-4.35830078 14.57714844 -4.40019531 15.83398438 -4.44335938 17.12890625 C-4.48267578 18.44761719 -4.52199219 19.76632813 -4.5625 21.125 C-4.60569512 22.46485751 -4.64930973 23.80470156 -4.69335938 25.14453125 C-4.79970981 28.42957815 -4.90173808 31.71470281 -5 35 C-5.33 35 -5.66 35 -6 35 C-6.12406007 30.96174934 -6.21455045 26.92424362 -6.2746582 22.88452148 C-6.29972617 21.51192898 -6.33379082 20.13946898 -6.37719727 18.76733398 C-6.43817531 16.78949304 -6.46361009 14.81065816 -6.48828125 12.83203125 C-6.51446533 11.64327393 -6.54064941 10.4545166 -6.56762695 9.22973633 C-5.83979425 5.08844651 -4.15905609 3.66437794 -1 1 C-0.67 0.67 -0.34 0.34 0 0 Z " fill="#D28860" transform="translate(185,64)"/>
<path d="M0 0 C1 3 1 3 -0.4375 6.0625 C-3.61790117 9.70832574 -6.35181658 10.52730338 -11 11 C-14.34190496 11.13329535 -17.65815042 11.12326494 -21 11 C-21 10.67 -21 10.34 -21 10 C-19.93072266 9.85304688 -19.93072266 9.85304688 -18.83984375 9.703125 C-11.73895876 8.59450769 -5.94184154 7.41633211 -1.0625 1.75 C-0.5365625 0.88375 -0.5365625 0.88375 0 0 Z " fill="#211404" transform="translate(274,361)"/>
<path d="M0 0 C0.33 0 0.66 0 1 0 C1 3.3 1 6.6 1 10 C-4.61 10 -10.22 10 -16 10 C-16 9.67 -16 9.34 -16 9 C-11.05 8.34 -6.1 7.68 -1 7 C-0.67 4.69 -0.34 2.38 0 0 Z " fill="#BC6A4A" transform="translate(332,100)"/>
<path d="M0 0 C2.475 0.495 2.475 0.495 5 1 C5 1.66 5 2.32 5 3 C4.01 3.66 3.02 4.32 2 5 C1.67 6.65 1.34 8.3 1 10 C6.28 10 11.56 10 17 10 C17 10.33 17 10.66 17 11 C11.39 11 5.78 11 0 11 C0 7.37 0 3.74 0 0 Z " fill="#BC6A49" transform="translate(179,99)"/>
<path d="M0 0 C1.04635823 4.18543291 1.11480882 4.55584863 -0.75 8.0625 C-1.26820313 9.06990234 -1.26820313 9.06990234 -1.796875 10.09765625 C-3.03027246 12.04786587 -4.23807655 13.51163835 -6 15 C-6.66 15 -7.32 15 -8 15 C-8 14.01 -8 13.02 -8 12 C-7.01 12 -6.02 12 -5 12 C-5.33 11.01 -5.66 10.02 -6 9 C-5.01 9 -4.02 9 -3 9 C-2.01 6.03 -1.02 3.06 0 0 Z " fill="#DFC269" transform="translate(276,352)"/>
<path d="M0 0 C0.66 0.33 1.32 0.66 2 1 C1.34 2.65 0.68 4.3 0 6 C-1.60332791 6.08121924 -3.20784026 6.13929134 -4.8125 6.1875 C-5.70582031 6.22230469 -6.59914063 6.25710938 -7.51953125 6.29296875 C-10.41647515 5.95081002 -11.22555028 5.24606427 -13 3 C-12.39671875 3.03480469 -11.7934375 3.06960938 -11.171875 3.10546875 C-6.07474512 3.3514449 -6.07474512 3.3514449 -1.4375 1.5 C-0.963125 1.005 -0.48875 0.51 0 0 Z " fill="#2C4558" transform="translate(83,313)"/>
<path d="M0 0 C0 1.65 0 3.3 0 5 C-0.515625 5.12375 -1.03125 5.2475 -1.5625 5.375 C-4.72702351 6.18641628 -7.86124985 7.0945913 -11 8 C-11 7.34 -11 6.68 -11 6 C-8.84765625 4.4921875 -8.84765625 4.4921875 -6.0625 2.875 C-5.14597656 2.33617187 -4.22945313 1.79734375 -3.28515625 1.2421875 C-1 0 -1 0 0 0 Z " fill="#2E4656" transform="translate(484,294)"/>
<path d="M0 0 C0.98484375 0.11988281 1.9696875 0.23976563 2.984375 0.36328125 C3.73203125 0.47027344 4.4796875 0.57726562 5.25 0.6875 C5.25 1.3475 5.25 2.0075 5.25 2.6875 C0.3 2.6875 -4.65 2.6875 -9.75 2.6875 C-5.40352612 -0.57235541 -5.0019968 -0.65502339 0 0 Z " fill="#456175" transform="translate(365.75,470.3125)"/>
<path d="M0 0 C10.395 0.99 10.395 0.99 21 2 C21 2.33 21 2.66 21 3 C14.30602959 4.07967265 8.51655774 4.10648653 2 2 C1.34 1.34 0.68 0.68 0 0 Z " fill="#293F4D" transform="translate(159,340)"/>
<path d="M0 0 C0.33 0 0.66 0 1 0 C1 3.63 1 7.26 1 11 C-2.63 11 -6.26 11 -10 11 C-6.23312136 9.11656068 -4.97041037 8.77942165 -1 9 C-0.67 6.03 -0.34 3.06 0 0 Z " fill="#365064" transform="translate(218,320)"/>
<path d="M0 0 C1.63001953 0.01353516 1.63001953 0.01353516 3.29296875 0.02734375 C4.12441406 0.03894531 4.95585937 0.05054688 5.8125 0.0625 C5.8125 0.3925 5.8125 0.7225 5.8125 1.0625 C4.1109375 1.2790625 4.1109375 1.2790625 2.375 1.5 C-0.99527201 1.67421478 -0.99527201 1.67421478 -2.1875 3.0625 C-3.70678038 3.13429964 -5.22917482 3.14642007 -6.75 3.125 C-7.57628906 3.11597656 -8.40257812 3.10695312 -9.25390625 3.09765625 C-9.89199219 3.08605469 -10.53007812 3.07445312 -11.1875 3.0625 C-7.77577281 -0.34922719 -4.59805191 -0.04944142 0 0 Z " fill="#CD7E54" transform="translate(234.1875,47.9375)"/>
<path d="M0 0 C0 0.33 0 0.66 0 1 C-2.64 1 -5.28 1 -8 1 C-8.28875 1.5775 -8.5775 2.155 -8.875 2.75 C-9.91666667 4.83333333 -10.95833333 6.91666667 -12 9 C-11.52 2.64 -11.52 2.64 -9.375 0 C-6.01155688 -1.41618658 -3.50376557 -0.74118118 0 0 Z " fill="#07121E" transform="translate(112,314)"/>
<path d="M0 0 C0.66 0 1.32 0 2 0 C1.67 0.99 1.34 1.98 1 3 C0.8535286 4.55266653 0.75305926 6.10995662 0.68359375 7.66796875 C0.64169922 8.56064453 0.59980469 9.45332031 0.55664062 10.37304688 C0.51732422 11.30181641 0.47800781 12.23058594 0.4375 13.1875 C0.39431641 14.12787109 0.35113281 15.06824219 0.30664062 16.03710938 C0.20061335 18.35792854 0.09854971 20.67885325 0 23 C-0.33 23 -0.66 23 -1 23 C-1.02887512 19.35418313 -1.04675585 15.70839537 -1.0625 12.0625 C-1.07087891 11.02158203 -1.07925781 9.98066406 -1.08789062 8.90820312 C-1.09272461 7.42416992 -1.09272461 7.42416992 -1.09765625 5.91015625 C-1.10289307 4.99371338 -1.10812988 4.07727051 -1.11352539 3.13305664 C-1 1 -1 1 0 0 Z " fill="#D6865D" transform="translate(196,77)"/>
<path d="M0 0 C-5.00932754 3.00559652 -8.32723489 3.29341888 -14 3 C-4.91666667 -1.89102564 -4.91666667 -1.89102564 0 0 Z " fill="#2D4454" transform="translate(412,328)"/>
<path d="M0 0 C0.33 0 0.66 0 1 0 C1 3.3 1 6.6 1 10 C-0.98 10.99 -0.98 10.99 -3 12 C-2.01 8.04 -1.02 4.08 0 0 Z " fill="#DCDCDD" transform="translate(511,260)"/>
<path d="M0 0 C0.66 0 1.32 0 2 0 C1.67 1.32 1.34 2.64 1 4 C0.360625 4.12375 -0.27875 4.2475 -0.9375 4.375 C-1.9584375 4.684375 -1.9584375 4.684375 -3 5 C-3.33 5.66 -3.66 6.32 -4 7 C-4.66 6.67 -5.32 6.34 -6 6 C-4 4 -2 2 0 0 Z " fill="#C57954" transform="translate(185,64)"/>
<path d="M0 0 C1.32 0 2.64 0 4 0 C4.33 2.31 4.66 4.62 5 7 C4.01 7 3.02 7 2 7 C1.34 4.69 0.68 2.38 0 0 Z " fill="#2E4A5D" transform="translate(96,318)"/>
<path d="M0 0 C0.66 0.33 1.32 0.66 2 1 C2.625 4.0625 2.625 4.0625 3 7 C1.35 7 -0.3 7 -2 7 C-1.34 4.69 -0.68 2.38 0 0 Z " fill="#2D4B61" transform="translate(217,349)"/>
<path d="M0 0 C1.485 0.99 1.485 0.99 3 2 C2.67 4.31 2.34 6.62 2 9 C1.34 9 0.68 9 0 9 C0 6.03 0 3.06 0 0 Z " fill="#2F4A5A" transform="translate(28,294)"/>
</svg>
