<?xml version="1.0" encoding="UTF-8"?>
<svg version="1.1" xmlns="http://www.w3.org/2000/svg" width="512" height="512">
<path d="M0 0 C168.96 0 337.92 0 512 0 C512 168.96 512 337.92 512 512 C343.04 512 174.08 512 0 512 C0 343.04 0 174.08 0 0 Z " fill="#DDA809" transform="translate(0,0)"/>
<path d="M0 0 C122.1 0 244.2 0 370 0 C370 168.96 370 337.92 370 512 C345.58 512 321.16 512 296 512 C298.75732914 510.62133543 301.41340406 509.41320841 304.25 508.25 C313.28729265 504.19879984 320.00154558 498.44060052 323.77155048 489.08541399 C325.7231703 483.63444526 326.43496655 478.90210484 326.39872742 473.13511658 C326.40869766 471.86788949 326.40869766 471.86788949 326.41886932 470.57506186 C326.43738698 467.76988628 326.43490165 464.96514146 326.43237305 462.15991211 C326.44139707 460.13889977 326.45172586 458.1178929 326.46325684 456.09689331 C326.49077763 450.62857783 326.5001047 445.16036636 326.50611091 439.69199061 C326.51550735 433.97044571 326.5417118 428.2489781 326.56611633 422.52748108 C326.60975001 411.70113496 326.63831625 400.87480388 326.66143972 390.04839665 C326.6935722 375.41293684 326.74903979 360.77756655 326.80318546 346.14217472 C326.88783847 323.09480979 326.9413653 300.04747982 327 277 C262.32 277 197.64 277 131 277 C131 242.68 131 208.36 131 173 C135.95 173 140.9 173 146 173 C146 172.34 146 171.68 146 171 C140.72 171 135.44 171 130 171 C130 206.31 130 241.62 130 278 C124.72 278 119.44 278 114 278 C114.00967804 275.79157913 114.01935608 273.58315826 114.02932739 271.30781555 C114.1160048 250.43205417 114.14674119 229.55673422 114.12697029 208.68079853 C114.11813081 197.94979388 114.12763692 187.21941305 114.18164062 176.48852539 C114.22870967 167.12606584 114.24002372 157.76433095 114.2099179 148.40179032 C114.19521183 143.45253806 114.19737884 138.50469572 114.24249649 133.55559731 C114.70625958 103.83359609 114.70625958 103.83359609 103 77 C102.00416205 75.38239174 101.01488158 73.76072925 100.03201294 72.13520813 C78.92142518 37.37145911 48.58966222 12.93579292 9.14648438 2.5 C6.11021839 1.79273513 3.09522579 1.36414421 0 1 C0 0.67 0 0.34 0 0 Z " fill="#FDC009" transform="translate(142,0)"/>
<path d="M0 0 C5.28 0 10.56 0 16 0 C16 0.66 16 1.32 16 2 C11.05 2 6.1 2 1 2 C1 36.32 1 70.64 1 106 C65.68 106 130.36 106 197 106 C197.16121214 156.96542583 197.16121214 156.96542583 197.1953125 178.33398438 C197.21904043 193.08428515 197.24692419 207.83449447 197.30175781 222.5847168 C197.34167503 233.32756883 197.36744459 244.07034661 197.37635398 254.81327075 C197.38156041 260.49954241 197.39376391 266.18560171 197.42292023 271.87180519 C197.45016636 277.22912205 197.45842637 282.58614002 197.45243073 287.94351959 C197.45352685 289.90462305 197.46142563 291.86573699 197.4768219 293.82678032 C197.5762519 307.15019072 197.01086404 318.25999545 188.04296875 328.9296875 C181.23416607 335.82962138 175.48716854 338.15384944 166 341 C111.22 341 56.44 341 0 341 C0 228.47 0 115.94 0 0 Z " fill="#D22F2D" transform="translate(272,171)"/>
<path d="M0 0 C65.01 0 130.02 0 197 0 C197 77.22 197 154.44 197 234 C169.5275 234.103125 142.055 234.20625 113.75 234.3125 C100.7577002 234.38078003 100.7577002 234.38078003 87.50292969 234.45043945 C76.89306641 234.47302246 76.89306641 234.47302246 71.91973877 234.47721863 C68.46010167 234.48186059 65.00085157 234.50053177 61.5413208 234.52787781 C57.11717584 234.56238103 52.69358703 234.57241804 48.26932001 234.56536138 C46.65270062 234.56683517 45.03606017 234.57662756 43.41955709 234.59607565 C29.94368608 234.75056464 19.20847076 232.20346634 9.19921875 222.61328125 C2.77883082 214.98408138 -0.15648644 206.66959625 -0.12025452 196.85664368 C-0.12110894 196.01695217 -0.12196337 195.17726066 -0.12284368 194.31212395 C-0.12449549 191.48841599 -0.11898198 188.66476697 -0.11352539 185.84106445 C-0.11324343 183.82094321 -0.11340143 181.80082187 -0.1139679 179.78070068 C-0.11425552 174.28724295 -0.10836445 168.79380692 -0.10139394 163.30035424 C-0.09515456 157.56280136 -0.09455614 151.82524801 -0.09336853 146.08769226 C-0.09025694 135.21862699 -0.08204586 124.34957174 -0.07201904 113.48051089 C-0.05876576 98.79610155 -0.0533566 84.11168947 -0.04751682 69.42727566 C-0.03810587 46.28484293 -0.01818579 23.14243135 0 0 Z " fill="#B72A28" transform="translate(43,278)"/>
<path d="M0 0 C0.89022858 -0.01299637 1.78045715 -0.02599274 2.69766235 -0.03938293 C12.07021317 -0.16688625 21.44367039 -0.22301277 30.81689453 -0.27441406 C35.24059203 -0.30096464 39.66318362 -0.34942133 44.08642578 -0.41796875 C89.87363495 -1.11077811 89.87363495 -1.11077811 106.96403503 7.24725342 C120.33246783 13.21174813 135.90801648 15.07293021 150.25268555 17.49047852 C150.97087463 17.61553772 151.68906372 17.74059692 152.42901611 17.8694458 C168.01036249 20.55023676 183.28699528 21.18026583 199.19018555 22.24047852 C199.19018555 57.55047852 199.19018555 92.86047852 199.19018555 129.24047852 C134.18018555 129.24047852 69.17018555 129.24047852 2.19018555 129.24047852 C2.22249491 165.38314395 2.22249491 165.38314395 2.30151367 201.52563477 C2.34411614 216.26702413 2.38159495 231.0082988 2.38574219 245.74975586 C2.38878639 256.48648271 2.40933842 267.2230107 2.45071012 277.95966077 C2.47200012 283.64203915 2.48466116 289.32413507 2.47633934 295.00655365 C2.46877407 300.36155779 2.48472292 305.71599081 2.5182457 311.07089043 C2.5264491 313.02992762 2.52626439 314.98902193 2.51678276 316.94805336 C2.45805773 330.42180454 3.34901865 342.20115513 13.16674805 352.49047852 C18.41980917 357.03366651 24.45614834 360.46836346 31.19018555 362.24047852 C31.19018555 362.57047852 31.19018555 362.90047852 31.19018555 363.24047852 C7.43018555 363.24047852 -16.32981445 363.24047852 -40.80981445 363.24047852 C-40.92008581 321.02249676 -41.01238961 278.80465106 -41.0651411 236.58656646 C-41.07139448 231.59994705 -41.0778661 226.61332794 -41.08447266 221.62670898 C-41.08578421 220.63398199 -41.08709576 219.641255 -41.08844706 218.61844537 C-41.11019105 202.55395304 -41.14960705 186.48955038 -41.19557843 170.4251112 C-41.24237104 153.9359179 -41.27011578 137.44677149 -41.28025693 120.95751452 C-41.28711026 110.78646396 -41.3087393 100.61566684 -41.34939679 90.44469431 C-41.37586977 83.46575304 -41.38380514 76.48694238 -41.37732134 69.50795457 C-41.37412552 65.48411475 -41.37895092 61.46071716 -41.40584183 57.43695641 C-41.43032501 53.74635154 -41.43130594 50.05648271 -41.41430893 46.36584267 C-41.41122397 44.4122171 -41.43265383 42.4585991 -41.455221 40.50510144 C-41.36261934 29.49304298 -38.43187953 20.04410579 -30.69262695 11.98657227 C-21.49461115 3.45646217 -12.52335758 0.13412803 0 0 Z " fill="#D33A30" transform="translate(40.809814453125,148.759521484375)"/>
<path d="M0 0 C2.05063602 -0.00150749 4.10127142 -0.00494988 6.15190125 -0.01020813 C10.41544795 -0.01450378 14.6782288 0.00203253 18.94165039 0.03442383 C24.3726911 0.07432718 29.80230834 0.0648275 35.23339558 0.04018879 C39.45541322 0.02593221 43.67710464 0.03614842 47.89909935 0.0537014 C49.90072028 0.05949769 51.90237535 0.05832917 53.90398598 0.0496769 C69.90185292 0.00350208 82.81663886 1.77842468 94.8125 13.3828125 C104.2389128 23.51094338 104.28731739 34.97052667 104.25697327 48.09361267 C104.25740967 49.45671358 104.25828585 50.81981441 104.25956243 52.18291479 C104.26179379 55.91822792 104.25780473 59.65351226 104.25278437 63.38882172 C104.24846053 67.42077451 104.24992767 71.45272572 104.25068665 75.48468018 C104.25121065 82.46688661 104.2480767 89.44908369 104.24244881 96.43128777 C104.23431715 106.52634688 104.23171688 116.62140148 104.23046082 126.71646351 C104.22827292 143.09556483 104.22161993 159.47466116 104.2121582 175.85375977 C104.20297731 191.76326472 104.19589979 207.67276832 104.19165039 223.58227539 C104.19138767 224.56315787 104.19112494 225.54404035 104.19085426 226.55464654 C104.18954921 231.47551154 104.1882855 236.39637654 104.18704236 241.31724155 C104.17667791 282.13207171 104.15824399 322.94689265 104.13671875 363.76171875 C79.71671875 363.76171875 55.29671875 363.76171875 30.13671875 363.76171875 C32.89404789 362.38305418 35.55012281 361.17492716 38.38671875 360.01171875 C47.4240114 355.96051859 54.13826433 350.20231927 57.90826923 340.84713274 C59.85988905 335.39616401 60.5716853 330.66382359 60.53544617 324.89683533 C60.54541641 323.62960824 60.54541641 323.62960824 60.55558807 322.33678061 C60.57410573 319.53160503 60.5716204 316.72686021 60.5690918 313.92163086 C60.57811582 311.90061852 60.58844461 309.87961165 60.59997559 307.85861206 C60.62749638 302.39029658 60.63682345 296.92208511 60.64282966 291.45370936 C60.6522261 285.73216446 60.67843055 280.01069685 60.70283508 274.28919983 C60.74646876 263.46285371 60.775035 252.63652263 60.79815847 241.8101154 C60.83029095 227.17465559 60.88575854 212.5392853 60.93990421 197.90389347 C61.02455722 174.85652854 61.07808405 151.80919857 61.13671875 128.76171875 C-3.54328125 128.76171875 -68.22328125 128.76171875 -134.86328125 128.76171875 C-134.86328125 94.44171875 -134.86328125 60.12171875 -134.86328125 24.76171875 C-129.91328125 24.76171875 -124.96328125 24.76171875 -119.86328125 24.76171875 C-119.86328125 23.77171875 -119.86328125 22.78171875 -119.86328125 21.76171875 C-118.75339844 21.68695313 -117.64351563 21.6121875 -116.5 21.53515625 C-89.56901974 19.46658983 -61.33434918 15.30695013 -36.13021851 5.2898407 C-23.96590706 0.61980168 -12.93312678 -0.11177694 0 0 Z " fill="#F34236" transform="translate(407.86328125,148.23828125)"/>
<path d="M0 0 C1.81184626 1.56020095 3.60312036 3.14455414 5.375 4.75 C6.32890625 5.60980469 7.2828125 6.46960938 8.265625 7.35546875 C21.6623928 19.86660908 31.53947853 35.28226358 39.375 51.75 C39.92671875 52.90757813 40.4784375 54.06515625 41.046875 55.2578125 C51.375 78.20328608 51.375 78.20328608 51.375 86.75 C22.13846074 87.27854808 -8.16297127 81.73978184 -35.625 71.75 C-36.28064941 71.51313477 -36.93629883 71.27626953 -37.61181641 71.03222656 C-52.94657282 65.40188789 -67.15643029 57.96353113 -80.625 48.75 C-81.44097656 48.19183594 -82.25695312 47.63367188 -83.09765625 47.05859375 C-87.33974688 44.0217326 -90.40221107 40.84381296 -93.625 36.75 C-94.800625 35.63625 -94.800625 35.63625 -96 34.5 C-104.00585539 26.1129134 -109.70800933 16.81894676 -110.125 5.0625 C-109.85474156 -2.36524816 -107.87303142 -6.33062862 -102.4375 -11.4375 C-74.65625181 -33.69811554 -24.99654532 -19.7472708 0 0 Z " fill="#DEDDDC" transform="translate(184.625,52.25)"/>
<path d="M0 0 C5.29871224 4.28304588 8.26127212 8.25777536 9.03125 15.2265625 C9.32736129 22.30631431 8.17417698 27.3060522 4.72265625 33.43359375 C4.3565625 34.18769531 3.99046875 34.94179687 3.61328125 35.71875 C-7.91756692 57.6060081 -33.44032536 71.07487158 -55.27734375 80.43359375 C-56.2209375 80.8409375 -57.16453125 81.24828125 -58.13671875 81.66796875 C-87.22716264 93.51963108 -119.83846019 99.76429202 -151.27734375 99.43359375 C-150.76772011 92.99959524 -149.58686689 87.57052316 -147.27734375 81.55859375 C-146.97119141 80.74777344 -146.66503906 79.93695313 -146.34960938 79.1015625 C-139.30704116 60.85554743 -130.25418048 44.88614834 -118.27734375 29.43359375 C-117.63152344 28.59570312 -116.98570312 27.7578125 -116.3203125 26.89453125 C-105.87896168 14.31699584 -91.4759683 4.34714309 -76.27734375 -1.56640625 C-75.46265625 -1.90285156 -74.64796875 -2.23929688 -73.80859375 -2.5859375 C-52.49528735 -10.95454457 -19.91785672 -13.69993232 0 0 Z " fill="#F7F6F5" transform="translate(428.27734375,39.56640625)"/>
<path d="M0 0 C0.33 0 0.66 0 1 0 C1 87.45 1 174.9 1 265 C-23.42 265 -47.84 265 -73 265 C-70.24267086 263.62133543 -67.58659594 262.41320841 -64.75 261.25 C-55.71270735 257.19879984 -48.99845442 251.44060052 -45.22844952 242.08541399 C-43.2768297 236.63444526 -42.56503345 231.90210484 -42.60127258 226.13511658 C-42.59462576 225.29029852 -42.58797893 224.44548046 -42.58113068 223.57506186 C-42.56261302 220.76988628 -42.56509835 217.96514146 -42.56762695 215.15991211 C-42.55860293 213.13889977 -42.54827414 211.1178929 -42.53674316 209.09689331 C-42.50922237 203.62857783 -42.4998953 198.16036636 -42.49388909 192.69199061 C-42.48449265 186.97044571 -42.4582882 181.2489781 -42.43388367 175.52748108 C-42.39024999 164.70113496 -42.36168375 153.87480388 -42.33856028 143.04839665 C-42.31149186 130.71947829 -42.26758133 118.3906378 -42.22227156 106.06177509 C-42.1294701 80.70789231 -42.05776873 55.3539851 -42 30 C-41.12827148 29.94666504 -40.25654297 29.89333008 -39.35839844 29.83837891 C-38.2037207 29.76022949 -37.04904297 29.68208008 -35.859375 29.6015625 C-34.14959473 29.49062256 -34.14959473 29.49062256 -32.40527344 29.37744141 C-22.37098856 28.26523862 -14.34252787 23.67045797 -7.47265625 16.37890625 C-3.65449889 11.53947884 -1.87882214 5.80440584 0 0 Z " fill="#F7F6F6" transform="translate(511,247)"/>
<path d="M0 0 C1.899623 2.8494345 3.16230883 5.57197493 4.5625 8.6875 C8.95150115 17.51889648 15.76654804 23.5003833 25 27 C28.55299133 28.06676886 32.05801982 28.30406139 35.75 28.5625 C36.92046875 28.64628906 38.0909375 28.73007812 39.296875 28.81640625 C40.63492188 28.90728516 40.63492188 28.90728516 42 29 C42.00146656 30.02391688 42.00293312 31.04783377 42.00444412 32.10277843 C42.04108757 57.05122682 42.10060068 81.99954146 42.18390274 106.94787884 C42.22366157 119.01286216 42.25607013 131.07778055 42.27099609 143.14282227 C42.28402892 153.66236458 42.31103535 164.18176384 42.35461307 174.70122558 C42.37719102 180.26790209 42.39291287 185.83440241 42.39188385 191.40112877 C42.39113508 196.64855241 42.40917297 201.89558707 42.44116783 207.14291 C42.44963543 209.06121228 42.45143828 210.97955834 42.44580269 212.89787102 C42.40970571 227.08239697 43.13384862 240.77148473 53 252 C58.6145347 257.42055845 64.64585033 260.52814594 72 263 C72 263.33 72 263.66 72 264 C48.24 264 24.48 264 0 264 C0 176.88 0 89.76 0 0 Z " fill="#F7F6F6" transform="translate(0,248)"/>
<path d="M0 0 C32.34 0 64.68 0 98 0 C98 60.39 98 120.78 98 183 C97.67 183 97.34 183 97 183 C96.88785156 182.09121094 96.88785156 182.09121094 96.7734375 181.1640625 C95.25579225 171.49279374 90.97186601 163.76675401 83.35546875 157.53515625 C75.18185979 152.20807777 66.64831986 149.85843718 57.03051758 149.79467773 C56.11324387 149.78477814 55.19597015 149.77487854 54.25090027 149.76467896 C51.21547029 149.7330622 48.18002465 149.70830577 45.14453125 149.68359375 C43.04131155 149.66302438 40.93809598 149.64202791 38.83488464 149.62062073 C33.29634956 149.56539833 27.75777716 149.51598975 22.21917725 149.46777344 C16.56861038 149.41755967 10.91809777 149.36187295 5.26757812 149.30664062 C-5.82156824 149.19905698 -16.9107617 149.09761242 -28 149 C-25.71385756 146.71385756 -24.08172088 146.18465082 -21.0625 145.0625 C-14.12755949 142.26996313 -7.82714785 138.56618883 -1.41235352 134.74633789 C-0.62530029 134.27832764 0.16175293 133.81031738 0.97265625 133.328125 C1.67656494 132.9043457 2.38047363 132.48056641 3.10571289 132.04394531 C5 131 5 131 8 130 C8 129.34 8 128.68 8 128 C9.64487979 126.96455409 11.31674757 125.97182253 13 125 C31.17764419 111.2841412 48.66457493 92.09564954 53.62109375 69.12109375 C54.92012449 58.42083025 54.44665346 48.23506222 51 38 C50.74476563 37.21238281 50.48953125 36.42476562 50.2265625 35.61328125 C47.65846358 28.86318638 43.04356606 24.05220231 38 19 C37.4328125 18.42121094 36.865625 17.84242187 36.28125 17.24609375 C26.7082034 8.25963089 12.57321091 3.84676474 0 1 C0 0.67 0 0.34 0 0 Z " fill="#F7F6F6" transform="translate(414,0)"/>
<path d="M0 0 C32.67 0 65.34 0 99 0 C99 0.33 99 0.66 99 1 C98.030625 1.1959375 97.06125 1.391875 96.0625 1.59375 C78.47322535 5.41365416 62.28739148 12.86707278 51.79296875 28.01171875 C43.74961713 41.41730479 42.02622023 55.47835784 44.6484375 70.78515625 C45.57471028 73.97960981 46.6748114 76.94971381 48 80 C48.49757812 81.14726563 48.99515625 82.29453125 49.5078125 83.4765625 C64.24388161 114.93635654 94.18239508 134.38564036 125 148 C125 148.33 125 148.66 125 149 C123.28564255 149.00879936 123.28564255 149.00879936 121.53665161 149.01777649 C110.73797993 149.07512096 99.93950736 149.14794364 89.14103889 149.23571491 C83.5901346 149.28034145 78.0393024 149.31961457 72.48828125 149.34643555 C67.12593661 149.37254549 61.76387054 149.4130022 56.40169907 149.46318626 C54.3613419 149.47980305 52.32093661 149.4913495 50.28052139 149.49761391 C47.41084197 149.5073116 44.54186697 149.53543805 41.67236328 149.56762695 C40.4218644 149.56547432 40.4218644 149.56547432 39.14610291 149.5632782 C28.13345572 149.73668597 19.21505002 153.41020652 11.05859375 160.74609375 C5.95687354 166.04615298 3.47753756 172.14966573 1 179 C0.67 179 0.34 179 0 179 C0 119.93 0 60.86 0 0 Z " fill="#F7F6F5" transform="translate(0,0)"/>
<path d="M0 0 C10.56 0 21.12 0 32 0 C32 77.22 32 154.44 32 234 C21.44 234 10.88 234 0 234 C0 156.78 0 79.56 0 0 Z " fill="#DE7B01" transform="translate(240,278)"/>
<path d="M0 0 C74.58 0 149.16 0 226 0 C222.64502802 1.67748599 220.32599005 2.47087368 216.75 3.25 C198.22106102 7.78678263 181.16585276 16.00998056 166.44140625 28.12890625 C164 30 164 30 162 30 C162 30.66 162 31.32 162 32 C160.49609375 33.48046875 160.49609375 33.48046875 158.4375 35.1875 C151.3421461 40.85095856 151.3421461 40.85095856 146 48 C145.34 48 144.68 48 144 48 C143.57811401 48.88788208 143.57811401 48.88788208 143.14770508 49.79370117 C142.10342176 51.80118646 140.99279832 53.4964991 139.63671875 55.30078125 C133.48155785 63.65859684 127.96715335 72.19943425 122.875 81.25 C122.31901123 82.23782471 121.76302246 83.22564941 121.19018555 84.2434082 C118.86468698 88.43421433 116.71085797 92.51561456 115 97 C114.34 97 113.68 97 113 97 C112.75467529 96.4831665 112.50935059 95.96633301 112.2565918 95.43383789 C93.6887319 56.6046744 66.02277211 21.88549068 24.31591797 7.04492188 C16.31752606 4.39168494 8.38504723 1.98647614 0 1 C0 0.67 0 0.34 0 0 Z " fill="#F7F6F4" transform="translate(142,0)"/>
<path d="M0 0 C5.28 0 10.56 0 16 0 C16 77.22 16 154.44 16 234 C10.72 234 5.44 234 0 234 C0 156.78 0 79.56 0 0 Z " fill="#FE8D02" transform="translate(256,278)"/>
<path d="M0 0 C-0.33 0.66 -0.66 1.32 -1 2 C-4.63 2 -8.26 2 -12 2 C-12.00331015 3.02852585 -12.00662029 4.0570517 -12.01003075 5.116745 C-12.09103673 30.14685876 -12.18335594 55.17691133 -12.28752708 80.2069397 C-12.3376418 92.3112868 -12.38408492 104.41562716 -12.421875 116.52001953 C-12.4548234 127.07060581 -12.49467047 137.62113966 -12.54279006 148.17166805 C-12.56802662 153.75770272 -12.58981638 159.34370274 -12.60334396 164.92977905 C-12.61619 170.18939706 -12.63827201 175.44889606 -12.66738319 180.70844841 C-12.67643906 182.63691863 -12.68214455 184.56540801 -12.68421364 186.49389839 C-12.68755024 189.13180883 -12.70306541 191.76938471 -12.7215271 194.40722656 C-12.71959237 195.16600444 -12.71765763 195.92478231 -12.71566427 196.70655346 C-12.76833926 201.75914435 -13.6198007 206.13577691 -15 211 C-15.66 211 -16.32 211 -17 211 C-16.75739488 209.77809621 -16.75739488 209.77809621 -16.50988865 208.53150749 C-15.92819624 204.50268452 -15.84687185 200.55600355 -15.84178162 196.49588013 C-15.83684364 195.65362534 -15.83190566 194.81137056 -15.82681805 193.94359291 C-15.81149408 191.12922662 -15.80309628 188.31488306 -15.79467773 185.50048828 C-15.7850952 183.4799225 -15.7750849 181.45935871 -15.76467896 179.438797 C-15.73766452 173.95793488 -15.71663621 168.47706417 -15.69667697 162.99617243 C-15.67479607 157.26662797 -15.64741767 151.53710986 -15.62062073 145.80758667 C-15.5707223 134.95989012 -15.52577289 124.11217893 -15.48259836 113.26445377 C-15.43320164 100.91386714 -15.37829253 88.56330695 -15.32291877 76.2127459 C-15.20914248 50.80852194 -15.10229395 25.40427261 -15 0 C-12.87562788 -0.19448477 -10.75046809 -0.38038289 -8.625 -0.5625 C-7.44164062 -0.66691406 -6.25828125 -0.77132813 -5.0390625 -0.87890625 C-2 -1 -2 -1 0 0 Z " fill="#FDCFCF" transform="translate(484,277)"/>
<path d="M0 0 C0.33 0 0.66 0 1 0 C1 53.79 1 107.58 1 163 C5.62 163 10.24 163 15 163 C15 129.01 15 95.02 15 60 C15.33 60 15.66 60 16 60 C16 94.98 16 129.96 16 166 C10.72 166 5.44 166 0 166 C0 111.22 0 56.44 0 0 Z " fill="#FDB916" transform="translate(256,112)"/>
<path d="M0 0 C-0.33 0.66 -0.66 1.32 -1 2 C0.00731674 1.99333817 1.01463348 1.98667633 2.05247498 1.97981262 C11.57098203 1.91885238 21.08944919 1.87395595 30.60810757 1.84456348 C35.50110991 1.82894425 40.39395397 1.80777466 45.28686523 1.77368164 C50.01365262 1.74095432 54.74028826 1.72311886 59.46718025 1.71536827 C61.26559905 1.70984869 63.06401006 1.69907053 64.86236382 1.68280983 C82.10682616 1.53316436 82.10682616 1.53316436 90 5 C91.1446875 5.38800781 92.289375 5.77601563 93.46875 6.17578125 C94.4690625 6.55089844 95.469375 6.92601562 96.5 7.3125 C98.03140625 7.86357422 98.03140625 7.86357422 99.59375 8.42578125 C102 10 102 10 102.84375 13.16796875 C102.8953125 14.10253906 102.946875 15.03710938 103 16 C102.33355469 15.54109375 101.66710937 15.0821875 100.98046875 14.609375 C100.05878906 13.99578125 99.13710938 13.3821875 98.1875 12.75 C97.29417969 12.14671875 96.40085937 11.5434375 95.48046875 10.921875 C83.57451 4.34754088 72.65634471 4.39608421 59.36328125 4.390625 C57.27148673 4.37562505 55.17970397 4.35889412 53.0879364 4.34051514 C47.61523866 4.29703335 42.14270065 4.27688514 36.66986084 4.26177979 C31.07212962 4.24213934 25.47456916 4.20017728 19.87695312 4.16015625 C8.91802167 4.08506195 -2.04087118 4.0346449 -13 4 C-9.53474375 0.53474375 -4.80335354 -2.11347556 0 0 Z " fill="#FEECE9" transform="translate(399,145)"/>
<path d="M0 0 C1.3805087 3.76668598 0.59568159 6.44789173 -0.4375 10.25 C-0.72496094 11.32765625 -1.01242187 12.4053125 -1.30859375 13.515625 C-1.53675781 14.33546875 -1.76492188 15.1553125 -2 16 C0.77117304 15.85919445 3.54182641 15.71256882 6.3125 15.5625 C7.09818359 15.52318359 7.88386719 15.48386719 8.69335938 15.44335938 C9.45068359 15.40146484 10.20800781 15.35957031 10.98828125 15.31640625 C11.68477783 15.27974854 12.38127441 15.24309082 13.09887695 15.20532227 C15.2216572 15.04418847 15.2216572 15.04418847 18 14 C21.213083 13.74209367 24.42000017 13.55803856 27.63867188 13.39453125 C31.44515217 13.23299665 31.44515217 13.23299665 35 12 C36.54023996 11.93049459 38.08334988 11.91547643 39.625 11.9375 C40.85089844 11.95103516 40.85089844 11.95103516 42.1015625 11.96484375 C43.04128906 11.98224609 43.04128906 11.98224609 44 12 C44 12.33 44 12.66 44 13 C36.41188057 14.95220075 28.81466736 15.74089605 21.03369141 16.43261719 C18.87202897 16.62526478 16.7114295 16.8275723 14.55078125 17.03125 C8.3491846 17.60126311 2.23507692 18.07512141 -4 18 C-3.48914188 11.56318772 -2.27057103 6.04057576 0 0 Z " fill="#FDF0BA" transform="translate(281,121)"/>
<path d="M0 0 C-3.25587373 1.09257508 -4.90858585 0.91014633 -8.0625 -0.375 C-13.30937925 -2.29011093 -18.45375086 -2.6993622 -24 -3 C-24 -3.66 -24 -4.32 -24 -5 C-34.89 -5 -45.78 -5 -57 -5 C-57 -5.33 -57 -5.66 -57 -6 C-37.30013718 -8.42339582 -18.6510941 -7.07950971 0 0 Z " fill="#EADAAB" transform="translate(160,38)"/>
<path d="M0 0 C3.4372046 3.0120577 4.83332096 5.53057255 6.1875 9.875 C6.51105469 10.88304687 6.83460938 11.89109375 7.16796875 12.9296875 C8.70329223 18.59524737 9.19304505 24.01942342 9.1875 29.875 C9.1884668 30.93074219 9.1884668 30.93074219 9.18945312 32.0078125 C9.13854357 37.0062047 8.57510871 41.27467386 7 46 C6.67 46 6.34 46 6 46 C6.33 36.43 6.66 26.86 7 17 C6.34 17 5.68 17 5 17 C4.71125 15.88625 4.4225 14.7725 4.125 13.625 C3.30758671 9.99708908 3.30758671 9.99708908 1 8 C0.43479997 5.34462628 0.26211802 2.70855287 0 0 Z " fill="#F2C436" transform="translate(460,28)"/>
<path d="M0 0 C0.66 0.33 1.32 0.66 2 1 C2.59355614 3.64860427 2.74209269 6.29197322 3 9 C3.66 9 4.32 9 5 9 C5.02888514 12.14581423 5.04675923 15.29159469 5.0625 18.4375 C5.07087891 19.33533203 5.07925781 20.23316406 5.08789062 21.15820312 C5.09111328 22.01220703 5.09433594 22.86621094 5.09765625 23.74609375 C5.10289307 24.53685303 5.10812988 25.3276123 5.11352539 26.14233398 C5 28 5 28 4 29 C3.67583533 30.34675687 3.39083201 31.70302578 3.125 33.0625 C2.16670109 37.5926403 0.71831741 41.70420647 -1 46 C-1.66 46 -2.32 46 -3 46 C-2.80664062 45.3709375 -2.61328125 44.741875 -2.4140625 44.09375 C-1.86744321 42.29694203 -1.33031409 40.49722995 -0.80078125 38.6953125 C-0.17178845 36.57821478 0.4999575 34.47381396 1.1875 32.375 C3.68542771 22.00545135 2.17735111 10.26465523 0 0 Z " fill="#FEF1B8" transform="translate(466,38)"/>
<path d="M0 0 C0.66 0.33 1.32 0.66 2 1 C1.67515625 1.77859375 1.3503125 2.5571875 1.015625 3.359375 C-0.29752139 8.06649975 -0.29148752 12.38904513 -0.25 17.25 C-0.25773437 18.14074219 -0.26546875 19.03148438 -0.2734375 19.94921875 C-0.25536316 26.17582749 0.56552905 31.94516019 2 38 C0.515 38.495 0.515 38.495 -1 39 C-2.04218885 35.61288625 -2 32.52350307 -2 29 C-2.33 28.67 -2.66 28.34 -3 28 C-3.28105447 24.44551265 -3.23187277 20.87676735 -3.25 17.3125 C-3.270625 16.31798828 -3.29125 15.32347656 -3.3125 14.29882812 C-3.34246066 8.66996901 -3.08693983 4.76850968 0 0 Z " fill="#FCF6D5" transform="translate(44,39)"/>
<path d="M0 0 C2.91517292 1.07401108 4.77810176 1.77810176 7 4 C7.639375 3.835 8.27875 3.67 8.9375 3.5 C9.618125 3.335 10.29875 3.17 11 3 C11.99 3.66 12.98 4.32 14 5 C13.67 6.65 13.34 8.3 13 10 C13.66 10 14.32 10 15 10 C15 9.34 15 8.68 15 8 C15.66 8 16.32 8 17 8 C17 9.65 17 11.3 17 13 C17.66 13 18.32 13 19 13 C19.33 14.32 19.66 15.64 20 17 C20.66 17 21.32 17 22 17 C21.67 17.99 21.34 18.98 21 20 C20.154375 19.13117188 19.30875 18.26234375 18.4375 17.3671875 C12.57608614 11.39599639 6.85677664 5.84007763 0 1 C0 0.67 0 0.34 0 0 Z " fill="#D9A91F" transform="translate(179,48)"/>
<path d="M0 0 C0.33 0.99 0.66 1.98 1 3 C1.99 2.67 2.98 2.34 4 2 C6.06723714 5.10085571 6.24497423 5.72931681 6.1953125 9.23046875 C6.18564453 10.43413086 6.18564453 10.43413086 6.17578125 11.66210938 C6.15902344 12.49548828 6.14226563 13.32886719 6.125 14.1875 C6.11597656 15.03248047 6.10695313 15.87746094 6.09765625 16.74804688 C6.07410703 18.83215243 6.03823647 20.91611217 6 23 C5.67 23 5.34 23 5 23 C4.92523438 22.39414063 4.85046875 21.78828125 4.7734375 21.1640625 C3.65315005 14.02497579 0.94641008 8.98289576 -3 3 C-3.33 2.34 -3.66 1.68 -4 1 C-2.68 0.67 -1.36 0.34 0 0 Z " fill="#FBE9E4" transform="translate(506,160)"/>
<path d="M0 0 C3.64581687 -0.02887512 7.29160463 -0.04675585 10.9375 -0.0625 C12.49887695 -0.07506836 12.49887695 -0.07506836 14.09179688 -0.08789062 C15.08115234 -0.09111328 16.07050781 -0.09433594 17.08984375 -0.09765625 C18.46450806 -0.10551147 18.46450806 -0.10551147 19.86694336 -0.11352539 C22 0 22 0 23 1 C25.77665837 1.24420122 28.55216999 1.38388187 31.3359375 1.5234375 C34.27162488 2.04858979 35.18901618 2.69623147 37 5 C36.10023438 4.86722656 35.20046875 4.73445313 34.2734375 4.59765625 C22.53652134 2.98647638 10.83459861 2.40255963 -1 2 C-0.67 1.34 -0.34 0.68 0 0 Z " fill="#F2C027" transform="translate(379,29)"/>
<path d="M0 0 C0 0.66 0 1.32 0 2 C0.89203125 2.03738281 1.7840625 2.07476563 2.703125 2.11328125 C3.87359375 2.17902344 5.0440625 2.24476562 6.25 2.3125 C7.99023438 2.39951172 7.99023438 2.39951172 9.765625 2.48828125 C13.10819638 3.01711803 14.5497057 3.73772333 17 6 C15.99324219 5.86722656 14.98648438 5.73445313 13.94921875 5.59765625 C2.97730302 4.20259714 -7.95173696 3.46084961 -19 3 C-18.67 2.34 -18.34 1.68 -18 1 C-15.51220172 0.6853143 -13.12292076 0.48643141 -10.625 0.375 C-9.93921875 0.33632813 -9.2534375 0.29765625 -8.546875 0.2578125 C-5.69448922 0.10242962 -2.85688474 0 0 0 Z " fill="#D5A927" transform="translate(131,28)"/>
<path d="M0 0 C1.49080078 0.02707031 1.49080078 0.02707031 3.01171875 0.0546875 C3.77097656 0.07789063 4.53023437 0.10109375 5.3125 0.125 C5.3125 0.455 5.3125 0.785 5.3125 1.125 C4.343125 1.3209375 3.37375 1.516875 2.375 1.71875 C-8.24384522 4.03009905 -17.1640415 7.9608711 -26.6875 13.125 C-28.01742776 13.79843476 -29.34880167 14.46917304 -30.6875 15.125 C-30.3575 13.805 -30.0275 12.485 -29.6875 11.125 C-28.3675 11.125 -27.0475 11.125 -25.6875 11.125 C-25.6875 10.465 -25.6875 9.805 -25.6875 9.125 C-24.6975 9.125 -23.7075 9.125 -22.6875 9.125 C-22.6875 8.465 -22.6875 7.805 -22.6875 7.125 C-21.71167969 6.78726562 -20.73585938 6.44953125 -19.73046875 6.1015625 C-18.44523537 5.65126175 -17.16008335 5.20072874 -15.875 4.75 C-15.23240234 4.52828125 -14.58980469 4.3065625 -13.92773438 4.078125 C-2.20575155 -0.05190004 -2.20575155 -0.05190004 0 0 Z " fill="#FCF4CE" transform="translate(93.6875,-0.125)"/>
<path d="M0 0 C0.33 0 0.66 0 1 0 C0.48645003 7.57486201 -1.5759956 10.84361383 -7.125 16 C-12.21256485 20.21416316 -18.32405069 24.2987329 -25.125 24.3125 C-26.07375 24.209375 -27.0225 24.10625 -28 24 C-25.29387368 22.61036757 -22.5633414 21.40367237 -19.75 20.25 C-11.12282335 16.38264495 -5.57540544 11.31172269 -1 3 C-0.67 2.01 -0.34 1.02 0 0 Z " fill="#FBDCD9" transform="translate(466,488)"/>
<path d="M0 0 C0.33 0.66 0.66 1.32 1 2 C0.34938905 3.67299959 -0.32033324 5.33859237 -1 7 C-1.35881232 8.99558634 -1.69543632 10.99541723 -2 13 C-1.40574219 12.93941406 -0.81148438 12.87882813 -0.19921875 12.81640625 C2.53345666 12.54016379 5.26670549 12.27004512 8 12 C9.40185547 11.85691406 9.40185547 11.85691406 10.83203125 11.7109375 C16.25318323 11.18019535 21.55322171 10.8972306 27 11 C27 11.33 27 11.66 27 12 C16.60886221 13.30618118 6.48925548 14.33358056 -4 14 C-4.43177893 7.73920552 -3.92739438 4.90924297 0 0 Z " fill="#F1C747" transform="translate(279,126)"/>
<path d="M0 0 C-0.66 1.32 -1.32 2.64 -2 4 C-3.175625 3.9175 -4.35125 3.835 -5.5625 3.75 C-10.88282537 3.70764072 -15.73115426 5.11392057 -20.76977539 6.66503906 C-24.18150991 7.67980683 -26.61999383 8.35370524 -30 7 C-20.38246216 3.20309629 -10.45200283 -0.31246645 0 0 Z " fill="#F4C638" transform="translate(374,0)"/>
<path d="M0 0 C5.28 0 10.56 0 16 0 C16 0.66 16 1.32 16 2 C17.65 2 19.3 2 21 2 C20.34 2.66 19.68 3.32 19 4 C19.99 5.485 19.99 5.485 21 7 C13.96354423 5.11380178 6.96640656 3.13072305 0 1 C0 0.67 0 0.34 0 0 Z " fill="#FAF3D5" transform="translate(414,0)"/>
<path d="M0 0 C2.12860703 3.44849598 2.12860703 3.44849598 1.56640625 5.859375 C-1.8801511 12.35016782 -6.05548763 18.98461963 -13 22 C-12.67 20.35 -12.34 18.7 -12 17 C-11.01 16.67 -10.02 16.34 -9 16 C-8.34 15.01 -7.68 14.02 -7 13 C-6.34 13 -5.68 13 -5 13 C-5 11.35 -5 9.7 -5 8 C-3.35 7.34 -1.7 6.68 0 6 C0 4.02 0 2.04 0 0 Z " fill="#C33B3C" transform="translate(465,484)"/>
<path d="M0 0 C2.3129482 2.3129482 2.49580975 3.47904875 3.125 6.625 C3.29257813 7.44226563 3.46015625 8.25953125 3.6328125 9.1015625 C3.75398438 9.72804687 3.87515625 10.35453125 4 11 C-6.44713675 11.37534623 -16.64511186 10.21312497 -27 9 C-27 8.67 -27 8.34 -27 8 C-13.14 8.495 -13.14 8.495 1 9 C0.67 6.03 0.34 3.06 0 0 Z " fill="#EAD79E" transform="translate(232,128)"/>
<path d="M0 0 C6.69258356 0.57694686 13.06179731 1.83930145 19.61328125 3.3125 C22.49921029 3.89834027 25.25748987 4.27057017 28.1875 4.5 C32.12140727 5.01592226 32.60084384 5.20717426 35 8 C27.73768752 7.32177774 20.69989973 6.05072377 13.5625 4.5625 C12.47517578 4.34529297 11.38785156 4.12808594 10.26757812 3.90429688 C9.23181641 3.68966797 8.19605469 3.47503906 7.12890625 3.25390625 C6.19119385 3.06127197 5.25348145 2.8686377 4.28735352 2.67016602 C2 2 2 2 0 0 Z " fill="#E9D7A6" transform="translate(166,128)"/>
<path d="M0 0 C2 1 2 1 2.60546875 2.70703125 C4.0847809 11.30461769 3.31633511 18.44641355 -1 26 C-1.75796875 27.35738281 -1.75796875 27.35738281 -2.53125 28.7421875 C-6.61404382 35.80702191 -6.61404382 35.80702191 -9 37 C-8.34215037 33.70319035 -7.10579427 31.15882078 -5.4375 28.25 C-4.98246094 27.45078125 -4.52742188 26.6515625 -4.05859375 25.828125 C-3.70925781 25.22484375 -3.35992187 24.6215625 -3 24 C-2.34 24 -1.68 24 -1 24 C-0.855625 23.278125 -0.71125 22.55625 -0.5625 21.8125 C-0.21549954 20.07749768 0.15472151 18.34673141 0.5625 16.625 C1.50331892 10.98008646 0.91633061 5.61252502 0 0 Z " fill="#FEF2C1" transform="translate(434,47)"/>
<path d="M0 0 C1.4606285 2.64738916 2 3.89448334 2 7 C5.09099691 9.97623218 8.77525187 11.21684319 12.75 12.6875 C13.92046875 13.12449219 15.0909375 13.56148438 16.296875 14.01171875 C17.63492188 14.50091797 17.63492188 14.50091797 19 15 C14.17501489 16.82226279 10.61461959 14.62808323 6.12890625 12.6796875 C1.41595452 10.1496385 -2.26906314 6.79688776 -6 3 C-5.34 2.67 -4.68 2.34 -4 2 C-3.01 2.33 -2.02 2.66 -1 3 C-0.67 2.01 -0.34 1.02 0 0 Z " fill="#AD3435" transform="translate(57,496)"/>
<path d="M0 0 C2.29141286 -0.05384521 4.58318188 -0.09272087 6.875 -0.125 C8.78925781 -0.15980469 8.78925781 -0.15980469 10.7421875 -0.1953125 C14 0 14 0 16 2 C17.98821313 2.39764263 19.98944339 2.73775349 22 3 C22 3.66 22 4.32 22 5 C24.64 5 27.28 5 30 5 C29.67 5.99 29.34 6.98 29 8 C27.39583333 7.5625 25.79166667 7.125 24.1875 6.6875 C22.68509766 6.27951172 22.68509766 6.27951172 21.15234375 5.86328125 C19.12124516 5.30705723 17.09237998 4.74257914 15.06640625 4.16796875 C10.04192628 2.75330934 5.19045452 1.57671717 0 1 C0 0.67 0 0.34 0 0 Z " fill="#FBF1C4" transform="translate(142,0)"/>
<path d="M0 0 C1.01320313 0.52400391 1.01320313 0.52400391 2.046875 1.05859375 C2.93890625 1.51363281 3.8309375 1.96867187 4.75 2.4375 C5.63171875 2.88996094 6.5134375 3.34242188 7.421875 3.80859375 C11.86380504 5.86130385 15.87396216 6.22117735 20.75 6.5625 C21.92046875 6.64628906 23.0909375 6.73007812 24.296875 6.81640625 C25.18890625 6.87699219 26.0809375 6.93757813 27 7 C27 7.66 27 8.32 27 9 C24.79194476 9.0544452 22.58349446 9.09299283 20.375 9.125 C19.14523438 9.14820313 17.91546875 9.17140625 16.6484375 9.1953125 C13.05683959 9.0030428 10.33338825 8.30258556 7 7 C7 6.34 7 5.68 7 5 C5.5459375 4.5978125 5.5459375 4.5978125 4.0625 4.1875 C3.051875 3.795625 2.04125 3.40375 1 3 C0.67 2.01 0.34 1.02 0 0 Z " fill="#FBD8D5" transform="translate(15,270)"/>
<path d="M0 0 C6.17658101 0.39216387 13.02349287 0.94547968 18 5 C18.75 8.14453125 18.75 8.14453125 19 11 C18.29875 10.52949219 17.5975 10.05898437 16.875 9.57421875 C11.36679549 5.95945954 6.27810479 3.01373173 0 1 C0 0.67 0 0.34 0 0 Z " fill="#FCE6DD" transform="translate(483,150)"/>
<path d="M0 0 C-1.26839526 0.50615298 -2.53983102 1.00469099 -3.8125 1.5 C-4.87404297 1.91765625 -4.87404297 1.91765625 -5.95703125 2.34375 C-8 3 -8 3 -11 3 C-11.33 3.99 -11.66 4.98 -12 6 C-14.01822917 5.96744792 -16.03645833 5.93489583 -18.0546875 5.90234375 C-20.08185404 5.87350758 -20.08185404 5.87350758 -22 7 C-24.6723621 7.13415472 -27.32250488 7.04318541 -30 7 C-30 6.67 -30 6.34 -30 6 C-28.31583984 5.61908203 -28.31583984 5.61908203 -26.59765625 5.23046875 C-25.08568429 4.88391539 -23.57398232 4.53618274 -22.0625 4.1875 C-20.89521362 3.91836792 -20.89521362 3.91836792 -19.7043457 3.64379883 C-15.61198997 2.68066528 -11.64426623 1.62632408 -7.6875 0.1875 C-4.08488303 -0.97266479 -3.34607787 -1.08581335 0 0 Z " fill="#F3C53C" transform="translate(360,126)"/>
<path d="M0 0 C0.66 1.32 1.32 2.64 2 4 C0.75803878 5.15454162 -0.49392845 6.29832562 -1.75 7.4375 C-2.44609375 8.07558594 -3.1421875 8.71367187 -3.859375 9.37109375 C-5.98792725 10.99081325 -7.39023405 11.58267256 -10 12 C-10 9 -10 9 -8.6875 7.375 C-7 6 -7 6 -4 5 C-4 4.34 -4 3.68 -4 3 C-3.01 3 -2.02 3 -1 3 C-0.67 2.01 -0.34 1.02 0 0 Z " fill="#E55248" transform="translate(501,261)"/>
<path d="M0 0 C0.33 0 0.66 0 1 0 C1.29296875 2.26953125 1.29296875 2.26953125 1 5 C-1.01171875 6.94921875 -1.01171875 6.94921875 -3.6875 8.6875 C-4.99267578 9.55955078 -4.99267578 9.55955078 -6.32421875 10.44921875 C-12.78956327 14.19628704 -12.78956327 14.19628704 -16.3125 13.625 C-16.869375 13.41875 -17.42625 13.2125 -18 13 C-17.34773438 12.69707031 -16.69546875 12.39414062 -16.0234375 12.08203125 C-9.52293918 8.96601067 -4.08679366 6.13019049 0 0 Z " fill="#FDE5E1" transform="translate(504,262)"/>
<path d="M0 0 C0.598125 0.33 1.19625 0.66 1.8125 1 C4.05386471 2.20787988 4.05386471 2.20787988 7 2 C6.608125 3.051875 6.21625 4.10375 5.8125 5.1875 C4.59459513 8.93636301 4.59459513 8.93636301 6.4375 11.8125 C6.953125 12.534375 7.46875 13.25625 8 14 C7.67 14.66 7.34 15.32 7 16 C0 5.23282443 0 5.23282443 0 0 Z " fill="#C8473F" transform="translate(1,248)"/>
<path d="M0 0 C0.66 0 1.32 0 2 0 C2 1.32 2 2.64 2 4 C1.07960938 4.35191406 1.07960938 4.35191406 0.140625 4.7109375 C-2.5630421 6.3390582 -3.09053534 7.72633836 -4.25 10.625 C-4.58515625 11.44226563 -4.9203125 12.25953125 -5.265625 13.1015625 C-5.50796875 13.72804688 -5.7503125 14.35453125 -6 15 C-7.32 15 -8.64 15 -10 15 C-8.59983383 10.95264468 -6.6818763 8.01519578 -4 4.6875 C-3.29875 3.80449219 -2.5975 2.92148438 -1.875 2.01171875 C-1.25625 1.34785156 -0.6375 0.68398437 0 0 Z " fill="#FCF1C8" transform="translate(314,64)"/>
<path d="M0 0 C0 0.99 0 1.98 0 3 C-1.91764871 4.8619372 -3.79903526 6.52245277 -5.875 8.1875 C-6.43058594 8.65091797 -6.98617188 9.11433594 -7.55859375 9.59179688 C-11.72473306 13 -11.72473306 13 -14 13 C-14 13.66 -14 14.32 -14 15 C-15.96466413 16.06775224 -17.96855359 17.06553465 -20 18 C-20.66 17.67 -21.32 17.34 -22 17 C-18.25 14 -18.25 14 -16 14 C-16 13.34 -16 12.68 -16 12 C-14.35060284 10.97176521 -12.67946582 9.97835185 -11 9 C-9.03869741 7.46748421 -7.10152118 5.90367423 -5.1875 4.3125 C-4.21167969 3.50425781 -3.23585938 2.69601563 -2.23046875 1.86328125 C-1.49441406 1.24839844 -0.75835937 0.63351563 0 0 Z " fill="#FEEFBE" transform="translate(438,116)"/>
<path d="M0 0 C1.65 0 3.3 0 5 0 C1.09831319 3.3814619 -3.12031348 5.92978851 -7.55078125 8.5390625 C-10.44120985 10.26317781 -13.22304318 12.09997691 -16 14 C-15.34 12.68 -14.68 11.36 -14 10 C-13.34 10 -12.68 10 -12 10 C-12 9.34 -12 8.68 -12 8 C-11.01 8 -10.02 8 -9 8 C-9 7.01 -9 6.02 -9 5 C-6.03 4.01 -3.06 3.02 0 2 C0 1.34 0 0.68 0 0 Z " fill="#FEF1C4" transform="translate(325,13)"/>
<path d="M0 0 C0.33 0.66 0.66 1.32 1 2 C0.34 2 -0.32 2 -1 2 C-1 2.66 -1 3.32 -1 4 C-2.1446875 4.6496875 -2.1446875 4.6496875 -3.3125 5.3125 C-6.16066346 6.81626768 -6.16066346 6.81626768 -7.5625 9.625 C-9 12 -9 12 -11.125 12.625 C-11.74375 12.74875 -12.3625 12.8725 -13 13 C-13.33 13.99 -13.66 14.98 -14 16 C-14.33 15.34 -14.66 14.68 -15 14 C-10.50891698 8.47035403 -5.87874404 4.03113877 0 0 Z " fill="#C24B44" transform="translate(20,153)"/>
<path d="M0 0 C1.32 0.33 2.64 0.66 4 1 C2.19047409 2.83635578 0.37759362 4.66916208 -1.4375 6.5 C-1.95376953 7.02464844 -2.47003906 7.54929687 -3.00195312 8.08984375 C-4.31576787 9.41224552 -5.65593505 10.70835568 -7 12 C-7.33 12 -7.66 12 -8 12 C-8.3125 9.6875 -8.3125 9.6875 -8 7 C-5.625 5.3125 -5.625 5.3125 -3 4 C-0.94729537 2.15811388 -0.94729537 2.15811388 0 0 Z " fill="#FCF5DC" transform="translate(420,85)"/>
<path d="M0 0 C3.50935186 0 6.56484998 0.37542727 10 1 C6.87567603 3.52349243 3.61939504 5.27256146 0 7 C-0.66 5.68 -1.32 4.36 -2 3 C-1.34 2.01 -0.68 1.02 0 0 Z " fill="#D9A915" transform="translate(82,34)"/>
<path d="M0 0 C0.33 0 0.66 0 1 0 C1.28783441 3.70986572 1.45251957 7.29998705 1 11 C-1.5 13.6875 -1.5 13.6875 -4 15 C-4.66 14.67 -5.32 14.34 -6 14 C-5.73445313 13.49210937 -5.46890625 12.98421875 -5.1953125 12.4609375 C-3.10022511 8.37781098 -1.32380814 4.4126938 0 0 Z " fill="#FCE4E0" transform="translate(511,247)"/>
<path d="M0 0 C0 5.11586876 -2.64943948 8.26651828 -6 12 C-8.625 13.875 -8.625 13.875 -11 15 C-11.66 14.67 -12.32 14.34 -13 14 C-12.48050781 13.49210937 -11.96101563 12.98421875 -11.42578125 12.4609375 C-7.3775629 8.46509906 -3.55349109 4.44186386 0 0 Z " fill="#FDEFC3" transform="translate(452,101)"/>
<path d="M0 0 C0.33 0.66 0.66 1.32 1 2 C1.78375 2.144375 2.5675 2.28875 3.375 2.4375 C6.26386705 3.05654294 7.23647793 3.67957622 9 6 C9 6.66 9 7.32 9 8 C4.0276578 6.50829734 -0.41845739 4.39542583 -5 2 C-5 1.67 -5 1.34 -5 1 C-3.35 0.67 -1.7 0.34 0 0 Z " fill="#D9AD2A" transform="translate(111,138)"/>
<path d="M0 0 C0.66 0.33 1.32 0.66 2 1 C1.67 1.66 1.34 2.32 1 3 C0.01 3 -0.98 3 -2 3 C-2.433125 3.928125 -2.433125 3.928125 -2.875 4.875 C-4.85075985 8.60699083 -7.11277762 9.67265577 -11 11 C-11.99 11 -12.98 11 -14 11 C-12.23055495 9.53998252 -10.45939429 8.08204407 -8.6875 6.625 C-7.70136719 5.81289063 -6.71523438 5.00078125 -5.69921875 4.1640625 C-3 2 -3 2 0 0 Z " fill="#FBEEBD" transform="translate(333,48)"/>
<path d="M0 0 C1.15030647 4.60122586 0.62143257 5.75616992 -1.1875 10 C-1.61417969 11.03125 -2.04085938 12.0625 -2.48046875 13.125 C-4.00299317 16.00566316 -5.5809296 17.84511074 -8 20 C-7.67 17.36 -7.34 14.72 -7 12 C-6.34 12.33 -5.68 12.66 -5 13 C-4.67 11.68 -4.34 10.36 -4 9 C-3.34 9 -2.68 9 -2 9 C-1.34 6.03 -0.68 3.06 0 0 Z " fill="#E35751" transform="translate(511,243)"/>
<path d="M0 0 C0.66 0.66 1.32 1.32 2 2 C1.2116391 3.77230751 0.41918653 5.54279534 -0.375 7.3125 C-0.81585937 8.29863281 -1.25671875 9.28476563 -1.7109375 10.30078125 C-3 13 -3 13 -5 16 C-5.34615998 10.34605369 -4.43425238 6.96993194 -2 2 C-1.34 2 -0.68 2 0 2 C0 1.34 0 0.68 0 0 Z " fill="#FCEAEB" transform="translate(5,163)"/>
<path d="M0 0 C1.875 0.5 1.875 0.5 4 2 C6.14915035 8.01762098 6.23385367 13.65996716 6 20 C5.34 20 4.68 20 4 20 C3.81824219 18.33710937 3.81824219 18.33710937 3.6328125 16.640625 C3.46393704 15.17703766 3.29464428 13.71349843 3.125 12.25 C3.04636719 11.52039062 2.96773438 10.79078125 2.88671875 10.0390625 C2.44863824 6.33222743 2.0013785 3.19547828 0 0 Z " fill="#F1C53B" transform="translate(433,44)"/>
<path d="M0 0 C0.99 0.495 0.99 0.495 2 1 C2.59355614 3.64860427 2.74209269 6.29197322 3 9 C3.66 9 4.32 9 5 9 C5 14.28 5 19.56 5 25 C4.67 25 4.34 25 4 25 C3.95101563 24.21496094 3.90203125 23.42992188 3.8515625 22.62109375 C3.43551826 16.77495489 2.78296451 11.57176408 1 6 C0.63729412 4.00511766 0.29359301 2.0062189 0 0 Z " fill="#FDF2C7" transform="translate(466,38)"/>
<path d="M0 0 C1.89668064 2.84502097 3.23263478 5.57299885 4.625 8.6875 C5.07101563 9.68136719 5.51703125 10.67523438 5.9765625 11.69921875 C6.31429688 12.45847656 6.65203125 13.21773438 7 14 C5.35 13.67 3.7 13.34 2 13 C2 11.68 2 10.36 2 9 C1.34 9 0.68 9 0 9 C0 6.03 0 3.06 0 0 Z " fill="#FCE7E3" transform="translate(0,248)"/>
<path d="M0 0 C0.88336837 2.4667645 1.1312406 3.63859372 0.22265625 6.140625 C-0.16019531 6.83671875 -0.54304688 7.5328125 -0.9375 8.25 C-1.31777344 8.95640625 -1.69804687 9.6628125 -2.08984375 10.390625 C-2.39019531 10.92171875 -2.69054687 11.4528125 -3 12 C-3.66 12 -4.32 12 -5 12 C-5.33 13.65 -5.66 15.3 -6 17 C-6.99 17 -7.98 17 -9 17 C-7.05119657 12.94234648 -4.6958185 9.17046284 -2.33984375 5.33984375 C-0.88020843 2.96895375 -0.88020843 2.96895375 0 0 Z " fill="#FCF0C1" transform="translate(462,84)"/>
<path d="M0 0 C6.8218683 -0.38614349 12.49577707 0.99134292 19 3 C19 3.33 19 3.66 19 4 C17.52093108 4.02689216 16.04172517 4.04634621 14.5625 4.0625 C13.32693359 4.07990234 13.32693359 4.07990234 12.06640625 4.09765625 C10 4 10 4 9 3 C6.9412232 2.72046781 4.88271568 2.55265649 2.8125 2.37890625 C1.9153125 2.19134766 1.9153125 2.19134766 1 2 C0.67 1.34 0.34 0.68 0 0 Z " fill="#D7AB2D" transform="translate(141,1)"/>
<path d="M0 0 C0.33 0.99 0.66 1.98 1 3 C-2.14594657 7.671254 -4.3616163 9.68874798 -10 11 C-6.79239749 7.19364503 -3.59253891 3.45436433 0 0 Z " fill="#F4C83D" transform="translate(424,85)"/>
<path d="M0 0 C0 0.99 0 1.98 0 3 C-0.66 3.66 -1.32 4.32 -2 5 C-2.12375 5.639375 -2.2475 6.27875 -2.375 6.9375 C-3.22533068 9.74359125 -4.47763065 10.59044066 -7 12 C-7.99 11.67 -8.98 11.34 -10 11 C-9.67 10.34 -9.34 9.68 -9 9 C-8.34 9 -7.68 9 -7 9 C-6.6596875 8.1646875 -6.6596875 8.1646875 -6.3125 7.3125 C-4.64103234 4.36753316 -2.44723648 2.31843456 0 0 Z " fill="#F4C533" transform="translate(295,39)"/>
<path d="M0 0 C4.33142291 0.79900034 8.56416268 1.91199334 12.8125 3.0625 C13.50537109 3.24876953 14.19824219 3.43503906 14.91210938 3.62695312 C16.60845641 4.08321198 18.3042818 4.54140954 20 5 C20 5.33 20 5.66 20 6 C5.23050068 4.87074251 5.23050068 4.87074251 1.0625 1.375 C0.711875 0.92125 0.36125 0.4675 0 0 Z " fill="#D5AB2D" transform="translate(146,123)"/>
<path d="M0 0 C-0.57344937 2.86724686 -0.8614515 3.8614515 -3 6 C-3.66 6 -4.32 6 -5 6 C-6.66965451 6.31802943 -8.33678518 6.64984951 -10 7 C-3.18421053 0 -3.18421053 0 0 0 Z " fill="#E8DBBC" transform="translate(90,37)"/>
<path d="M0 0 C1.43931117 0.45261358 2.87638999 0.91232979 4.3125 1.375 C5.11300781 1.63023437 5.91351563 1.88546875 6.73828125 2.1484375 C9 3 9 3 12 5 C8.37 5 4.74 5 1 5 C0.67 3.35 0.34 1.7 0 0 Z " fill="#FCEBE8" transform="translate(60,507)"/>
<path d="M0 0 C-0.51949219 0.38671875 -1.03898437 0.7734375 -1.57421875 1.171875 C-5.4342631 4.05442199 -9.26026958 6.96146903 -13 10 C-12.45285711 6.16999977 -10.89486792 4.49280294 -8 2 C-3.515625 -1.171875 -3.515625 -1.171875 0 0 Z " fill="#FDE0D9" transform="translate(20,154)"/>
<path d="M0 0 C1.32 0.33 2.64 0.66 4 1 C1.69 4.3 -0.62 7.6 -3 11 C-3.33 9.68 -3.66 8.36 -4 7 C-3.34 7 -2.68 7 -2 7 C-1.855625 6.030625 -1.71125 5.06125 -1.5625 4.0625 C-1 1 -1 1 0 0 Z " fill="#F5C22C" transform="translate(301,76)"/>
<path d="M0 0 C0.66 0.33 1.32 0.66 2 1 C1.01 2.485 1.01 2.485 0 4 C-0.63292383 6.11280345 -0.63292383 6.11280345 -1 8 C-2.32 7.34 -3.64 6.68 -5 6 C-5 6.99 -5 7.98 -5 9 C-6.32 9.33 -7.64 9.66 -9 10 C-6.43571997 5.82117329 -3.98069267 2.87494471 0 0 Z " fill="#D7AD2C" transform="translate(64,14)"/>
<path d="M0 0 C0.99 0.33 1.98 0.66 3 1 C-2.14285714 7.57142857 -2.14285714 7.57142857 -6 9 C-5.67 7.35 -5.34 5.7 -5 4 C-4.01 3.67 -3.02 3.34 -2 3 C-1.34 2.01 -0.68 1.02 0 0 Z " fill="#C94445" transform="translate(458,497)"/>
<path d="M0 0 C-4.73699363 3.52237988 -9.35086937 5.34292168 -15 7 C-15 6.34 -15 5.68 -15 5 C-12 3 -12 3 -8 3 C-7.67 2.01 -7.34 1.02 -7 0 C-2.25 -1.125 -2.25 -1.125 0 0 Z " fill="#F2C63C" transform="translate(405,140)"/>
<path d="M0 0 C1 3 1 3 1 5 C2.98 5 4.96 5 7 5 C7 5.99 7 6.98 7 8 C3.55639368 8 2.25204608 7.20408468 -0.6875 5.5 C-1.49574219 5.0359375 -2.30398437 4.571875 -3.13671875 4.09375 C-3.75160156 3.7328125 -4.36648437 3.371875 -5 3 C-2 1 -2 1 0 0 Z " fill="#FAF0CD" transform="translate(189,12)"/>
<path d="M0 0 C0.66 0.33 1.32 0.66 2 1 C1.52433594 2.24136719 1.52433594 2.24136719 1.0390625 3.5078125 C-0.09475973 7.31847819 -0.44161689 10.93226312 -0.625 14.875 C-0.66367187 15.56335937 -0.70234375 16.25171875 -0.7421875 16.9609375 C-0.83548166 18.64023246 -0.91878238 20.32007767 -1 22 C-1.33 22 -1.66 22 -2 22 C-2.25049421 19.45884191 -2.47583433 16.91944416 -2.6875 14.375 C-2.76033203 13.66214844 -2.83316406 12.94929688 -2.90820312 12.21484375 C-3.29192279 7.29420337 -2.65864697 4.33311615 0 0 Z " fill="#FAECB5" transform="translate(44,39)"/>
<path d="M0 0 C0.33 0.99 0.66 1.98 1 3 C0.67 3.66 0.34 4.32 0 5 C-3.37503669 3.8141763 -5.64722731 2.72426311 -8 0 C-4.99727245 -0.96516243 -2.95784231 -1.22393475 0 0 Z " fill="#D8AC20" transform="translate(179,43)"/>
<path d="M0 0 C5.85659906 1.66153012 11.4590134 3.47041916 17 6 C14.17496557 7.12864571 12.98366296 6.99492545 10.01953125 6.07421875 C8.96121094 5.61660156 7.90289062 5.15898437 6.8125 4.6875 C5.74644531 4.23761719 4.68039063 3.78773438 3.58203125 3.32421875 C1 2 1 2 0 0 Z " fill="#B2484A" transform="translate(59,505)"/>
<path d="M0 0 C1.13508688 3.3515741 0.87309359 5.35675676 -0.25 8.6875 C-0.50265625 9.47511719 -0.7553125 10.26273438 -1.015625 11.07421875 C-2 13 -2 13 -5 14 C-3.45730076 9.27934033 -1.92205381 4.58335908 0 0 Z " fill="#FCF0BB" transform="translate(287,106)"/>
<path d="M0 0 C3.96 0 7.92 0 12 0 C12 0.33 12 0.66 12 1 C3.585 2.485 3.585 2.485 -5 4 C-5 3.34 -5 2.68 -5 2 C-3.35 2 -1.7 2 0 2 C0 1.34 0 0.68 0 0 Z " fill="#F3C232" transform="translate(366,31)"/>
<path d="M0 0 C1.4783226 2.95664519 1.06032783 5.74229737 1 9 C-0.98 9.99 -0.98 9.99 -3 11 C-3.33 9.35 -3.66 7.7 -4 6 C-3.34 5.67 -2.68 5.34 -2 5 C-1.27840576 3.35636866 -0.60648579 1.68949614 0 0 Z " fill="#F8C72F" transform="translate(259,91)"/>
<path d="M0 0 C0 0.66 0 1.32 0 2 C-1.390625 3.32421875 -1.390625 3.32421875 -3.25 4.6875 C-3.85328125 5.14511719 -4.4565625 5.60273438 -5.078125 6.07421875 C-7 7 -7 7 -9.234375 6.64453125 C-9.81703125 6.43183594 -10.3996875 6.21914063 -11 6 C-9.54550599 4.9944239 -8.08627557 3.99569565 -6.625 3 C-5.40683594 2.1646875 -5.40683594 2.1646875 -4.1640625 1.3125 C-2 0 -2 0 0 0 Z " fill="#F1C42C" transform="translate(325,17)"/>
<path d="M0 0 C-1 2 -1 2 -4.25 3.125 C-7.37700635 3.85463482 -9.82622905 4.19234975 -13 4 C-9.53474375 0.53474375 -4.80335354 -2.11347556 0 0 Z " fill="#FDECBD" transform="translate(399,145)"/>
<path d="M0 0 C0.99 0 1.98 0 3 0 C3 0.66 3 1.32 3 2 C3.99 2.33 4.98 2.66 6 3 C6 4.98 6 6.96 6 9 C2.91910327 6.22719294 1.31224548 3.93673644 0 0 Z " fill="#D7AA29" transform="translate(206,74)"/>
<path d="M0 0 C-5.04140164 2.81532819 -9.22621075 4.5188509 -15 5 C-13.61147985 2.22295969 -12.03211518 1.96617263 -9.1875 0.8125 C-7.87845703 0.26529297 -7.87845703 0.26529297 -6.54296875 -0.29296875 C-3.85198664 -1.04115271 -2.584628 -0.9458895 0 0 Z " fill="#FDEEB9" transform="translate(360,37)"/>
<path d="M0 0 C0.66 0.33 1.32 0.66 2 1 C-0.64 3.64 -3.28 6.28 -6 9 C-6.66 8.01 -7.32 7.02 -8 6 C-7.34 6 -6.68 6 -6 6 C-6 5.34 -6 4.68 -6 4 C-5.34 4 -4.68 4 -4 4 C-4 3.34 -4 2.68 -4 2 C-2.125 0.9375 -2.125 0.9375 0 0 Z " fill="#FDF5D0" transform="translate(297,35)"/>
<path d="M0 0 C2.29013653 3.4352048 2.17842973 4.985331 2 9 C1.01 9.33 0.02 9.66 -1 10 C-1.66 8.68 -2.32 7.36 -3 6 C-2.34 5.34 -1.68 4.68 -1 4 C-0.3574765 1.93125966 -0.3574765 1.93125966 0 0 Z " fill="#E85049" transform="translate(509,173)"/>
<path d="M0 0 C1.41750563 0.11509661 2.83401169 0.24253658 4.25 0.375 C5.03890625 0.44460937 5.8278125 0.51421875 6.640625 0.5859375 C9.085877 1.01507113 10.84836903 1.78600638 13 3 C12.67 3.66 12.34 4.32 12 5 C10.56068883 4.54738642 9.12361001 4.08767021 7.6875 3.625 C6.88699219 3.36976563 6.08648437 3.11453125 5.26171875 2.8515625 C3 2 3 2 0 0 Z " fill="#FBD1CF" transform="translate(483,150)"/>
<path d="M0 0 C1 2 1 2 0.22265625 4.8203125 C-0.16019531 5.91085938 -0.54304688 7.00140625 -0.9375 8.125 C-1.31777344 9.22070312 -1.69804687 10.31640625 -2.08984375 11.4453125 C-2.39019531 12.28835937 -2.69054687 13.13140625 -3 14 C-3.33 14 -3.66 14 -4 14 C-4.43177893 7.73920552 -3.92739438 4.90924297 0 0 Z " fill="#F4C22E" transform="translate(279,126)"/>
<path d="M0 0 C0.33 1.32 0.66 2.64 1 4 C0.01 4.33 -0.98 4.66 -2 5 C-3.37334617 7.28891028 -4.15250816 9.45752447 -5 12 C-5.66 12 -6.32 12 -7 12 C-5.44298069 7.32894208 -2.91552627 3.91294315 0 0 Z " fill="#F1C73F" transform="translate(278,59)"/>
<path d="M0 0 C2.9375 0.75 2.9375 0.75 6 2 C6.875 4.125 6.875 4.125 7 6 C7.66 6 8.32 6 9 6 C8.67 6.99 8.34 7.98 8 9 C6.66368764 7.6905332 5.33102075 6.37734515 4 5.0625 C3.2575 4.33160156 2.515 3.60070313 1.75 2.84765625 C0 1 0 1 0 0 Z " fill="#D4AE30" transform="translate(192,59)"/>
<path d="M0 0 C3.057952 1.73559438 5.63379989 3.38472619 8 6 C7.67 6.66 7.34 7.32 7 8 C5.35 7.67 3.7 7.34 2 7 C2 5.35 2 3.7 2 2 C1.34 2 0.68 2 0 2 C0 1.34 0 0.68 0 0 Z " fill="#FCF3CC" transform="translate(426,39)"/>
<path d="M0 0 C0.33 1.65 0.66 3.3 1 5 C-2.3 4.01 -5.6 3.02 -9 2 C-9 1.67 -9 1.34 -9 1 C-2.25 0 -2.25 0 0 0 Z " fill="#DAAB2A" transform="translate(161,34)"/>
<path d="M0 0 C2.10353495 -0.0810206 4.20795952 -0.13919907 6.3125 -0.1875 C7.48425781 -0.22230469 8.65601563 -0.25710937 9.86328125 -0.29296875 C13 0 13 0 16 3 C10.72 2.34 5.44 1.68 0 1 C0 0.67 0 0.34 0 0 Z " fill="#F4C741" transform="translate(400,31)"/>
<path d="M0 0 C2.31 1.98 4.62 3.96 7 6 C5.02 6.99 5.02 6.99 3 8 C3 6.68 3 5.36 3 4 C1.35 3.67 -0.3 3.34 -2 3 C-1.34 2.67 -0.68 2.34 0 2 C0 1.34 0 0.68 0 0 Z " fill="#E25149" transform="translate(497,157)"/>
<path d="M0 0 C1.32 0.33 2.64 0.66 4 1 C1.36 2.98 -1.28 4.96 -4 7 C-3.67 5.35 -3.34 3.7 -3 2 C-2.01 2 -1.02 2 0 2 C0 1.34 0 0.68 0 0 Z " fill="#F5C22D" transform="translate(428,121)"/>
<path d="M0 0 C0.66 0 1.32 0 2 0 C0.55049545 3.7910119 -1.15172566 7.3874638 -3 11 C-3.33 11 -3.66 11 -4 11 C-4 9.35 -4 7.7 -4 6 C-3.34 6 -2.68 6 -2 6 C-1.7834375 5.071875 -1.7834375 5.071875 -1.5625 4.125 C-1 2 -1 2 0 0 Z " fill="#F3C22F" transform="translate(295,87)"/>
<path d="M0 0 C3.39417765 3.12621626 5.6062718 5.56541027 7 10 C5.68 9.34 4.36 8.68 3 8 C3 7.34 3 6.68 3 6 C2.34 6 1.68 6 1 6 C0.67 4.02 0.34 2.04 0 0 Z " fill="#E8D9AD" transform="translate(208,79)"/>
<path d="M0 0 C0.625 1.875 0.625 1.875 1 4 C0.34 4.66 -0.32 5.32 -1 6 C-1.70710678 7.64991582 -2.37943989 9.31562256 -3 11 C-3.66 11 -4.32 11 -5 11 C-3.77472971 6.94718288 -2.30119506 3.55639236 0 0 Z " fill="#F1C43A" transform="translate(265,80)"/>
<path d="M0 0 C0.33 2.64 0.66 5.28 1 8 C-3.875 3.25 -3.875 3.25 -5 1 C-3 0 -3 0 0 0 Z " fill="#F9F4D8" transform="translate(460,20)"/>
<path d="M0 0 C-3.31371 2.20914 -4.3446021 2.22481553 -8.1875 2.125 C-9.08855469 2.10695312 -9.98960938 2.08890625 -10.91796875 2.0703125 C-11.60503906 2.04710937 -12.29210937 2.02390625 -13 2 C-8.53448096 -0.31790713 -4.94391187 -1.64797062 0 0 Z " fill="#DAB234" transform="translate(103,1)"/>
<path d="M0 0 C1.79068573 2.6860286 2.66055791 4.6626589 3.625 7.6875 C3.88539062 8.49574219 4.14578125 9.30398437 4.4140625 10.13671875 C4.60742188 10.75160156 4.80078125 11.36648437 5 12 C4.34 12 3.68 12 3 12 C3 11.34 3 10.68 3 10 C2.34 10 1.68 10 1 10 C0.67 6.7 0.34 3.4 0 0 Z " fill="#FAF0C2" transform="translate(46,77)"/>
<path d="M0 0 C-0.5625 2.375 -0.5625 2.375 -2 5 C-5.625 6.3125 -5.625 6.3125 -9 7 C-8.67 6.34 -8.34 5.68 -8 5 C-7.34 5 -6.68 5 -6 5 C-6 4.34 -6 3.68 -6 3 C-2.53846154 0 -2.53846154 0 0 0 Z " fill="#F4C634" transform="translate(310,27)"/>
<path d="M0 0 C0.99 0.33 1.98 0.66 3 1 C1.35 3.64 -0.3 6.28 -2 9 C-2.66 7.68 -3.32 6.36 -4 5 C-2.68 4.67 -1.36 4.34 0 4 C0 2.68 0 1.36 0 0 Z " fill="#F5C22E" transform="translate(455,92)"/>
<path d="M0 0 C1.98 0 3.96 0 6 0 C6 1.65 6 3.3 6 5 C6.66 5 7.32 5 8 5 C7.67 5.66 7.34 6.32 7 7 C5.83040013 6.02433888 4.66438823 5.044375 3.5 4.0625 C2.8503125 3.51722656 2.200625 2.97195312 1.53125 2.41015625 C1.0259375 1.94480469 0.520625 1.47945313 0 1 C0 0.67 0 0.34 0 0 Z " fill="#E5D6A8" transform="translate(92,90)"/>
<path d="M0 0 C3.0916909 2.52956528 3.90931332 5.22454612 5 9 C4.01 8.67 3.02 8.34 2 8 C1.67 7.01 1.34 6.02 1 5 C0.34 4.34 -0.32 3.68 -1 3 C-0.67 2.01 -0.34 1.02 0 0 Z " fill="#D7AE2F" transform="translate(244,76)"/>
<path d="M0 0 C0.66 0 1.32 0 2 0 C2.33 0.99 2.66 1.98 3 3 C1.625 5.6875 1.625 5.6875 0 8 C-0.33 8 -0.66 8 -1 8 C-1.04241723 5.66705225 -1.04092937 3.33297433 -1 1 C-0.67 0.67 -0.34 0.34 0 0 Z " fill="#FCF6E0" transform="translate(270,64)"/>
<path d="M0 0 C1.46067199 0.45082469 2.91848032 0.91093537 4.375 1.375 C5.18710938 1.63023438 5.99921875 1.88546875 6.8359375 2.1484375 C9 3 9 3 11 5 C8.36 4.67 5.72 4.34 3 4 C3 3.34 3 2.68 3 2 C2.01 2 1.02 2 0 2 C0 1.34 0 0.68 0 0 Z " fill="#E9DBB2" transform="translate(160,39)"/>
<path d="M0 0 C-7.28571429 4.57142857 -7.28571429 4.57142857 -12 4 C-8.71298741 1.21868166 -4.24676932 -2.12338466 0 0 Z " fill="#F0C53B" transform="translate(378,119)"/>
<path d="M0 0 C-2.97 2.475 -2.97 2.475 -6 5 C-6 3.35 -6 1.7 -6 0 C-3.50907189 -1.24546405 -2.58919267 -0.7767578 0 0 Z " fill="#F6C228" transform="translate(440,115)"/>
<path d="M0 0 C0.66 1.32 1.32 2.64 2 4 C-0.31 4.33 -2.62 4.66 -5 5 C-3.35 3.35 -1.7 1.7 0 0 Z " fill="#F5C52D" transform="translate(413,96)"/>
<path d="M0 0 C0.33 0 0.66 0 1 0 C1 1.98 1 3.96 1 6 C1.66 6 2.32 6 3 6 C3.33 7.65 3.66 9.3 4 11 C2.35 10.01 0.7 9.02 -1 8 C-0.67 5.36 -0.34 2.72 0 0 Z " fill="#D8A81B" transform="translate(73,58)"/>
<path d="M0 0 C3.53600465 1.91135386 5.78972846 3.62642766 8 7 C7.01 7 6.02 7 5 7 C5 6.34 5 5.68 5 5 C3.68 4.67 2.36 4.34 1 4 C0.67 2.68 0.34 1.36 0 0 Z " fill="#E8DDB7" transform="translate(184,53)"/>
<path d="M0 0 C0.66 0.99 1.32 1.98 2 3 C0.63016497 6.16115776 0.0109362 6.9927092 -3 9 C-2.01 6.03 -1.02 3.06 0 0 Z " fill="#D7AD28" transform="translate(48,33)"/>
<path d="M0 0 C3.26460973 1.80412643 4.88929795 2.83394693 7 6 C6.01 6 5.02 6 4 6 C4 5.34 4 4.68 4 4 C2.35 4 0.7 4 -1 4 C-0.67 2.68 -0.34 1.36 0 0 Z " fill="#D8A926" transform="translate(200,25)"/>
<path d="M0 0 C4.6875 0.78125 4.6875 0.78125 9.375 1.5625 C10.674375 1.7790625 10.674375 1.7790625 12 2 C12 2.33 12 2.66 12 3 C10.37581255 3.08090971 8.75048255 3.13914995 7.125 3.1875 C5.76761719 3.23970703 5.76761719 3.23970703 4.3828125 3.29296875 C3.20332031 3.14794922 3.20332031 3.14794922 2 3 C1.34 2.01 0.68 1.02 0 0 Z " fill="#F4CB45" transform="translate(410,0)"/>
<path d="M0 0 C1.98 1.65 3.96 3.3 6 5 C3 6 3 6 0 5 C0 3.35 0 1.7 0 0 Z " fill="#F9ECC3" transform="translate(68,111)"/>
<path d="M0 0 C0.33 0 0.66 0 1 0 C1.3125 2.6875 1.3125 2.6875 1 6 C-1.5 8.875 -1.5 8.875 -4 11 C-2.7874262 7.27566618 -1.49140021 3.62197194 0 0 Z " fill="#F2C73D" transform="translate(436,64)"/>
<path d="M0 0 C0 3 0 3 -2.375 5.6875 C-5 8 -5 8 -7 8 C-5.61918777 3.8575633 -3.40174442 2.67796901 0 0 Z " fill="#FEE7E6" transform="translate(460,499)"/>
<path d="M0 0 C0.99 0.33 1.98 0.66 3 1 C1.515 4.96 1.515 4.96 0 9 C-0.33 9 -0.66 9 -1 9 C-1.125 2.25 -1.125 2.25 0 0 Z " fill="#FBDEDC" transform="translate(1,170)"/>
<path d="M0 0 C2.50037734 2.17424117 3.43628586 3.73045798 4 7 C3.01 7 2.02 7 1 7 C0.67 4.69 0.34 2.38 0 0 Z " fill="#E7D9AF" transform="translate(218,95)"/>
<path d="M0 0 C-1.65 1.32 -3.3 2.64 -5 4 C-5.33 2.68 -5.66 1.36 -6 0 C-3.50907189 -1.24546405 -2.58919267 -0.7767578 0 0 Z " fill="#FDF4D5" transform="translate(411,98)"/>
<path d="M0 0 C3 3.75 3 3.75 3 6 C2.01 6 1.02 6 0 6 C-0.33 6.66 -0.66 7.32 -1 8 C-1.125 2.25 -1.125 2.25 0 0 Z " fill="#F9C21D" transform="translate(267,76)"/>
<path d="M0 0 C1.32 0.33 2.64 0.66 4 1 C4.33 3.31 4.66 5.62 5 8 C2.74754119 5.31158141 1.11786042 3.35358125 0 0 Z " fill="#FCF0CA" transform="translate(235,60)"/>
</svg>
