<?xml version="1.0" encoding="UTF-8"?>
<svg version="1.1" xmlns="http://www.w3.org/2000/svg" width="512" height="512">
<path d="M0 0 C168.96 0 337.92 0 512 0 C512 168.96 512 337.92 512 512 C343.04 512 174.08 512 0 512 C0 343.04 0 174.08 0 0 Z " fill="#030303" transform="translate(0,0)"/>
<path d="M0 0 C59.73 0 119.46 0 181 0 C181.16121214 51.166941 181.16121214 51.166941 181.1953125 72.578125 C181.21906402 87.37277765 181.2470137 102.1673393 181.30175781 116.96191406 C181.34160544 127.7358478 181.36742807 138.50970784 181.37635398 149.28371322 C181.3815722 154.98938676 181.39385075 160.69484946 181.42292023 166.40045547 C181.45005638 171.77006824 181.45844855 177.13938317 181.45243073 182.509058 C181.45353176 184.48032436 181.46149623 186.4516006 181.4768219 188.42280769 C181.49672158 191.11419808 181.49193929 193.80446376 181.48101807 196.49588013 C181.49266943 197.27604748 181.5043208 198.05621483 181.51632524 198.86002362 C181.4593977 204.04972698 180.37316012 207.05922692 177 211 C173.58790287 213.56450207 170.11484094 213.24654325 165.95123291 213.24050903 C165.24306931 213.24222107 164.5349057 213.24393311 163.80528259 213.24569702 C161.42509901 213.24900717 159.04519692 213.23796093 156.66503906 213.22705078 C154.93242273 213.22643813 153.1998059 213.22670506 151.46718979 213.2277813 C146.82432638 213.2282331 142.18156591 213.21663539 137.53872681 213.20256042 C133.18320387 213.1911766 128.82770605 213.19063451 124.47216797 213.18920898 C111.73143166 213.17871134 98.99071453 213.15078907 86.25 213.125 C57.7875 213.08375 29.325 213.0425 0 213 C0 142.71 0 72.42 0 0 Z " fill="#F6F6F6" transform="translate(267,278)"/>
<path d="M0 0 C59.73 0 119.46 0 181 0 C181 70.29 181 140.58 181 213 C138.368125 213.12375 138.368125 213.12375 94.875 213.25 C85.89780762 213.28641602 76.92061523 213.32283203 67.67138672 213.36035156 C56.71704102 213.37841797 56.71704102 213.37841797 51.59036255 213.3817749 C48.006359 213.3855046 44.42259196 213.40050644 40.83865356 213.42230225 C36.26701097 213.44973655 31.69571234 213.45796516 27.12399507 213.4522891 C25.44625813 213.45347601 23.76850917 213.46140956 22.09084296 213.47686052 C19.82321968 213.49677462 17.55693041 213.49195606 15.28927612 213.48101807 C13.38393003 213.48654882 13.38393003 213.48654882 11.44009209 213.49219131 C6.73897343 212.81957857 3.58806679 211.02427707 0.64003181 207.26647568 C-0.34444661 203.78024834 -0.26712896 200.3279121 -0.24050903 196.73638916 C-0.24221788 195.89584323 -0.24392673 195.05529729 -0.24568737 194.18928027 C-0.24898548 191.36861355 -0.23797324 188.54818393 -0.22705078 185.72753906 C-0.22648674 183.70727036 -0.22680309 181.68700125 -0.22793579 179.66673279 C-0.22851057 174.17743951 -0.21673599 168.68823331 -0.20278788 163.1989603 C-0.19030138 157.46408591 -0.18911166 151.72920962 -0.18673706 145.99432373 C-0.18051617 135.13236048 -0.16409711 124.2704374 -0.14403808 113.40849185 C-0.11752234 98.73225713 -0.10671136 84.05601146 -0.09503365 69.37975883 C-0.07621696 46.25314246 -0.03637531 23.12661085 0 0 Z " fill="#F6F6F6" transform="translate(64,278)"/>
<path d="M0 0 C28.18966702 -0.11282532 56.37915152 -0.20494835 84.56898689 -0.25906086 C97.65772708 -0.28485296 110.74631712 -0.32002302 123.83496094 -0.37719727 C135.24174755 -0.42700106 146.64842544 -0.45928368 158.05531776 -0.47044247 C164.09638353 -0.47696627 170.13713823 -0.49232052 176.1781044 -0.52865028 C181.86293249 -0.56256161 187.54732105 -0.5730626 193.23224068 -0.56553841 C195.31961899 -0.56691511 197.40701184 -0.57687625 199.49430275 -0.59602737 C202.34351418 -0.62088914 205.1910642 -0.61493008 208.04031372 -0.60127258 C208.86717245 -0.61583679 209.69403118 -0.630401 210.54594624 -0.64540654 C214.67317458 -0.59189619 217.23118548 -0.22384678 220.49748039 2.41257954 C224.25024057 6.29265641 224.1341334 8.24051347 224.17700195 13.55761719 C224.18357315 14.23102142 224.19014435 14.90442566 224.19691467 15.59823608 C224.2166553 17.83111684 224.22831318 20.06393024 224.23828125 22.296875 C224.24235678 23.05983131 224.2464323 23.82278763 224.25063133 24.60886383 C224.27149744 28.64874501 224.28579559 32.6885922 224.29516602 36.72851562 C224.306219 40.89599734 224.34060391 45.06294342 224.38033772 49.23023605 C224.40652166 52.43879163 224.4148595 55.64722009 224.41844749 58.85587311 C224.42331056 60.39163064 224.43491669 61.92738261 224.45348549 63.46303558 C224.47791169 65.61738589 224.47690634 67.77035745 224.4699707 69.92480469 C224.47583694 71.14899109 224.48170319 72.37317749 224.48774719 73.63446045 C223.896306 77.71550642 222.61593491 79.83961715 220 83 C216.1895511 85.75156704 211.81690319 85.2721268 207.31878662 85.24050903 C205.99058911 85.24307231 205.99058911 85.24307231 204.63555932 85.24568737 C201.6628822 85.24898661 198.69042984 85.23797136 195.71777344 85.22705078 C193.58913173 85.22648676 191.46048963 85.22680305 189.33184814 85.22793579 C183.54711159 85.22851066 177.76245762 85.21673454 171.97774029 85.20278788 C165.93456628 85.19030296 159.89139048 85.18911179 153.84820557 85.18673706 C142.40187984 85.18051571 130.95559223 85.16409601 119.5092833 85.14403808 C106.47921402 85.12169948 93.44914294 85.11069078 80.41905928 85.10064721 C53.61268018 85.07973036 26.80635333 85.04304593 0 85 C0 56.95 0 28.9 0 0 Z " fill="#F6F6F6" transform="translate(267,171)"/>
<path d="M0 0 C0.88783971 -0.00085442 1.77567942 -0.00170885 2.69042337 -0.00258917 C5.68307054 -0.00424406 8.67566239 0.00127758 11.66830444 0.00672913 C13.80650328 0.00701102 15.94470222 0.00685322 18.082901 0.00628662 C23.90285331 0.00599874 29.72278517 0.01189398 35.54273272 0.01886058 C41.6192874 0.02509565 47.69584251 0.02569804 53.7723999 0.02688599 C65.28606881 0.02999885 76.79972826 0.03821163 88.313393 0.04823548 C101.4183883 0.05939801 114.52338405 0.06490742 127.62838292 0.06993091 C154.59270566 0.08039428 181.55701544 0.0987392 208.52133179 0.12025452 C208.52133179 28.17025452 208.52133179 56.22025452 208.52133179 85.12025452 C180.46205026 85.21051524 152.4028861 85.28421356 124.34349632 85.3275032 C111.31531963 85.34813672 98.28723948 85.37627257 85.25912476 85.42201233 C73.90507621 85.46185573 62.55109758 85.48768158 51.19698107 85.4966085 C45.18390985 85.50182743 39.17103864 85.51411055 33.15803146 85.54317474 C27.49950961 85.57030418 21.84127038 85.5787044 16.18268967 85.57268524 C14.10499537 85.57378657 12.02729172 85.58175499 9.94965363 85.59707642 C7.11377255 85.61696539 4.27895977 85.61219747 1.4430542 85.60127258 C0.62008642 85.61292395 -0.20288137 85.62457531 -1.05078757 85.63657975 C-6.31862728 85.58169186 -9.28028715 84.58254672 -13.47866821 81.12025452 C-15.96872306 77.76683381 -15.74933332 74.4211388 -15.7850647 70.33558655 C-15.79338821 69.66189026 -15.80171173 68.98819397 -15.81028748 68.29408264 C-15.83433764 66.07201825 -15.84315319 63.85024767 -15.84976196 61.62806702 C-15.85873197 60.07873956 -15.86785389 58.52941298 -15.87712097 56.98008728 C-15.89359986 53.73365679 -15.90130908 50.4873293 -15.90420532 47.24085999 C-15.9095887 43.08895541 -15.94727022 38.93802397 -15.99294949 34.78639412 C-16.02275001 31.58639525 -16.02992951 28.38662992 -16.03093147 25.18650436 C-16.03512774 23.65632036 -16.04753837 22.12613528 -16.06844902 20.59608841 C-16.09542935 18.45124288 -16.09052141 16.30864238 -16.07803345 14.16371155 C-16.0831041 12.94555756 -16.08817474 11.72740356 -16.09339905 10.47233582 C-15.27122173 5.98906437 -13.6577761 4.34204996 -10.47866821 1.12025452 C-7.20802847 -0.51506536 -3.59388209 -0.01248454 0 0 Z " fill="#F6F6F6" transform="translate(36.478668212890625,170.87974548339844)"/>
<path d="M0 0 C1.29357422 -0.01160156 2.58714844 -0.02320312 3.91992188 -0.03515625 C31.5593719 0.04796992 55.55903618 11.86555735 75.4375 30.375 C76.12199219 30.98988281 76.80648437 31.60476562 77.51171875 32.23828125 C101.90584586 55.15397641 117.61563934 92.1955652 124.4375 124.375 C124.4375 125.365 124.4375 126.355 124.4375 127.375 C68.97532164 126.51142783 6.56783412 114.14163208 -34.8046875 74.23046875 C-41.89803201 66.88594349 -47.5832946 58.78465042 -51.5625 49.375 C-51.88089844 48.64925781 -52.19929688 47.92351562 -52.52734375 47.17578125 C-55.68918383 39.05990601 -55.92540588 29.68147683 -52.7109375 21.52734375 C-47.86951957 12.45380198 -39.97193062 7.0919065 -30.5625 3.375 C-20.41135052 0.55354125 -10.51795706 -0.09461431 0 0 Z " fill="#F5F5F5" transform="translate(118.5625,21.625)"/>
<path d="M0 0 C6.75350693 6.4218615 9.67086773 12.772497 10.25 22.1015625 C9.995035 34.81794197 3.77479585 46.14110699 -4.25 55.6640625 C-5.24966797 56.90542969 -5.24966797 56.90542969 -6.26953125 58.171875 C-38.75360152 96.62240715 -98.11183898 110.76460378 -145.75 114.9765625 C-153.58906517 115.60549818 -161.38495569 115.93579148 -169.25 115.6640625 C-162.0661675 80.02847232 -146.01028235 47.28569474 -121.25 20.6640625 C-120.63640625 19.98472656 -120.0228125 19.30539063 -119.390625 18.60546875 C-92.30996723 -10.15326397 -33.62578725 -27.32095214 0 0 Z " fill="#F5F5F5" transform="translate(438.25,33.3359375)"/>
<path d="M0 0 C0.33 0 0.66 0 1 0 C1 86.13 1 172.26 1 261 C-21.77 261 -44.54 261 -68 261 C-65 259 -65 259 -61.3125 257.8125 C-53.09947599 254.76281094 -48.52411526 249.11123115 -44.91015625 241.33203125 C-42.9869843 236.40441901 -42.8481887 231.83512475 -42.84178162 226.58453369 C-42.83684364 225.72765355 -42.83190566 224.87077341 -42.82681805 223.9879272 C-42.81144031 221.11207061 -42.80308166 218.23623636 -42.79467773 215.36035156 C-42.78509943 213.30067244 -42.77508938 211.24099528 -42.76467896 209.18132019 C-42.73761868 203.58464068 -42.71661516 197.98795274 -42.69667697 192.39124393 C-42.67482437 186.54424052 -42.64743212 180.69726316 -42.62062073 174.85028076 C-42.57068404 163.77585525 -42.52574881 152.70141528 -42.48259836 141.62696147 C-42.43323435 129.02007805 -42.37831311 116.41322077 -42.32291877 103.80636263 C-42.20908373 77.87093281 -42.10224798 51.93547791 -42 26 C-40.06012207 25.93631226 -40.06012207 25.93631226 -38.08105469 25.87133789 C-36.36130387 25.801539 -34.64157848 25.73111182 -32.921875 25.66015625 C-31.64739502 25.6208197 -31.64739502 25.6208197 -30.34716797 25.58068848 C-20.92079356 25.16481902 -13.71817112 22.17180916 -7 15.3125 C-3.3768184 10.75030312 -1.63760186 5.53326342 0 0 Z " fill="#F5F5F5" transform="translate(511,251)"/>
<path d="M0 0 C0.33 0 0.66 0 1 0 C1.14695313 0.70125 1.29390625 1.4025 1.4453125 2.125 C3.86206631 12.34759083 7.90560311 18.12692676 16.75390625 23.7734375 C22.49486903 26.90850239 27.36417641 27.39418752 33.8125 27.625 C34.69615234 27.66367187 35.57980469 27.70234375 36.49023438 27.7421875 C38.65982972 27.83600784 40.82988547 27.91907326 43 28 C43.00146656 29.06699033 43.00293312 30.13398066 43.00444412 31.23330402 C43.04106667 57.21585268 43.10055249 83.19827271 43.18390274 109.18071461 C43.2236833 121.74572268 43.25608085 134.3106682 43.27099609 146.87573242 C43.28401763 157.82960633 43.31099534 168.78334256 43.35461307 179.73713893 C43.37721633 185.53514037 43.39291134 191.33297209 43.39188385 197.1310215 C43.39113659 202.59347631 43.40911457 208.05555607 43.44116783 213.51791382 C43.44965423 215.51768469 43.45142537 217.51749769 43.44580269 219.51727867 C43.41421483 232.4836648 43.47242766 244.29176342 52.9296875 254.28125 C55.94643129 256.78571655 59.19539031 258.40664849 62.765625 259.9921875 C65 261 65 261 68 263 C45.56 263 23.12 263 0 263 C0 176.21 0 89.42 0 0 Z " fill="#F5F5F5" transform="translate(0,249)"/>
<path d="M0 0 C34.98 0 69.96 0 106 0 C106 57.75 106 115.5 106 175 C104.99136739 172.98273477 103.983419 170.96457392 103.02734375 168.921875 C99.07329608 161.0421241 93.5032945 154.9940852 85.13183594 151.80761719 C75.37352442 148.74847722 65.0777048 149.39453638 54.953125 149.390625 C52.72823901 149.37562418 50.50336408 149.35889308 48.27850342 149.34051514 C42.45893813 149.29704323 36.63952303 149.27688731 30.81982422 149.26177979 C24.8667724 149.24213577 18.91388105 149.20017413 12.9609375 149.16015625 C1.30734141 149.08507263 -10.34621839 149.03464912 -22 149 C-19.84524593 146.84524593 -18.17452128 146.05497 -15.40625 144.8203125 C2.96696295 136.44850711 19.03504654 126.57286477 34 113 C34.66 112.4225 35.32 111.845 36 111.25 C50.66456364 97.67170034 61.58804666 77.00486725 62.44897461 57.05371094 C62.75086511 42.3145209 57.99111232 30.7726782 48.04296875 19.8515625 C37.62781936 9.76490577 23.14974204 4.30128863 9 2.3125 C8.12988281 2.18294922 7.25976562 2.05339844 6.36328125 1.91992188 C4.24333814 1.60542482 2.12181791 1.30158904 0 1 C0 0.67 0 0.34 0 0 Z " fill="#F6F6F6" transform="translate(406,0)"/>
<path d="M0 0 C34.32 0 68.64 0 104 0 C104 0.33 104 0.66 104 1 C103.08057617 1.16435547 103.08057617 1.16435547 102.14257812 1.33203125 C81.48292534 5.13328374 64.31659987 10.45513175 51.125 27.8125 C42.88533062 40.55184699 41.94049258 55.52985989 45 70.1875 C53.93539807 100.13996112 78.51000418 122.24637481 105 137 C112.55338127 140.90261992 120.25580384 144.49406147 128 148 C128 148.33 128 148.66 128 149 C126.13863655 149.00546844 126.13863655 149.00546844 124.2396698 149.01104736 C112.51417327 149.04807584 100.78893746 149.10593443 89.06363964 149.18390274 C83.03631224 149.22332018 77.00912969 149.25553692 70.98168945 149.27099609 C65.15894501 149.28620021 59.33659894 149.32071294 53.51403236 149.36830902 C51.29866319 149.38308403 49.08323712 149.39103877 46.86781883 149.39188385 C31.60823171 149.40355305 19.63801814 149.49140472 8.1015625 160.625 C4.08581947 165.16323748 1.75574127 169.95406986 1 176 C0.67 176 0.34 176 0 176 C0 117.92 0 59.84 0 0 Z " fill="#F6F6F6" transform="translate(0,0)"/>
<path d="M0 0 C83.49 0 166.98 0 253 0 C253 0.33 253 0.66 253 1 C251.79988281 1.13535156 250.59976563 1.27070313 249.36328125 1.41015625 C212.90727914 5.94034519 182.93557542 24.04408106 160.2421875 52.78710938 C145.8943125 71.66095018 134.86774311 93.68045507 127 116 C126.34 116 125.68 116 125 116 C124.79020508 115.45400146 124.58041016 114.90800293 124.36425781 114.34545898 C116.88430911 95.0583351 108.39972993 75.69194414 96 59 C95.61585938 58.47212891 95.23171875 57.94425781 94.8359375 57.40039062 C84.01699208 42.61790074 71.42152819 29.9306668 56 20 C55.01644531 19.35546875 54.03289062 18.7109375 53.01953125 18.046875 C37.17130842 8.20857203 18.38566847 3.12357265 0 1 C0 0.67 0 0.34 0 0 Z " fill="#F5F5F5" transform="translate(130,0)"/>
<path d="M0 0 C7.26 0 14.52 0 22 0 C22 0.33 22 0.66 22 1 C14.74 1.99 7.48 2.98 0 4 C-0.33 3.34 -0.66 2.68 -1 2 C-0.67 1.34 -0.34 0.68 0 0 Z " fill="#E2E2E2" transform="translate(361,0)"/>
<path d="M0 0 C3.12492251 -0.05791844 6.24970766 -0.09356746 9.375 -0.125 C10.26445312 -0.14175781 11.15390625 -0.15851562 12.0703125 -0.17578125 C12.92109375 -0.18222656 13.771875 -0.18867187 14.6484375 -0.1953125 C15.82672119 -0.21102295 15.82672119 -0.21102295 17.02880859 -0.22705078 C19 0 19 0 21 2 C20.34 2.66 19.68 3.32 19 4 C17.02880859 3.95166016 17.02880859 3.95166016 14.6484375 3.5390625 C13.79765625 3.39726563 12.946875 3.25546875 12.0703125 3.109375 C11.18085938 2.94953125 10.29140625 2.7896875 9.375 2.625 C8.4778125 2.47289062 7.580625 2.32078125 6.65625 2.1640625 C4.43557051 1.7860745 2.21722474 1.39767162 0 1 C0 0.67 0 0.34 0 0 Z " fill="#E1E1E1" transform="translate(130,0)"/>
<path d="M0 0 C0.66 0.33 1.32 0.66 2 1 C2 5.29 2 9.58 2 14 C1.34 12.68 0.68 11.36 0 10 C-0.391875 9.360625 -0.78375 8.72125 -1.1875 8.0625 C-2.2525691 5.35886304 -1.81594725 3.74454983 -1 1 C-0.67 0.67 -0.34 0.34 0 0 Z " fill="#EFEFEF" transform="translate(510,161)"/>
</svg>
